<?xml version="1.0" encoding="utf-8"?>
<!-- Generator: Adobe Illustrator 22.0.1, SVG Export Plug-In . SVG Version: 6.00 Build 0)  -->
<svg version="1.1" id="Capa_1" xmlns="http://www.w3.org/2000/svg" xmlns:xlink="http://www.w3.org/1999/xlink" x="0px" y="0px"
	 viewBox="0 0 331.2 68.6" style="enable-background:new 0 0 331.2 68.6;" xml:space="preserve">
<path d="M46.3,37.1h3c-0.7,4.6-2.1,9.2-4.3,13.8c-1.1-0.3-2.6-0.5-4.5-0.5c-0.9,0-2.9,0.2-5.8,0.7c-2.9,0.5-5.3,0.7-7.2,0.7
	c-4.9,0-9.4-1-13.5-3c-4.4-2.1-7.8-5.1-10.4-9.1C1.2,35.9,0,31.8,0,27.3c0-6.9,2.8-12.8,8.4-17.6C14,4.8,20.9,2.4,29.1,2.4
	c3.4,0,6.4,0.4,9.1,1.3c3.5,1.2,5.3,1.8,5.4,1.8c0.6,0,1.1-0.2,1.5-0.7H47L47.7,18h-3c-1.7-5.1-4.5-8.5-8.5-10.4
	c-2-0.9-4.2-1.4-6.6-1.4c-5.4,0-9.8,1.9-13.2,5.6c-3.4,3.8-5.1,8.7-5.1,14.6c0,3.8,0.8,7.4,2.4,10.6c1.7,3.5,4,6.2,7.1,8.1
	c2.9,1.9,6.2,2.9,9.7,2.9c3.6,0,6.8-1,9.6-3C42.8,43.1,44.8,40.5,46.3,37.1z"/>
<path d="M67.3,27.5v15.5c0,2.8,0.5,4.4,1.6,4.9c0.5,0.2,1.3,0.3,2.3,0.3H72v2.4H52.8v-2.4h1.1c2.3,0,3.6-0.7,3.9-2.1
	c0.2-0.7,0.3-1.9,0.3-3.4V9.6c0-1.1-0.1-1.9-0.4-2.3c-0.3-0.4-1-0.8-2-1.1l-2.2-0.8V3.7l12-3.7h1.9v24.7c5.5-3.8,10-5.8,13.6-5.8
	c3.7,0,6.1,2,7.4,6c0.6,2,0.9,4.5,0.9,7.4v10c0,1.9,0.1,3.3,0.4,4c0.5,1.3,1.5,1.9,3.1,1.9h0.7v2.4H75.5v-2.4h0.6
	c1.7,0,2.8-0.5,3.4-1.6c0.3-0.7,0.5-2,0.5-4V31.3c0-4.5-1.7-6.7-5-6.7C72.7,24.6,70.2,25.6,67.3,27.5z"/>
<path d="M128.4,45.1l1.1,1.9c-1.1,1.2-2.4,2.2-3.9,3c-1.8,1-3.3,1.5-4.7,1.5c-3,0-4.7-1.6-5.3-4.7c-1.9,1.8-3.2,2.9-4.2,3.4
	c-1.5,0.9-3.2,1.3-5.1,1.3c-2.6,0-4.7-0.7-6.3-2c-1.7-1.4-2.5-3.4-2.5-6c0-2.5,0.8-4.5,2.3-6c1.2-1.2,3.6-2.3,7.1-3.5
	c3.6-1.1,6.4-2.5,8.5-4.2v-2.8c0-1.4-0.4-2.6-1.3-3.6c-0.9-1-2-1.5-3.4-1.5c-2.7,0-4,1.4-4,4.3c0,0.5,0,1,0.1,1.5l-8.5,2.9
	c-0.2-1-0.3-1.8-0.3-2.6c0-1.8,0.6-3.3,1.9-4.6s3.2-2.4,5.9-3.3c2.5-0.9,4.7-1.3,6.7-1.3c4.1,0,7.6,1.3,10.3,3.9
	c1.4,1.4,2.1,3.2,2.1,5.3v14.3c0,2.3,0.6,3.5,1.7,3.5C126.9,46,127.6,45.7,128.4,45.1z M115.5,44.1V33.3c-0.7,0.6-1.7,1.3-3,1.9
	c-2,1-3.1,1.5-3.2,1.6c-1.8,1-2.7,2.8-2.7,5.3c0,1.4,0.3,2.5,0.9,3.5c0.7,1.2,1.6,1.7,2.9,1.7C111.6,47.3,113.3,46.2,115.5,44.1z"/>
<path d="M170.8,29.5v13.7c0,3.4,1.4,5.1,4.3,5.1v2.4h-17.8v-2.4c1.7,0,2.9-0.5,3.5-1.4c0.5-0.8,0.8-2.1,0.8-3.9V32.1
	c0-4.9-1.5-7.4-4.6-7.4c-2.6,0-6.2,1.6-10.7,4.8v13.9c0,3.2,1.5,4.8,4.5,4.8h0.6v2.4h-19.1v-2.4h0.4c1.7,0,2.9-0.5,3.5-1.4
	c0.5-0.8,0.8-2.1,0.8-3.9V28.2c0-1.4-1.1-2.4-3.3-3.3l-1.7-0.6v-1.8l12.8-4.4h1.4v8.7c7.4-5.3,12.9-7.9,16.4-7.9
	c4.6,0,7.3,2.6,7.9,7.9c4-3.1,8-5.3,11.8-6.8c1.9-0.7,3.7-1.1,5.1-1.1c3.7,0,6.1,1.9,7.1,5.6c0.5,1.9,0.8,4.4,0.8,7.5v11.8
	c0,1.7,0.3,2.8,0.9,3.5c0.6,0.6,1.7,1,3.4,1v2.4h-17.8v-2.4c1.9-0.1,3.2-1.2,3.8-3.2c0.4-1.1,0.6-2.9,0.6-5.4v-6.6
	c0-5.6-1.6-8.4-4.7-8.4C179.1,24.7,175.5,26.3,170.8,29.5z"/>
<path d="M206.8,49.1V11.1c0-1.6-0.1-2.6-0.4-3c-0.3-0.6-1.1-1.1-2.4-1.7l-2-0.9V3.7L213.6,0h2.4v25.3c4.5-4.2,8.7-6.4,12.7-6.4
	c4.7,0,8.2,2.4,10.5,7.3c1.1,2.2,1.6,4.7,1.6,7.3c0,5.2-1.8,9.5-5.5,12.9c-3.6,3.4-8.2,5.2-13.6,5.2C218,51.6,213,50.8,206.8,49.1z
	 M216.1,28.9V38c0,6.9,2.3,10.3,6.8,10.3c3,0,5.2-1.2,6.7-3.6c1.2-2,1.9-4.6,1.9-7.8c0-4.8-1.4-8.3-4.1-10.4c-1.3-1-2.8-1.5-4.6-1.5
	C220.3,24.9,218,26.3,216.1,28.9z"/>
<path d="M275.8,40.5l1.7,1.4c-1.9,2.8-4.3,5-7,6.8c-3,1.9-6.1,2.9-9.2,2.9c-5.7,0-9.7-2.5-12.1-7.5c-1.2-2.4-1.7-5-1.7-8
	c0-6.9,2.6-11.8,7.8-14.9c2.5-1.4,5.3-2.1,8.4-2.1c4,0,7.2,1.2,9.5,3.6c1.7,1.7,2.8,3.8,3.3,6.3c0.2,1.2,0.3,1.9,0.4,2.1
	c0.3,0.8,0.7,1.3,1.3,1.7v2.2h-21c0.3,2.8,1.2,5.2,2.8,7.3c1.8,2.5,4,3.7,6.6,3.7C269.2,45.9,272.3,44.1,275.8,40.5z M257,31.9h10.8
	c-0.1-6.3-1.9-9.4-5.4-9.4c-2.3,0-3.9,1.6-4.9,4.7c-0.3,1.1-0.5,2.2-0.5,3.4C256.9,31,256.9,31.5,257,31.9z"/>
<path d="M303.1,48.3v2.4H282v-2.4h0.5c1.7,0,2.8-0.5,3.5-1.4c0.5-0.8,0.8-2,0.8-3.8V30.6c0-1.6-0.1-2.6-0.4-3.1
	c-0.3-0.8-1.1-1.4-2.4-1.9l-2-0.8v-1.9l12.4-4.7h1.6l0.1,8.5c1-1.9,1.6-3.1,2-3.7c0.9-1.7,1.7-2.7,2.4-3.2c0.7-0.5,1.4-0.8,2.2-0.8
	c0.6,0,1.1,0.1,1.5,0.2l6,2.2c-1,3.3-2.2,6-3.6,8.1c-3.3-1.3-5.3-1.9-6.1-1.9c-1.4,0-2.9,1.1-4.5,3.4v12.3c0,1.9,0.4,3.2,1.1,3.9
	c0.8,0.8,2.1,1.1,3.9,1.1H303.1z"/>
<path d="M330.4,48.3v2.4h-19v-2.4h0.8c1.7,0,2.8-0.5,3.5-1.4c0.5-0.8,0.8-2,0.8-3.8V28.4c0-1-0.2-1.8-0.6-2.2c-0.3-0.3-1-0.7-2-1.1
	l-2.5-0.9v-1.8l13-4.3h1.4v25.4C325.7,46.7,327.3,48.3,330.4,48.3z M313.4,14.5L319,0.2h12.2l-13.4,14.3H313.4z"/>
<path d="M142.7,55.1v7.7c0,0.5,0.1,0.8,0.4,1c0.2,0.2,0.7,0.2,1.3,0.2h0.5v0.7h-7.2V64h0.7c1,0,1.5-0.4,1.5-1.3v-7.7h-2.4
	c-0.5,0-0.8,0-1,0.1c-0.3,0.1-0.6,0.3-0.7,0.6c-0.1,0.3-0.3,0.7-0.4,1.3h-0.8l0.4-3.2h0.6c0.2,0.1,0.3,0.2,0.4,0.2
	c0.1,0,0.3,0,0.6,0h9.5c0.4,0,0.7-0.1,1-0.3h0.6l0.4,3.2h-0.8c-0.1-0.5-0.2-0.9-0.3-1c-0.2-0.4-0.4-0.7-0.7-0.8
	c-0.3-0.1-0.7-0.1-1.2-0.1H142.7z"/>
<path d="M157.6,63.5l0.3,0.4c-0.3,0.3-0.6,0.5-1,0.7c-0.5,0.2-0.9,0.3-1.2,0.3c-0.8,0-1.3-0.3-1.4-1c-0.5,0.4-0.9,0.6-1.1,0.8
	c-0.4,0.2-0.8,0.3-1.4,0.3c-0.7,0-1.2-0.2-1.7-0.5c-0.4-0.3-0.7-0.8-0.7-1.3c0-0.5,0.2-1,0.6-1.3c0.3-0.3,0.9-0.5,1.9-0.8
	s1.7-0.6,2.2-0.9v-0.6c0-0.3-0.1-0.6-0.4-0.8c-0.2-0.2-0.5-0.3-0.9-0.3c-0.7,0-1.1,0.3-1.1,1c0,0.1,0,0.2,0,0.3l-2.2,0.7
	c-0.1-0.2-0.1-0.4-0.1-0.6c0-0.4,0.2-0.7,0.5-1c0.3-0.3,0.9-0.5,1.5-0.7c0.7-0.2,1.2-0.3,1.8-0.3c1.1,0,2,0.3,2.7,0.9
	c0.4,0.3,0.6,0.7,0.6,1.2v3.2c0,0.5,0.1,0.8,0.4,0.8C157.2,63.7,157.4,63.6,157.6,63.5z M154.2,63.2v-2.4c-0.2,0.1-0.4,0.3-0.8,0.4
	c-0.5,0.2-0.8,0.3-0.8,0.4c-0.5,0.2-0.7,0.6-0.7,1.2c0,0.3,0.1,0.6,0.2,0.8c0.2,0.3,0.4,0.4,0.8,0.4
	C153.1,63.9,153.6,63.7,154.2,63.2z"/>
<path d="M162.3,64.7v1.8c0,0.7,0.2,1.2,0.7,1.3c0.3,0.1,0.7,0.2,1.2,0.2v0.5h-5.7V68h0.2c0.7,0,1.1-0.4,1.1-1.1v-7.1
	c0-0.4-0.2-0.7-0.5-0.8l-0.7-0.2v-0.4l3.2-0.9h0.5v1.6c0.6-0.4,0.9-0.6,1-0.7c0.4-0.3,0.8-0.4,1.2-0.6s0.7-0.2,1.1-0.2
	c1.3,0,2.2,0.5,2.8,1.6c0.3,0.5,0.4,1,0.4,1.6c0,1.5-0.7,2.7-2.1,3.5c-0.7,0.4-1.5,0.6-2.5,0.6C163.8,64.9,163.1,64.8,162.3,64.7z
	 M162.3,59.8v3.7c0.6,0.6,1.3,0.8,2.1,0.8c0.7,0,1.2-0.3,1.6-0.8c0.3-0.5,0.5-1,0.5-1.6c0-0.7-0.2-1.3-0.5-1.9c-0.4-0.7-1-1-1.7-1
	C163.7,58.9,163.1,59.2,162.3,59.8z"/>
<path d="M178.7,63.5l0.3,0.4c-0.3,0.3-0.6,0.5-1,0.7c-0.5,0.2-0.9,0.3-1.2,0.3c-0.8,0-1.3-0.3-1.4-1c-0.5,0.4-0.9,0.6-1.1,0.8
	c-0.4,0.2-0.8,0.3-1.4,0.3c-0.7,0-1.2-0.2-1.7-0.5c-0.4-0.3-0.7-0.8-0.7-1.3c0-0.5,0.2-1,0.6-1.3c0.3-0.3,0.9-0.5,1.9-0.8
	s1.7-0.6,2.2-0.9v-0.6c0-0.3-0.1-0.6-0.4-0.8c-0.2-0.2-0.5-0.3-0.9-0.3c-0.7,0-1.1,0.3-1.1,1c0,0.1,0,0.2,0,0.3l-2.2,0.7
	c-0.1-0.2-0.1-0.4-0.1-0.6c0-0.4,0.2-0.7,0.5-1c0.3-0.3,0.9-0.5,1.5-0.7c0.7-0.2,1.2-0.3,1.8-0.3c1.1,0,2,0.3,2.7,0.9
	c0.4,0.3,0.6,0.7,0.6,1.2v3.2c0,0.5,0.1,0.8,0.4,0.8C178.3,63.7,178.5,63.6,178.7,63.5z M175.3,63.2v-2.4c-0.2,0.1-0.4,0.3-0.8,0.4
	c-0.5,0.2-0.8,0.3-0.8,0.4c-0.5,0.2-0.7,0.6-0.7,1.2c0,0.3,0.1,0.6,0.2,0.8c0.2,0.3,0.4,0.4,0.8,0.4
	C174.2,63.9,174.7,63.7,175.3,63.2z"/>
<path d="M180.4,64.9l-0.2-2.1h0.6c0.1,0.4,0.4,0.8,0.8,1c0.4,0.3,0.8,0.4,1.3,0.4c0.3,0,0.5-0.1,0.7-0.2c0.2-0.1,0.3-0.3,0.3-0.6
	c0-0.3-0.2-0.6-0.7-0.9c0,0-0.4-0.2-1.1-0.6c-0.6-0.3-1.1-0.6-1.3-0.9c-0.4-0.4-0.6-0.8-0.6-1.3c0-0.7,0.3-1.2,1-1.6
	c0.6-0.3,1.3-0.5,2.2-0.5c0.8,0,1.5,0.1,2.2,0.4l0,1.8H185c-0.4-1-1-1.4-1.9-1.4c-0.6,0-0.9,0.2-0.9,0.6c0,0.3,0.2,0.6,0.7,0.9
	l1.2,0.6c0.7,0.3,1.2,0.6,1.5,0.9c0.4,0.4,0.6,0.9,0.6,1.4c0,0.9-0.4,1.5-1.3,1.9c-0.4,0.2-0.9,0.3-1.3,0.3c-0.6,0-1.2-0.1-1.7-0.2
	c-0.2,0-0.3-0.1-0.4-0.1c-0.1,0-0.3,0.1-0.4,0.2H180.4z"/>
<path d="M190.6,65.1c0,1-0.6,1.9-1.8,2.7l-0.3-0.3c0.5-0.5,0.8-0.8,0.9-0.9c0.2-0.3,0.4-0.7,0.4-1.1c-0.8,0-1.2-0.3-1.2-0.8
	c0-0.2,0.1-0.4,0.3-0.5c0.2-0.1,0.4-0.2,0.7-0.2c0.3,0,0.6,0.1,0.8,0.3C190.5,64.4,190.6,64.7,190.6,65.1z"/>
<path d="M201.4,58.8v4.1c0,0.6,0.3,0.9,0.9,0.9c0.5,0,1-0.3,1.5-0.8l0.3,0.5c-0.3,0.4-0.7,0.8-1.2,1.1c-0.5,0.3-1.1,0.4-1.7,0.4
	c-1.5,0-2.3-0.7-2.3-2.1v-4h-1.1v-0.4c0.6-0.2,1.2-0.6,1.8-1.1c0.6-0.5,1-1,1.2-1.5h0.6v2.1h2.6l-0.3,0.9H201.4z"/>
<path d="M210.3,64.2v0.5h-5.6v-0.5h0.1c0.4,0,0.8-0.1,0.9-0.3c0.1-0.2,0.2-0.5,0.2-0.9v-2.7c0-0.3,0-0.6-0.1-0.7
	c-0.1-0.2-0.3-0.3-0.6-0.4l-0.5-0.2v-0.4l3.3-1h0.4l0,1.9c0.3-0.4,0.4-0.7,0.5-0.8c0.2-0.4,0.5-0.6,0.6-0.7c0.2-0.1,0.4-0.2,0.6-0.2
	c0.2,0,0.3,0,0.4,0l1.6,0.5c-0.3,0.7-0.6,1.3-1,1.8c-0.9-0.3-1.4-0.4-1.6-0.4c-0.4,0-0.8,0.3-1.2,0.8V63c0,0.4,0.1,0.7,0.3,0.9
	s0.5,0.3,1,0.3H210.3z"/>
<path d="M221.2,63.5l0.3,0.4c-0.3,0.3-0.6,0.5-1,0.7c-0.5,0.2-0.9,0.3-1.2,0.3c-0.8,0-1.3-0.3-1.4-1c-0.5,0.4-0.9,0.6-1.1,0.8
	c-0.4,0.2-0.8,0.3-1.4,0.3c-0.7,0-1.2-0.2-1.7-0.5c-0.4-0.3-0.7-0.8-0.7-1.3c0-0.5,0.2-1,0.6-1.3c0.3-0.3,0.9-0.5,1.9-0.8
	c0.9-0.2,1.7-0.6,2.2-0.9v-0.6c0-0.3-0.1-0.6-0.4-0.8c-0.2-0.2-0.5-0.3-0.9-0.3c-0.7,0-1.1,0.3-1.1,1c0,0.1,0,0.2,0,0.3l-2.2,0.7
	c-0.1-0.2-0.1-0.4-0.1-0.6c0-0.4,0.2-0.7,0.5-1c0.3-0.3,0.9-0.5,1.5-0.7c0.7-0.2,1.2-0.3,1.8-0.3c1.1,0,2,0.3,2.7,0.9
	c0.4,0.3,0.6,0.7,0.6,1.2v3.2c0,0.5,0.1,0.8,0.4,0.8C220.8,63.7,221,63.6,221.2,63.5z M217.8,63.2v-2.4c-0.2,0.1-0.4,0.3-0.8,0.4
	c-0.5,0.2-0.8,0.3-0.8,0.4c-0.5,0.2-0.7,0.6-0.7,1.2c0,0.3,0.1,0.6,0.2,0.8c0.2,0.3,0.4,0.4,0.8,0.4
	C216.8,63.9,217.2,63.7,217.8,63.2z"/>
<path d="M232.7,57.7v1.7l-2-0.4c0.3,0.3,0.4,0.7,0.4,1.1c0,0.8-0.5,1.4-1.5,1.9c-0.8,0.3-1.7,0.5-2.8,0.5c-1.1,0.3-1.7,0.6-1.7,0.8
	c0,0.4,0.8,0.6,2.5,0.6h1.8c0.9,0,1.6,0.2,2.2,0.5c0.6,0.4,0.9,0.8,0.9,1.4c0,1.1-0.9,1.9-2.8,2.5c-0.9,0.2-1.8,0.4-2.9,0.4
	c-1.6,0-2.8-0.3-3.6-0.8c-0.4-0.3-0.5-0.5-0.5-0.9c0-0.4,0.3-0.7,0.8-0.9c0.3-0.1,0.6-0.2,0.7-0.3c0.3-0.1,0.4-0.3,0.5-0.4
	c-1.1-0.3-1.7-0.9-1.7-1.6c0-0.4,0.4-0.7,1.1-1c0.2-0.1,0.8-0.2,1.7-0.5c-1,0-1.7-0.4-2.3-1.1c-0.2-0.3-0.4-0.6-0.4-1
	c0-1,0.7-1.8,2-2.2c0.6-0.2,1.3-0.3,2.1-0.3c1.1,0,2,0.2,2.7,0.7L232.7,57.7z M229,65.6h-1.6c-0.7,0-1.3,0-1.8-0.1
	c-0.5,0.3-0.8,0.6-0.8,0.9c0,0.5,0.5,1,1.5,1.3c0.5,0.1,0.9,0.2,1.5,0.2c1.1,0,2-0.2,2.5-0.7c0.2-0.2,0.4-0.5,0.4-0.7
	C230.7,65.9,230.1,65.6,229,65.6z M225.5,60c0,1.2,0.6,1.9,1.7,1.9c0.9,0,1.4-0.5,1.4-1.5c0-0.9-0.2-1.4-0.7-1.7
	c-0.2-0.2-0.5-0.2-0.9-0.2C226,58.4,225.5,58.9,225.5,60z"/>
<path d="M233.8,61.4c0-1.5,0.8-2.5,2.5-3.2c0.8-0.3,1.6-0.5,2.6-0.5c1.4,0,2.5,0.3,3.4,1s1.3,1.5,1.3,2.5c0,1.5-0.8,2.6-2.5,3.3
	c-0.8,0.3-1.6,0.5-2.6,0.5c-1.9,0-3.3-0.6-4.1-1.7C234,62.6,233.8,62,233.8,61.4z M236.5,60.4c0,0.9,0.2,1.7,0.6,2.4
	c0.5,0.9,1.2,1.4,2.1,1.4c1.2,0,1.8-0.7,1.8-2.1c0-1.1-0.2-2-0.7-2.7s-1.1-1-1.9-1C237.1,58.4,236.5,59,236.5,60.4z"/>
<path d="M245.5,64.9l-0.2-2.1h0.6c0.1,0.4,0.4,0.8,0.8,1c0.4,0.3,0.8,0.4,1.3,0.4c0.3,0,0.5-0.1,0.7-0.2c0.2-0.1,0.3-0.3,0.3-0.6
	c0-0.3-0.2-0.6-0.7-0.9c0,0-0.4-0.2-1.1-0.6c-0.6-0.3-1.1-0.6-1.3-0.9c-0.4-0.4-0.6-0.8-0.6-1.3c0-0.7,0.3-1.2,1-1.6
	c0.6-0.3,1.3-0.5,2.2-0.5c0.8,0,1.5,0.1,2.2,0.4l0,1.8h-0.6c-0.4-1-1-1.4-1.9-1.4c-0.6,0-0.9,0.2-0.9,0.6c0,0.3,0.2,0.6,0.7,0.9
	l1.2,0.6c0.7,0.3,1.2,0.6,1.5,0.9c0.4,0.4,0.6,0.9,0.6,1.4c0,0.9-0.4,1.5-1.3,1.9c-0.4,0.2-0.9,0.3-1.3,0.3c-0.6,0-1.2-0.1-1.7-0.2
	c-0.2,0-0.3-0.1-0.4-0.1c-0.1,0-0.3,0.1-0.4,0.2H245.5z"/>
<path d="M255.7,65.1c0,1-0.6,1.9-1.8,2.7l-0.3-0.3c0.5-0.5,0.8-0.8,0.9-0.9c0.2-0.3,0.4-0.7,0.4-1.1c-0.8,0-1.2-0.3-1.2-0.8
	c0-0.2,0.1-0.4,0.3-0.5c0.2-0.1,0.4-0.2,0.7-0.2c0.3,0,0.6,0.1,0.8,0.3C255.6,64.4,255.7,64.7,255.7,65.1z"/>
<path d="M271.4,63.5l0.3,0.4c-0.3,0.3-0.6,0.5-1,0.7c-0.5,0.2-0.9,0.3-1.2,0.3c-0.8,0-1.3-0.3-1.4-1c-0.5,0.4-0.9,0.6-1.1,0.8
	c-0.4,0.2-0.8,0.3-1.4,0.3c-0.7,0-1.2-0.2-1.7-0.5c-0.4-0.3-0.7-0.8-0.7-1.3c0-0.5,0.2-1,0.6-1.3c0.3-0.3,0.9-0.5,1.9-0.8
	c0.9-0.2,1.7-0.6,2.2-0.9v-0.6c0-0.3-0.1-0.6-0.4-0.8c-0.2-0.2-0.5-0.3-0.9-0.3c-0.7,0-1.1,0.3-1.1,1c0,0.1,0,0.2,0,0.3l-2.2,0.7
	c-0.1-0.2-0.1-0.4-0.1-0.6c0-0.4,0.2-0.7,0.5-1c0.3-0.3,0.9-0.5,1.5-0.7c0.7-0.2,1.2-0.3,1.8-0.3c1.1,0,2,0.3,2.7,0.9
	c0.4,0.3,0.6,0.7,0.6,1.2v3.2c0,0.5,0.1,0.8,0.4,0.8C271,63.7,271.2,63.6,271.4,63.5z M268,63.2v-2.4c-0.2,0.1-0.4,0.3-0.8,0.4
	c-0.5,0.2-0.8,0.3-0.8,0.4c-0.5,0.2-0.7,0.6-0.7,1.2c0,0.3,0.1,0.6,0.2,0.8c0.2,0.3,0.4,0.4,0.8,0.4C267,63.9,267.4,63.7,268,63.2z"
	/>
<path d="M282.7,60v3c0,0.8,0.4,1.1,1.1,1.1v0.5h-4.7v-0.5c0.5,0,0.8-0.1,0.9-0.3c0.1-0.2,0.2-0.5,0.2-0.9v-2.4
	c0-1.1-0.4-1.6-1.2-1.6c-0.7,0-1.6,0.4-2.8,1.1v3.1c0,0.7,0.4,1.1,1.2,1.1h0.2v0.5h-5v-0.5h0.1c0.5,0,0.8-0.1,0.9-0.3
	c0.1-0.2,0.2-0.5,0.2-0.9v-3.3c0-0.3-0.3-0.5-0.9-0.7l-0.4-0.1v-0.4l3.4-1h0.4v1.9c2-1.2,3.4-1.8,4.3-1.8c1.2,0,1.9,0.6,2.1,1.8
	c1.1-0.7,2.1-1.2,3.1-1.5c0.5-0.2,1-0.2,1.3-0.2c1,0,1.6,0.4,1.9,1.2c0.1,0.4,0.2,1,0.2,1.7v2.6c0,0.4,0.1,0.6,0.2,0.8
	s0.5,0.2,0.9,0.2v0.5h-4.7v-0.5c0.5,0,0.8-0.3,1-0.7c0.1-0.2,0.1-0.6,0.1-1.2v-1.5c0-1.2-0.4-1.9-1.2-1.9
	C284.8,58.9,283.9,59.3,282.7,60z"/>
<path d="M296,64.2v0.5h-5v-0.5h0.2c0.4,0,0.7-0.1,0.9-0.3c0.1-0.2,0.2-0.5,0.2-0.9v-3.2c0-0.2,0-0.4-0.1-0.5
	c-0.1-0.1-0.3-0.2-0.5-0.2l-0.7-0.2v-0.4l3.4-1h0.4v5.6C294.8,63.8,295.2,64.2,296,64.2z M293.5,53.6c0.4,0,0.8,0.1,1.1,0.3
	c0.3,0.2,0.5,0.5,0.5,0.8c0,0.3-0.2,0.6-0.5,0.8c-0.3,0.2-0.7,0.3-1.1,0.3c-0.4,0-0.8-0.1-1.1-0.3c-0.3-0.2-0.5-0.5-0.5-0.8
	c0-0.3,0.2-0.6,0.5-0.8C292.7,53.7,293.1,53.6,293.5,53.6z"/>
<path d="M307.3,57.7v1.7l-2-0.4c0.3,0.3,0.4,0.7,0.4,1.1c0,0.8-0.5,1.4-1.5,1.9c-0.8,0.3-1.7,0.5-2.8,0.5c-1.1,0.3-1.7,0.6-1.7,0.8
	c0,0.4,0.8,0.6,2.5,0.6h1.8c0.9,0,1.6,0.2,2.2,0.5c0.6,0.4,0.9,0.8,0.9,1.4c0,1.1-0.9,1.9-2.8,2.5c-0.9,0.2-1.8,0.4-2.9,0.4
	c-1.6,0-2.8-0.3-3.6-0.8c-0.4-0.3-0.5-0.5-0.5-0.9c0-0.4,0.3-0.7,0.8-0.9c0.3-0.1,0.6-0.2,0.7-0.3c0.3-0.1,0.4-0.3,0.5-0.4
	c-1.1-0.3-1.7-0.9-1.7-1.6c0-0.4,0.4-0.7,1.1-1c0.2-0.1,0.8-0.2,1.7-0.5c-1,0-1.7-0.4-2.3-1.1c-0.2-0.3-0.4-0.6-0.4-1
	c0-1,0.7-1.8,2-2.2c0.6-0.2,1.3-0.3,2.1-0.3c1.1,0,2,0.2,2.7,0.7L307.3,57.7z M303.7,65.6H302c-0.7,0-1.3,0-1.8-0.1
	c-0.5,0.3-0.8,0.6-0.8,0.9c0,0.5,0.5,1,1.5,1.3c0.5,0.1,0.9,0.2,1.5,0.2c1.1,0,2-0.2,2.5-0.7c0.2-0.2,0.4-0.5,0.4-0.7
	C305.3,65.9,304.8,65.6,303.7,65.6z M300.2,60c0,1.2,0.6,1.9,1.7,1.9c0.9,0,1.4-0.5,1.4-1.5c0-0.9-0.2-1.4-0.7-1.7
	c-0.2-0.2-0.5-0.2-0.9-0.2C300.7,58.4,300.2,58.9,300.2,60z"/>
<path d="M308.5,61.4c0-1.5,0.8-2.5,2.5-3.2c0.8-0.3,1.6-0.5,2.6-0.5c1.4,0,2.5,0.3,3.4,1s1.3,1.5,1.3,2.5c0,1.5-0.8,2.6-2.5,3.3
	c-0.8,0.3-1.6,0.5-2.6,0.5c-1.9,0-3.3-0.6-4.1-1.7C308.7,62.6,308.5,62,308.5,61.4z M311.1,60.4c0,0.9,0.2,1.7,0.6,2.4
	c0.5,0.9,1.2,1.4,2.1,1.4c1.2,0,1.8-0.7,1.8-2.1c0-1.1-0.2-2-0.7-2.7s-1.1-1-1.9-1C311.7,58.4,311.1,59,311.1,60.4z"/>
<path d="M320.2,64.9l-0.2-2.1h0.6c0.1,0.4,0.4,0.8,0.8,1c0.4,0.3,0.8,0.4,1.3,0.4c0.3,0,0.5-0.1,0.7-0.2c0.2-0.1,0.3-0.3,0.3-0.6
	c0-0.3-0.2-0.6-0.7-0.9c0,0-0.4-0.2-1.1-0.6c-0.6-0.3-1.1-0.6-1.3-0.9c-0.4-0.4-0.6-0.8-0.6-1.3c0-0.7,0.3-1.2,1-1.6
	c0.6-0.3,1.3-0.5,2.2-0.5c0.8,0,1.5,0.1,2.2,0.4l0,1.8h-0.6c-0.4-1-1-1.4-1.9-1.4c-0.6,0-0.9,0.2-0.9,0.6c0,0.3,0.2,0.6,0.7,0.9
	l1.2,0.6c0.7,0.3,1.2,0.6,1.5,0.9c0.4,0.4,0.6,0.9,0.6,1.4c0,0.9-0.4,1.5-1.3,1.9c-0.4,0.2-0.9,0.3-1.3,0.3c-0.6,0-1.2-0.1-1.7-0.2
	c-0.2,0-0.3-0.1-0.4-0.1c-0.1,0-0.3,0.1-0.4,0.2H320.2z"/>
<path d="M330.3,64.6c0,0.2-0.1,0.4-0.2,0.5c-0.2,0.1-0.4,0.2-0.6,0.2c-0.2,0-0.4-0.1-0.6-0.2c-0.2-0.1-0.2-0.3-0.2-0.5
	s0.1-0.4,0.2-0.5c0.2-0.1,0.3-0.2,0.6-0.2c0.3,0,0.5,0.1,0.6,0.2C330.2,64.2,330.3,64.4,330.3,64.6z"/>
</svg>
