<?xml version="1.0" encoding="utf-8"?>
<!-- Generator: Adobe Illustrator 22.0.1, SVG Export Plug-In . SVG Version: 6.00 Build 0)  -->
<svg version="1.1" id="Capa_1" xmlns="http://www.w3.org/2000/svg" xmlns:xlink="http://www.w3.org/1999/xlink" x="0px" y="0px"
	 viewBox="0 0 298.3 273.7" style="enable-background:new 0 0 298.3 273.7;" xml:space="preserve">
<style type="text/css">
	.st0{fill:#040404;}
</style>
<path class="st0" d="M85.4,48.5c0,7.9,2.7,14.9,7.8,20.9c2.7,3.1,5.7,6.1,8.4,9.2c2.8,3.1,4.5,6.7,3.6,11.1
	c-0.5,2.6-1.7,3.6-4.2,2.8c-3.9-1.2-7.2-3.6-10-6.4c-5.9-5.7-11.7-11.7-17.4-17.6C65,59.6,55.3,52.7,43.1,49.7
	c-3.6-0.9-7.3-1.8-11-1.7c-8.7,0.3-16.2,4-22.9,9.5c-3.9,3.2-7.3,6.7-8.8,11.7C-1.2,75.2,1.7,82,7,83.9c3.5,1.2,7.2,1.8,10.8,0.9
	c3.7-0.8,7.3-2.2,11-3.2c6.4-1.7,12.8-3.5,19.6-2.5c7,1.1,13.5,3.1,18.7,8.3c0.2,0.2,0.5,0.3,0.7,0.5c-0.3-1.2-0.8-2.4-1.5-3.2
	c-2.7-3.3-5.4-6.6-8.3-9.7C52,68.5,44.5,64.3,35.8,62.3c-2.6-0.6-5.2-0.4-8.1,0.1c0.5,0.8,0.8,1.4,1.1,2c1.8,2.5,1.5,5.3-0.7,7.4
	c-2,2-4.3,2.7-7.2,2.1c-4.5-0.9-7.1-7-4.1-10.4c4.1-4.7,9.5-7,15.5-7.4c6.3-0.4,12.4,1,18.2,3.8c5.6,2.7,11.4,5.2,16.1,9.4
	c4.5,4,9.1,7.9,13.6,12c6.1,5.6,13.1,9.6,21.2,11.7c1.5,0.4,2.6,0.1,3.6-1c3.1-3.3,3.8-7.2,2.3-11.4c-1.4-3.9-4.1-6.9-6.7-10
	c-4.1-4.8-6.5-10.6-6.8-16.8c-0.2-5.9,1.6-11.6,6.3-15.7c4.3-3.8,8.6-7.6,12.9-11.3c4-3.4,6-7.7,6.3-13c0.3-3.9-0.9-7-3.9-9.5
	c-0.7-0.6-1.3-1.4-2.1-1.8c-1.8-0.9-3.7-1.7-5.6-2.5c-0.1,0.2-0.2,0.3-0.2,0.5c2.7,0.7,4.9,2,6.3,4.4c5,8.8-1.1,17.6-9.4,19
	c-3.8,0.6-6.9-0.8-8.6-3.7c-1.8-3.1-1.6-7.9,0.4-10.6c0.8-1.1,1.7-2.1,2.6-3.2c-0.8,0-1.5,0.2-2,0.6c-3.6,3.2-5.8,7.2-5.1,12.1
	c0.3,2.4,1.8,4.6,2.5,6.9c0.4,1.4,0.9,2.9,0.8,4.3c-0.2,2.3-2.7,3.9-5.2,3.5c-2.3-0.4-4.1-2.6-3.6-4.9c0.3-1.3,1.1-2.6,1.7-4
	c-0.6-0.2-1.3-0.5-2-0.5c-2.8,0-5.6-0.2-8.4,0.2c-7.2,1.1-13.5,4.3-19.6,8.1c-4.7,2.9-9.7,5.3-15.2,6.2c-4.6,0.8-9.3,1.2-13.9,2
	c-5,0.8-9.8,0.2-14.5-1.2c-4.3-1.3-8.6-2.5-13.2-3.8C2.8,37,4,37.8,5.4,38.4c6.3,3.2,13.1,4.7,19.9,5.8c6.8,1.1,13.6,1.9,20.5,1
	c4.9-0.7,9.7-1.9,14.6-3c4.3-1,8.6-2,13.1-1.2c2.2,0.4,4.2,1.1,4.8,3.4c0.7,2.3,0.1,4.3-1.8,5.8c-0.6,0.5-1.2,1-1.9,1.4
	c0.1,0.2,0.3,0.3,0.4,0.5c2-0.4,3.7-1.6,5-3.1c1.8-2.1,3.4-4.4,5.2-6.6c1.3-1.6,2.9-2,4.4-0.6c0.7,0.6,1.3,1.9,1.1,2.5
	c-0.3,1-1.3,2.1-2.3,2.6c-0.5,0.3-1.6-0.3-2.8-0.5C85.6,46.9,85.4,47.7,85.4,48.5z"/>
<path class="st0" d="M195.1,93.2c1-0.2,2-0.4,2.9-0.7c8.8-2.4,15.9-7.4,22.4-13.6c6.4-6.1,12.9-12.1,20.9-16.1
	c8.4-4.2,16.9-8.2,26.8-6.4c5.3,0.9,9.7,3.2,13.2,7c0.7,0.8,1.1,2.2,1.1,3.4c0,2.8-1.1,5.2-3.7,6.3c-2.6,1.1-5.2,1.4-7.8-0.6
	c-3.1-2.4-3.8-6-1.4-8.7c0.4-0.4,0.5-1.1,0.9-2c-2.4,0-4.4-0.2-6.3,0c-4.3,0.4-8.1,2.1-11.9,3.9c-8.2,4-14,10.6-19.6,17.6
	c-1,1.3-1.7,2.8-2.6,4.2c0.1,0.1,0.3,0.2,0.4,0.3c0.4-0.3,0.8-0.7,1.2-1c1.8-1.3,3.4-2.9,5.3-3.9c6.2-3.4,12.9-4.9,19.8-4
	c6.1,0.8,12.2,2.6,18.2,4.4c4.9,1.5,9.8,2,14.8,0.9c2.9-0.7,5.2-2.3,6.6-5c3.1-5.7,2.2-11.5-2.4-16.9c-3.8-4.5-8.6-7.8-13.7-10.7
	c-4.6-2.6-9.8-3.8-14.9-3.7c-4.4,0.1-9,1.3-13.3,2.5c-10.7,3.1-19.4,9.7-27.1,17.6c-5.2,5.3-10.2,10.7-15.5,15.9
	c-4.1,4-8.5,7.9-14.5,8.9C195.1,93,195.1,93.1,195.1,93.2z"/>
<path class="st0" d="M222.5,51.8c-0.6-0.6-1.2-1.2-1.8-1.7c-1.8-1.6-2.3-3.5-1.7-5.7c0.6-2.2,2.4-3,4.5-3.4
	c4.6-0.8,9.1-0.1,13.4,1.2c11.3,3.3,22.7,4.3,34.4,2.1c7.2-1.3,14.4-2.8,21-6.1c1.1-0.6,2.2-1.3,3.3-1.9c-0.3-0.3-0.5-0.2-0.6-0.2
	c-5.8,1.7-11.5,3.7-17.4,4.9c-3.2,0.7-6.6,0.2-10,0.1c-6.3-0.3-12.5-1.4-18.6-3.4c-5-1.6-9.4-4.6-13.9-7.2c-6.8-3.8-14-6.6-22-6.3
	c-1.4,0.1-2.8,0.4-4.5,0.7c0.7,0.9,1,1.3,1.4,1.8c1,1.4,1.2,3.5,0.3,4.9c-1.4,2.2-3.8,2.9-5.9,1.9c-2.2-1.1-3.3-3.5-2.4-5.9
	c0.6-1.6,1.5-3.1,2.2-4.7c2.8-6,0.1-12.3-3.9-15.8c-0.6-0.5-1.3-0.8-2-1.1c-0.1,0.1-0.2,0.2-0.3,0.3c0.7,0.8,1.3,1.6,2,2.4
	c1.3,1.4,2,3.1,2.3,5.1c0.7,6.5-3.9,11.2-10.1,10c-4.1-0.8-7.3-3.1-9.5-6.7c-3.3-5.5-1.1-14.9,6.3-16.6c0.1,0,0.2-0.1,0.3-0.2
	c-4.7,0.7-8.1,3.3-10.6,7.1c-0.5,0.7-0.9,1.7-1,2.5c-0.8,6.2,0.6,11.7,5.4,16c4.7,4.2,9.5,8.2,14.1,12.4c4.5,4.2,6.1,9.7,5.8,15.6
	c-0.3,6.7-3.2,12.5-7.7,17.6c-3.3,3.8-6.4,7.8-6.7,13.2c-1-3.4-1.9-6.8-2.9-10.2c-0.4-1.5-1.1-3-3.1-3.7c0,1.2-0.2,2.2,0,3.1
	c1.5,5.9,3.1,11.7,4.7,17.7c0.2,0,0.7-0.1,1.4-0.1c0-1.6,0-3,0-4.9c0.8,1.6,1.2,2.8,2,3.8c0.7,1,1.7,1.8,2.6,2.8
	c-0.6-1.6-1.4-3-1.7-4.5c-0.7-4,1-7.3,3.6-10.1c2.3-2.6,4.7-5.2,7.2-7.7c4.8-5,7.6-10.9,8.8-17.7c0.4-2.4,0.8-4.8-0.1-7.1
	c-0.7,0.4-1.3,1-1.9,1c-1.4,0.1-2.9-1.5-3.1-3c-0.2-1.3,0.8-2.5,2.2-2.9c1.6-0.5,2.6,0.1,3.6,1.3c1.9,2.5,3.8,5.1,6,7.4
	c1,1.1,2.6,1.7,3.9,2.5C222.3,52.2,222.4,52,222.5,51.8z"/>
<path class="st0" d="M172.2,18.8c-0.9,0-1.8-0.6-2.5-1.2c-3.3-2.9-6.4-5.9-9.6-8.9c-1.5-1.4-2.9-2.9-4.5-4.2
	c-1.6-1.4-2.7-1.4-4.5-0.3c-1.2,0.7-2.4,1.5-3.9,2.4c0.5-1.4,0.8-2.2,1.2-3.2c-1.2-0.2-2.3-0.5-3.4-0.6C143.8,2.6,143,3,142.1,4
	c-2.4,2.9-5,5.8-7.6,8.6c-2.4,2.5-5.3,4.4-9.5,4.4c0.8,0.9,1.2,1.7,1.8,1.9c1.5,0.4,3,0.6,4.5,0.8c2.5,0.2,4.4-1,5.9-3
	c0.8-1.2,1.5-2.5,2.5-3.6c1-1.2,2.2-2.3,3.3-3.4c0.2,0.1,0.3,0.3,0.5,0.4c-1.2,1.7-2.4,3.4-3.7,5c-2.1,2.7-3.3,5.8-3.4,9.2
	c0,0.4-0.4,0.8-0.6,1.2c-0.3-0.4-0.6-0.8-0.9-1.2c-0.1-0.1-0.2-0.1-0.3-0.3c-0.4,0.1-0.8,0.1-1.3,0.2c0.4,2.7,1.7,3.4,4,2.1
	c2.3-1.3,4-3.2,5.1-5.6c0.2-0.4,0.6-0.7,1-0.9c0.2-0.1,0.6,0.4,0.8,0.8c1,1.7,2.3,3,4.2,3.9c0-0.7,0-1.6-0.5-1.9
	c-1.6-1.1-2.1-2-1.3-3.8c0.9-1.8,1.8-3.7,2.7-5.5c3.4,0.3,4.4,6,3.5,11.7c-0.6,0.1-1.1,0.1-1.8,0.2c0.7,1.6,2,1.1,2.8,0.9
	c2.1-0.4,1.8-2.5,2.4-4.4c1.1,1.1,2.1,2.1,3,3c1.2,1.2,2.3,2.5,3.6,3.4c0.6,0.4,1.8,0.4,2.5,0.1c0.6-0.3,0.7-1.3,1.2-2.3
	c-0.9,0.1-1.4,0.2-1.7,0.1c-0.5-0.1-1.2-0.3-1.3-0.7c-2-5.3-4.8-10.2-8-14.9c-0.3-0.4-0.5-1-1-1.8c2.8,1.4,4.4,3.3,5.3,5.6
	c0.6,1.6,1.2,3.1,1.7,4.7c0.3,0.8,0.8,1.1,1.7,1.1c1.6,0.1,3.2,0.4,4.8,0.5c1.9,0.2,3.8,0.3,5.7,0.5c0.4-1.2,0.7-2.2,1.1-3.5
	C173.8,18,173,18.8,172.2,18.8z"/>
<path class="st0" d="M168.3,43.6c0.8,0.7,1.4,1.2,2.1,1.8c-0.6,0.1-1,0.2-1.4,0.3c0.8,1.3,2.3,1.4,3.2,0c1.4-2.1,1.9-4.4,1.4-6.9
	c-0.3-1.3-1.2-2-2.5-2.2c-1.5-0.2-2,0.4-1.9,1.9c0.8,0,1.6-0.1,2.4-0.1c0.7,1.8,1.1,3.4-0.3,5.5c-1.1-1.7-2.3-3.2-3.1-4.9
	c-0.3-0.7,0.1-1.8,0.1-2.6c0.1-1.1,0.6-2.5,0.1-3.3c-0.4-0.7-2-0.7-3-1c-0.5-0.1-0.9-0.3-1.4-0.4c-3.1-0.7-6.2-1.4-9.3-2
	c-0.4-0.1-1.1,0.2-1.3,0.5c-0.9,1.9-1.6,3.8-2.4,5.6c0.9-0.1,2.1-0.5,2.5-0.1c3.6,2.8,7.3,3.3,11.4,1.2c0.5-0.3,1.1-0.4,1.8-0.7
	c-0.2,2.3-4,4.7-5.8,3.9c-0.2-0.1-0.4-0.2-0.5-0.4c-1.2-1-2.5-1.3-3.5,0c-2-0.7-3.9-1.3-6-2.1c0.3,3.2,0.6,6.1,1,9
	c0.1,1,0.2,2,0.5,3c0.1,0.4,0.7,0.7,1.1,1c0.1-0.1,0.3-0.3,0.4-0.4c-0.4-0.8-0.8-1.5-1.3-2.3c2.8-0.3,3.3,0.5,2.3,3.3
	c2,1.8,4.1,3.7,6.3,5.7C165.6,53.7,166.6,48.5,168.3,43.6z"/>
<path class="st0" d="M142.2,253.2c0-3.6-0.1-7,0-10.5c0.1-2.8,1-3.6,3.9-4.1c0.4-0.1,0.8-0.5,1.2-0.7c-0.5-0.1-0.9-0.4-1.4-0.4
	c-4.4,0-8.7,0-13.1,0c-0.5,0-0.9,0.3-1.4,0.4c0.4,0.2,0.8,0.6,1.2,0.7c3.2,0.5,3.7,1.1,3.7,4.3c0,8,0,16,0,24c0,3.6-0.4,4.1-3.9,4.7
	c-0.4,0.1-0.7,0.4-1,0.7c0.4,0.2,0.8,0.6,1.2,0.6c4.6,0,9.2,0,13.7,0c0.3,0,0.5,0,0.8-0.1c0.3-1.5-0.8-1.2-1.5-1.3
	c-2.4-0.4-3.1-1-3.3-3.4c-0.2-2.6-0.2-5.3-0.2-7.9c0-1.4,0-2.9,0-4.3c8,0,15.7,0,23.6,0c0,3.7,0,7.3,0,10.9c0,3.6-0.6,4.2-4.2,4.8
	c-0.4,0.1-0.7,0.5-1,0.7c0.4,0.2,0.7,0.6,1.1,0.6c4.5,0,9,0,13.6,0c0.3,0,0.7-0.3,1-0.5c-0.3-0.3-0.6-0.7-0.9-0.8
	c-3.4-0.7-4-1.3-4-4.8c0-7.1,0-14.2,0-21.4c0-1,0-2.1,0.2-3.1c0.3-2.5,1.2-3.2,3.6-3.7c0.4-0.1,0.8-0.5,1.2-0.7
	c-0.5-0.1-0.9-0.4-1.4-0.4c-3.3,0-6.6,0.1-9.9,0.2c-1.1,0-2.2-0.2-3.2-0.2c-0.4,0-0.8,0.3-1.2,0.4c0.3,0.2,0.7,0.5,1,0.7
	c0.5,0.2,1.1,0.2,1.6,0.2c1.5,0.1,2.4,1,2.4,2.4c0.1,4,0,8,0,12C157.8,253.2,150,253.2,142.2,253.2z"/>
<path class="st0" d="M224.4,251.4c0.4,0.2,0.9,0.4,1.3,0.5c2.4,0.3,3.2,1.2,3.3,3.6c0,2.5,0.1,5.1,0,7.6c-0.1,2.6-0.9,5.1-2.8,7
	c-2.2,2.3-5.7,2.4-7.7,0c-1.2-1.5-2.3-3.5-2.7-5.4c-0.5-3-0.4-6.1-0.4-9.2c0-2.5,0.9-3.3,3.4-3.6c0.5-0.1,0.9-0.3,1.4-0.4
	c0-0.1-0.1-0.2-0.1-0.4c-4.8,0-9.7,0-15,0c0.5,0.4,0.8,0.7,1.1,0.8c3.6,0.9,4,1.4,4,5.2c0,2.4,0,4.8,0.1,7.1
	c0.2,4.5,2.6,7.7,6.7,8.8c3.2,0.9,6.5,0.9,9.8,0.2c4.6-1,7-3.7,7.5-8.3c0.3-2.8,0.1-5.7,0.2-8.6c0.1-2.8,0.7-4.2,3.7-4.4
	c0.3,0,0.6-0.3,1.3-0.7c-5.3,0-10.1,0-14.9,0C224.4,251.2,224.4,251.3,224.4,251.4z"/>
<path class="st0" d="M84,259.9c-3.3,2.3-6.7,0.7-10.1,1.3c0.2-3.5,1.5-6.2,4.4-7.6c5.1-2.5,9.9-2.5,13.5,3.3c0-1,0-1.5,0-2.1
	c-0.3-2.7-0.3-2.7-3-3.4c-4.8-1.3-9.5-1.3-14,1.2c-3.7,2.1-5.8,5.2-5.7,9.6c0.1,4.5,2.4,7.5,6.2,9.5c5.1,2.7,10.3,2.1,15.5,0.3
	c0.3-0.1,0.6-0.4,0.6-0.6c0.2-1.3,0.3-2.6,0.4-3.9c-0.2-0.1-0.3-0.2-0.5-0.2c-1,2.3-2.6,3.9-5.1,4.3c-2.4,0.4-4.7,0.4-7-0.5
	c-3.2-1.3-5.3-4.5-5.2-8.2c2,0,4,0,5.9,0c1.4,0,2.8-0.2,3.7,1.5c0.8-0.9,1.4-1.6,2.2-2.4C85.2,261.3,84.6,260.6,84,259.9z"/>
<path class="st0" d="M281.8,254.4c-0.2-0.8-0.4-2-0.9-2.1c-5-1.8-10.1-2.3-15.1,0.2c-3.9,2-6.3,5-6.4,9.5c0,4.6,2.4,7.7,6.3,9.7
	c5,2.6,10,2,15.1,0.3c0.3-0.1,0.7-0.4,0.8-0.7c0.2-1.1,0.3-2.3,0.4-3.7c-3.3,4.4-8,5.8-12.4,3.8c-3.5-1.6-5.7-5.2-5-8.5
	c2.1,0,4.2-0.1,6.3,0c1.1,0.1,2.2,0.5,3.4,0.7c0,0.2,0,0.3,0,0.5c0.6-0.7,1.2-1.3,1.9-2.1c-0.7-0.7-1.3-1.4-1.8-2
	c-3.3,2.3-6.7,0.8-10,1.1c-0.1-3.9,2.5-7.7,6.2-8.6c4.2-1.1,8.9-1,11.6,3.6C281.9,255.6,281.9,255,281.8,254.4z"/>
<path class="st0" d="M241.4,267.7c0.1,0.9,0.2,1.8,0.1,2.7c-0.1,1.3,0.5,2,1.7,2.4c3.5,1.1,6.9,1.2,10.2-0.4c2.2-1,3.4-2.7,3.3-5.2
	c-0.1-2.6-1.5-4.2-3.8-5.1c-1.2-0.5-2.4-0.9-3.6-1.4c-1.1-0.5-2.3-1-3.3-1.7c-1.6-1.2-2-3.6-1.1-5.3c0.7-1.4,2.3-1.9,4.4-1.4
	c2.1,0.5,3.7,1.7,4.9,3.4c0.2,0.3,0.5,0.6,0.7,0.9c0.2-0.8,0-1.6,0.1-2.3c0.2-2-1-2.6-2.6-3.1c-2.6-0.7-5.1-0.7-7.6,0.2
	c-3.1,1.1-4.5,3.5-4,6.7c0.4,2.5,1.7,4.4,4.2,5.3c2.1,0.8,4.2,1.5,6.2,2.4c1.6,0.8,2.2,2.1,1.8,3.8c-0.4,1.6-1.4,2.5-3.3,2.6
	c-3,0.1-5.3-1.2-7.1-3.5c-0.3-0.4-0.6-0.8-0.9-1.2C241.7,267.5,241.6,267.6,241.4,267.7z"/>
<path class="st0" d="M107.7,271.9c-0.6-0.2-1.3-0.4-1.9-0.4c-2.1-0.3-2.9-1-2.9-3.1c0-2.9-0.2-5.7,0-8.6c0.3-3.5,0.7-7.1,5-8.3
	c0.2,0,0.4-0.4,0.4-0.6c0-0.2-0.3-0.4-0.5-0.4c-0.3-0.1-0.7,0-1,0.1c-2,0.7-3.9,1.4-5.8,2.1c0-0.4-0.1-1-0.1-1.7
	c-2.3-0.2-4.6-0.3-6.8-0.5c-0.3,0-0.5,0.3-0.8,0.5c0.3,0.2,0.5,0.4,0.8,0.5c0.4,0.1,0.8,0,1.1,0.1c2,0.2,2.8,1,2.8,3
	c0,4.3,0.1,8.5,0,12.8c0,2.9-0.7,3.6-3.6,4.2c-0.4,0.1-0.8,0.4-1.3,0.6c0.1,0.1,0.1,0.3,0.2,0.4c4.7,0,9.5,0,14.2,0
	C107.6,272.3,107.7,272.1,107.7,271.9z"/>
<path class="st0" d="M172,80.2c0-1.5,0.1-3-0.2-4.5c-0.7-3.1-2.2-6.1-2.3-9.2c-0.3-5-0.8-10.1,0.3-15.1c0.2-0.9,0-1.8,0-2.7
	c-0.1-0.1-0.3-0.2-0.4-0.3c-0.3,0.4-0.7,0.7-0.8,1.1c-0.2,0.8-0.3,1.7-0.5,2.5c-1,3.7-2.2,7.4-2.9,11.2c-0.4,2-0.3,4.4,0.5,6.3
	c1.5,3.9,3.6,7.7,5.6,11.7C171.6,80.8,172,80.5,172,80.2z"/>
<path class="st0" d="M179.1,45.2c-0.7,2.2-1.4,4.3-2,6.5c-0.2,0.7,0,1.7,0.3,2.3c2.7,4,2.6,8.4,2,12.9c-0.2,1.6,0,3.2,0,4.8
	c0.1,0.1,0.2,0.2,0.4,0.3c0.8-0.7,1.8-1.3,2.2-2.2c0.7-1.6,1.1-3.4,1.2-5.1c0.4-6.2-0.2-12.2-2.6-18c-0.2-0.6-0.7-1-1.1-1.6
	C179.4,45.1,179.3,45.1,179.1,45.2z"/>
<path class="st0" d="M134.7,64.5c-0.3-0.6-0.8-1.2-1-1.8c-1.3-4.3-3-8.5-3.3-13.1c0-0.6-0.4-1.2-0.6-1.8c-0.2,0.1-0.5,0.1-0.7,0.2
	c0.3,3.7,0.8,7.3,1,11c0.2,2.7,0.4,5.5-0.1,8.2c-0.5,3-1.6,6-2.5,9c-0.3,1.1-0.4,2.1,0.9,3.1c1.8-2.5,3.4-5,5.1-7.4
	c1.4-2,2.7-4.1,1.2-6.7C134.5,65,134.6,64.7,134.7,64.5L134.7,64.5z"/>
<path class="st0" d="M121.4,68.8c-0.3-1.2-0.8-2.3-1.2-3.5c-0.6-1.8-0.6-3.6,0.1-5.5c0.8-2.2,2.1-4.4,1.6-7c-0.4-2.2-1-4.5-1.6-7.1
	c-3.2,3.5-3.5,7.7-4.1,11.7c-0.9,5.4,1.9,9.8,3.8,14.8C121.7,71.2,121.7,70,121.4,68.8z"/>
<path class="st0" d="M178.7,63.5c-1.8-3.8-4.1-7.4-6.3-11.1c-0.3-0.4-0.8-0.7-1.2-1.1c-0.1,0.1-0.3,0.1-0.4,0.2
	c0,3.6,0.1,7.2,0,10.8c-0.1,1.8,0.4,2.8,2.2,3.4c1.7,0.6,3.3,1.5,5.2,2.4C178.5,66.4,179.3,64.6,178.7,63.5z"/>
<path class="st0" d="M162.4,64.9c-0.2-3.5-1.8-6.5-4-9.2c-1-1.3-2.6-2.3-4.1-3c-1.4-0.7-3.8-0.5-4.5,0.9c-0.7,1.5-0.8,2.2,1.1,3.9
	c2.3,2,4.7,3.7,7.2,5.5c1.3,0.9,2.7,1.7,4.1,2.6C162.3,65.2,162.4,65.1,162.4,64.9z"/>
<path class="st0" d="M169,30.1c0,0.2,0,0.3,0.1,0.5c0.9,1.9,0.1,5,3.5,5.2c0,0,0.1,0.1,0.1,0.1c1.2,0.5,1.4,1.6,1.7,2.7
	c0.5,1.9,1.9,2.7,3.7,3.1c1.7,0.4,2.4-0.8,3.2-1.8c0.2-0.3,0.1-0.8,0.2-1.1c-0.1-0.1-0.2-0.1-0.4-0.2c-1,1.5-2,0.9-2.9,0.2
	c-2.3-1.7-3.4-4.3-4.5-6.8c-1.1-2.5-2.2-5-3.5-7.4c-0.4-0.8-1.5-1.2-2.3-1.8c-0.2,0.1-0.3,0.3-0.5,0.4c0.2,0.7,0.4,1.4,0.5,2.1
	c0.1,1,0.3,2,0.1,3c-0.1,0.3-1.2,0.4-1.8,0.6c-0.4,0.2-0.7,0.4-1.3,0.7c1.2,0.6,2.2,1.1,3.2,1.7c0.2-0.5,0.3-0.8,0.4-1.2
	C168.8,30.1,168.9,30.1,169,30.1z"/>
<path class="st0" d="M137.6,65.8c0.4-0.3,0.9-0.6,1.3-0.9c1.1-1,2-2.1,3.1-3c1.7-1.5,3.6-2.8,5.3-4.2c1.4-1.2,1.5-3,0.5-4.3
	c-1.1-1.4-2.6-1.7-4.3-0.7c-4.5,2.6-5.4,7.2-6.4,11.8C137.3,64.9,137.5,65.3,137.6,65.8z"/>
<path class="st0" d="M145.4,30.7c1.8,2.7,2.3,5.7,2.1,8.9c-0.2,3.1-0.5,6.3-0.8,9.4c-0.1,1.3,0.8,2.6,1.9,2.7c1.5,0.1,2-0.9,2-2.2
	c-0.1-2.1,0-4.2-0.5-6.2c-1-4.1-1.2-8,1-11.8c0.3-0.6,0.4-1.3,0.7-2c-2.4,0-4.5,0-6.9,0C145.2,30.1,145.2,30.4,145.4,30.7z"/>
<path class="st0" d="M112.1,89.2c0.6-1.5,1-3.1,1.2-4.7c0.7-4,1.9-7.8,3.9-11.3c1.3-2.3,1.4-2.5-0.6-4.8c-2.1,5-5.8,9.2-6.5,14.7
	c-0.3,2.6-0.9,5.1-1.4,7.9C110.4,90.8,111.6,90.5,112.1,89.2z"/>
<path class="st0" d="M126.7,49.4c-2.5,5.4-6.2,10.4-4.7,17.2c2.1-1.7,4-3.2,5.9-4.8c0.5-0.4,0.9-1.2,0.8-1.8
	c-0.1-1.9-0.3-3.8-0.6-5.7c-0.2-1.6-0.6-3.2-0.9-4.8C127,49.4,126.9,49.4,126.7,49.4z"/>
<path class="st0" d="M154.9,72.8c0.1-3.2,0.1-6.5,0-9.7c0-0.4-0.1-0.9-0.4-1.1c-1.2-0.7-2.4-1.4-3.6-2.1c-0.1,0.3-0.3,0.5-0.3,0.7
	c-0.1,3-0.4,6-0.2,9c0.1,2.3,1.1,4.4,3.6,5.8C154.4,74.5,154.9,73.6,154.9,72.8z"/>
<path class="st0" d="M150.4,27.5c-2.2-2.5-4.9-3.8-7.8-5c-2.2,4.7-6.2,5.5-10.7,4.9c0,0.8,0,1.3,0,2.1
	C138.1,28.8,144.1,28.2,150.4,27.5z"/>
<path class="st0" d="M153.3,86.7c0.7-2.6,1.7-5.1,2.8-7.5c0.8-1.9,2-3.6,3-5.4c0.3-0.6,0.6-1.4,0.5-2c-0.1-0.6-0.8-1.1-1.2-1.7
	c-0.4,0.4-1,0.7-1.2,1.2c-1.6,3.7-3,7.5-4.5,11.2c-1.2,2.9-0.8,5.8-0.3,8.7c0.1,0.3,0.4,0.8,0.7,0.9c1.9,0.7,2.9-0.1,3.1-2.3
	C153.5,90.1,152.6,89.1,153.3,86.7z"/>
<path class="st0" d="M176.8,71c-0.6-0.9-1.2-1.8-1.8-2.6c-0.9-1.2-2-1.9-3.5-1.7c-0.4,5.2,3.2,9.5,8.1,9.6c2.4,0.1,2.5,0,2.1-2.7
	C179.6,73.4,178,72.6,176.8,71z"/>
<path class="st0" d="M128.5,23.2c-0.7,2.4-1.4,4.7-2.1,7.1c-0.5,1.6-0.9,3.3-1.4,5.2c0.8-0.2,1.3-0.4,1.8-0.5
	c1.9-0.4,2.9-1.5,3.2-3.5c0.5-3,1.2-5.9,1.8-8.9c0.1-0.4,0.1-0.8,0.1-1.2C129.6,21,129.1,21.2,128.5,23.2z"/>
<path class="st0" d="M142,69.5c0.3-0.3,0.7-0.6,0.8-1c0.2-1.2,0.5-2.3,0.4-3.5c-0.1-0.9-0.9-1.3-1.7-0.7c-1.1,0.9-2.2,1.7-3,2.9
	c-2,2.8-2.3,6-2.1,9.4c0.1,1.3,0.5,1.9,2.1,1.6C137.9,74.6,139.8,72,142,69.5z"/>
<path class="st0" d="M144,64.2c0,0.2,0,0.3,0,0.5c0.6,2.5,1.1,5,1.8,7.5c0.2,0.8,1.3,1.3,2.1,2.1c1.2-4.4,0.5-11.2-1.2-13.7
	C143.8,61.2,143.7,61.4,144,64.2z"/>
<path class="st0" d="M157.2,67.3c1.8,0.8,3,2.5,3.6,4.4c0.6,2.1,1,4.4,1.6,7c0.5-0.3,1.3-0.6,1.4-1c1.3-4.9-0.6-9.9-4.7-12.8
	c-1-0.7-2.1-1.1-3.3-1.6C155.2,65.2,155.3,66.4,157.2,67.3z"/>
<path class="st0" d="M149.1,90.8c0.1-3.3,0.4-6.6-1-9.8c-1.2-2.8-2.2-5.7-3.5-8.5c-0.4-1-1.2-2.1-2.5-1.3c-1.2,0.7-0.8,2-0.4,3
	c0.4,0.8,0.9,1.6,1.4,2.4c1.2,1.9,2.3,3.8,3.6,5.6c2,2.7,2,5.8,1.8,9c-0.9-0.2-1.8-0.3-2.8-0.5c0.1,0.7,0.1,1.2,0.1,1.7
	C148.6,92.5,149.1,92.3,149.1,90.8z"/>
<path class="st0" d="M123.3,20.9c-3.7,4.1-4.9,8.9-4.1,14.2c0.1,1,0.7,2,1.3,2.7c0.9,1,1.9,0.8,2.4-0.4c0.5-1.4,0.8-2.8,1.2-4.3
	c-0.4,0-0.6-0.1-0.7,0c-1.2,0.8-2.7,0.6-3.3-0.3c-0.4-0.7,0.4-2.1,0.7-3.2c0,0,0.1-0.1,0.1-0.1c1.1-1.6,2.2-3.1,3.2-4.7
	c1.1-1.7,1-3-0.2-4.2C123.6,20.6,123.4,20.7,123.3,20.9z"/>
<path class="st0" d="M141.2,88c-1-0.6-2-1.3-3.1-1.9c-0.5,4.2,3,8,6.5,7.6c-0.2-2.1-0.2-4.2-2.4-5.5c1.3,0,2.5,0,3.9,0
	c0-0.7,0-1.2,0-1.9c-2.5,0.8-4-0.4-5.4-2.2c-0.5-0.7-1.5-1-2.3-1.5c-0.1,0.1-0.3,0.3-0.4,0.4c0.5,0.8,1,1.6,1.6,2.3
	c0.6,0.8,1.3,1.5,1.9,2.3C141.5,87.7,141.4,87.9,141.2,88z"/>
<path class="st0" d="M175.8,51.9c0.7-2.5,1.2-5,2-7.5c0.4-1.2,0-1.9-1.2-2.2c-1-0.3-2.1-0.5-2.5,1.1c-0.3,1.1-0.9,2.2-1.4,3.3
	c-1,2.3,0.2,5.3,2.6,6.5C175.5,52.7,175.7,52.3,175.8,51.9z"/>
<path class="st0" d="M127.9,63.2c-2.1,1.4-2.8,3.6-3.6,5.8c-1,2.6-2.6,4.6-5.5,5.1c-0.4,0.1-0.7,0.7-1.3,1.2
	c6.7,1.3,11.2-5.6,11-12.3C128.2,63.1,128,63.1,127.9,63.2z"/>
<path class="st0" d="M161,7.1c2,4.6,6.4,6.8,9.9,10c0.1,0.1,0.8,0,0.8-0.1c0.1-0.4,0.1-0.9,0-1.1c-1.5-2.1-2.9-4.4-4.7-6.3
	c-1.5-1.7-3.5-2.8-5.9-2.9C161,6.8,160.9,7,161,7.1z"/>
<path class="st0" d="M178.3,36.5c0.9,0.9,1.9,0.6,2-0.7c0.5-3.9-0.1-7.6-2-11c-0.5-0.9-1.7-1.5-2.9-2.4c0.2,4.6,0.2,4.7,3.1,7.3
	c1.1,1,1,2.2,0.7,3.3c-0.1,0.4-1.3,0.5-2.1,0.7c-0.3,0.1-0.6,0-1.4,0.1C176.8,34.9,177.5,35.7,178.3,36.5z"/>
<path class="st0" d="M128.4,15.5c4.2-2.2,7.2-5.4,9.5-9.5C134.3,5.1,127.6,11.7,128.4,15.5z"/>
<path class="st0" d="M134.7,64.4c0.5,0,0.9-0.1,1.1-0.1c0.5-2,1-3.9,1.5-5.7c0.1-0.2,0.1-0.6-0.1-0.8c-1.7-2.1-3.4-4.1-5.1-6.1
	c-0.3,0.5-0.3,0.9-0.2,1.2C132.8,56.7,133.8,60.6,134.7,64.4C134.7,64.5,134.7,64.4,134.7,64.4z"/>
<path class="st0" d="M150.5,82.7c1.5-1.4,3-2.9,2.4-4.7c-0.6-2-2.1-3.8-3.3-5.7C147,76.2,149.2,79.3,150.5,82.7z"/>
<path class="st0" d="M128.3,82.7c-1.4-2-2.5-4.1-3.8-6.1c-0.2-0.3-0.5-0.5-0.8-0.7c-0.1,0.3-0.4,0.6-0.4,0.9c0,0.5,0.1,1.1,0.3,1.6
	c1.4,2.1,3,4.2,4.4,6.3c1,1.4,2.4,1.5,3.9,1.4c1.4-0.1,2.2-1.4,1.5-2.7c-0.2-0.4-0.7-0.7-1.1-0.7c-0.3,0-0.7,0.3-1,0.6
	c-0.2,0.3-0.4,0.6-0.8,1.4C129.8,83.9,128.8,83.4,128.3,82.7z"/>
<path class="st0" d="M162.8,85.6c-1.8,1.1-3.7,2.1-5.4,3.1c0.1,1.1,0.1,2.3,0.2,3.7C162.7,92,164.1,89.6,162.8,85.6z"/>
<path class="st0" d="M123.1,32c1.6-0.4,2.6-1.9,2.8-3.5c0.2-1.6,0.5-3.1,0.9-4.7c0.2-1,0.6-2,1-3.1c-1-0.2-1.8-0.4-2.1,0.8
	c-0.6,2.1-1.4,4.2-1.8,6.3c-0.3,1.6-0.6,2.8-2.7,2.2C121.1,31.8,121.7,32.3,123.1,32z"/>
<path class="st0" d="M184,80.2c-0.5-1-3.1-2.1-3.8-1.5c-1.3,1.3-2.4,2.7-3.8,4.4c1.5,0.2,3,0.8,3.7,0.3c1.4-1.1,2.8-1.1,4.7-0.7
	C184.5,81.7,184.4,80.9,184,80.2z"/>
<path class="st0" d="M175.8,78.9c-0.9,1-1.7,2.1-2.6,3.1c-1.3,1.5-2.9,2.7-4.6,2.6c-0.7-0.6-1.1-1-1.5-1.3c-0.2,0.8-0.3,1.6-0.5,2.4
	c4.7,0.9,10.7-3.4,11.1-8.2C176.9,78.2,176.2,78.5,175.8,78.9z"/>
<path class="st0" d="M122.7,50.7c0.1,0.4,0.7,0.7,1,1.1c0.4-0.4,0.9-0.7,1-1.2c0.3-1,0.4-2,0.5-3c0.1-1,0.5-2.5,0.1-2.8
	c-0.8-0.6-2.1-0.4-3.9-0.6C121.8,46.6,122.2,48.7,122.7,50.7z"/>
<path class="st0" d="M186.1,72.1c-0.1,0.4,0.4,0.9,0.6,1.3c0.4-0.2,1-0.4,1.2-0.7c1.8-2.4,0.9-4.9-0.1-7.3c-0.3-0.6-1.3-0.9-2-1.1
	c-0.2-0.1-0.9,0.7-0.9,1.1c0,0.6,0.2,1.4,0.6,1.9c0.3,0.4,1,0.4,1.6,0.7C186.7,69.3,186.3,70.7,186.1,72.1z"/>
<path class="st0" d="M121.3,83.5c-0.6,0.3-1.4,0.5-1.9,0.3c-0.4-0.1-0.5-1-0.6-1.6c-0.1-0.5,0-1.1,0-1.7c-1.8,0-2.9,0.8-3.1,2.2
	c-0.2,1.5,0.9,2.3,2,2.5c1.4,0.2,3,0.1,4.4-0.1c1.3-0.3,2.1-1.3,1.7-3.2C122.9,82.5,122.1,83.1,121.3,83.5z"/>
<path class="st0" d="M177.6,30.7c-1.6-0.5-1.9-1.8-2.2-3.2c-0.2-1-0.6-2.1-0.9-3.1c-0.4-1.4-1.6-1.6-2.9-1.7
	c0.7,4.5,3.7,9.2,6.9,9.9C178.2,31.7,178,30.8,177.6,30.7z"/>
<path class="st0" d="M138.4,81c2.8-0.3,4.6-1.5,4-3.8c-2.2,1.3-4.4,2.7-7.1,1.8c-0.3-1.1-0.6-2.4-2.5-1.6
	C132.9,79.6,135.5,81.3,138.4,81z"/>
<path class="st0" d="M179.1,87.3c-1-0.5-1.9-1.3-2.9-2c-0.7-0.5-1.6-0.9-2.1,0.1c-0.2,0.5,0.1,1.7,0.5,2c1,0.7,2.3,1.3,3.5,1.6
	c3,0.6,4.8-1,4.9-4c0-0.3-0.3-0.5-0.5-0.8c-0.1,0.1-0.3,0.2-0.4,0.3c0.2,0.6,0.3,1.1,0.5,1.8C181.5,86.9,180.5,88,179.1,87.3z"/>
<path class="st0" d="M120.9,82c0.7-0.6,1.3-1,1.9-1.5c-1.4-3.4-1.4-3.4-4.2-3.3c-1.7,0-2.7,0.8-3.1,2.9
	C118.2,78.5,119.5,80.4,120.9,82z"/>
<path class="st0" d="M165.6,77.5c-0.4,2.6-0.4,2.7-3.1,2.4c-1.3-0.1-2.6-0.7-3.9-0.9c-0.3-0.1-0.6,0.3-1,0.5
	c0.2,0.3,0.3,0.8,0.5,0.9c2.5,1.1,5.1,1.4,7.8,0.8c1.6-0.3,1-1.8,1-2.8c0-0.4-0.6-0.9-0.9-1.3C165.9,77.2,165.8,77.4,165.6,77.5z"/>
<path class="st0" d="M146.1,84.3c-1.2-4.7-0.7-4.1-5.2-2.8C142.4,86,143.1,85.7,146.1,84.3z"/>
<path class="st0" d="M147.5,98.5c-0.9-0.4-1.8-0.6-2.5-1.1c-0.7-0.5-1.1-1.4-1.8-2.3c-0.5,3.1,1.4,5.2,3.8,5c1.3-0.1,2.6-1.7,2.4-3
	c-0.1-1.1-1.6-2-2.8-1.7c0.5,0.8,0.9,1.7,1.4,2.6C147.9,98.1,147.7,98.3,147.5,98.5z"/>
<path class="st0" d="M123.3,39.4c-1,0.2-1.5,0.4-2.1,0.4c-0.6,0-1.2-0.2-1.8-0.3c-0.4,3.3,1.8,4.2,5.5,3.4
	C124.3,41.6,123.8,40.4,123.3,39.4z"/>
<path class="st0" d="M112,67.2c0.7-0.1,1.3-0.2,2-0.3c-0.1-1.2,0.4-2.5-1.3-2.8c-0.9-0.1-2.1,1.2-2.2,2.4c-0.1,1.2,0.1,2.5,0,3.7
	c0,1.1,0.5,1.6,1.7,1.6C112.2,70.2,112.1,68.7,112,67.2z"/>
<path class="st0" d="M166.2,53.1c-1.2,1-1.9,2.3-2.8,3.4c-1.2,1.5-1.1,3.1,0.7,5.4C164.9,58.7,165.5,55.9,166.2,53.1z"/>
<path class="st0" d="M160.3,28.2c-1.2-1.6-2.1-2.8-3.1-4.1c-0.7,1-1.3,1.8-1.9,2.6c-0.1,0.2-0.2,0.5-0.5,0.9
	C156.6,27.9,158.2,28,160.3,28.2z"/>
<path class="st0" d="M159.5,82.6c0.1-1.8-1.4-1.2-2.3-1.4c-1.6-0.3-1.7,1.1-1.6,1.9c0,0.5,1.1,0.9,1.7,1.4
	C158.7,84.4,159.4,83.9,159.5,82.6z"/>
<path class="st0" d="M153.2,100c1.8-0.3,3.1-2.6,2.5-4.9c-1.3,3.2-1.9,3.9-4.5,3C151.4,99.8,151.8,100.2,153.2,100z"/>
<path class="st0" d="M151.4,22.9c0.6-3.1,0.2-3.5-3.3-3C148.8,21.5,149.7,22.7,151.4,22.9z"/>
<path class="st0" d="M129.6,82.1c1.3-0.2,2.3-0.3,3.8-0.6c-1-1.1-1.8-1.9-2.9-3.1C130.1,79.9,129.9,80.9,129.6,82.1z"/>
<path class="st0" d="M151.6,93c0-0.3-0.3-0.9-0.6-0.9c-0.3,0-0.7,0.3-1,0.5c-0.2,0.2-0.3,0.6-0.5,0.6c-1.3,0.1-0.9,0.9-0.8,1.6
	C151,94.9,151.7,94.5,151.6,93z"/>
<path class="st0" d="M151.8,17.6c-0.5-0.7-1-2-1.5-2c-1.5-0.1-1.5,1.3-1.9,2.5c1.1,0,2,0,2.8,0C151.5,17.9,151.6,17.7,151.8,17.6z"
	/>
<path class="st0" d="M173,75.9c0.3,1,0.5,1.7,0.7,2.4c1.7-0.2,1.8-1.1,1.4-2.4C174.4,75.9,173.8,75.9,173,75.9z"/>
<path class="st0" d="M146.1,36.3c-0.1-1.6-0.8-3.3-1.7-4.8c-0.5-0.9-1.7-1.9-2.7-2c-3.1-0.3-6.3-0.3-9.1,1.4c-1,0.6-1.9,1.8-2.3,2.9
	c-0.5,1.5-0.2,3.2-0.6,4.8c-0.3,1.3-0.9,2.6-1.4,3.8c-1.5-2-1.3-3,0.2-4.3c0.3-0.3,0.4-1.1,0.3-1.6c0-0.3-0.7-0.6-1.1-0.6
	c-1.7-0.1-3.1,1.9-2.6,3.5c0.4,1.2,0.5,2.6,1,3.7c0.5,1.1,1.4,2,2.3,2.8c0.1,0.1,1.1-0.5,1.5-1c0.2-0.2,0-0.8-0.1-1.7
	c3.2,4.5,4,9.9,8.4,13.2c1.7-2.6,3.4-5.1,5.1-7.5c0.1,0.1,0.2,0.1,0.3,0.2c0,0.4,0,0.8-0.1,1.1c0.1,0.1,0.3,0.1,0.4,0.2
	c0.6-0.9,1.5-1.8,1.6-2.7C146.1,44,146.3,40.1,146.1,36.3z M143.7,38.6c-0.8,0.3-1.4,0.8-2.2,1.2c-0.4,0.2-0.8,0.5-1.2,0.5
	c-0.2,0-0.5-0.6-0.7-0.9c-1,0.1-2.1,0.2-3.5,0.3c-1.2-0.6-2.7-1.4-4.4-2.3c0-0.2,0-0.8,0-1.7c4.5,1.6,8.9,2.2,13.5,0.2
	c0.2,0.9,0.3,1.5,0.4,2.3C145,38.4,144.3,38.4,143.7,38.6z"/>
<path class="st0" d="M138.9,188.3c-5.3-1.9-10.9-2.9-16.6-1.9c-5.9,1-11.8,2.1-17.7,3.1c-7.5,1.3-14.9,1.7-22.5-0.1
	c-9.1-2.2-17.4-5.5-23.7-12.7c-0.2-0.2-0.5-0.4-1.2-0.8c0.5,1.4,0.7,2.3,1.2,3.1c1.5,2.5,3,5.1,4.8,7.5C69.8,195.3,77.1,203,87,208
	c6.6,3.3,13.4,5.9,21.3,5c-0.4-0.8-0.6-1.7-1.1-2.3c-2.6-3.3-0.8-7.6,2-9.4c3-1.9,5.9-2.9,9.6-1.8c3.7,1.1,5.7,3.3,6.5,6.8
	c0.8,3.6-0.7,6.2-3.6,8.1c-6.7,4.4-14.1,6.5-22.1,5.8c-4.6-0.4-9.2-1-13.6-2.7c-15.2-6-28.2-15.1-39.1-27.2
	c-9.3-10.4-19.7-19.3-31.7-26.4c-2.3-1.4-4.7-2.5-7.1-3.7c0-0.2,0-0.4,0-0.6c5.1,0,10.1,0,15.2,0c6,0,12.1,0.2,18.1-0.2
	c7.8-0.5,15.2-2.9,22-7c16.6-9.8,17.9-36.7,0.6-47.1c-10.7-6.5-22.4-8.2-34.6-8.1c-4.9,0-9.7,0.2-14.6,0.3c-2.8,0-5.7,0-8.5,0
	c-0.5,1.3,0,1.7,1.3,1.8c6.2,0.6,7.6,2.1,7.6,8.4c0,13.8,0,27.6,0,41.5c0,1.1-0.1,2.3-0.2,3.4c-0.4,3.4-1.8,4.8-5.3,5.2
	c-1.2,0.1-2.3,0.3-3.4,0.4c-0.4,2.1,0.1,3.5,2,4.6c3.9,2.3,7.7,4.8,11.2,7.5c2.9,2.2,5.5,4.9,7.9,7.6c7.7,8.5,15.3,17,23,25.5
	c10.1,11.2,22.1,19.2,36.4,24.1c9.2,3.1,18.5,3.8,27.9,1.5c8-1.9,15.1-5.7,21.8-10.3c4.2-2.9,7.8-6.3,10-11
	C149.7,200.4,146.2,190.9,138.9,188.3z M26.3,100c7.1,0,14.2,0.4,21,3.1c13.9,5.5,19.3,16.5,17.9,30.3
	c-1.4,13.5-11.6,21.8-24.2,23.3c-3.3,0.4-6.7,0.4-10,0c-3.8-0.4-5.3-2.3-5.9-6c-0.3-1.9-0.4-3.9-0.4-5.8c0-6.7,0-13.4,0-20.1
	c0,0,0,0,0,0c0-7.7,0-15.3,0-23C24.7,100.5,24.9,100,26.3,100z"/>
<path class="st0" d="M131.5,158c-4.2-0.4-5.8-2.2-5.9-6.4c-0.1-2-0.1-4-0.2-6c-0.1-5.3-0.2-10.6-0.2-15.9c0-4.1,1.4-5.6,5.5-6.2
	c0.9-0.1,1.8-0.2,2.7-0.3c0-0.6,0-1.1,0-1.7c-0.4,0-0.6-0.1-0.8-0.1c-0.8,0-1.6,0.1-2.4,0.1c-6.7,0.6-13.3,0.8-20-0.1
	c-4.2-0.5-8.5-0.8-12.7-0.3c-6.6,0.7-11.7,4.1-14,10.4c-3.9,10.8-1,22.5,11.8,27.9c5.6,2.4,11.4,2.3,17.2,1.2
	c5.3-1,10.6-1.5,15.9-0.7c1.6,0.2,3.3,0.3,5.1,0.4c0.2-0.8,0.3-1.5,0.5-2.3C132.8,158.1,132.1,158,131.5,158z M116.4,139.5
	c0,0-0.1,0-0.1,0c0,3,0.2,5.9,0,8.9c-0.5,5.5-4.6,9.3-10.1,9.7c-5,0.4-8.9-1.4-12-5.3c-5.5-7.1-5.7-17.8-0.4-24.2
	c4.3-5.2,12.5-6.8,18.4-3.5c2.8,1.5,4.3,3.8,4.3,7C116.4,134.5,116.4,137,116.4,139.5z"/>
<path class="st0" d="M180.1,121.7c-6.2,0.5-12.3-0.5-18.4-1.1c-4.7-0.5-9.3-0.4-13.7,1.5c-12.5,5.4-12.9,21.4-7.7,28.7
	c5.9,8.4,14.3,11.3,24.2,10.1c2.6-0.3,5.1-1.3,8-2.1c-0.3,3.9-0.2,7.8-1,11.5c-1.1,5.2-3.1,10-9.5,10.8c-0.1,0.5-0.2,0.9-0.3,1.4
	c0,0.2,0,0.3,0,0.7c4.3,0,8.2-0.8,11.7-3.4c4.5-3.3,6.6-8,7.2-13.3c0.6-5.2,0.6-10.5,0.7-15.8c0.1-7,0-14,0-21
	c0-4.5,1.5-6.1,5.9-6.7c0.8-0.1,1.6-0.1,2.4-0.2c0-0.6,0-1.1,0-1.8C186.3,121.3,183.2,121.4,180.1,121.7z M172.2,139.3
	c0,2.4,0,4.9,0,7.3c-0.1,7.6-5.4,12.2-12.9,11.3c-4-0.5-7.1-2.3-9.5-5.5c-4.8-6.3-5.5-15.8-1.5-22.1c4-6.3,13.3-8.8,19.9-5.4
	c2.7,1.4,4.1,3.5,4.1,6.6C172.1,134.1,172.2,136.7,172.2,139.3z"/>
<path class="st0" d="M235.9,99.6c1.5-0.3,3-0.5,4.6-0.8c0-0.6,0-1,0-1.5c-8.4,0-16.7,0-25.1,0c0,0.5,0,1,0,1.6
	c0.3,0,0.5,0.1,0.7,0.1c5.7,0.6,7.3,2.3,7.4,8.1c0,0.3,0,0.6,0,1c0,5.3,0,10.6,0,15.9c0,0.4,0,0.8-0.1,1.3c-0.3-0.1-0.5-0.1-0.6-0.2
	c-5-3.4-10.6-4.5-16.5-4c-7,0.6-12.3,3.9-15.4,10.3c-1.7,3.5-1.8,7.2-1.4,10.9c0.8,8.3,4.9,14.3,12.8,17.4c4.6,1.8,9.5,2.3,14.3,1.3
	c5.9-1.2,11.8-1.8,17.8-1.1c2,0.2,4,0.3,6.1,0.4c0-0.7,0-1.2,0-1.8c-0.8-0.1-1.6-0.1-2.3-0.2c-4.1-0.3-5.6-2-5.7-6.1
	c0-0.4,0-0.9,0-1.3c0-15.3,0-30.6,0-45.8c0-0.5,0-1.1,0.1-1.6C232.7,101.4,233.7,100.1,235.9,99.6z M223.4,139.8c-0.1,0-0.2,0-0.2,0
	c0,3.5,0.3,7-0.1,10.5c-0.5,4.8-3.5,7.5-8.4,8c-8.7,1-14.7-3.7-16.1-12.8c-1-6.2-0.1-12,4.2-16.9c5.1-5.9,15-5.8,20,0.2
	c0.4,0.5,0.6,1.2,0.7,1.9C223.4,133.7,223.4,136.8,223.4,139.8z"/>
<path class="st0" d="M292.2,158.3c-0.5-0.1-1.1-0.1-1.7-0.2c-4.2-0.4-6-2-6.2-6.2c-0.3-7.6-0.4-15.1-0.4-22.7c0-3.4,1.6-5.1,4.9-5.8
	c0.7-0.2,1.5-0.1,2.2-0.2c0.4-0.1,0.6-0.5,1-0.7c-0.3-0.2-0.7-0.7-1-0.7c-1.6,0-3.1,0.1-4.7,0.2c-3.5,0.1-7,0.5-10.5,0.3
	c-4.4-0.2-8.7-1-13-1.3c-5.2-0.4-10.3,0.2-14.7,3.3c-8.8,6.1-10.2,21-2.7,29.3c6.2,6.7,14,8.8,22.8,7.5c6.5-0.9,13-2.1,19.6-1.1
	c0.6,0.1,1.3,0.2,2.2,0.3c-0.4,0.4-0.5,0.5-0.6,0.6c-9.1,4-17.1,9.7-24.5,16.2c-6.8,6.1-13.1,12.8-19.6,19.2
	c-4.6,4.4-9.3,8.7-14.8,11.9c-10.3,6.1-20.7,11.8-33.1,12.2c-1.8,0.1-3.7,0-5.5-0.3c-5.7-0.7-10.9-2.7-15.6-6
	c-1.5-1-2.8-2.2-3.3-4.1c-0.8-3.5,0-6.6,2.8-8.8c2.8-2.2,6.2-3.1,9.7-1.9c1.5,0.5,2.9,1.5,4.2,2.4c2.9,2.2,3.4,5.5,1.4,8.6
	c-0.5,0.8-0.8,1.6-1.2,2.5c6.2,0.8,11.8-0.6,17.1-2.9c10.1-4.4,18.5-11.1,25-20c2.8-3.9,5.4-7.9,8-11.9c0.3-0.5,0.4-1.2,0.5-1.8
	c-0.1-0.1-0.3-0.1-0.4-0.2c-0.7,0.8-1.4,1.6-2.2,2.3c-1.4,1.3-2.7,2.7-4.2,3.7c-8.2,5.5-17.4,8.1-27.1,8.5
	c-7.8,0.3-15.5-1.1-23.1-2.8c-7.5-1.6-14.8-2.3-22.4-0.2c-7.8,2.1-11.1,9.6-10.5,15.6c0.6,5.4,3.7,9.6,7.8,12.8
	c9.5,7.6,19.9,13.1,32.3,14c3.9,0.3,7.8,0.7,11.7-0.2c17.4-3.8,32.1-12,44.1-25.1c6.7-7.3,13.2-14.9,19.8-22.2
	c7-7.7,14.2-15.3,23.7-20C292.1,161.7,292.6,160.3,292.2,158.3z M275.3,148.5c-0.5,5.5-4.7,9.2-10.2,9.6c-6.5,0.5-10.7-2.7-13.8-8.1
	c-4.2-7.3-3-17.4,2.6-22.8c4.7-4.6,13.2-5.3,18.4-1.6c2.2,1.5,3.2,3.6,3.2,6.2c0,2.6,0,5.2,0,7.8c0,0-0.1,0-0.1,0
	C275.4,142.5,275.6,145.5,275.3,148.5z"/>
<path class="st0" d="M66.9,267.6c-3,4.2-7.4,5.5-11.9,3.7c-3.4-1.4-5.7-5-5.2-8.4c1.8,0,3.7,0,5.6,0c1.5,0,3.1-0.4,3.9,1.5
	c0.8-0.9,1.5-1.6,2.2-2.4c-0.7-0.8-1.3-1.5-2-2.2c-2,1.3-7,1.8-10,1c-0.1-3.3,2.1-6.8,5.3-7.9c4.8-1.6,9.3-1.5,12.2,3.7
	c0.7-3.5,0.1-4.4-2.9-5.2c-0.5-0.1-1-0.3-1.6-0.4c-3.7-0.8-7.3-0.6-10.8,0.8c-4,1.7-6.7,4.5-7.3,9.4c-2.3-5.9-7.3-6.8-12.3-7.8
	c1.2-0.6,2.5-0.9,3.6-1.4c2.1-1,4-2.2,4.7-4.6c1.3-4-0.7-7.5-5.2-8.9c-4.3-1.4-8.7-1.1-13.2-0.9c-2.5,0.1-5,0-7.4,0
	c-0.4,0-0.8,0.1-1.2,0.1c0,0.2,0,0.3,0,0.5c0.6,0.1,1.2,0.3,1.8,0.4c2.4,0.4,3.2,1.1,3.2,3.5c0,8.6,0,17.2,0,25.7
	c0,2.7-1,3.5-3.6,3.8c-0.4,0-0.9,0.2-1.3,0.3c0,0.1,0,0.3,0.1,0.4c0.3,0,0.6,0.1,0.9,0.1c5.9,0,11.8,0.2,17.6-0.1
	c2.6-0.1,5.3-1,7.8-1.9c2.4-0.9,3.9-2.8,4.4-5.4c0-0.2,0.2-0.5,0.4-1c1.3,4.7,4.5,7.2,8.6,8.6c3.8,1.3,7.7,0.8,11.5-0.2
	C66.9,272,67.8,269.9,66.9,267.6z M25.4,239c1.6,0.2,3.2,0.2,4.8,0.6c3,0.7,4.6,2.6,4.9,5.7c0.3,3-1,6-3.6,7c-2,0.7-4.3,0.9-6.4,1.2
	c-0.8,0.1-1.1-0.4-1.1-1.2c0-2,0-4.1,0-6.1c0,0,0,0,0,0c0-1.9,0.1-3.8,0-5.7C23.9,239.2,24.3,238.9,25.4,239z M38.6,264.3
	c-0.5,3.9-3,6.4-7,6.8c-1.3,0.2-2.7,0.2-4,0.1c-2.3-0.2-3.3-1.2-3.5-3.5c-0.1-2,0-4.1,0-6.2c0,0-0.1,0-0.1,0c0-1.9-0.1-3.8,0-5.7
	c0-0.4,0.7-1.2,1-1.2c2.9,0.3,5.8,0.4,8.6,1.2C37.2,257,39.1,260.5,38.6,264.3z"/>
<path class="st0" d="M197.7,252.2c-2-1-4.3-1.4-6.5-2.1c0,0.1-0.1,0.2-0.1,0.3c-1.2,0.2-2.5,0.3-3.7,0.5c-4.7,1.1-8.3,4.9-8.9,9.2
	c-0.7,4.7,1.4,8.9,5.8,11.5c3.6,2.1,7.5,2.4,11.4,1.2c4.5-1.3,7.9-5.3,8.3-9.6C204.3,258.3,202.2,254.5,197.7,252.2z M198.6,267.4
	c-1.7,4.4-6.7,5.9-10.7,3.5c-4.8-2.9-6.5-10.5-3.4-15.2c3.1-4.8,9.8-4.6,13.1,0.4c1.4,2.1,1.9,4.4,2.1,7
	C199.3,264.5,199.2,266,198.6,267.4z"/>
</svg>
