<?xml version="1.0" encoding="utf-8"?>
<!-- Generator: Adobe Illustrator 22.0.1, SVG Export Plug-In . SVG Version: 6.00 Build 0)  -->
<svg version="1.1" id="Capa_1" xmlns="http://www.w3.org/2000/svg" xmlns:xlink="http://www.w3.org/1999/xlink" x="0px" y="0px"
	 viewBox="0 0 1126.8 499.5" style="enable-background:new 0 0 1126.8 499.5;" xml:space="preserve">
<style type="text/css">
	.st0{fill:#8C242C;}
	.st1{fill:#8C242D;}
	.st2{fill:#8A242D;}
	.st3{fill:#8D242D;}
	.st4{fill:#8A232D;}
	.st5{fill:#8E242D;}
	.st6{fill:#8B242D;}
	.st7{fill:#89232D;}
	.st8{fill:#8D272F;}
	.st9{fill:#8D242E;}
</style>
<path class="st0" d="M211.6,443.2c8.3-1.5,8.3-1.5,10.7,5.8c3.7,11.1,7.4,22.3,11.6,34.8c3.9-11.4,7.4-21.4,10.8-31.4
	c0.7-2,1.5-4.1,2-6.1c0.7-2.8,2.1-3.8,5.2-3.9c3.3-0.1,4.1,1.4,5,4c4,12,8.2,24,12.8,37.4c4.2-12.4,7.9-23.5,11.6-34.6
	c2.4-7.3,2.5-7.3,10.9-6.3c-2.4,7.1-4.8,14.2-7.2,21.2c-3.5,10.5-7,21.1-10.5,31.6c-0.7,2.3-1.7,3.5-4.5,3.5c-2.8,0-3.7-1.3-4.5-3.5
	c-4.4-12.9-8.8-25.7-13.3-38.7c-2,0.9-1.9,3-2.4,4.5c-4.1,11.6-8.1,23.2-12,34.8c-0.7,2.1-1.8,3-4,2.9c-1.9-0.1-3.5-0.1-4.3-2.4
	C223.7,479,217.6,461.1,211.6,443.2z"/>
<path class="st1" d="M530.5,475.6c7.3-10.4,14.3-20.3,21.2-30.2c1.1-1.5,1.9-2.8,4.2-2.9c3.5-0.1,5.2,0.4,5.1,4.7
	c-0.3,15.8-0.2,31.6-0.1,47.5c0,3.2-0.4,4.8-4.2,4.7c-3.6-0.1-4.5-1.1-4.4-4.6c0.2-11.6,0.1-23.1-0.9-34.9
	c-6.9,9.9-13.8,19.8-21,30.1c-7.1-10.3-13.9-20.1-20.7-30c-0.3,0.1-0.6,0.2-1,0.3c0,11.4-0.1,22.8,0.1,34.2c0,3.1-0.1,4.9-4.1,4.8
	c-3.8,0-4.8-1.1-4.7-4.8c0.2-15.7,0-31.3,0.1-47c0-1.7-1.4-4.5,1.6-4.9c2.6-0.4,5.4-0.7,7.4,2.4C516,455.2,523.1,465.1,530.5,475.6z
	"/>
<path class="st2" d="M392.1,470.9c0-8.3,0.1-16.7-0.1-25c0-2.6,0.8-3.4,3.4-3.4c15.3,0.1,30.7,0.2,46,0c3.5,0,3.7,1.5,3.6,4.1
	c-0.1,2.5,0.1,4.3-3.5,4.3c-11.8-0.2-23.7,0-35.5-0.1c-3.7-0.1-5.3,0.6-5.2,4.9c0.2,9.3,0,9.3,9.1,9.3c5.5,0,11,0.2,16.5-0.1
	c3.5-0.2,3.6,1.6,3.6,4.2c0.1,2.8-0.4,4.3-3.7,4.1c-7-0.2-14,0.1-21-0.1c-3.6-0.1-4.7,1.1-4.4,4.5c0.3,3,0.3,6,0,9
	c-0.4,3.7,1.2,4.4,4.6,4.4c12.7-0.2,25.3,0,38-0.1c2.9,0,4.6,0.1,4.5,3.9c-0.1,3.4-0.8,4.6-4.4,4.6c-15.8-0.2-31.6-0.1-47.5,0
	c-3,0-4-0.8-3.9-3.9C392.3,487.2,392.1,479.1,392.1,470.9C392.1,470.9,392.1,470.9,392.1,470.9z"/>
<path class="st3" d="M768.5,470.9c0-8.3,0.1-16.7-0.1-25c-0.1-2.7,0.8-3.4,3.4-3.4c15.5,0.1,31,0.2,46.5,0c3.5,0,3.5,1.5,3.6,4.1
	c0.1,3-0.3,4.4-3.9,4.3c-11.7-0.3-23.3,0.1-35-0.2c-4.2-0.1-5.9,0.7-5.7,5.4c0.3,8.8,0,8.8,9.1,8.8c5.3,0,10.7,0.2,16-0.1
	c3.4-0.2,4.2,1,4.2,4.3c0.1,3.5-1.3,4.2-4.4,4.1c-6.8-0.2-13.7,0.1-20.5-0.1c-3.6-0.1-4.7,1.1-4.3,4.5c0.3,3.1,0.3,6.3,0,9.5
	c-0.3,3.2,1.1,3.8,4,3.8c12.8-0.1,25.7,0.1,38.5-0.1c3.3-0.1,4.2,0.9,4.2,4.2c0,3.2-0.8,4.3-4.2,4.3c-15.8-0.2-31.7-0.1-47.5,0
	c-3.1,0-4-0.9-3.9-4C768.6,487.2,768.5,479,768.5,470.9z"/>
<path class="st1" d="M366.7,480.7c0-11.1,0.1-22.3-0.1-33.4c-0.1-3.4,0.4-4.9,4.5-4.9c4.2,0,4.8,1.5,4.7,5.1
	c-0.2,15.7,0,31.3-0.1,47c0,1.6,1.2,3.9-1.5,4.6c-2.3,0.6-4-0.3-5.7-2.2c-10-11.2-20.1-22.2-30.1-33.3c-0.9-0.9-1.6-2-2.3-3
	c-0.4,0.2-0.8,0.4-1.2,0.6c0,11.1-0.1,22.2,0.1,33.2c0.1,3.5-0.4,5-4.5,5c-3.9,0-4.2-1.7-4.1-4.8c0.1-15.8,0-31.7,0.1-47.5
	c0-1.5-1.1-3.6,1-4.4c2.3-0.8,3.9,0.4,5.5,2.2c10.4,11.7,21,23.2,31.5,34.8c0.4,0.5,0.6,1.2,0.9,1.7
	C365.9,481.2,366.3,481,366.7,480.7z"/>
<path class="st4" d="M759.7,498.8c-6.3,1.9-10.2-0.4-13.6-5.5c-5.2-7.7-11.3-14.8-16.7-22.4c-1.8-2.6-2.7-1.6-4.9-0.5
	c-10.9,5.3-8.9,15.1-8.7,24.2c0.1,3.5-0.5,5-4.5,4.9c-3.6-0.1-4.8-0.9-4.7-4.7c0.2-15.8,0.2-31.7,0-47.5c0-3.5,0.4-5,4.5-4.8
	c3.5,0.2,5,0.6,4.8,4.6c-0.4,6.5-0.1,13-0.1,19.8c2.6-0.6,4-2.5,5.7-3.9c6.2-5.1,12.7-9.8,18.3-15.5c5-5,10.4-5.6,17.5-4.5
	c-7.2,6.1-13.7,11.9-20.6,17.3c-2.6,2.1-2.4,3.4-0.6,5.9c7.2,9.3,14.3,18.8,21.3,28.3C758.3,495.7,759.7,496.8,759.7,498.8z"/>
<path class="st4" d="M852.1,442.6c8.2,0,16.3,0.2,24.5-0.1c3.9-0.1,3.1,2.2,3.3,4.4c0.2,2.6-0.3,3.9-3.4,3.8
	c-5.5-0.3-11,0.2-16.5-0.1c-3.5-0.2-4.1,1.1-4.1,4.2c0.1,13.3,0,26.7,0.1,40c0,3.4-0.8,4.5-4.4,4.6c-3.8,0.1-4.3-1.4-4.3-4.7
	c0.1-13.3,0-26.7,0.1-40c0-3.2-0.7-4.4-4.1-4.2c-5.5,0.3-11-0.2-16.5,0.2c-3.6,0.2-3.4-1.6-3.5-4.2c-0.1-2.8,0.4-4.1,3.7-4
	C835.4,442.8,843.7,442.6,852.1,442.6z"/>
<path class="st5" d="M300.5,470.6c0-8.1,0.2-16.3-0.1-24.4c-0.2-4,2-3.6,4.6-3.7c2.9-0.1,4.5,0.2,4.5,3.9c-0.2,16.3-0.2,32.6,0,48.9
	c0.1,4.1-2,3.9-4.9,4.1c-3.4,0.2-4.2-1.1-4.1-4.3C300.6,486.9,300.4,478.8,300.5,470.6C300.5,470.6,300.5,470.6,300.5,470.6z"/>
<path class="st1" d="M321.4,27.7c0-7.5,0.1-15-0.1-22.5c-0.1-2.9,0.5-4,3.8-4c14.3,0.2,28.7,0.2,43,0c3.3,0,3.7,1.2,3.7,4
	c0,3-0.6,4.1-3.8,4.1c-11.2-0.2-22.3,0.1-33.5-0.1c-3.5-0.1-5,0.6-4.9,4.5c0.2,8.8,0,8.8,9,8.8c5,0,10,0.2,15-0.1
	c3.4-0.2,3.2,1.6,3.3,4c0,2.5-0.3,4-3.5,3.9c-6.5-0.2-13,0.1-19.5-0.1c-3.1-0.1-4.3,0.6-4.3,4.1c0,13.1-0.1,13.1,12.8,13.1
	c9.2,0,18.3,0.1,27.5-0.1c3.2-0.1,3.8,1,3.9,3.9c0.1,3.3-1.2,3.8-4.1,3.7c-15-0.1-30-0.1-45,0c-3,0-3.6-1-3.6-3.7
	C321.5,43.4,321.4,35.6,321.4,27.7z"/>
<path class="st6" d="M407.3,56.6c-8.9-0.2-17.4-2.4-25.3-6.5c-1.7-0.9-4.5-1.5-2.1-4.4c1.5-1.9,1.7-5.5,6-2.9
	c7.7,4.6,16.1,6.9,25.2,5.8c2.9-0.3,5.5-1.3,7.9-2.9c2.9-1.9,4.3-4.5,4.1-8c-0.2-3.7-2.6-5.7-5.7-6.8c-5.6-2-11.5-1.4-17.3-2.1
	c-3-0.3-6-0.5-8.9-1.2c-4.4-1-8.2-3-9.5-7.8c-1.5-5.3-0.8-10.2,3.3-14.2c3.8-3.7,8.5-5,13.6-5.5c9.5-0.8,18.5,0.8,26.9,5.4
	c1.7,0.9,4.6,1.5,2.1,4.5c-1.6,1.9-1.8,5.5-6.1,2.8c-6.3-4-13.4-5.7-20.9-5.1c-1.5,0.1-3,0.4-4.4,0.8c-3.6,1-6.7,2.7-6.6,7
	c0.1,4.6,4.1,5.5,7.5,5.8c6.1,0.6,12.3,0.3,18.4,1.2c11,1.6,16.8,7.6,16.3,17.6c-0.3,7.4-5.2,11.6-11.4,14.4
	C416.3,56.3,411.8,56.9,407.3,56.6z"/>
<path class="st7" d="M739,19c0,10.4-0.1,20.8,0,31.2c0,3,0.1,4.8-4,4.9c-4.1,0-4.4-1.6-4.4-4.9c0.2-14.8,0-29.6,0.1-44.4
	c0-1.4-1.2-3.6,1.1-4.2c2-0.6,3.7,0.1,5.3,1.8c8.6,9.7,17.4,19.3,26.1,28.9c1.7,1.9,3.5,3.8,6.2,6.7c0-12,0.1-22.7-0.1-33.4
	c0-3.1,0.8-4.2,4.1-4.2c3.5,0,4.5,0.9,4.4,4.4c-0.2,14.6,0,29.3-0.2,43.9c0,1.8,1.3,4.3-1.2,5.2c-2.7,1-4.6-0.8-6.3-2.8
	c-9-10.1-18-20-27-30c-1.1-1.2-2-2.4-3-3.6C739.7,18.5,739.3,18.8,739,19z"/>
<path class="st6" d="M594.9,22.7c0,5.2,0.1,10.3,0,15.5c-0.1,9.6-3.8,14.6-12.9,17c-8.8,2.3-17.9,2.2-26.7,0.1
	c-9-2.1-12.9-7-13.2-16.3c-0.3-11.5,0-23-0.1-34.5c-0.1-4.1,2.7-2.9,4.8-3c2.2-0.2,4.1-0.3,4.1,3.1c-0.2,10.8-0.1,21.7-0.1,32.5
	c0,6.9,2.7,10.2,9.4,11.2c5.6,0.8,11.3,0.8,16.9,0c6.5-0.9,9.5-4.5,9.5-11.3c0.1-10.5,0.1-21,0-31.5c-0.1-3.2,0.7-4.2,4.1-4.2
	c3.4,0,4.6,0.8,4.4,4.4C594.7,11.4,595,17.1,594.9,22.7C594.9,22.7,594.9,22.7,594.9,22.7z"/>
<path class="st8" d="M810.4,1.3c6.7,0,13.3-0.2,20,0.1c2.4,0.1,6.5-2.5,6.7,3.5c0.1,5.9-3.9,3.5-6.4,3.7c-4.1,0.3-8.3,0.3-12.5,0
	c-3.2-0.2-3.9,1-3.9,4c0.1,12.7-0.1,25.3,0.1,38c0.1,3.5-1.1,4.4-4.5,4.5c-3.7,0.1-4-1.5-4-4.5c0.1-12.5-0.1-25,0.1-37.5
	c0.1-3.4-0.8-4.7-4.4-4.5c-5,0.3-10-0.1-15,0.1c-3.2,0.2-3.3-1.3-3.4-3.9c-0.1-2.7,0.7-3.7,3.6-3.7C794.8,1.5,802.6,1.3,810.4,1.3z"
	/>
<path class="st8" d="M461.2,1.3c7.8,0,15.7,0.2,23.5-0.1c3.5-0.1,3.1,1.8,3.2,4c0.1,2.4-0.3,3.7-3.2,3.5c-5-0.2-10,0.1-15-0.1
	c-3.4-0.2-4.6,0.8-4.5,4.4c0.2,12.5,0.1,25,0.1,37.5c0,2.7,0,4.7-3.8,4.6c-3.3-0.2-4.6-0.7-4.6-4.4c0.2-12.5-0.1-25,0.2-37.5
	c0.1-3.9-1.1-4.8-4.7-4.6c-4.8,0.3-9.7-0.1-14.5,0.1c-2.9,0.1-3.7-0.9-3.6-3.7c0.1-2.4,0.2-4,3.4-3.8C445.6,1.5,453.4,1.3,461.2,1.3
	z"/>
<path class="st1" d="M856,313.1c0-17.8,0-35.7,0-53.5c0-1.7-1-4.3,2.4-4.4c2.5,0,4.7-0.3,5.8,3c4.5,13.4,9.1,26.6,16.3,39
	c14.8,25.4,34.1,45.9,61.5,57.7c20.1,8.7,41.2,11.6,62.9,7.7c10-1.8,18.6-6.6,24.3-15.2c8.1-12.2,2.2-29.7-12.5-38.1
	c-12.8-7.3-26.9-11.1-40.8-15.7c-28.2-9.3-56.1-19-83.1-31.8c-23.9-11.3-33.8-30-34.6-55.2c-0.7-23.8,9.9-41.8,28.6-55.1
	c39.7-28.1,81.7-31.5,125.7-10.4c9,4.3,18,8.5,27.1,12.6c7.5,3.4,15.2,0.3,18.3-7.4c1.9-4.7,3-9.6,2.8-14.6c-0.2-3.6,1.4-3.9,4.4-4
	c3.4-0.2,3.7,1.3,3.7,4.1c-0.1,25.8,0,51.7-0.1,77.5c0,1.5,1.6,4.4-1.9,4.5c-2.7,0.1-5.4,0.8-6.7-3.2c-7.7-23.5-23.2-41.2-42.4-56.1
	c-22.9-17.7-48.6-23.6-77-18.1c-5.9,1.2-11.3,3.9-16.3,7.2c-13.2,8.6-14.8,24.1-3.6,35.3c6.9,6.9,15.4,11.5,24.5,14.9
	c25,9.3,50.8,16.4,75.8,25.6c18.7,6.9,36.4,15.3,50.6,29.9c22.9,23.5,26.3,60.2,6.7,84.1c-12.7,15.5-30,24.7-48.7,30.8
	c-36.3,12-71.4,7.9-105.2-9.5c-11.2-5.8-22.2-12.1-33.8-17c-11.7-4.9-20.2-0.9-23.5,11.3c-1.5,5.8-2.8,11.6-3.5,17.5
	c-0.4,3.2-1.2,4.7-4.7,4.6c-4-0.1-3-2.7-3-4.8C856,348.8,856,331,856,313.1z"/>
<path class="st1" d="M817.9,129.7c26.6,0,45.6,19.1,43.5,44.1c-1.3,15.5-9.2,27.4-21,37c-14.3,11.6-30.8,16.5-48.9,17.5
	c-2.4,0.1-3.6-0.4-3.8-3.2c-0.2-3.2,1.9-2.4,3.6-2.5c14.2-0.8,26.4-6.3,36.7-16c5.9-5.6,9.5-12.4,8.9-20.8c-0.3-3.5-1.7-5.1-5.5-4.5
	c-2.3,0.4-4.4,1.3-6.6,2c-12.8,4.2-24.5,1.5-34.4-7.2c-12.1-10.6-9.7-30.3,4.4-40.1C801.7,131.4,809.5,129.4,817.9,129.7z"/>
<path class="st1" d="M343.7,129.6c13.8,0,24.3,3.3,32.6,12c10,10.5,10,26.4,0.2,37c-14.6,15.8-44.7,16.7-60.2,1.7
	c-13.8-13.3-11.6-33.2,4.8-43.8C328.6,131.7,336.7,129.3,343.7,129.6z"/>
<path class="st1" d="M736.5,129.7c10.2-0.3,19.4,2.5,27.4,8.8c13.5,10.5,14.7,29,2.6,41.1c-15.3,15.5-45,15.4-60.2-0.3
	c-11.3-11.6-10.8-28.5,1.3-39.3C715.8,132.6,725.5,129.4,736.5,129.7z"/>
<path class="st3" d="M688.2,488.2c-2.2-3.5-4.3-7.1-6.7-10.5c-1.6-2.3-1.9-3.2,1.4-4.2c7.5-2.4,11.1-9,10.2-17.3
	c-0.7-7-5.3-11.7-13.1-12.7c-13.7-1.8-27.6-0.4-41.4-0.9c-2.9-0.1-2.7,1.7-2.7,3.6c0,16.5,0.1,32.9-0.1,49.4c-0.1,3.9,2,3.7,4.7,3.8
	c2.6,0.1,4.4-0.1,4.2-3.6c-0.3-5.8,0.1-11.6-0.1-17.5c-0.1-2.7,0.6-3.8,3.5-3.7c6,0.2,12,0.2,18,0c2.5-0.1,3.9,0.8,5.1,2.9
	c3.3,5.4,7.3,10.4,10.2,15.9c2.9,5.7,6.9,6.9,13.2,5.2C692.4,494.9,690.3,491.5,688.2,488.2z M648.1,466.4c-2.6,0-3.3-0.8-3.4-3.4
	c-0.4-12.2-0.5-12.2,11.4-12.2c1.8,0,3.7,0,5.5,0c4.5,0,9-0.1,13.4,0c5.8,0.2,9.3,3.1,9.4,7.5c0.1,4.8-3.4,7.9-9.4,8
	C666,466.5,657.1,466.3,648.1,466.4z"/>
<path class="st6" d="M602.2,444.4c-1-2-2.5-1.7-4.1-1.9c-2.4-0.3-3.1,1.2-4,2.9c-8.1,16-16.3,32-24.3,48c-0.8,1.6-3.2,3.4-1.8,5.2
	c1.2,1.4,3.8,0.3,5.7,0.6c2.7,0.4,3.3-1.6,4.2-3.4c1.3-2.5,2.8-5,3.8-7.6c1.1-2.8,2.9-3.6,5.7-3.5c5.8,0.2,11.7,0.5,17.5-0.1
	c6.1-0.5,10.1,1,12,7.3c1.8,6,5.6,9.2,13,6.6C620.6,480.5,611.3,462.5,602.2,444.4z M606.2,477.5c-6,0-12,0-18.9,0
	c3.8-7.5,7.2-14.1,10.9-21.2c4.2,6.3,7,12.9,10.2,19.3C609.5,477.8,607.4,477.5,606.2,477.5z"/>
<path class="st1" d="M722.7,49.5c-7.5-14.6-15-29.3-22.6-43.9c-1-1.9-1.2-4.4-4.6-4.4c-3.4-0.1-4.1,2.2-5.2,4.4
	c-8,15.7-15.9,31.4-24.2,47.7c-4.4-6.9-8.4-13.4-12.5-19.8c-1.4-2.1-0.1-2.3,1.5-2.9c8.2-3.4,11.5-9.4,9.9-17.8
	c-1.2-6.6-7-11.1-15-11.3c-12-0.2-24,0-36-0.1c-2.2,0-3.3,0.4-3.2,3c0.1,15.8,0,31.7,0.1,47.5c0,1-0.5,2.3,1.1,2.9
	c4.1,1.7,7.5-0.4,7.6-4.6c0-1.5,0-3,0-4.5c0.1-4.5-1.6-10.5,0.7-13.1c2.6-3,8.8-0.4,13.4-1.1c6.7-1,11.3,1,14.2,7.5
	c1.7,3.8,4.8,6.8,6.7,10.5c2.1,4.1,4.9,5.1,9.4,5.5c8.1,0.7,13.3-1.4,15.4-9.7c0.8-3.3,3.2-4.5,6.7-4.3c5.1,0.3,10.4,0.6,15.5-0.1
	c6.5-0.9,10.1,1.8,11.8,7.6c1.8,6.1,5.8,7.4,11.4,5.9C724.7,52.6,723.5,51.1,722.7,49.5z M641.9,23.6c-2.2,0-4.3,0-6.5,0
	c-2,0-4,0-6,0c-10.8,0-11.7-1.1-10.2-12c0.3-2.1,1.2-2.4,3-2.4c9,0.1,18-0.1,26.9,0.2c5.3,0.2,7.7,2.9,7.5,7.4
	c-0.2,4.1-2.9,6.5-7.7,6.8C646.6,23.7,644.3,23.6,641.9,23.6z M702.7,34.4c-5,0-10,0-15,0c-2.8,0-2.5-1.1-1.5-3
	c2.9-5.6,5.7-11.2,8.9-17.5c3.4,6.5,6.3,12.3,9.3,18C705.6,34,704.7,34.4,702.7,34.4z"/>
<path class="st9" d="M295.9,31.8c10.3-4.2,14.3-10.4,12.6-18.7c-1.5-7.6-7.6-11.6-17.9-11.6c-11,0-22,0.1-32.9-0.1
	c-2.6,0-3.4,0.7-3.4,3.3c0.1,15.6,0.2,31.3,0,46.9c0,3.4,1.7,3.4,4,3.2c2.2-0.1,4.7,0.7,4.5-3.2c-0.3-5.6,0-11.3-0.1-17
	c-0.1-2.4,0.7-3.2,3.1-3.1c4.5,0.2,9,0.4,13.5,0c4.8-0.4,8.1,0.9,10.3,5.4c2.1,4.3,5.6,7.9,7.7,12.2c2.7,5.6,6.7,6.6,12.7,5.2
	C305.3,46.8,300.7,39.5,295.9,31.8z M278.9,23.6c-2,0-4,0-6,0c-10.9,0-11.7-1-10.1-12.1c0.3-2.1,1.3-2.3,2.9-2.3
	c8.8,0,17.7-0.1,26.5,0.1c5.2,0.1,7.9,2.8,7.9,7c0,4.5-2.8,7.1-8.2,7.2C287.5,23.7,283.2,23.6,278.9,23.6z"/>
<path class="st2" d="M537.9,53.1c-8.4-16.6-16.9-33.1-25.4-49.6c-1.7-3.3-6-3.2-7.7,0.1c-2.2,4.1-4.2,8.3-6.3,12.4
	c-5.9,11.7-11.9,23.3-17.8,35c-0.5,1.1-2.8,3.2,0.2,3.7c3.4,0.5,7.4,1.2,8.9-3.8c0.7-2.2,2.1-4.1,3-6.3c1-2.7,2.7-3.7,5.7-3.6
	c5.5,0.2,11.1,0.7,16.4-0.1c6.3-0.9,9.2,2,11.6,7.2c3.3,7.3,3.5,7.2,11.6,6.3C538.1,54,538.1,53.5,537.9,53.1z M498.4,34.3
	c3.5-6.8,6.7-13.2,10.4-20.5c3.6,7.1,6.8,13.5,10.4,20.5C511.8,34.3,505.5,34.3,498.4,34.3z"/>
<path class="st1" d="M797.2,361.7c-3.7,0.3-7.3-0.4-10.9-0.9c-8-1.1-10.2-3.5-10.8-11.6c-1.6-22.6-0.4-45.3-0.8-63.9
	c0-24.9-0.1-45.7,0.1-66.5c0-4.2-1.2-5.1-5.3-5.1c-28.2,0.2-56.3,0-84.5,0.2c-4.2,0-5.6-0.7-5.5-5.3c0.3-25.2,0.2-50.3,0.1-75.5
	c0-1.5,1.3-4.2-1.9-4.1c-2.6,0.1-6-1.8-7.1,3c-1,4.5-2.8,8.9-4.6,13.1c-4.3,9.8-11.4,12.7-21.4,9.1c-15.3-5.5-29.9-12.8-45.4-17.7
	c-35.9-11.4-72.1-11.1-108.3-2.3c-27,6.6-51.1,19-70.4,39.4c-28.4,30-34.9,66.1-25.9,105.2c8.1,35,30.9,58.8,61.5,75.8
	c20.3,11.3,42.5,16,65.5,16.6c21.9,0.6,43.5-1.3,64-10c9.2-3.9,17.7-9,26.9-13c23.2-10.2,44.7-2.2,59.3,12.6
	c0.7,0.7,1.7,1.5,1.8,2.3c0.3,6.5,5.2,5.5,8.9,5c2.6-0.4,5.2-0.7,7.8-0.7c32,0,64,0,96,0c3.7,0,7.3,0,11,0c2,0,3.1-0.4,3.2-2.7
	C800.6,362.1,799.4,361.5,797.2,361.7z M657.2,255.7c-12.3,0-24.7,0-37,0c0,0,0,0,0,0c-24.8,0-49.6,0-74.5,0c-1.5,0-3.5-0.8-4.6,0.9
	c-1.4,2.1,0.3,4.7,3.2,4.8c9.1,0.4,18.3,0.6,27.4,1.9c8.4,1.2,12.4,4.6,14.3,12.9c3.3,14.3,2.5,28.8,2.2,43.2
	c-0.2,6.6-0.2,13.3-0.7,19.9c-1.4,17-15.7,22.2-27.2,23.2c-28.6,2.5-40.8-13.6-47.7-32.2c-7.9-21.4-10.9-43.7-12-66.4
	c-1.1-23.4-0.7-46.6,6-69.2c3.9-13.1,8.8-25.8,17.2-36.7c9.9-12.7,22.8-19.2,39-19.8c42-1.7,70.5,19.5,91.5,53.4
	c7.4,11.9,13.2,24.6,17.1,38.1c1.1,3.9,3.2,4,6.1,3.7c3.8-0.3,1.9-3.3,2-4.9c0.2-9.7,0.3-9.7,10.1-7.6c5.1,1.1,7.6,3.6,8.4,8.9
	c1.2,7.8,0.8,15.6,1.3,23.4c0.2,3.4-2.5,2.5-4.2,2.5C682.5,255.8,669.8,255.7,657.2,255.7z M699.4,308.2c-0.2,0-0.4,0-0.6,0
	c0,13.5,0.2,27-0.1,40.4c-0.1,8.6-3.7,11.9-12.2,12.4c-2,0.1-3,0-3.1-2.4c-0.9-25.9-1.5-51.9,0.4-77.8c0.5-7.3,2.2-14.6,11.3-16.8
	c3.4-0.8,4.4-0.3,4.4,3.3C699.3,280.9,699.4,294.5,699.4,308.2z"/>
<path class="st1" d="M406.2,361.6c-3.2,0.1-6.3-0.3-9.4-0.7c-9.9-1.5-11.7-3.4-12.3-13.4c-1.4-24.1-0.5-48.3-0.8-68.5
	c0-22.7-0.1-41.6,0.1-60.4c0-3.8-0.9-5-4.9-5c-28.5,0.2-57,0-85.5,0.2c-4.1,0-4.8-1.2-4.8-5c0.2-25.3,0.1-50.7,0-76
	c0-1.5,1.2-4.2-2-4c-2.5,0.2-5.7-1.6-6.9,2.7c-1.4,5.1-3.2,10.1-5.3,15c-2.7,6.2-8.7,9.8-15.2,9c-2.9-0.3-5.8-1.5-8.5-2.6
	c-13-5.1-25.7-10.9-38.9-15.3c-40.4-13.7-81-12.8-121.6-0.8c-23,6.8-43.2,18.8-60.1,36C7.9,195.5-1,223.2,0.1,254.3
	c1.2,33.9,15,61.9,40.9,83.9c31.1,26.4,67.5,35,107.3,32.8c21.9-1.2,42.7-6,61.7-17.3c3.7-2.2,7.8-3.6,11.8-5.4
	c19.3-8.5,37-5.3,53.3,7.3c3.3,2.6,8,4.7,7.8,10.2c0,1.7,1.6,1.2,2.5,1.8c4.1,2.4,8.1-0.3,12.1-0.2c30.2,0.1,60.3,0.1,90.5,0.1
	c6,0,12,0,18,0c2,0,3.5,0,3.6-2.8C409.6,361.9,408.3,361.6,406.2,361.6z M229.7,255.7C229.7,255.7,229.7,255.7,229.7,255.7
	c-25.2,0-50.3,0-75.5,0.1c-1.5,0-3.7-1-4.2,1.4c-0.5,2.4-0.4,4.4,3.3,4.4c8.8,0,17.6,0.5,26.4,1.7c10.3,1.4,14.7,5.8,16.1,15.9
	c2.1,15.1,1.7,30.2,1.2,45.3c-0.2,6.6,0.2,13.3-1.5,19.9c-2.6,10.3-12.8,17.1-25.9,18.2c-27.5,2.3-41.1-11.7-49-34.6
	c-7.5-21.5-10.2-43.9-11.2-66.6c-1.1-24.7,0-49.2,8.2-72.9c5.4-15.7,12-30.8,26-41c8.1-5.9,17.3-8.9,27.4-9.3
	c40.7-2,69.4,17.6,90.6,50.4c8.3,12.8,14.7,26.5,18.9,41c1.1,3.9,3.3,3.9,6.2,3.7c3.6-0.2,1.3-3,2-4.5c0.1-0.1,0-0.3,0-0.5
	c1-2.8-2.4-7.5,2.1-8.3c8.3-1.4,14.6,2.1,15.9,7.6c2,8.3,1.4,16.9,2,25.3c0.2,3.5-2.3,2.5-4,2.5
	C279.7,255.7,254.7,255.7,229.7,255.7z M307.8,349c-0.1,4-0.6,8-4.9,10.1c-7.9,3.9-10.1,2.5-10.5-6c-0.7-14.3-0.8-28.6-0.8-42.9
	c0-11.3,0.4-22.6,1.9-33.8c0.9-6.7,4.5-11.2,11.4-12.8c2.7-0.6,3.8-0.1,3.8,3c-0.2,13.8-0.1,27.6-0.1,43.6
	C309.1,321.8,308.2,335.4,307.8,349z"/>
<path class="st1" d="M1103.5,127.8c-12.9-0.1-23.6,10.4-23.7,23.3c-0.2,13.2,10.2,23.7,23.5,23.9c13.1,0.2,23.3-10,23.4-23.2
	C1126.9,138.2,1116.9,127.9,1103.5,127.8z M1103.2,171.8c-11-0.2-20.3-9.5-20.4-20.4c-0.1-10.8,9.8-20.5,21-20.5
	c11.3,0,20.3,9.6,20.1,21.5C1123.6,163.2,1114.2,172,1103.2,171.8z"/>
<path class="st1" d="M1111.7,151.4c3.3-1.5,4.2-4.6,3.6-8c-0.6-3.6-3.4-5.4-6.7-5.7c-4.1-0.4-8.3-0.1-12.5-0.2
	c-1.7,0-2.3,0.7-2.3,2.4c0.1,7.3,0.1,14.6,0,21.9c0,1.9,0.5,2.7,2.5,2.7c2.3,0,2.2-1.4,2.2-2.9c0-1.8-0.1-3.7,0-5.5
	c0.1-1.1-0.8-3,1.3-3.1c1.8-0.1,4.1-1,5.2,1.6c0.9,2.1,2.2,4.1,3,6.3c1.1,3.3,3.1,4.4,6.7,3.2c-1.4-3-2.7-6-4.2-9
	C1109.8,153.5,1109.5,152.5,1111.7,151.4z M1102.5,149.8c-3.1,0.8-4-0.9-3.9-4.5c0.1-3.5,0.6-5.2,4.5-4.7c3.4,0.5,7.6,0.1,7.6,5
	C1110.5,150.4,1106.4,149.6,1102.5,149.8z"/>
</svg>
