<?xml version="1.0" encoding="utf-8"?>
<!-- Generator: Adobe Illustrator 22.0.1, SVG Export Plug-In . SVG Version: 6.00 Build 0)  -->
<svg version="1.1" id="Layer_1" xmlns="http://www.w3.org/2000/svg" xmlns:xlink="http://www.w3.org/1999/xlink" x="0px" y="0px"
	 viewBox="0 0 725.5 272.1" style="enable-background:new 0 0 725.5 272.1;" xml:space="preserve">
<style type="text/css">
	.st0{fill:#241414;}
	.st1{fill:#FCFCFB;}
	.st2{fill:#F60608;}
	.st3{fill:#FDD002;}
</style>
<path class="st0" d="M13.4,122c-0.8-20.5-4.1-40.6-12.1-59.7c-1.6-3.8-1.5-6.7,1.3-10.3c8.5-10.8,16.6-22,24.8-33
	c2.3-3.1,4.5-4.7,9.1-3.8c9.4,1.9,18.5-0.4,27-4.8C83.6,0.2,105-2.1,126.9,1.7c10.1,1.8,19.7,5.9,29,10.4c8,3.9,16.2,5,24.7,3.2
	c3.1-0.7,4.6,0.2,6.3,2.4c9.1,12.2,18.2,24.5,27.5,36.6c1.6,2.1,1.3,4.1,0.4,6c-11.6,27.1-14.5,55.5-11,84.5
	c1.9,15.6,5.6,31,11,45.9c1.4,3.9,0.9,6.4-3,9.1c-28.1,19.5-55.9,39.4-83.8,59.1c-5.8,4.1-11.7,8.1-17.5,12.2
	c-2,1.5-3.5,0.9-5.4-0.4c-20.7-14.6-41.5-29.2-62.3-43.8c-12.2-8.6-24.5-17.1-36.7-25.6c-6.9-4.8-7.2-5.7-4.5-13.4
	C9.1,166.6,12.8,144.6,13.4,122z M75.6,240.6c8,5.6,16,11.3,24,16.8c9.9,6.8,6.6,7,16.3,0.1c1.3-1,2.8-1.8,4.1-2.8
	c6.9-5.4,14.7-9.5,21.1-15.6c8.4-4.6,15.7-10.6,23.6-15.9c13.4-9,26.4-18.6,39.5-27.9c1.8-1.3,2.1-2.2,1.5-3.9
	c-2.7-7.4-3.8-15.3-6-23c-4-14-4.8-28.7-5.3-43.2c-0.3-10,1-20,2.2-30.1c1.4-11.7,4.7-22.7,8.7-33.6c0.9-2.6,0.7-4.8-0.9-7
	c-6.1-8.4-12.1-16.8-17.8-25.4c-3.6-5.4-7.5-6.5-13.1-6c-6.5,0.5-12.5-1.4-18.8-3.4c-4.6-1.5-8.5-5.1-13.6-4.9
	c-22.2-9.3-44.5-9.4-66.8,0c-2.5,0.8-5,1.5-7.4,2.6c-9.3,4.3-18.7,7.8-29.1,6.4c-2.7-0.4-4.3,0.5-5.9,2.6
	c-7,9.5-14.1,18.9-21.2,28.3C9,56.9,9,58.9,10,61.5c6.9,18.1,11.2,36.8,11.1,56.3c0,12.1-0.5,24-2.5,36c-2.1,12.1-5,24-8.7,35.6
	c-0.9,2.8-0.5,4.4,1.7,6c7.3,5.1,14.6,10.3,21.9,15.4C47.5,220.8,61.5,230.7,75.6,240.6z"/>
<path class="st0" d="M609.1,93.9c-0.7-11.3,2.6-21.5,13.4-27.4c16.9-9.2,42.4-2.3,44,23c0.6,9.8-0.5,18.8-7,26.6
	c-7.9,9.5-21.9,10.8-32.7,7.4c-11.4-3.5-17.6-13.3-17.7-26C609.1,96.5,609.1,95.5,609.1,93.9z M653.4,93.9c0.7-3.8-0.8-7.8-1.9-11.8
	c-1.9-6.5-7.5-11-13.8-11.2c-5.4-0.2-11.2,4.3-13.5,10.2c-3.3,8.5-2.9,16.9,0,25.4c1.9,5.5,5.9,9,11.3,10c5.6,1.1,10.5-1.1,13.7-6
	C652.6,105.7,653.7,100.2,653.4,93.9z"/>
<path class="st0" d="M383.2,164.8c-1.1,8.2-2.2,16.4-3.4,24.6c-1,6.6-1.6,6.9-8.4,6.7c-2.7-0.1-3.4-0.9-3-3.6
	c2.6-15.9,5.1-31.8,7.6-47.7c0.2-1.3,0.5-2.6,0.8-3.9c0.5-1.9,1.1-3.6,3.4-3.6c2.2,0,4.2-0.2,5.3,2.5c3.8,8.5,7.8,16.8,11.7,25.2
	c1.5,3.1,2.8,6.3,4.3,9.5c0.5,1,0.8,2.4,2.2,2.3c1.3-0.1,0.9-1.5,1.3-2.4c4.8-11.1,9.8-22.1,14.4-33.3c1.4-3.3,3.6-4,6.7-3.8
	c3.1,0.2,2.8,2.8,3.2,4.8c2.5,15.6,5.1,31.1,7.4,46.7c0.3,2.4,3.2,6.6-2.6,7.2c-8.1,0.7-9,0.1-9.6-5.8c-0.5-4.3-1.4-8.5-1.9-12.8
	c-0.6-4.3-0.9-8.6-1.4-13.3c-5,4.2-5.6,10.4-8.3,15.4c-2.3,4.2-4,8.7-5.7,13.2c-1,2.7-2.9,3.4-5.4,3.4c-2.5,0-3.5-1.3-4.6-3.7
	c-4-9.3-8.5-18.5-12.8-27.8C384.1,164.7,383.7,164.8,383.2,164.8z"/>
<path class="st0" d="M393.9,91.9c-3.7,8.5-7.3,17-11,25.5c-1.2,2.7-2,5.7-5.9,5.9c-4,0.2-4.9-2.8-6.1-5.5
	c-3.8-8.3-7.6-16.7-11.6-25.4c-2.5,2.1-2.5,4.7-2.8,7c-0.7,6.1-1.6,12.2-2.7,18.2c-1,5.5-1.7,6.3-7.5,5.6c-5.1-0.6-3.1-4.4-2.8-6.9
	c2.2-14.3,4.6-28.5,7-42.8c0.2-1.3,0.4-2.6,0.4-4c0-2.4,0.6-4.4,3.4-4.6c2.7-0.2,5.2-0.1,6.5,3.1c4.6,11.5,10.8,22.4,15.1,34
	c0.3,0.8,0.4,1.7,1.5,1.7c1.4,0,2-0.9,2.5-2.1c4.3-10.2,8.7-20.4,13.1-30.6c0.6-1.4,1.4-2.7,1.9-4.1c1.1-2.7,3.4-2.3,5.5-2.2
	c2.2,0.1,3.1,1.6,3.4,3.6c2.1,13,4.2,25.9,6.3,38.8c0.6,3.8,1.2,7.5,1.9,11.3c0.5,2.7,0.1,4.4-3.3,4.5c-7.8,0.2-7.9,0.4-9.3-7.4
	c-1.2-6.5-2.2-13.1-3.2-19.7C395.7,94.5,396,92.7,393.9,91.9z"/>
<path class="st0" d="M473.6,94.5c0,8.3,0,16.6,0,25c0,1.6,0.4,3.6-1.5,4.4c-2,0.8-2.9-1.1-4-2.3c-10.9-12.1-21.8-24.1-32.7-36.2
	c-0.7-0.8-1.1-2.4-2.5-2c-1.7,0.5-1.2,2.1-1.2,3.4c0,10.3-0.2,20.6,0,30.9c0.1,4-0.8,5.7-5.2,5.8c-4.3,0-4.9-1.9-4.8-5.5
	c0.1-15.1-0.1-30.3,0.1-45.4c0-2.5-1.9-6.5,1.9-7.3c3.8-0.8,8.3-1.6,11.6,2.3c6.3,7.2,12.8,14.4,19.2,21.6c1.8,2,3.5,4,5.3,5.9
	c0.8,0.9,1.5,2.5,3.2,1.7c1.3-0.6,0.8-2,0.8-3.1c0-8,0.1-16-0.2-24c-0.1-3.4,0.9-4.9,4.5-4.7c3.3,0.1,5.8,0.1,5.6,4.7
	C473.4,77.8,473.7,86.2,473.6,94.5C473.6,94.5,473.6,94.5,473.6,94.5z"/>
<path class="st0" d="M557.3,124.9c-8.8,0.2-16.6-2.4-20.5-11.8c-0.3-0.8-0.6-1.5-0.8-2.3c-0.4-1.7-0.7-3.4,1.3-4.3
	c2.1-1,2.8,0.6,3.7,2.1c4.1,6.2,9.9,9,17.4,8.5c3-0.2,5.5-1.5,7.5-3.4c4.8-4.6,3.3-11.3-3.1-13.4c-3.6-1.2-7.4-2-11.1-2.9
	c-9.4-2.4-13.9-7.6-13.9-16.3c0-8.6,5-15.4,13.6-17.3c6.7-1.5,13.4-1.9,20.1,1.1c4.2,1.8,6.6,4.8,8.3,8.7c0.7,1.6,1.5,3.7-0.8,4.8
	c-2,1-2.9-0.6-4-1.9c-5.7-6.7-14.1-8.1-21-3.6c-5.5,3.6-5,9.3,0.8,12.5c4.5,2.5,9.6,2.3,14.3,4.1c8,3.1,12.3,7.8,12.9,15.9
	c0.5,5.9-5.1,14.1-11.2,17C566.7,124.4,562.3,124.9,557.3,124.9z"/>
<path class="st0" d="M492.4,166.8c0-8,0.2-16-0.1-24c-0.1-4,1.2-5.7,5.4-5.6c9,0.2,18,0.2,27,0c3.3-0.1,4.9,0.9,5,4.5
	c0.1,3.8-1.5,4.9-5.1,4.7c-5.1-0.3-10.3,0-15.5-0.1c-2.9,0-4,1-4.1,4.1c-0.2,11.1-0.4,11.1,10.5,11c2,0,4,0.1,6-0.1
	c3-0.2,5.2,0.1,5,4.1c-0.2,3.7-1.6,4.9-5.2,4.7c-3.6-0.3-7.3-0.1-11,0c-1,0-2.3-0.3-2.9,0.2c-4.9,3.7-1.6,8.8-2.2,13.3
	c-0.5,3.3,2.1,3.6,4.6,3.6c6.5,0,13,0.2,19.5-0.2c3.7-0.2,4,1.6,4.2,4.5c0.2,3.2-0.8,4.5-4.1,4.4c-10.7-0.1-21.3-0.1-32,0
	c-4,0.1-5.2-1.5-5-5.4C492.5,182.8,492.3,174.8,492.4,166.8C492.3,166.8,492.3,166.8,492.4,166.8z"/>
<path class="st0" d="M634.2,166.3c0-8.2,0.1-16.3,0-24.5c-0.1-3.4,1-4.7,4.6-4.5c6.5,0.3,13,0,19.5,0.1c8.1,0.1,13.8,3.7,15.9,9.7
	c2.6,7.6,0.8,14.1-6.1,19.3c-2.9,2.2-1.6,3.9-0.4,5.9c3.9,6.6,7.8,13.1,11.8,19.6c0.6,1,1.7,1.8,1.1,3.1c-0.8,1.6-2.3,1-3.6,1
	c-0.2,0-0.3,0-0.5,0c-6.6,1.2-10.7-1.4-13.4-7.6c-2.3-5.2-6-9.8-8.8-14.9c-1.4-2.5-3.5-3-5.8-2.7c-3,0.4-1.9,3.1-1.9,4.9
	c-0.1,5.3-0.2,10.7,0,16c0.1,3.2-0.8,4.7-4.2,4.4c-1.3-0.1-2.7-0.2-4,0c-3.4,0.5-4.4-1.1-4.3-4.3
	C634.2,183.3,634.1,174.8,634.2,166.3C634.2,166.3,634.2,166.3,634.2,166.3z M646.5,156.7c0.8,2.4-1.8,6.9,1.3,8.5
	c3.1,1.6,7.1-0.4,10.2-2.3c3.8-2.3,5.2-7.1,3.6-11.2c-1.7-4.4-7.3-7-12.9-5.3c-4.5,1.3-1.4,5.4-2.2,8.1
	C646.4,154.9,646.5,155.4,646.5,156.7z"/>
<path class="st0" d="M685.5,166.5c0-8.2,0.1-16.3-0.1-24.5c-0.1-3.5,0.8-5,4.8-4.9c9.1,0.3,18.3,0.2,27.5,0c3.8-0.1,4.9,1.4,4.9,5
	c0,3.8-1.9,4.3-5.1,4.2c-5.2-0.2-10.3,0-15.5-0.2c-2.9-0.1-4.3,1-4.2,4.1c0.5,12.9-2.7,10.9,10.7,11.2c2.2,0,4.3,0,6.5,0
	c2.5,0,4.6,0.3,4.4,3.8c-0.2,3.1-0.8,5.1-4.5,5c-4.3-0.2-8.7-0.6-13,0c-8.1,1.1-2.8,7.6-4,11.5c-0.8,2.7-0.5,5.8,3.9,5.6
	c6.3-0.2,12.7,0.1,19-0.2c3.7-0.2,4.5,1.3,4.6,4.6c0,3.1-0.7,4.3-4.1,4.3c-10.7-0.2-21.3-0.1-32,0c-3,0-4.1-1.1-4-4.1
	C685.6,183.5,685.5,175,685.5,166.5z"/>
<path class="st0" d="M528.6,123.4c-6.7,1.8-8-4.1-9.7-8.8c-1.3-3.6-3.3-4.5-6.6-4.4c-3.7,0.1-7.4,0.5-11,0
	c-6.1-0.9-9.4,1.5-10.9,7.3c-1.3,5.1-4.7,6.6-9.8,6c-3.3-0.4-3.5-1.4-2.2-4.1c4.5-9.4,8.9-18.9,13.4-28.3c3.6-7.6,7.4-15.2,11-22.8
	c0.8-1.7,1.6-3.4,3.9-3.3c2.3,0.1,3.4,1.4,4.3,3.5c7.8,17,15.8,33.9,23.7,50.8C536.4,122.7,535.6,123.4,528.6,123.4z M504.7,85.8
	c-2.2,4.8-4.2,9.2-6.3,13.6c-0.9,2,0.1,2.8,1.9,2.8c3.5,0.1,7,0.1,10.4,0c1.2,0,2.8-0.5,1.8-2C509.7,95.8,508.9,90.1,504.7,85.8z"/>
<path class="st0" d="M311.4,106.8c0.1,12.6,0.3,13.2-12.2,16.5c-17.2,4.6-35.1,0.5-41-19.2c-3.6-12-0.9-26.7,10.4-35
	c10.4-7.6,24.9-8.6,34.1-2c2.5,1.8,4.3,4.2,5.8,6.7c0.9,1.5,1.1,3.3-0.7,4.4c-1.6,0.9-2.7,0.1-3.8-1.2c-9.8-11.3-27.6-4.9-32.4,7.2
	c-4.7,12.2,1.8,28.2,12,31.6c3.9,1.3,7.9,1.5,11.8,0.3c3.3-1,5.6-11.3,3.1-13.7c-1.5-1.4-3.6-0.8-5.3-0.6c-3.5,0.5-4.4-1.2-4.4-4.2
	c0-2.8,0.3-4.9,4-4.7c5,0.2,10,0.2,15,0c2.6-0.1,3.7,0.8,3.6,3.4C311.3,99.8,311.4,103.3,311.4,106.8z"/>
<path class="st0" d="M446.4,167.1c0-8.3,0.1-16.6,0-24.9c0-3.4,0.9-5.2,4.9-5c6.5,0.3,13,0.1,19.5,0.1c9.6,0.1,16.5,5.6,17.6,14.2
	c1,7.5-5.1,15.3-13.8,17.7c-3.9,1.1-7.7,2.3-11.7,1.6c-3.6-0.7-3.9,1.2-3.9,3.8c0,5.5-0.3,11,0.1,16.5c0.3,4.2-1.5,5.4-5.2,5
	c-1.2-0.1-2.3-0.2-3.5-0.1c-3.2,0.4-4-1-3.9-4C446.6,183.7,446.4,175.4,446.4,167.1C446.4,167.1,446.4,167.1,446.4,167.1z
	 M458.7,156.3c0.7,2.9-1.7,7.5,1.4,9c3.5,1.6,7.7-0.7,11-3c3.6-2.5,4.7-7,2.9-11c-1.8-3.9-7.3-6.2-12.4-5.1c-5,1.1-2.2,5.1-2.9,7.8
	C458.6,154.7,458.7,155.4,458.7,156.3z"/>
<path class="st0" d="M335.6,183.2c-0.3,0-0.7,0.1-1,0c-7.6-1.4-12.6,1.1-14.9,8.9c-1.1,3.7-6.8,5.4-10.2,3.7
	c-2.7-1.3-0.9-3.3-0.3-4.7c4.2-9,8.6-17.9,12.9-26.9c3.7-7.7,7.5-15.4,11.2-23.2c0.8-1.7,1.6-3.5,3.7-3.6c2.4-0.2,3.3,1.6,4.2,3.5
	c7.9,17,15.8,33.9,23.7,50.8c1.3,2.8,0.6,4.2-2.9,4.3c-8.5,0.2-8.6,0.4-11.7-7.2c-1.7-4.2-4.2-6.4-8.9-5.7
	C339.6,183.4,337.6,183.2,335.6,183.2z M335.9,175.2c1.5,0,3-0.1,4.5,0c2,0.2,3-0.9,2.4-2.6c-1.6-4-3.3-7.9-5.3-11.7
	c-0.7-1.4-2.6-3-3.6-0.1c-1.3,3.6-2.8,7-4.6,10.3c-1.2,2.2-0.7,4.3,2.7,4.2C333.2,175.2,334.5,175.2,335.9,175.2z"/>
<path class="st0" d="M560.7,135.8c11.9,0,17.7,3.2,20,10.7c0.5,1.5,1.5,3.5-0.2,4.6c-2.2,1.5-3.1-0.9-4.2-2.2
	c-5.2-6-12-7.7-19.3-4.6c-3.3,1.3-6,3.6-5.7,7.3c0.3,3.7,2.7,6.4,6.5,7.4c3.2,0.9,6.4,1.7,9.7,2.3c7.9,1.5,14.3,7.1,15.1,13.3
	c1.1,9.4-2.6,17-10.8,20.4c-9.3,3.8-18.7,4-27.7-1.6c-3.4-2.2-5.4-5.4-6.3-9.2c-0.4-1.7-1.3-3.8,0.7-4.9c2.4-1.3,3.1,1.3,4.1,2.6
	c5.4,7.1,13,9.8,20.5,7c4.1-1.5,7-4.1,7.1-8.6c0.1-4.2-2.9-6.6-6.6-7.7c-3.9-1.2-8-2.2-12-3.1c-9.5-2.2-12.5-9.3-12.7-15.7
	c-0.3-7.7,6.2-15.4,13.5-17.1C555.3,135.9,558.4,135.5,560.7,135.8z"/>
<path class="st0" d="M269.9,166.3c0,12,5.7,20.4,16,22.9c6.9,1.7,12.8-0.4,17.5-5.6c1.3-1.4,2.5-3.1,4.5-1.9
	c2.2,1.3,0.6,3.2-0.1,4.8c-3.9,9.1-12.4,11.1-20.6,11.2c-10.9,0.2-20.6-3.5-26.4-13.9c-7.6-13.9-5.4-37.7,12.7-45.7
	c10.2-4.5,20.6-4.7,30.2,2.2c2.3,1.6,3.6,3.9,4.8,6.2c0.7,1.4,1.5,3.4-0.3,4.5c-1.8,1.2-3-0.2-4.2-1.5c-2.3-2.4-4.3-4.9-7.9-5.7
	C281.5,140.5,270,150.3,269.9,166.3z"/>
<path class="st0" d="M612.1,171.3c0,6.8-0.1,13.7,0.1,20.5c0.1,3.2-0.9,4.3-4.3,4.3c-9.4-0.1-8.1,0.7-8.2-8.4
	c0-12.2-0.1-24.3,0.2-36.5c0.1-4-1.3-5.4-5.2-5c-2.5,0.2-5-0.2-7.5,0.1c-3.8,0.5-4.9-1.1-4.8-4.7c0.1-3.5,1.2-4.4,4.8-4.4
	c12.5,0.3,25,0.2,37.5,0c3.5-0.1,4.8,0.9,4.7,4.4c-0.1,3.3-0.8,4.6-4.6,4.6C612,146,612,146.1,612,158.8
	C612,163,612,167.1,612.1,171.3C612,171.3,612,171.3,612.1,171.3z"/>
<path class="st0" d="M589.3,94c0-8.3,0.1-16.6-0.1-24.9c-0.1-3.3,1.2-4.5,4.4-4.3c1.5,0.1,3,0.1,4.5,0c2.5-0.2,3.7,1,3.7,3.5
	c0,17.1,0,34.2,0,51.4c0,2.3-1.1,3.2-3.2,3.7c-7.4,1.6-9.2,0.2-9.2-7.4c0-7.3,0-14.6,0-21.9C589.4,94,589.3,94,589.3,94z"/>
<path class="st0" d="M333.6,93.9c0,8.3-0.1,16.6,0.1,24.9c0.1,3.4-1,4.6-4.5,4.6c-8-0.1-7.9,0-7.9-7.7c0-15.3,0.1-30.6-0.1-45.9
	c-0.1-4,1.1-5.5,5.1-4.9c3.4,0.5,7.9-1.7,7.5,5.1C333.3,77.9,333.6,85.9,333.6,93.9z"/>
<path class="st1" d="M141.1,239.1c-6.3,6.1-14.2,10.3-21.1,15.6c-1.3,1-2.8,1.8-4.1,2.8c-9.6,6.9-6.4,6.7-16.3-0.1
	c-8-5.6-16-11.2-24-16.8c1.4-1.9,1.3-4.1,1.3-6.2c0-16.3-0.1-32.6-0.1-48.9c0-10.5,0-21,0-31.4c0-4.6-1.1-7.8-6.7-7.3
	c-1.4,0.1-2.9-0.3-4.2-1.4c-7.9-6.7-16.7-11.9-21.8-22.1c-7.2-14.3-8.4-28.7-3.8-43c5.1-15.6,16-27.2,31.9-33.1
	c3.3-1.2,4.7-3.1,4.6-6.6c-0.2-7.6-1.9-15.2-0.1-22.8c0.3-1.1-0.6-3-2.6-3.1c22.3-9.4,44.5-9.3,66.8,0c-0.2,0.8-0.6,1.6-0.6,2.4
	c0,26.3,0,52.6,0,78.9c0,2.4,1.1,3.2,3.2,3.5c6.7,1.1,13.3,3.1,19.5,5.7c2.8,1.2,7.8,0.7,7.8,6c0,7.3,0.1,14.6,0,22
	c0,2.7-0.5,4.3-3.8,2.1c-6.4-4.2-13.2-7.6-20.5-9.9c-5.2-1.6-6.3-0.8-6.3,4.5c0,15.1,0.1,30.3,0.1,45.4c0,5.9,2.6,7.4,8.1,5.1
	c6.7-2.8,12.9-6.4,18.9-10.5c3.4-2.4,5.1-1.5,5.2,2.8c0.1,6.7,0,13.3,0,20c0,2.5-1,4.5-3.4,5.6c-7.7,3.4-15.3,7.2-24,7.7
	c-3,0.2-4.7,1.6-4.6,4.7C140.8,220.2,139.9,229.7,141.1,239.1z M93.1,47.8c-6.1-0.4-12,0.8-18,2.6c-14.7,4.4-31.3,22.9-32.6,38.2
	c-1,11.1,0,22.3,5.4,32.4c6.2,11.6,15.5,19.5,28.2,23.4c1.9,0.6,4,0.9,4.4-1.6c0.6-4.2,4.1-8.1,1.9-12.7c-0.2-0.3-0.9-0.4-1.4-0.5
	c-14.3-5.6-21.2-16.4-21.8-31.4C58.3,76.8,76.6,62,92.5,62.8c8.2,0.4,15.7,2.1,23.2,5c3.6,1.4,7.4,6.6,10.4,3.7
	c2.1-2,0.4-7.9,0.7-12c0.1-2.5-0.7-3.8-3.1-4.9C113.9,50.7,104.1,47.1,93.1,47.8z M109.3,121.2c0-3.1,0.1-5.3,0-7.4
	c0-1.2,0.6-2.8-0.9-3.6c-1.5-0.7-2.4,0.8-3.4,1.5c-18.2,13.1-24.7,30.9-20.6,52.6c2.5,13.4,9.9,24,21.5,30.9
	c17.6,10.5,36.1,8.5,54.8,2.4c6.1-2,8.5-5.6,7.4-11.8c-0.3-1.8,0-3.7-0.1-5.5c0-1.3,0.6-2.8-0.9-3.6c-1.5-0.8-2.4,0.5-3.5,1.2
	c-9.5,5.8-19.6,9.4-31,8.9c-13.3-0.6-23.4-6.3-29.4-18.1c-5.9-11.7-5-23.8,2.3-34.6C108.5,129.6,109.8,125.4,109.3,121.2z
	 M128.6,115.4c-0.1,0-0.1,0-0.2,0c0-6.2-0.3-12.3,0.1-18.5c0.3-4.1-1.4-4.9-4.8-4.8c-8.3,0.1-16.6,0-25,0
	c-13.8,0-10.5-0.4-11.1,11.3c-0.2,2.9,1.2,3.9,3.8,3.9c4.8-0.1,9.6-0.2,14.5-0.2c6.7,0,6.7,0,6.6,6.5c0,3-0.2,6,0,9
	c0.3,4.6-0.2,8.7-3.7,12.3c-1.8,1.8-2.9,4.5-3.9,6.9c-0.8,2-0.4,3.6,2.5,3.2c6.6-0.9,12.9-3.1,19-5.7c2-0.9,2.1-2.4,2.1-4
	C128.6,128.7,128.6,122,128.6,115.4z M167.2,121.2c0-2,0.1-4,0-6c-0.1-2.3-0.9-4.2-3.3-5c-6.6-2.4-13.1-5.2-20.2-6
	c-12.3-1.5-12.1-1.6-12.3,10.5c-0.1,4,1,5.4,5,5.1c8.3-0.6,15.7,2.5,22.8,5.9C167.3,129.7,167.2,130,167.2,121.2z M77.1,97.1
	c0-6,0-12,0-17.9c0-1.6,0.7-3.5-1.5-4.3c-2.2-0.8-4.1,0.3-5.2,2c-3.4,5.2-6.1,10.7-7.3,17c-1.6,8.4,4.5,15.1,4.5,23.1
	c0,0.5,1.2,1.3,1.9,1.4c2,0.3,3.4,1.2,4.3,3c0.5,1,1.7,1.4,2.5,0.6c0.7-0.7,1.7-1.2,1.3-2.8C75.9,111.7,77.2,104.4,77.1,97.1z"/>
<path class="st2" d="M141.1,239.1c-1.2-9.4-0.3-18.9-0.5-28.4c-0.1-3.1,1.7-4.5,4.6-4.7c8.6-0.6,16.2-4.4,24-7.7
	c2.5-1.1,3.4-3,3.4-5.6c0-6.7,0.1-13.3,0-20c-0.1-4.2-1.8-5.1-5.2-2.8c-5.9,4.1-12.2,7.7-18.9,10.5c-5.5,2.3-8.1,0.8-8.1-5.1
	c0-15.1-0.1-30.3-0.1-45.4c0-5.3,1.1-6.1,6.3-4.5c7.3,2.3,14.1,5.7,20.5,9.9c3.3,2.1,3.7,0.6,3.8-2.1c0.1-7.3,0-14.6,0-22
	c0-5.3-5-4.8-7.8-6c-6.2-2.7-12.8-4.7-19.5-5.7c-2.1-0.3-3.2-1.2-3.2-3.5c0-26.3,0-52.6,0-78.9c0-0.8,0.4-1.6,0.6-2.4
	c5.1-0.2,9,3.4,13.6,4.9c6.2,2,12.2,3.9,18.8,3.4c5.6-0.4,9.5,0.6,13.1,6c5.7,8.6,11.8,17.1,17.8,25.4c1.6,2.2,1.8,4.4,0.9,7
	c-4,10.9-7.3,21.9-8.7,33.6c-1.2,10-2.5,20-2.2,30.1c0.4,14.5,1.3,29.2,5.3,43.2c2.2,7.6,3.2,15.5,6,23c0.6,1.7,0.3,2.6-1.5,3.9
	c-13.2,9.3-26.2,18.9-39.5,27.9C156.8,228.5,149.4,234.5,141.1,239.1z"/>
<path class="st3" d="M74.3,14.8c2,0.1,2.8,1.9,2.6,3.1c-1.8,7.6-0.1,15.2,0.1,22.8c0.1,3.5-1.4,5.4-4.6,6.6
	c-15.9,5.9-26.8,17.5-31.9,33.1c-4.6,14.3-3.4,28.7,3.8,43c5.1,10.2,13.9,15.4,21.8,22.1c1.2,1,2.7,1.5,4.2,1.4
	c5.6-0.5,6.7,2.7,6.7,7.3c-0.1,10.5-0.1,21,0,31.4c0,16.3,0.1,32.6,0.1,48.9c0,2.2,0.1,4.3-1.3,6.2c-14.1-9.9-28.1-19.9-42.2-29.8
	c-7.3-5.1-14.6-10.3-21.9-15.4c-2.2-1.5-2.6-3.2-1.7-6c3.6-11.7,6.6-23.5,8.7-35.6c2.1-12,2.5-24,2.5-36
	c0.1-19.5-4.2-38.2-11.1-56.3c-1-2.6-0.9-4.7,0.8-6.9C17.9,45.2,25,35.8,32,26.3c1.6-2.1,3.2-3,5.9-2.6c10.5,1.4,19.9-2.1,29.1-6.4
	C69.3,16.2,71.9,15.6,74.3,14.8z"/>
<path class="st0" d="M93.1,47.8c11-0.7,20.8,2.9,30.5,6.9c2.4,1,3.3,2.3,3.1,4.9c-0.2,4.1,1.4,10-0.7,12c-3,2.9-6.8-2.3-10.4-3.7
	c-7.5-3-15-4.7-23.2-5c-15.8-0.8-34.2,14-33.3,35.4c0.6,15,7.5,25.9,21.8,31.4c0.5,0.2,1.2,0.2,1.4,0.5c2.2,4.6-1.3,8.4-1.9,12.7
	c-0.3,2.5-2.5,2.2-4.4,1.6c-12.7-3.9-22-11.7-28.2-23.4c-5.4-10.2-6.4-21.3-5.4-32.4c1.4-15.3,17.9-33.8,32.6-38.2
	C81.1,48.6,87,47.4,93.1,47.8z"/>
<path class="st0" d="M109.3,121.2c0.5,4.2-0.8,8.4-3.8,12.9c-7.3,10.8-8.2,22.9-2.3,34.6c5.9,11.8,16.1,17.5,29.4,18.1
	c11.4,0.5,21.5-3,31-8.9c1.1-0.7,2-1.9,3.5-1.2c1.5,0.8,0.9,2.3,0.9,3.6c0,1.8-0.3,3.7,0.1,5.5c1.1,6.3-1.4,9.8-7.4,11.8
	c-18.6,6.1-37.1,8.1-54.8-2.4c-11.6-6.9-18.9-17.5-21.5-30.9c-4.1-21.7,2.4-39.5,20.6-52.6c1-0.7,1.9-2.2,3.4-1.5
	c1.6,0.7,0.9,2.3,0.9,3.6C109.4,116,109.3,118.1,109.3,121.2z"/>
<path class="st0" d="M128.6,115.4c0,6.7,0,13.3,0,20c0,1.7-0.1,3.2-2.1,4c-6.1,2.7-12.3,4.8-19,5.7c-2.9,0.4-3.4-1.1-2.5-3.2
	c1-2.4,2.1-5.1,3.9-6.9c3.5-3.6,4-7.7,3.7-12.3c-0.2-3,0-6,0-9c0-6.5,0.1-6.6-6.6-6.5c-4.8,0-9.6,0.1-14.5,0.2c-2.6,0-4-1-3.8-3.9
	c0.6-11.7-2.8-11.3,11.1-11.3c8.3,0,16.7,0.1,25,0c3.4,0,5.1,0.7,4.8,4.8c-0.4,6.1-0.1,12.3-0.1,18.5
	C128.5,115.4,128.5,115.4,128.6,115.4z"/>
<path class="st0" d="M167.2,121.2c0,8.8,0.2,8.5-8,4.5c-7.1-3.5-14.6-6.6-22.8-5.9c-4,0.3-5.1-1.2-5-5.1c0.2-12.1,0-11.9,12.3-10.5
	c7.1,0.8,13.6,3.6,20.2,6c2.4,0.9,3.2,2.7,3.3,5C167.2,117.2,167.2,119.2,167.2,121.2z"/>
<path class="st3" d="M77.1,97.1c0.2,7.3-1.2,14.6,0.5,21.8c0.4,1.6-0.6,2.2-1.3,2.8c-0.8,0.8-2,0.4-2.5-0.6c-0.9-1.8-2.3-2.7-4.3-3
	c-0.7-0.1-1.9-0.9-1.9-1.4c0-8-6.1-14.7-4.5-23.1c1.2-6.3,3.9-11.7,7.3-17c1.1-1.7,3-2.8,5.2-2c2.1,0.8,1.4,2.8,1.5,4.3
	C77.1,85.1,77.1,91.1,77.1,97.1z"/>
</svg>
