<?xml version="1.0" encoding="utf-8"?>
<!-- Generator: Adobe Illustrator 22.0.1, SVG Export Plug-In . SVG Version: 6.00 Build 0)  -->
<svg version="1.1" id="Layer_1" xmlns="http://www.w3.org/2000/svg" xmlns:xlink="http://www.w3.org/1999/xlink" x="0px" y="0px"
	 viewBox="0 0 914.7 292.8" style="enable-background:new 0 0 914.7 292.8;" xml:space="preserve">
<style type="text/css">
	.st0{fill:#EDBA13;}
	.st1{fill:#F2C52F;}
	.st2{fill:#F1C534;}
	.st3{fill:#F2C534;}
	.st4{fill:#F3C737;}
	.st5{fill:#F2CB4A;}
	.st6{fill:#F2CC4F;}
	.st7{fill:#F1BF1A;}
	.st8{fill:#F1C32D;}
	.st9{fill:#F1C42E;}
</style>
<path class="st0" d="M483.8,213c-7.1,6-14.3,12-21.3,18.1c-2.5,2.2-4.1,1.8-6.2-0.5c-6.9-7.3-10.1-15.9-10.2-25.8
	c-0.2-22-0.3-44-0.4-66c0-8.2-0.5-8.7-8.7-7.3c0.4-2.5,2.6-3.3,4.1-4.6c7.2-6.2,14.5-12.3,21.8-18.4c4-3.4,5.2-3.2,8.3,1.3
	c3.3,4.7,5.3,9.9,5.5,15.8c0,1.1-0.6,2.5,0.7,3.1c1.3,0.5,2.2-0.6,3-1.3c7.3-6.1,14.6-12.2,21.7-18.4c2.7-2.4,4.6-2.6,7.4,0.1
	c6.3,6,12.8,11.6,16.6,19.7c1.6,3.5,3.2,1.6,4.9,0.1c8.2-6.9,16.4-13.6,24.5-20.6c2.5-2.2,4.1-2.4,6.5,0.1c5.7,5.8,12,11,16.2,18.2
	c2.4,4.1,3.7,8.4,3.7,13.3c-0.1,21.3,0,42.7,0,64c0,7.3,2.4,8.9,9.2,5.8c1.1,1.3,0,2.1-0.8,2.8c-7.1,6.1-14.2,12-21.2,18.2
	c-2.6,2.3-4.5,1.2-6.4-0.7c-6.8-6.6-10.5-14.8-10.7-24c-0.4-21.2-0.1-42.3-0.1-63.5c0-6.1-3.2-9.4-9.3-9.7c-3.8-0.2-7.2,1-10.4,2.9
	c-2.2,1.3-3.2,3-3.2,5.7c0.1,21.5,0,43,0.1,64.5c0,5,2.8,6.7,7.6,4.7c0.7-0.3,1.3-1,2.4-0.4c0.6,2-1.2,2.7-2.4,3.7
	c-6.6,5.6-13.5,10.9-19.9,16.7c-3.2,2.8-5.2,1.8-7.5-0.7c-6.7-7.3-9.9-16-10-25.9c0-20.3-0.2-40.7-0.2-61c0-6.5-4.3-10.4-10.7-9.7
	c-2.5,0.3-4.9,0.8-7.2,1.9c-3,1.4-4.4,3.3-4.4,6.9c0.1,21,0,42-0.1,63c0,2-0.4,4,1.3,5.6c1,1.4,2.4,0.5,3.6,0.8
	C482.5,211.6,484,211.1,483.8,213z"/>
<path class="st0" d="M0,77.5c9.3-7.7,18.6-15.2,27.7-22.9c2.5-2.1,3.8-0.8,5.3,0.9c4.6,5.2,5.8,11.5,5.8,18.1
	c0.1,28.8,0,57.6,0.1,86.5c0,1.8-1.2,4.6,1,5.3c1.8,0.6,3.3-1.9,4.6-3.4c3.7-4.1,7.2-8.4,8.5-13.9c1.7-7.2,0.1-11.4-6.2-15.1
	c-2.6-1.5-2.9-2.4-0.5-4.4c8.5-7,16.9-14.1,25.1-21.3c2.9-2.6,5.1-1.8,7.2,0.6c3.8,4.5,4.9,9.7,3.7,15.4
	c-1.5,7.3-5.5,13.2-10.3,18.6c-5.1,5.7-9.9,11.7-15.7,16.7c-0.6,0.5-1.3,1.1-1,2.2c2.7,0.7,5.2-0.6,7.7-1.1
	c8.9-1.8,12.1-0.3,15.7,7.9c4.2,9.8,6.9,20.1,10,30.3c0.5,1.7,1.1,3.5,1.8,5.2c2.5,6.8,2.8,6.9,9.6,5.2c-0.1,2.4-2.2,3.2-3.6,4.4
	c-6.9,6-14.1,11.7-20.9,17.8c-3.4,3-5.6,2.3-7.5-1c-1.1-1.8-1.8-3.9-2.5-5.9c-5.2-15.1-10.3-30.2-15.3-45.4c-1.2-3.6-3.1-6-7.1-5.3
	c-4.3,0.7-4.2,4-4.1,7.3c0.1,7.5,0.1,15,0.1,22.5c0,8.5,0.9,9.2,8.9,6.6c0.1,2.3-1.6,3.1-2.9,4.2c-6.6,5.6-13.4,11-19.8,16.8
	c-3.1,2.7-5.1,2-7.5-0.7c-6-7-9-15-9-24.2c0-39.3,0-78.6,0-118C8.7,78.3,8.7,78.3,0,77.5z"/>
<path class="st0" d="M690.7,128.8c8.4-7.1,16.9-14.1,25.2-21.2c2.3-1.9,3.7-1.4,5.4,0.5c4.3,4.8,6.8,10.2,6.8,16.7
	c0,1.3-0.4,2.9,1.1,3.5c1.2,0.4,2.2-0.7,3-1.4c7.5-6.1,15.1-12.1,22.3-18.4c2.5-2.2,4.1-1.9,6.3,0c12.7,10.7,20.5,23.5,19.9,41
	c-0.6,18,0,36,0,54c0,7.7,1.5,8.9,8.8,6.8c0.7,2.4-1.3,3.2-2.5,4.3c-6.7,5.5-13.5,10.8-20.1,16.4c-2.2,1.9-3.6,1.5-5.5-0.2
	c-7.1-6.6-10.7-14.7-10.8-24.4c-0.2-21.1-0.6-42.3-0.6-63.4c0-5.2-2.1-8.2-6.9-9.5c-4.4-1.2-12.7,1.1-14.2,4.1
	c-0.6,1.3-0.5,2.9-0.5,4.4c0,19.5,0,39,0,58.5c0,8.7,0,8.7,9,11.2c-5.3,4.5-10.2,8.6-15,12.7c-2.3,1.9-4.9,3.6-6.9,5.7
	c-2.8,3-5,2.7-7.8-0.2c-6.3-6.7-10.1-14.2-10.1-23.7c0.1-23,0-46,0.1-69c0-4.3-1.5-6.6-5.8-7C690.9,130.4,690.5,129.9,690.7,128.8z"
	/>
<path class="st0" d="M195.2,129.6c6.4-5.5,12.3-10.6,18.2-15.6c3.3-2.8,6.7-5.4,10-8.3c1.8-1.6,3-1.4,4.6,0.1
	c4.8,4.4,7,9.9,7.8,16.2c0.2,1.5-0.7,3.7,1.4,4.4c1.8,0.6,2.9-1.2,4.2-2.3c7.1-5.8,14.2-11.5,21.1-17.6c2.3-2,3.8-1.7,5.9,0.1
	c12.6,10.6,20.5,23,19.7,40.4c-0.8,18.1-0.2,36.3-0.2,54.5c0,7.6,1.9,9.1,9.3,7.5c0.7,1.5-0.6,2-1.4,2.7c-7.1,6-14.4,11.8-21.4,17.9
	c-2.8,2.4-4.5,0.8-6.3-1.1c-7.7-7.7-10-17.4-10-27.9c-0.1-19.2-0.2-38.3-0.2-57.5c0-4.4-0.6-8.5-4.8-10.7c-4.7-2.5-9.4-1.4-13.7,1.3
	c-2.2,1.4-3.4,3.4-3.4,6.2c0.1,21,0,42,0.1,63c0,5.1,1.8,6.3,8.6,6.4c-1.8,3.2-4.8,4.7-7.2,6.8c-5.1,4.5-10.5,8.7-15.6,13.2
	c-2.2,1.9-3.7,1.7-5.5-0.2c-6.3-6.3-10.7-13.4-10.6-22.8c0.1-22.8,0-45.6,0-68.5C205.5,129,204.5,128,195.2,129.6z"/>
<path class="st0" d="M890.1,212.1c0.3,0.7,0.1,1.3-0.5,1.8c-7.2,5.9-14.5,11.7-21.7,17.6c-2.8,2.3-5,2.2-7.5-0.9
	c-6.3-7.6-9.9-16-9.8-26c0.2-20.3,0.1-40.7,0.1-61c0-6-4-10.2-9.9-9.8c-10.2,0.6-12.1,3.6-12,9.7c0.3,19.7,0.1,39.3,0.1,59
	c0,8.6,0.4,9,9.4,9.8c-8.3,7-16.1,13.7-24,20.2c-2.5,2.1-4.5-0.3-5.9-1.8c-5.5-5.9-8.7-13-9.3-21c-1.7-23.3-0.6-46.6-0.9-69.9
	c-0.1-8.4-1-9.1-8.7-6.8c-0.8-1.7,0.6-2.4,1.5-3.2c8.4-7.1,16.9-14.1,25.1-21.3c2.4-2.1,3.9-1.5,5.7,0.6c4.2,5.1,6.3,11,6.8,17.4
	c0.3,3.7,1.7,3.5,3.9,1.6c7.3-6.1,14.7-12.1,21.8-18.3c2.6-2.3,4.5-2.2,6.8,0c3.8,3.8,7.9,7.2,11.3,11.3c5.2,6.1,8,13.1,7.8,21.5
	c-0.4,18.7-0.1,37.3-0.1,56c0,1.8,0.1,3.7,0.4,5.5C881.8,212.3,882.4,212.8,890.1,212.1z"/>
<path class="st0" d="M147.6,129.8c3-2.5,6-5.1,9-7.6c5.6-4.7,11.4-9.2,16.8-14.1c2.7-2.4,4.5-2,6.6,0.4c4.1,4.7,6.5,9.9,6.5,16.3
	c0,26.5,0,53,0,79.4c0,7,2.1,8.6,9,6.2c-0.2,2.1-1.9,2.7-3.1,3.6c-6.2,5.3-12.6,10.4-18.6,15.9c-2.8,2.6-4.6,2-7.1-0.3
	c-4.7-4.4-6.9-10.2-8.7-16c-1.2-3.9-2.6-3.8-5.3-1.5c-7.2,6-14.6,11.6-21.6,17.7c-3.2,2.8-5.5,2.6-8.6,0.2
	c-12.3-9.2-17.6-21.8-17.9-36.8c-0.3-18-0.1-36-0.1-54c0-9.1-0.8-9.9-9.5-8.5c1.3-2.6,3.7-3.9,5.7-5.5c6.7-5.8,13.6-11.3,20.2-17.2
	c2.8-2.5,5.1-2.4,7,0.5c3.7,5.7,7.1,11.3,6.9,18.8c-0.4,22.5-0.3,45-0.4,67.4c0,8,3.1,11.4,10.4,11.4c8.3,0,12.2-3.7,12.2-11.6
	c0-19,0-38,0-57C157.1,130,155,128.4,147.6,129.8z"/>
<path class="st0" d="M326.1,188.5c0.7,7.9,3,14.2,8.5,18.8c4.2,3.5,8.8,5.5,14.3,3.9c4.9-1.4,7.4-5.9,6.2-10.9
	c-1.5-6.2-6-9.8-11.5-12.2c-7.7-3.4-15.7-6.4-22.6-11.6c-8-6-15.2-12.4-16.6-23.2c-1.1-8.4,1.3-15.4,6.9-21.5
	c6.5-7.1,14.8-11.8,22.1-17.8c6-4.9,6.2-4.9,12.5-0.5c7.3,5.1,14.8,6.4,23,2.4c1.4-0.7,2.8-1.8,5.2-1.4c-8,8.8-14.2,19.1-26.6,21.9
	c-6,1.4-11.6,0.9-15.7-4.6c-0.9-1.2-1.8-2.8-3.5-2.5c-1.9,0.4-2.3,2.3-2.7,3.9c-1.2,4.8-0.1,8.8,3.8,12.1
	c5.3,4.4,11.4,7.5,17.5,10.4c5.3,2.5,10.6,4.9,15.4,8.3c14,9.7,18.3,25.9,9.3,40.3c-9.2,14.8-21.7,26.1-40.2,28.3
	c-12.3,1.5-24.7-6.2-28.9-17.7c-1.3-3.4-1.2-6.1,2.2-8.7C312,200.7,318.6,194.7,326.1,188.5z"/>
<path class="st0" d="M426.9,211.2c-8.1,6.8-16.2,13.7-24.3,20.5c-2.2,1.9-3.3-0.2-4.5-1.4C391,223,388,214,387.9,204
	c-0.1-23.3-0.2-46.7-0.2-70c0-8.3,0-8.3-8.2-8.1c-0.9,0-1.9,0-4.2,0c14.5-12.2,27.9-23.5,41.7-35.1c1.2,4.7,0.7,9,0.5,13.2
	c-0.1,3.6,0.8,5.1,4.7,4.8c5.9-0.3,11.9-0.1,19-0.1c-4.5,5.9-8.3,11.1-12.2,16.2c-1.5,1.9-3.7,1.1-5.6,0.9c-4.5-0.5-5.8,1.3-5.8,5.7
	c0.1,24,0.2,48,0,72C417.4,210.6,417.9,212.5,426.9,211.2z"/>
<path class="st1" d="M905.9,175.9c8.2,4.2,11.1,12.8,6.9,19.9c-4.5,7.5-13.2,9.3-21.1,4.3c-0.4-0.9,0.2-1.4,0.9-1.7
	c1.7-0.3,3.2,0.5,4.8,0.8c4.9,1,10-1.1,12-4.9c2.2-4.1,1.1-10.2-2.4-13.7c-1.3-1.3-3.1-2-3.6-4C903.9,175.3,904.8,175.3,905.9,175.9
	z"/>
<path class="st2" d="M905.9,175.9c-0.8,0.1-1.7,0.2-2.1,1.1c-0.2,0.3-0.5,0.6-0.8,0.6c-6.2,0-10.5,3.3-14.2,7.8
	c-0.8,0.2-1.5,0.2-2.1-0.4c1.5-5.8,5.2-9.1,11.1-10c1.7,0.7,3.3,0.6,5,0C903.9,174.8,905,174.9,905.9,175.9z"/>
<path class="st3" d="M886.7,184.9c0.6,0,1.2,0,1.9,0c1.3,4.7,2.1,9.6,4.5,13.9c-0.5,0.4-0.9,0.9-1.4,1.3
	C886.7,196.1,884.6,191.2,886.7,184.9z"/>
<path class="st4" d="M483.8,213c-1.4-2.3-4.7,0.3-6-2.3c2.7,0.8,5.3,0.4,7.6-1.4C486.4,211.6,485.2,212.4,483.8,213z"/>
<path class="st5" d="M686.7,213.8c-0.6-0.6-1.3-1.3-1.9-1.9c2,0.1,3.1-2.4,5.4-1.8C689.9,212.4,688.2,213,686.7,213.8z"/>
<path class="st6" d="M690.7,128.8c0.5,0.5,0.9,0.9,1.4,1.4c-1.1,0.7-2.2,3-3.5,1.2C687.5,130.1,689.6,129.4,690.7,128.8z"/>
<path class="st7" d="M902.7,175c-1.7,1.4-3.3,1.4-5,0C899.4,174.3,901.1,174.3,902.7,175z"/>
<path class="st0" d="M684.8,211.9c-3.6-0.5-4.2-2.6-4.2-5.9c0.2-17.8-0.1-35.7,0.1-53.5c0.1-10.3-3.7-18.8-10.7-26
	c-7.4-7.7-16.6-12.7-25.9-17.6c-4.8-2.5-8.4-2.7-12.2,1.5c-2.7,2.9-6.1,5.2-9.2,7.7c-9.5,7.8-19,15.5-28.9,23.7
	c3.7,0.3,4.4,2.1,4.4,5.1c-0.1,14.8-0.4,29.7,0,44.5c0.4,15.7,5.6,29.3,19.1,38.7c3.1,2.2,5.3,2.2,8.2-0.4c7.2-6.2,14.8-11.9,22-18
	c2.8-2.3,3.9-1.8,4.9,1.6c1.8,6.1,4.1,12,8.9,16.5c2.1,2,3.9,2.6,6.4,0.4c6.2-5.6,12.6-10.9,18.9-16.4
	C687.2,212,685.2,212.8,684.8,211.9z M649.7,191.6c0,6.1-10.6,14.7-16.6,13.6c-2.6-0.5-4.1-2.3-5-4.5c-0.7-1.6-1.1-3.5-1.1-5.3
	c-0.1-20.6,0-41.2,0-62.1c13.5,3.1,22.5,13.6,22.8,26.5C649.9,170.3,649.8,181,649.7,191.6z"/>
<path class="st8" d="M902.9,187.5c1.5,2.5,3,5.1,4.7,7.9c-5.8,1.9-4.9-4.7-8.1-6.1c-1.2,1.3-0.6,2.8-0.7,4.1
	c-0.1,0.8,1.5,1.9-0.3,2.3c-1.1,0.3-2.4,0.3-3.4-0.1c-1.6-0.5-0.1-1.6-0.1-2.5c-0.1-3.8-0.1-7.6-0.1-11.5c1.1-2.7,2.8-1.3,4.4-0.6
	C900.3,183.4,899.8,186.5,902.9,187.5z"/>
<path class="st8" d="M902.8,187.5c-0.2-1.8,0.5-3.9-1-5.4c-0.2-1.7,0.6-1.8,1.8-1.1C906.5,183.5,906.4,185.7,902.8,187.5z"/>
<path class="st9" d="M903.5,180.9c-0.8,0-1.5,0.3-1.8,1.1c-1-0.1-2-0.1-3-0.2c-1.3-1.3-2.6-1.3-3.9,0c-0.7-0.4-0.9-1.3-0.2-1.4
	C897.6,180.3,900.7,179.1,903.5,180.9z"/>
<path d="M266.1,50.9l-1.1,2.7c-4.4,2.2-9,3.3-14,3.3c-7.1,0-12.9-2-17.3-6c-4.4-4-6.7-9.3-6.7-15.8c0-4.5,1.1-8.4,3.3-11.8
	s5.1-5.9,8.8-7.5c3.6-1.7,7.7-2.5,12.2-2.5c2.6,0,5.2,0.3,7.8,0.8c2.6,0.6,4.7,1.2,6.4,2l0.2,0.3c-0.5,1.1-0.9,3.8-1.3,8.2l-0.2,0.2
	h-1.4l-0.2-0.2l-0.3-5c-1.4-1.1-3.2-2-5.2-2.7c-2-0.6-4.2-1-6.4-1c-3.3,0-6.3,0.7-8.9,2.1c-2.6,1.4-4.7,3.5-6.1,6.2
	c-1.5,2.7-2.2,6-2.2,9.9c0,3.9,0.9,7.4,2.6,10.4s4,5.2,7,6.8s6.4,2.4,10.4,2.4c1.7,0,3.4-0.2,5-0.5c1.6-0.3,3-0.7,4-1.2
	c1.1-0.5,2.1-1.1,3.1-1.8L266.1,50.9z"/>
<path d="M277.9,14.4l0.2-0.2c6.7,0.1,11.1,0.2,12.9,0.2c6.4,0,12.2-0.1,17.2-0.2l0.1,0.2c-0.5,1.9-0.9,4.8-1.1,8.9l-0.2,0.2h-1.4
	l-0.3-0.2c0-0.2,0-0.3,0-0.5c0-1.7-0.1-3.3-0.4-4.8c-1.2-0.6-3-0.9-5.1-1.1c-2.2-0.2-3.8-0.3-4.9-0.3c-1.6,0-3.5,0.1-6,0.3l-0.1,4.7
	l-0.1,5.4l-0.1,6c2.1,0.1,4.1,0.2,5.9,0.2c1.8,0,3.3-0.1,4.5-0.2c1.2-0.1,1.9-0.2,2.1-0.4s0.4-0.4,0.5-0.7c0.1-0.4,0.2-1,0.3-1.9
	l0.1-1.8l0.2-0.2h1.4l0.2,0.2c0,2.1-0.1,4.3-0.1,6.5l0.1,6.6l-0.2,0.2h-1.4l-0.2-0.2l-0.2-1.8c-0.2-1.4-0.3-2.2-0.4-2.5
	c-0.1-0.3-0.3-0.5-0.5-0.7c-0.3-0.2-1-0.4-2.2-0.5c-1.2-0.1-2.8-0.2-4.9-0.2c-1.1,0-2.9,0-5.2,0.1c-0.1,1.7-0.1,4.4-0.1,8.3
	c0,4.1,0,7.2,0.1,9.1h5.4c4.8,0,7.8-0.1,9-0.2c1.2-0.1,2.3-0.4,3.4-0.9c0.2-0.5,0.5-1.5,0.9-3.1c0.4-1.6,0.6-2.7,0.7-3.1l0.3-0.2
	h1.4l0.2,0.2c-0.2,0.8-0.3,2.3-0.5,4.4c-0.2,2.1-0.3,3.9-0.3,5.4l-0.2,0.2c-3.8-0.1-8.7-0.2-14.7-0.2l-8-0.1c-1.9,0-3.8,0.1-5.8,0.2
	l-0.2-0.2v-1l0.2-0.3c1.2-0.6,1.8-1,2-1.1s0.3-1.9,0.4-5.2c0.1-3.3,0.2-5.8,0.2-7.5V30l0-6.7c0-1.5,0-2.6-0.1-3.6
	c0-0.9-0.1-1.6-0.2-2c-0.1-0.4-0.2-0.7-0.3-0.8c-0.1-0.2-0.3-0.3-0.6-0.4c-0.3-0.1-0.8-0.2-1.5-0.3l-2.2-0.2l-0.2-0.2V14.4z"/>
<path d="M321.8,14.4l0.2-0.2c3.6,0.2,6.4,0.2,8.4,0.2c2.2,0,5.2-0.1,9-0.2c1.4,0,2.4-0.1,3-0.1c5,0,8.3,0.9,10.1,2.7
	c1.8,1.8,2.7,4,2.7,6.4c0,1.7-0.4,3.3-1.3,4.9c-0.9,1.6-2.1,3-3.8,4.1c-1.7,1.1-4,2-7,2.6c0.6,0.8,1.5,2.1,3,4l4.2,5.5
	c1.4,1.8,2.8,3.8,4.4,5.8c1.6,2,2.6,3.2,3,3.5c0.5,0.3,0.8,0.4,1.2,0.5c0.3,0.1,0.8,0.1,1.5,0.1l0.2,0.2v1.4l-0.3,0.3
	c-0.9-0.1-2.1-0.2-3.4-0.2c-1.4,0-2.9,0.1-4.6,0.2c-1.4-1.7-3.5-4.5-6.4-8.6c-3.4-4.7-6.8-9.1-10.4-13.1l0.3-0.9
	c1,0.1,1.8,0.1,2.4,0.1c3.4,0,6.1-0.8,8-2.4c1.9-1.6,2.9-3.9,2.9-6.8c0-2.6-0.9-4.6-2.6-5.9c-1.7-1.3-4.1-2-7-2
	c-2.1,0-4,0.3-5.8,0.9c-0.3,0.4-0.4,4.1-0.4,11.1V42l0,5.8c0,2.2,0.1,3.7,0.2,4.3c0.1,0.6,0.2,1.1,0.4,1.3c0.2,0.2,0.5,0.4,1.1,0.5
	s1.8,0.3,3.9,0.3l0.2,0.2v1.5l-0.2,0.2c-0.1,0-1.8-0.1-5.2-0.2c-1.4,0-2.5-0.1-3.3-0.1c-0.6,0-3.4,0.1-8.4,0.2l-0.2-0.2v-1.5
	l0.2-0.2c1.8-0.1,3-0.2,3.7-0.3c0.6-0.1,1-0.3,1.2-0.5c0.2-0.2,0.4-0.6,0.5-1.2s0.2-2,0.2-4.1l0-6.2V28.3l-0.1-5.8
	c0-2.2-0.1-3.7-0.2-4.3s-0.2-1.1-0.4-1.3c-0.2-0.2-0.5-0.4-1.1-0.5c-0.5-0.1-1.8-0.2-3.9-0.3l-0.2-0.2V14.4z"/>
<path d="M386.7,56.4c-0.3-0.9-1.5-4.2-3.7-9.9l-10-24.8c-1.1-2.8-1.9-4.4-2.2-4.8c-0.3-0.4-1.5-0.6-3.5-0.8l-0.3-0.3v-1.4l0.3-0.3
	c3,0.2,5.6,0.2,7.7,0.2c2,0,4.6-0.1,7.8-0.2l0.2,0.2V16l-0.2,0.2c-2.4,0-3.8,0.1-4.3,0.2s-0.7,0.4-0.7,0.8c0,0.2,0.3,1.3,0.9,3.1
	c0.6,1.9,1.2,3.4,1.7,4.7l9.2,23.3l7.7-19.3c0.5-1.3,1.3-3.4,2.3-6.4c1-2.9,1.5-4.7,1.5-5.3c0-0.5-0.2-0.8-0.7-0.9
	c-0.5-0.1-1.9-0.3-4.3-0.5l-0.3-0.2v-1.4l0.3-0.2c3.4,0.2,5.6,0.2,6.6,0.2c0.8,0,2.8-0.1,6-0.2l0.2,0.2v1.4l-0.2,0.2
	c-1.4,0.1-2.3,0.2-2.6,0.3c-0.3,0.2-0.6,0.5-0.8,0.9s-0.9,2-2.1,4.7l-9.2,22.6c-2.1,5.1-3.5,9-4.4,11.8H386.7z"/>
<path d="M420.1,14.4l0.2-0.2c6.7,0.1,11.1,0.2,12.9,0.2c6.4,0,12.2-0.1,17.2-0.2l0.1,0.2c-0.5,1.9-0.9,4.8-1.1,8.9l-0.2,0.2h-1.4
	l-0.3-0.2c0-0.2,0-0.3,0-0.5c0-1.7-0.1-3.3-0.4-4.8c-1.2-0.6-3-0.9-5.1-1.1c-2.2-0.2-3.8-0.3-4.9-0.3c-1.6,0-3.5,0.1-6,0.3l-0.1,4.7
	l-0.1,5.4l-0.1,6c2.1,0.1,4.1,0.2,5.9,0.2c1.8,0,3.3-0.1,4.5-0.2c1.2-0.1,1.9-0.2,2.1-0.4s0.4-0.4,0.5-0.7c0.1-0.4,0.2-1,0.3-1.9
	l0.1-1.8l0.2-0.2h1.4l0.2,0.2c0,2.1-0.1,4.3-0.1,6.5l0.1,6.6l-0.2,0.2h-1.4l-0.2-0.2l-0.2-1.8c-0.2-1.4-0.3-2.2-0.4-2.5
	c-0.1-0.3-0.3-0.5-0.5-0.7c-0.3-0.2-1-0.4-2.2-0.5c-1.2-0.1-2.8-0.2-4.9-0.2c-1.1,0-2.9,0-5.2,0.1c-0.1,1.7-0.1,4.4-0.1,8.3
	c0,4.1,0,7.2,0.1,9.1h5.4c4.8,0,7.8-0.1,9-0.2s2.3-0.4,3.4-0.9c0.2-0.5,0.5-1.5,0.9-3.1c0.4-1.6,0.6-2.7,0.7-3.1l0.3-0.2h1.4
	l0.2,0.2c-0.2,0.8-0.3,2.3-0.5,4.4c-0.2,2.1-0.3,3.9-0.3,5.4l-0.2,0.2c-3.8-0.1-8.7-0.2-14.7-0.2l-8-0.1c-1.9,0-3.8,0.1-5.8,0.2
	l-0.2-0.2v-1l0.2-0.3c1.2-0.6,1.8-1,2-1.1s0.3-1.9,0.4-5.2c0.1-3.3,0.2-5.8,0.2-7.5V30l0-6.7c0-1.5,0-2.6-0.1-3.6
	c0-0.9-0.1-1.6-0.2-2c-0.1-0.4-0.2-0.7-0.3-0.8c-0.1-0.2-0.3-0.3-0.6-0.4c-0.3-0.1-0.8-0.2-1.5-0.3l-2.2-0.2l-0.2-0.2V14.4z"/>
<path d="M503.9,50.9l-1.1,2.7c-4.4,2.2-9,3.3-14,3.3c-7.1,0-12.9-2-17.3-6c-4.4-4-6.7-9.3-6.7-15.8c0-4.5,1.1-8.4,3.3-11.8
	c2.2-3.4,5.1-5.9,8.8-7.5c3.6-1.7,7.7-2.5,12.2-2.5c2.6,0,5.2,0.3,7.8,0.8c2.6,0.6,4.7,1.2,6.4,2l0.2,0.3c-0.5,1.1-0.9,3.8-1.3,8.2
	l-0.2,0.2h-1.4l-0.2-0.2l-0.3-5c-1.4-1.1-3.2-2-5.2-2.7c-2-0.6-4.2-1-6.4-1c-3.3,0-6.3,0.7-8.9,2.1c-2.6,1.4-4.7,3.5-6.1,6.2
	s-2.2,6-2.2,9.9c0,3.9,0.9,7.4,2.6,10.4c1.7,3,4,5.2,7,6.8s6.4,2.4,10.4,2.4c1.8,0,3.4-0.2,5-0.5c1.6-0.3,3-0.7,4-1.2
	c1.1-0.5,2.1-1.1,3.1-1.8L503.9,50.9z"/>
<path d="M515.6,14.4l0.2-0.2c6.7,0.1,11.1,0.2,12.9,0.2c6.4,0,12.2-0.1,17.2-0.2l0.1,0.2c-0.5,1.9-0.9,4.8-1.1,8.9l-0.2,0.2h-1.4
	l-0.3-0.2c0-0.2,0-0.3,0-0.5c0-1.7-0.1-3.3-0.4-4.8c-1.2-0.6-3-0.9-5.1-1.1s-3.8-0.3-4.9-0.3c-1.6,0-3.5,0.1-6,0.3l-0.1,4.7
	l-0.1,5.4l-0.1,6c2.1,0.1,4.1,0.2,5.9,0.2c1.8,0,3.3-0.1,4.5-0.2c1.2-0.1,1.9-0.2,2.1-0.4c0.2-0.1,0.4-0.4,0.5-0.7
	c0.1-0.4,0.2-1,0.3-1.9l0.1-1.8l0.2-0.2h1.4l0.2,0.2c0,2.1-0.1,4.3-0.1,6.5l0.1,6.6l-0.2,0.2h-1.4l-0.2-0.2l-0.2-1.8
	c-0.2-1.4-0.3-2.2-0.4-2.5c-0.1-0.3-0.3-0.5-0.5-0.7c-0.3-0.2-1-0.4-2.2-0.5c-1.2-0.1-2.8-0.2-4.9-0.2c-1.1,0-2.9,0-5.2,0.1
	c-0.1,1.7-0.1,4.4-0.1,8.3c0,4.1,0,7.2,0.1,9.1h5.4c4.8,0,7.8-0.1,9-0.2s2.3-0.4,3.4-0.9c0.2-0.5,0.5-1.5,0.9-3.1
	c0.4-1.6,0.6-2.7,0.7-3.1l0.3-0.2h1.4l0.2,0.2c-0.2,0.8-0.3,2.3-0.5,4.4c-0.2,2.1-0.3,3.9-0.3,5.4l-0.2,0.2
	c-3.8-0.1-8.7-0.2-14.7-0.2l-8-0.1c-1.9,0-3.8,0.1-5.8,0.2l-0.2-0.2v-1l0.2-0.3c1.2-0.6,1.8-1,2-1.1c0.2-0.1,0.3-1.9,0.4-5.2
	c0.1-3.3,0.2-5.8,0.2-7.5V30l0-6.7c0-1.5,0-2.6-0.1-3.6c0-0.9-0.1-1.6-0.2-2c-0.1-0.4-0.2-0.7-0.3-0.8c-0.1-0.2-0.3-0.3-0.6-0.4
	c-0.3-0.1-0.8-0.2-1.5-0.3l-2.2-0.2l-0.2-0.2V14.4z"/>
<path d="M559.5,14.4l0.2-0.2c3.6,0.2,6.4,0.2,8.4,0.2c2.2,0,5.2-0.1,9-0.2c1.4,0,2.4-0.1,3-0.1c5,0,8.3,0.9,10.1,2.7s2.7,4,2.7,6.4
	c0,1.7-0.4,3.3-1.3,4.9c-0.9,1.6-2.1,3-3.8,4.1c-1.7,1.1-4,2-7,2.6c0.5,0.8,1.5,2.1,3,4l4.2,5.5c1.4,1.8,2.8,3.8,4.4,5.8
	c1.6,2,2.6,3.2,3,3.5c0.5,0.3,0.8,0.4,1.2,0.5s0.8,0.1,1.5,0.1l0.2,0.2v1.4l-0.3,0.3c-0.9-0.1-2.1-0.2-3.4-0.2
	c-1.4,0-2.9,0.1-4.6,0.2c-1.4-1.7-3.5-4.5-6.4-8.6c-3.4-4.7-6.8-9.1-10.4-13.1l0.3-0.9c1,0.1,1.8,0.1,2.4,0.1c3.4,0,6.1-0.8,8-2.4
	s2.9-3.9,2.9-6.8c0-2.6-0.9-4.6-2.6-5.9c-1.7-1.3-4.1-2-7-2c-2.1,0-4,0.3-5.8,0.9c-0.3,0.4-0.4,4.1-0.4,11.1V42l0,5.8
	c0,2.2,0.1,3.7,0.2,4.3c0.1,0.6,0.2,1.1,0.4,1.3s0.5,0.4,1.1,0.5c0.5,0.1,1.8,0.3,3.9,0.3l0.2,0.2v1.5l-0.2,0.2
	c-0.1,0-1.8-0.1-5.2-0.2c-1.4,0-2.5-0.1-3.3-0.1c-0.6,0-3.4,0.1-8.4,0.2l-0.2-0.2v-1.5l0.2-0.2c1.8-0.1,3-0.2,3.7-0.3
	c0.6-0.1,1-0.3,1.2-0.5c0.2-0.2,0.4-0.6,0.5-1.2s0.2-2,0.2-4.1l0-6.2V28.3l-0.1-5.8c0-2.2-0.1-3.7-0.2-4.3c-0.1-0.6-0.2-1.1-0.4-1.3
	c-0.2-0.2-0.5-0.4-1.1-0.5c-0.5-0.1-1.8-0.2-3.9-0.3l-0.2-0.2V14.4z"/>
<path d="M608.3,14.2l3.7,0.1c2.4,0.1,4,0.1,4.7,0.1c0.7,0,3.5-0.1,8.5-0.2l0.2,0.2v1.5l-0.2,0.2c-1.4,0-2.4,0.1-3.1,0.2
	c-0.7,0.1-1.3,0.2-1.6,0.4c-0.3,0.2-0.6,0.7-0.7,1.5c-0.1,0.8-0.2,1.9-0.2,3.3l-0.1,6.8V42l0,5.8c0,2.2,0.1,3.7,0.2,4.3
	c0.1,0.6,0.2,1.1,0.4,1.3c0.2,0.2,0.5,0.4,1.1,0.5c0.5,0.1,1.8,0.3,3.9,0.3l0.2,0.2v1.5l-0.2,0.2c-0.1,0-1.8-0.1-5.2-0.2
	c-1.4,0-2.5-0.1-3.3-0.1c-0.6,0-3.4,0.1-8.4,0.2l-0.2-0.2v-1.5l0.2-0.2c1.8-0.1,3-0.2,3.7-0.3c0.6-0.1,1-0.3,1.2-0.5
	c0.2-0.2,0.4-0.6,0.5-1.2s0.2-2,0.2-4.1l0-6.2V28.3l-0.1-5.8c0-2.2-0.1-3.7-0.2-4.3c-0.1-0.6-0.2-1.1-0.4-1.3
	c-0.2-0.2-0.5-0.4-1.1-0.5c-0.5-0.1-1.8-0.2-3.9-0.3l-0.2-0.2v-1.5L608.3,14.2z"/>
<path d="M627.4,1.1l-6.2,4.6l-5.9,4.6l-0.4,0.1l-0.7-0.7l0.1-0.4l4.2-5.1c0.1-0.1,1-1.2,2.8-3.5l5.5-0.8l0.3,0.2L627.4,1.1z"/>
<path d="M680.1,54.1c-1.3,0-2.1-0.1-2.4-0.2c-0.4-0.1-0.7-0.3-0.9-0.5c-0.2-0.2-0.7-1-1.3-2.3c-0.6-1.3-1.2-2.5-1.7-3.7l-1.7-4
	l-12.6-29.6h-1.9c-1.5,3.6-3,7.1-4.5,10.7l-8,18.2l-3.1,6.7c-1,2.1-1.6,3.4-2,3.8s-0.7,0.6-1.1,0.8c-0.4,0.1-1.3,0.2-2.8,0.2
	l-0.3,0.2v1.5l0.3,0.2c2.2-0.2,4.4-0.2,6.5-0.2c1.9,0,4.1,0.1,6.7,0.2l0.2-0.2v-1.5l-0.3-0.2c-2.1,0-3.5-0.1-4-0.4
	c-0.5-0.2-0.8-0.6-0.8-1.1c0-0.6,0.3-1.6,0.9-3l3.2-7.5h17.1l3.6,9c0.3,0.7,0.4,1.3,0.4,1.7c0,0.5-0.3,0.9-0.8,1s-1.9,0.2-4.1,0.3
	l-0.2,0.2v1.5l0.2,0.2c3.3-0.1,6.5-0.2,9.8-0.3c1.7,0,3.5,0.1,5.6,0.3l0.2-0.2v-1.5L680.1,54.1z M649.6,39.5l7.5-17.8l7.4,17.8
	H649.6z"/>
<path d="M126.8,263.9l-0.2-0.1v-1l0.2-0.1c2.4,0.1,4.2,0.2,5.5,0.2c0.5,0,2.4-0.1,5.7-0.2c1.1,0,1.9,0,2.3,0c1.9,0,3.3,0.2,4.4,0.6
	c1.1,0.4,2,1,2.6,2c0.7,0.9,1,2,1,3.2c0,1.5-0.6,3-1.7,4.3c-1.1,1.3-2.9,2.3-5.4,2.8c1.5,0.1,2.7,0.3,3.7,0.6s1.8,0.7,2.5,1.2
	s1.3,1.3,1.7,2.1c0.4,0.9,0.6,1.9,0.6,3c0,0.9-0.1,1.8-0.4,2.7s-0.8,1.8-1.5,2.8s-1.6,1.7-2.7,2.3s-2.1,1.1-3.2,1.4
	c-1.1,0.3-2.5,0.4-4.1,0.4c-0.3,0-1.3,0-3-0.1c-1.8,0-2.8-0.1-3-0.1c-0.9,0-2.1,0.1-3.5,0.2l-0.2-0.2v-0.7l0.2-0.2
	c0.8-0.4,1.3-0.6,1.4-0.7c0.1-0.1,0.2-1.4,0.3-3.7c0.1-2.3,0.1-4.1,0.1-5.3v-7.6l0-4.7c0-1,0-1.9,0-2.5c0-0.6-0.1-1.1-0.1-1.4
	c0-0.3-0.1-0.5-0.2-0.6s-0.3-0.2-0.5-0.3c-0.2-0.1-0.5-0.1-1-0.2L126.8,263.9z M134.3,274.8c0.7,0.1,1.5,0.1,2.3,0.1
	c2.9,0,4.9-0.5,6-1.5c1.1-1,1.7-2.4,1.7-4.2c0-1-0.2-1.9-0.6-2.6c-0.4-0.7-1.1-1.3-2-1.7c-0.9-0.4-2.2-0.6-3.7-0.6
	c-1.3,0-2.4,0.1-3.4,0.3c-0.1,1.2-0.2,3.4-0.2,6.5V274.8z M134.3,290c1.1,0.2,2.2,0.4,3.3,0.4c2,0,3.5-0.3,4.6-1
	c1.1-0.6,1.9-1.5,2.5-2.6c0.5-1.1,0.8-2.4,0.8-3.7c0-2-0.6-3.6-1.7-4.8c-1.1-1.2-3.6-1.8-7.3-1.8c-0.6,0-1.4,0-2.2,0.1v7.1
	L134.3,290z"/>
<path d="M158.5,292.1l-0.2-0.2v-1.1l0.2-0.2c1,0,1.7-0.1,2-0.2s0.6-0.3,0.8-0.5c0.2-0.3,0.7-1.2,1.4-2.6l2.2-4.7l5.6-12.8
	c1.1-2.5,2.1-5,3.2-7.5h1.3l8.9,20.8l1.2,2.8c0.3,0.8,0.7,1.6,1.2,2.6c0.4,0.9,0.8,1.5,0.9,1.6s0.4,0.3,0.6,0.4
	c0.3,0.1,0.8,0.1,1.7,0.2l0.2,0.2v1.1l-0.2,0.2c-1.5-0.1-2.8-0.2-4-0.2c-2.3,0.1-4.6,0.1-6.9,0.2l-0.2-0.2v-1.1l0.2-0.2
	c1.5,0,2.5-0.1,2.9-0.2s0.6-0.3,0.6-0.7c0-0.3-0.1-0.7-0.3-1.2l-2.6-6.3h-12l-2.3,5.3c-0.4,1-0.6,1.7-0.6,2.1c0,0.3,0.2,0.6,0.6,0.8
	s1.3,0.3,2.8,0.3l0.2,0.2v1.1l-0.2,0.2c-1.8-0.1-3.3-0.2-4.7-0.2C161.6,291.9,160,292,158.5,292.1z M168,280.5h10.5l-5.2-12.5
	L168,280.5z"/>
<path d="M197.1,262.8l0.2-0.1c2.5,0.1,4.5,0.2,5.9,0.2c1.6,0,3.7,0,6.3-0.1c1,0,1.7,0,2.1,0c3.5,0,5.9,0.6,7.1,1.9
	c1.2,1.3,1.9,2.8,1.9,4.5c0,1.2-0.3,2.3-0.9,3.4c-0.6,1.1-1.5,2.1-2.7,2.9c-1.2,0.8-2.8,1.4-4.9,1.8c0.4,0.5,1.1,1.5,2.1,2.8
	l2.9,3.9c1,1.3,2,2.6,3.1,4.1c1.1,1.4,1.8,2.2,2.1,2.4s0.6,0.3,0.8,0.3c0.2,0,0.6,0.1,1.1,0.1l0.2,0.2v1l-0.2,0.2
	c-0.7-0.1-1.5-0.1-2.4-0.1c-1,0-2.1,0-3.2,0.1c-1-1.2-2.5-3.2-4.5-6c-2.4-3.3-4.8-6.4-7.3-9.2l0.2-0.6c0.7,0,1.3,0.1,1.7,0.1
	c2.4,0,4.3-0.6,5.6-1.7s2-2.7,2-4.8c0-1.8-0.6-3.2-1.8-4.1c-1.2-0.9-2.9-1.4-4.9-1.4c-1.5,0-2.8,0.2-4.1,0.6
	c-0.2,0.3-0.3,2.9-0.3,7.8v9.6l0,4c0,1.6,0.1,2.6,0.1,3c0.1,0.5,0.2,0.8,0.3,0.9c0.1,0.2,0.4,0.3,0.8,0.4c0.4,0.1,1.3,0.2,2.8,0.2
	l0.2,0.1v1l-0.2,0.2c-0.1,0-1.3,0-3.7-0.1c-1,0-1.8,0-2.3,0c-0.4,0-2.4,0.1-5.9,0.2l-0.2-0.2v-1l0.2-0.1c1.3-0.1,2.1-0.1,2.6-0.2
	s0.7-0.2,0.9-0.3c0.1-0.1,0.3-0.4,0.4-0.8c0.1-0.4,0.1-1.4,0.2-2.9l0-4.4v-9.6l0-4c0-1.6-0.1-2.6-0.1-3.1c-0.1-0.5-0.2-0.8-0.3-0.9
	s-0.4-0.3-0.8-0.4c-0.4-0.1-1.3-0.2-2.8-0.2l-0.2-0.1V262.8z"/>
<path d="M231.4,262.6l2.6,0.1c1.7,0.1,2.8,0.1,3.3,0.1c0.5,0,2.5-0.1,6-0.2l0.2,0.1v1l-0.2,0.1c-1,0-1.7,0.1-2.2,0.1
	c-0.5,0.1-0.9,0.2-1.1,0.3s-0.4,0.5-0.5,1.1c-0.1,0.6-0.1,1.3-0.1,2.3l0,4.8v9.6l0,4c0,1.6,0.1,2.6,0.1,3c0.1,0.5,0.2,0.8,0.3,0.9
	c0.1,0.2,0.4,0.3,0.8,0.4c0.4,0.1,1.3,0.2,2.8,0.2l0.2,0.1v1l-0.2,0.2c-0.1,0-1.3,0-3.7-0.1c-1,0-1.8,0-2.3,0
	c-0.4,0-2.4,0.1-5.9,0.2l-0.2-0.2v-1l0.2-0.1c1.3-0.1,2.1-0.1,2.6-0.2c0.4-0.1,0.7-0.2,0.9-0.3c0.1-0.1,0.3-0.4,0.4-0.8
	c0.1-0.4,0.1-1.4,0.2-2.9l0-4.4v-9.6l0-4c0-1.6-0.1-2.6-0.1-3.1c-0.1-0.5-0.2-0.8-0.3-0.9c-0.1-0.2-0.4-0.3-0.8-0.4
	c-0.4-0.1-1.3-0.2-2.8-0.2l-0.2-0.1v-1L231.4,262.6z"/>
<path d="M250.8,262.8l0.2-0.1c3.4,0.1,5.4,0.2,5.9,0.2c0.5,0,2.5-0.1,6-0.2l0.2,0.1v1l-0.2,0.1c-1,0-1.7,0.1-2.2,0.1
	c-0.5,0.1-0.9,0.2-1.1,0.3s-0.4,0.5-0.5,1.1c-0.1,0.6-0.1,1.3-0.1,2.3l0,4.8v9.2c0,2.3,0,3.9,0,4.8l0.1,3.6h4.2c3.4,0,5.5,0,6.3-0.1
	c0.8-0.1,1.6-0.3,2.4-0.6c0.2-0.3,0.4-1.1,0.7-2.4c0.3-1.2,0.4-2,0.4-2.2l0.2-0.2h1l0.1,0.2c-0.1,0.6-0.2,1.6-0.3,3.2
	c-0.1,1.6-0.2,2.9-0.2,3.9l-0.2,0.2c-2.6-0.1-6.1-0.1-10.4-0.1l-6.1,0c-1.4,0-2.8,0.1-4.2,0.2l-0.2-0.2v-0.7l0.2-0.2
	c0.9-0.4,1.3-0.7,1.4-0.8c0.1-0.1,0.2-1,0.3-2.7c0.1-1.7,0.1-3.7,0.1-6.1v-8.9l0-4c0-1.6-0.1-2.6-0.1-3.1c-0.1-0.5-0.2-0.8-0.3-0.9
	c-0.1-0.2-0.4-0.3-0.8-0.4c-0.4-0.1-1.3-0.2-2.8-0.2l-0.2-0.1V262.8z"/>
<path d="M282.6,277.6c0-2.1,0.3-4,0.9-5.8c0.6-1.8,1.6-3.5,3-5c1.4-1.5,3.2-2.7,5.2-3.5s4.3-1.3,6.8-1.3c4.7,0,8.5,1.3,11.3,3.8
	c2.8,2.6,4.2,6.1,4.2,10.5c0,3.1-0.7,5.9-2.1,8.4s-3.3,4.4-5.9,5.8c-2.6,1.4-5.4,2.1-8.6,2.1c-2.3,0-4.3-0.4-6.2-1.1
	s-3.5-1.9-4.8-3.4c-1.3-1.5-2.3-3.2-2.9-5.2C282.9,281,282.6,279.3,282.6,277.6z M286.9,276.3c0,1.7,0.3,3.5,0.8,5.4
	c0.5,1.9,1.4,3.6,2.4,5c1.1,1.4,2.3,2.4,3.8,3.1c1.4,0.7,3,1,4.8,1c2.1,0,4.1-0.5,5.7-1.5c1.7-1,2.9-2.5,3.8-4.6s1.3-4.4,1.3-7
	c0-2.8-0.5-5.3-1.5-7.6s-2.4-3.9-4.3-4.9c-1.8-1-3.9-1.5-6.1-1.5c-3.4,0-6,1.1-7.9,3.2C287.9,269.1,286.9,272.2,286.9,276.3z"/>
<path d="M349.5,288.4l-0.8,1.9c-3.1,1.6-6.4,2.3-9.8,2.3c-5,0-9.1-1.4-12.2-4.3c-3.1-2.8-4.7-6.5-4.7-11.1c0-3.2,0.8-5.9,2.3-8.3
	c1.6-2.4,3.6-4.1,6.2-5.3s5.4-1.8,8.6-1.8c1.8,0,3.7,0.2,5.5,0.6c1.8,0.4,3.3,0.9,4.5,1.4l0.1,0.2c-0.3,0.8-0.6,2.7-0.9,5.7
	l-0.1,0.2h-1l-0.2-0.2l-0.2-3.5c-1-0.8-2.2-1.4-3.7-1.9c-1.4-0.4-2.9-0.7-4.5-0.7c-2.3,0-4.4,0.5-6.3,1.5c-1.9,1-3.3,2.5-4.3,4.4
	c-1,1.9-1.5,4.2-1.5,7c0,2.8,0.6,5.2,1.8,7.3s2.8,3.7,4.9,4.8c2.1,1.1,4.5,1.7,7.3,1.7c1.2,0,2.4-0.1,3.5-0.4
	c1.1-0.2,2.1-0.5,2.8-0.9c0.8-0.3,1.5-0.8,2.2-1.3L349.5,288.4z"/>
<path d="M357.5,262.6c3.5,0.1,5.5,0.2,5.9,0.2c0.5,0,2.4-0.1,6-0.2l0.2,0.1v1l-0.2,0.1c-1,0-1.7,0.1-2.2,0.1
	c-0.5,0.1-0.9,0.2-1.1,0.3s-0.4,0.5-0.5,1.1c-0.1,0.6-0.1,1.3-0.1,2.3l0,4.8v2.9c3,0.1,5.9,0.1,8.6,0.1c3.7,0,6.5,0,8.5-0.1v-2.9
	l0-4c0-1.6-0.1-2.6-0.1-3.1c-0.1-0.5-0.2-0.8-0.3-0.9s-0.4-0.3-0.7-0.4c-0.4-0.1-1.3-0.2-2.8-0.2l-0.1-0.1v-1l0.1-0.1
	c3.5,0.1,5.5,0.2,6,0.2c0.5,0,2.5-0.1,6-0.2l0.2,0.1v1l-0.2,0.1c-1,0-1.7,0.1-2.2,0.1c-0.5,0.1-0.9,0.2-1.1,0.3
	c-0.2,0.2-0.4,0.5-0.5,1.1c-0.1,0.6-0.1,1.3-0.1,2.3l0,4.8v9.6l0,4c0,1.6,0.1,2.6,0.1,3c0.1,0.5,0.2,0.8,0.3,0.9
	c0.1,0.2,0.4,0.3,0.7,0.4c0.4,0.1,1.3,0.2,2.8,0.2l0.2,0.1v1l-0.2,0.2c-3.5-0.1-5.5-0.2-6-0.2c-0.4,0-2.4,0.1-6,0.2l-0.1-0.2v-1
	l0.1-0.1c1.3-0.1,2.2-0.1,2.6-0.2c0.4-0.1,0.7-0.2,0.9-0.3c0.1-0.1,0.3-0.4,0.4-0.8c0.1-0.4,0.1-1.4,0.1-2.9l0-4.4v-4.7
	c-4.1-0.1-7-0.1-8.6-0.1c-1.7,0-4.5,0-8.5,0.1v4.7l0,4c0,1.6,0.1,2.6,0.1,3c0.1,0.5,0.2,0.8,0.3,0.9c0.1,0.2,0.4,0.3,0.8,0.4
	c0.4,0.1,1.3,0.2,2.8,0.2l0.2,0.1v1l-0.2,0.2c-3.5-0.1-5.5-0.2-6-0.2c-0.4,0-2.4,0.1-5.9,0.2l-0.2-0.2v-1l0.2-0.1
	c1.3-0.1,2.1-0.1,2.6-0.2c0.4-0.1,0.7-0.2,0.9-0.3c0.1-0.1,0.3-0.4,0.4-0.8c0.1-0.4,0.1-1.4,0.2-2.9l0-4.4v-9.6l0-4
	c0-1.6-0.1-2.6-0.1-3.1c-0.1-0.5-0.2-0.8-0.3-0.9c-0.1-0.2-0.4-0.3-0.8-0.4c-0.4-0.1-1.3-0.2-2.8-0.2l-0.2-0.1v-1L357.5,262.6z"/>
<path d="M398.7,262.8l0.2-0.1c4.7,0.1,7.8,0.1,9.1,0.1c4.5,0,8.6,0,12.1-0.1l0.1,0.1c-0.3,1.3-0.6,3.4-0.8,6.2l-0.1,0.2h-1l-0.2-0.2
	c0-0.1,0-0.2,0-0.3c0-1.2-0.1-2.3-0.3-3.4c-0.9-0.4-2.1-0.6-3.6-0.8c-1.5-0.1-2.7-0.2-3.5-0.2c-1.1,0-2.5,0.1-4.2,0.2l-0.1,3.3
	l-0.1,3.8l-0.1,4.2c1.5,0.1,2.9,0.1,4.1,0.1c1.3,0,2.3,0,3.2-0.1c0.9-0.1,1.4-0.2,1.5-0.3c0.1-0.1,0.3-0.3,0.3-0.5s0.1-0.7,0.2-1.4
	l0.1-1.3l0.2-0.2h1l0.2,0.2c0,1.5-0.1,3-0.1,4.5l0.1,4.7l-0.2,0.2h-1l-0.2-0.2l-0.1-1.2c-0.1-1-0.2-1.5-0.3-1.7s-0.2-0.3-0.4-0.5
	c-0.2-0.1-0.7-0.2-1.5-0.3c-0.8-0.1-2-0.1-3.4-0.1c-0.8,0-2,0-3.7,0.1c-0.1,1.2-0.1,3.1-0.1,5.8c0,2.9,0,5,0.1,6.4h3.8
	c3.4,0,5.5,0,6.3-0.1c0.8-0.1,1.6-0.3,2.4-0.6c0.1-0.3,0.3-1.1,0.6-2.2c0.3-1.2,0.4-1.9,0.5-2.2l0.2-0.1h1l0.2,0.1
	c-0.1,0.6-0.2,1.6-0.4,3.1c-0.1,1.5-0.2,2.7-0.2,3.8l-0.1,0.2c-2.6-0.1-6.1-0.1-10.4-0.1l-5.6,0c-1.3,0-2.7,0.1-4.1,0.2l-0.2-0.2
	v-0.7l0.2-0.2c0.8-0.4,1.3-0.7,1.4-0.8c0.1-0.1,0.2-1.3,0.3-3.6c0.1-2.3,0.1-4.1,0.1-5.3v-7.6l0-4.7c0-1,0-1.9,0-2.5
	s-0.1-1.1-0.1-1.4c-0.1-0.3-0.1-0.5-0.2-0.6s-0.2-0.2-0.4-0.3c-0.2-0.1-0.5-0.1-1-0.2l-1.6-0.1l-0.2-0.1V262.8z"/>
<path d="M445.9,283v-0.3l0.9-2.8h11.1v0.3l-1,2.8H445.9z"/>
<path d="M482.1,262.6c3.5,0.1,5.7,0.2,6.7,0.2c1.3,0,2.8,0,4.4-0.1c1.7-0.1,2.8-0.1,3.2-0.1c1.9,0,3.5,0.2,4.8,0.6
	c1.3,0.4,2.3,1.1,3.1,2.2s1.2,2.4,1.2,3.9c0,1.2-0.3,2.4-0.9,3.6s-1.4,2.2-2.4,3c-1,0.8-2.1,1.4-3.2,1.8s-2.2,0.5-3.3,0.5
	c-0.9,0-1.8-0.1-2.9-0.3l-0.4-1.3l0.2-0.2c1,0.2,1.9,0.4,2.5,0.4c1.8,0,3.3-0.6,4.4-1.8c1.1-1.2,1.6-2.7,1.6-4.6
	c0-1.9-0.6-3.4-1.7-4.5c-1.1-1.1-2.9-1.7-5.2-1.7c-1.3,0-2.6,0.2-4.2,0.7c-0.1,1.1-0.2,3.6-0.2,7.7v9.6l0,4c0,1.6,0.1,2.6,0.1,3
	c0.1,0.5,0.2,0.8,0.3,0.9c0.1,0.2,0.4,0.3,0.8,0.4c0.4,0.1,1.3,0.2,2.8,0.2l0.2,0.1v1l-0.2,0.2c-3.5-0.1-5.5-0.2-6-0.2
	c-0.5,0-2.4,0.1-5.9,0.2l-0.2-0.2v-1l0.2-0.1c1.3-0.1,2.1-0.1,2.6-0.2s0.7-0.2,0.9-0.3c0.1-0.1,0.3-0.4,0.4-0.8
	c0.1-0.4,0.1-1.4,0.2-2.9l0-4.4v-9.6l0-4c0-1.6-0.1-2.6-0.1-3.1c-0.1-0.5-0.2-0.8-0.3-0.9c-0.1-0.2-0.4-0.3-0.8-0.4
	c-0.4-0.1-1.3-0.2-2.8-0.2l-0.2-0.1v-1L482.1,262.6z"/>
<path d="M510.2,292.1l-0.2-0.2v-1.1l0.2-0.2c1,0,1.7-0.1,2-0.2c0.3-0.1,0.5-0.3,0.8-0.5c0.2-0.3,0.7-1.2,1.4-2.6l2.2-4.7l5.6-12.8
	c1.1-2.5,2.1-5,3.2-7.5h1.3l8.9,20.8l1.2,2.8c0.3,0.8,0.7,1.6,1.2,2.6c0.5,0.9,0.8,1.5,0.9,1.6c0.2,0.2,0.4,0.3,0.6,0.4
	s0.8,0.1,1.7,0.2l0.2,0.2v1.1l-0.2,0.2c-1.5-0.1-2.8-0.2-4-0.2c-2.3,0.1-4.6,0.1-6.9,0.2l-0.2-0.2v-1.1l0.2-0.2
	c1.5,0,2.5-0.1,2.9-0.2c0.4-0.1,0.6-0.3,0.6-0.7c0-0.3-0.1-0.7-0.3-1.2l-2.6-6.3h-12l-2.3,5.3c-0.4,1-0.6,1.7-0.6,2.1
	c0,0.3,0.2,0.6,0.6,0.8c0.4,0.2,1.3,0.3,2.8,0.3l0.2,0.2v1.1l-0.2,0.2c-1.8-0.1-3.3-0.2-4.7-0.2C513.2,291.9,511.7,292,510.2,292.1z
	 M519.6,280.5h10.5l-5.2-12.5L519.6,280.5z"/>
<path d="M569.8,262.6l0.2,0.2c-0.1,1.2-0.2,3.4-0.2,6.5l-0.2,0.2h-1l-0.2-0.2l-0.2-1.9c-0.1-1-0.2-1.6-0.3-1.9
	c-0.1-0.2-0.2-0.4-0.3-0.5c-0.1-0.1-0.6-0.2-1.3-0.3c-0.8-0.1-1.6-0.1-2.6-0.1h-3.9c-0.1,3.1-0.2,4.9-0.2,5.4v12.1l0,4
	c0,1.6,0.1,2.6,0.1,3c0.1,0.5,0.2,0.8,0.3,0.9c0.1,0.1,0.4,0.3,0.8,0.4c0.4,0.1,1.3,0.2,2.8,0.2l0.1,0.1v1l-0.1,0.2
	c-3.5-0.1-5.5-0.2-5.9-0.2c-0.4,0-2.4,0.1-5.9,0.2l-0.2-0.2v-1l0.2-0.1c1.3-0.1,2.2-0.1,2.6-0.2c0.4-0.1,0.7-0.2,0.9-0.3
	c0.1-0.1,0.3-0.4,0.4-0.8c0.1-0.4,0.1-1.4,0.1-2.9l0-4.4v-12.1c0-0.2-0.1-2-0.2-5.4h-3.1c-1.3,0-2.4,0-3.3,0.1
	c-0.9,0.1-1.5,0.2-1.6,0.4c-0.1,0.2-0.3,1-0.4,2.2l-0.2,1.9l-0.2,0.2h-1l-0.2-0.2c0-3.3-0.1-5.5-0.2-6.5l0.2-0.2
	c2.4,0.1,6.4,0.2,12,0.2C563.4,262.8,567.5,262.7,569.8,262.6z"/>
<path d="M574.5,292.1l-0.2-0.2v-1.1l0.2-0.2c1,0,1.7-0.1,2-0.2c0.3-0.1,0.5-0.3,0.8-0.5c0.2-0.3,0.7-1.2,1.4-2.6l2.2-4.7l5.6-12.8
	c1.1-2.5,2.1-5,3.2-7.5h1.3l8.9,20.8l1.2,2.8c0.3,0.8,0.7,1.6,1.2,2.6c0.5,0.9,0.8,1.5,0.9,1.6c0.2,0.2,0.4,0.3,0.6,0.4
	s0.8,0.1,1.7,0.2l0.2,0.2v1.1l-0.2,0.2c-1.5-0.1-2.8-0.2-4-0.2c-2.3,0.1-4.6,0.1-6.9,0.2l-0.2-0.2v-1.1l0.2-0.2
	c1.5,0,2.5-0.1,2.9-0.2c0.4-0.1,0.6-0.3,0.6-0.7c0-0.3-0.1-0.7-0.3-1.2l-2.6-6.3h-12l-2.3,5.3c-0.4,1-0.6,1.7-0.6,2.1
	c0,0.3,0.2,0.6,0.6,0.8c0.4,0.2,1.3,0.3,2.8,0.3l0.2,0.2v1.1l-0.2,0.2c-1.8-0.1-3.3-0.2-4.7-0.2C577.6,291.9,576.1,292,574.5,292.1z
	 M584,280.5h10.5l-5.2-12.5L584,280.5z"/>
<path d="M643.3,280.6v0.6l-0.1,0.2l-1,0.6c-0.2,0.2-0.4,0.3-0.4,0.4c0,0.1-0.1,0.5-0.2,1.2s-0.1,1.6-0.1,2.7c0,1.2,0.1,2.5,0.2,3.9
	l-0.1,0.2c-3.8,1.5-7.7,2.2-11.7,2.2c-3.1,0-5.8-0.6-8.3-1.7c-2.5-1.2-4.4-2.9-5.9-5.2c-1.5-2.3-2.2-5-2.2-8.1
	c0-4.8,1.6-8.6,4.9-11.4c3.3-2.8,7.5-4.2,12.8-4.2c3.9,0,7.4,0.7,10.4,2l0.1,0.2c-0.2,0.9-0.5,2.9-0.9,5.8l-0.2,0.1h-1l-0.2-0.2
	l-0.1-2.2c0-0.7-0.1-1.1-0.1-1.3c0-0.1-0.2-0.3-0.4-0.5s-0.9-0.5-1.9-1s-2.1-0.8-3.1-1c-1-0.2-2.2-0.3-3.3-0.3
	c-2.5,0-4.8,0.5-6.7,1.6c-2,1.1-3.4,2.6-4.4,4.6c-1,2-1.5,4.3-1.5,6.7c0,2.5,0.5,4.9,1.6,7.1c1.1,2.2,2.6,3.9,4.6,5.1
	c2,1.2,4.3,1.8,7,1.8c1.1,0,2.3-0.1,3.5-0.3s2.2-0.5,3-1c0.1-0.4,0.2-1.3,0.2-2.7v-2.3c0-1.1-0.1-1.8-0.2-2c-0.1-0.3-0.5-0.5-1-0.6
	c-0.5-0.1-1.7-0.2-3.5-0.2l-0.2-0.2v-0.9l0.2-0.2l1.3,0c2.2,0.1,3.9,0.1,5.3,0.1c0.8,0,1.9,0,3.5-0.1L643.3,280.6z"/>
<path d="M651.2,277.6c0-2.1,0.3-4,0.9-5.8s1.6-3.5,3-5c1.4-1.5,3.2-2.7,5.2-3.5c2-0.8,4.3-1.3,6.8-1.3c4.7,0,8.5,1.3,11.3,3.8
	c2.8,2.6,4.2,6.1,4.2,10.5c0,3.1-0.7,5.9-2.1,8.4c-1.4,2.5-3.3,4.4-5.9,5.8c-2.6,1.4-5.4,2.1-8.6,2.1c-2.3,0-4.3-0.4-6.2-1.1
	c-1.9-0.8-3.5-1.9-4.8-3.4c-1.3-1.5-2.3-3.2-2.9-5.2C651.5,281,651.2,279.3,651.2,277.6z M655.6,276.3c0,1.7,0.3,3.5,0.8,5.4
	c0.5,1.9,1.4,3.6,2.4,5c1.1,1.4,2.3,2.4,3.8,3.1c1.4,0.7,3,1,4.8,1c2.1,0,4.1-0.5,5.7-1.5s2.9-2.5,3.8-4.6c0.9-2.1,1.3-4.4,1.3-7
	c0-2.8-0.5-5.3-1.5-7.6s-2.4-3.9-4.3-4.9c-1.8-1-3.9-1.5-6.1-1.5c-3.4,0-6,1.1-7.9,3.2C656.5,269.1,655.6,272.2,655.6,276.3z"/>
<path d="M690.6,292.1l-0.2-0.2v-1l0.2-0.2c0.8,0,1.5-0.1,2-0.1c0.5-0.1,0.8-0.2,1-0.4c0.1-0.2,0.2-0.5,0.3-0.9
	c0-0.4,0.1-1.4,0.1-2.9c0-1.5,0.1-2.6,0.1-3.2v-16.8c0-0.7-0.1-1.2-0.4-1.6c-0.3-0.3-0.6-0.6-1-0.6c-0.4-0.1-1.2-0.1-2.3-0.2
	l-0.2-0.2v-1l0.2-0.2c1.9,0.1,3.2,0.1,3.8,0.1c1.4,0,2.5,0,3.4-0.1l6.6,8.6l9.7,12.2c1.2,1.5,2.4,2.9,3.6,4.2v-16.1
	c0-0.5,0-1.6-0.1-3.2c0-1.6-0.1-2.7-0.2-3.1s-0.2-0.7-0.4-0.9c-0.2-0.2-0.5-0.3-1-0.3s-1.1-0.1-1.9-0.1l-0.2-0.2v-1l0.2-0.2
	c1.1,0.1,2.7,0.1,4.8,0.1c1.9,0,3.3,0,4.1-0.1l0.2,0.2v1L723,264c-0.9,0-1.6,0.1-2.1,0.2c-0.5,0.1-0.8,0.2-0.9,0.4
	c-0.1,0.2-0.2,0.5-0.3,0.9c0,0.4-0.1,1.4-0.1,2.9c0,1.5-0.1,2.6-0.1,3.3v9.9l0,5.7c0,1.9,0.1,3.7,0.1,5.6c-0.7-0.2-1.9-0.5-3.6-0.9
	l-1.5-1.7l-4.4-5.4L696,267.2v15.9c0,0.6,0,1.8,0.1,3.4s0.1,2.6,0.2,3s0.2,0.6,0.3,0.7s0.3,0.3,0.7,0.4c0.4,0.1,1.1,0.2,2.3,0.2
	l0.2,0.2v1l-0.2,0.2c-0.7-0.1-1.9-0.1-3.5-0.1C694,291.9,692.1,292,690.6,292.1z"/>
<path d="M731.3,262.6l2.6,0.1c1.7,0.1,2.8,0.1,3.3,0.1c0.5,0,2.5-0.1,6-0.2l0.2,0.1v1l-0.2,0.1c-1,0-1.7,0.1-2.2,0.1
	c-0.5,0.1-0.9,0.2-1.1,0.3s-0.4,0.5-0.5,1.1s-0.1,1.3-0.1,2.3l0,4.8v9.6l0,4c0,1.6,0.1,2.6,0.1,3c0.1,0.5,0.2,0.8,0.3,0.9
	c0.1,0.2,0.4,0.3,0.8,0.4c0.4,0.1,1.3,0.2,2.8,0.2l0.2,0.1v1l-0.2,0.2c-0.1,0-1.3,0-3.7-0.1c-1,0-1.8,0-2.3,0
	c-0.4,0-2.4,0.1-5.9,0.2l-0.2-0.2v-1l0.2-0.1c1.3-0.1,2.1-0.1,2.6-0.2s0.7-0.2,0.9-0.3c0.1-0.1,0.3-0.4,0.4-0.8
	c0.1-0.4,0.1-1.4,0.2-2.9l0-4.4v-9.6l0-4c0-1.6-0.1-2.6-0.1-3.1c-0.1-0.5-0.2-0.8-0.3-0.9c-0.1-0.2-0.4-0.3-0.8-0.4
	c-0.4-0.1-1.3-0.2-2.8-0.2l-0.2-0.1v-1L731.3,262.6z"/>
<path d="M750.9,292.1l-0.2-0.2v-1.1l0.2-0.2c1,0,1.7-0.1,2-0.2c0.3-0.1,0.5-0.3,0.8-0.5c0.2-0.3,0.7-1.2,1.4-2.6l2.2-4.7l5.6-12.8
	c1.1-2.5,2.1-5,3.2-7.5h1.3l8.9,20.8l1.2,2.8c0.3,0.8,0.7,1.6,1.2,2.6c0.5,0.9,0.8,1.5,0.9,1.6c0.2,0.2,0.4,0.3,0.6,0.4
	s0.8,0.1,1.7,0.2l0.2,0.2v1.1l-0.2,0.2c-1.5-0.1-2.8-0.2-4-0.2c-2.3,0.1-4.6,0.1-6.9,0.2l-0.2-0.2v-1.1l0.2-0.2
	c1.5,0,2.5-0.1,2.9-0.2c0.4-0.1,0.6-0.3,0.6-0.7c0-0.3-0.1-0.7-0.3-1.2l-2.6-6.3h-12l-2.3,5.3c-0.4,1-0.6,1.7-0.6,2.1
	c0,0.3,0.2,0.6,0.6,0.8c0.4,0.2,1.3,0.3,2.8,0.3l0.2,0.2v1.1l-0.2,0.2c-1.8-0.1-3.3-0.2-4.7-0.2C754,291.9,752.5,292,750.9,292.1z
	 M760.4,280.5h10.5l-5.2-12.5L760.4,280.5z"/>
</svg>
