<?xml version="1.0" encoding="utf-8"?>
<!-- Generator: Adobe Illustrator 22.0.1, SVG Export Plug-In . SVG Version: 6.00 Build 0)  -->
<svg version="1.1" id="Layer_1" xmlns="http://www.w3.org/2000/svg" xmlns:xlink="http://www.w3.org/1999/xlink" x="0px" y="0px"
	 viewBox="0 0 694.3 821" style="enable-background:new 0 0 694.3 821;" xml:space="preserve">
<style type="text/css">
	.st0{fill:#042235;}
	.st1{fill:#FBFCFA;}
	.st2{fill:#8B1C03;}
	.st3{fill:#8A8119;}
	.st4{fill:#052438;}
	.st5{fill:#8A1C03;}
	.st6{fill:#898119;}
	.st7{fill:#062337;}
	.st8{fill:#8B1B04;}
	.st9{fill:#8A8019;}
	.st10{fill:#FDFDE7;}
	.st11{fill:#5E2314;}
	.st12{fill:#F9FAF9;}
	.st13{fill:#F5F8F6;}
	.st14{fill:#752823;}
</style>
<path class="st0" d="M553.5,165.6c-0.5,30.8,1.1,69.1-0.7,107.4c-2.1,42.8-11.3,83.7-33.1,121.2c-25.7,44.2-64,73.2-111,91.7
	c-19.4,7.6-39.5,12.8-60,16.8c-5.7,1.1-10.9-0.7-16.2-1.8c-32.7-6.7-63.8-17.5-92.4-35.1c-47.2-29-77.1-71.1-92.3-123.9
	c-8.5-29.5-11.7-59.8-11.7-90.4c-0.1-71.3,0-142.7-0.1-214c0-3.7,1.3-5.1,4.5-6.4c40.1-15.5,82-22.8,124.5-27.1
	c39.5-4,79.1-5,118.8-3c49,2.4,97.5,8.3,144.6,22.9c7,2.2,13.8,5,20.7,7.2c3.5,1.1,4.5,2.8,4.4,6.4
	C553.4,77.7,553.5,117.9,553.5,165.6z"/>
<path class="st1" d="M144.4,163.8c0-40.2,0.1-80.3-0.1-120.5c0-3.8,1.2-5.3,4.8-6.6c38.5-14.1,78.4-20.7,119-24.7
	c37-3.7,74.2-4.5,111.3-2.9c50.9,2.3,101.2,8.1,150,23.8c5.1,1.6,11.4,2.3,14.6,5.8c3.3,3.6,1,10.2,1,15.5c0,71.5,0.4,143-0.5,214.4
	c-0.5,38.5-8.7,75.7-26.1,110.4c-24,47.9-62.7,79.3-111.9,98.7c-19.2,7.6-39.2,12.9-59.5,16.7c-4.3,0.8-8.2-0.8-12.3-1.6
	c-33.7-6.8-65.7-18.1-94.7-37c-45.2-29.4-72.7-71.3-86.1-123c-6.9-26.8-9.6-54-9.5-81.6C144.4,222.2,144.4,193,144.4,163.8z"/>
<path class="st2" d="M340.8,479.9c-0.4,6.2-0.4,6.3-6.7,4.9c-9.8-2.1-19.4-4.6-29-7.5c-2.9-0.9-3.2-1.7-1.8-4.4
	c26.6-49.5,25.9-99.4,1.3-149.4c-1.4-2.8-3.3-5.4-4.8-8.2c-2.3-4.4-0.9-7.3,3.8-8.6c15-4.1,24.7-17.6,23.8-32.9
	c-0.1-1.9-0.2-3.3-2.6-3.2c-12.8,0.6-26.1-2.2-38.7,5.4c0.7-4.7-1.3-5.5-4.9-5.4c-7.8,0.3-15.7-0.3-23.5,0.2
	c-14.2,0.8-26.3,5.8-33.5,19c-1.1,2.1-2.9,2.6-4.8,3.2c-14,4.7-28.1,9.4-42.2,13.9c-3.7,1.2-4.5,2.9-3.8,6.5
	c2.2,11.2,9.6,18.5,20.8,19.6c13.3,1.3,26.6,0.1,40,0.5c20.3,0.6,33.9,20.2,27.5,39.4c-3.8,11.5-14.5,19.9-26.5,20.1
	c-14.7,0.3-29.3,0.1-44,0.2c-2.7,0-3.7-1.4-4.9-3.4c-14.7-24.1-23.6-50.2-28.6-77.8c-3.2-17.6-5-35.3-5-53.2
	c-0.1-22.7,0.1-45.3,0.1-68c1.5-1,3.2-0.5,4.9-0.5c53.4,0,106.9-0.1,160.3,0c5.5,0,11,0.1,16.4-0.1c3.6-0.1,5.3,0.7,4.9,4.6
	c-0.3,2.6,0,5.3-0.1,8c0.1-3.3,0-6.5,0.1-9.8c0-1-0.4-2.6,1.7-2.1c1,2,0.8,4.2,0.8,6.4c0,92.1,0,184.1,0,276.2
	C341.7,475.7,341.9,477.9,340.8,479.9z"/>
<path class="st3" d="M352.5,430.8c-1.3-0.4-2.8,0.5-3.8-0.9c-1.2-1.8-1-3.8-1-5.8c0-76.3,0-152.5,0-228.8c0-3.3-0.3-6,4.7-6
	c60.4,0.2,120.9,0.1,181.3,0.1c1,0,2-0.1,2.9,0.4c-0.2,44.2,3.1,88.6-6.8,132.4c-6.1,26.9-15.9,52.1-31.2,75.1
	c-2.6,3.9-5.1,5.1-9.8,4.2c-8.7-1.7-17.5-1.9-26.4-1.3c-3,0.2-4.2-0.5-4-3.7c0.2-5.8,0.1-11.7,0.1-17.5c0-1.1-0.1-2.7,0.6-3.3
	c4.3-3.9,5.8-8.6,5-14.4c-0.3-2.3,2.1-1.6,3.4-1.6c6.7-0.1,13.3,0,20,0c12.5,0,18.5-9.1,13.3-20.5c-2.2-5-4.7-9.9-7.1-14.8
	c-0.8-1.7-1.5-3,0.4-4.8c5.2-4.7,5.1-10.5,2.3-16.4c-2.2-4.6-4.5-9.3-6.9-13.8c-1.2-2.2-1.4-3.7,0.7-5.6c4.4-3.9,5.3-8.8,2.8-14
	c-9.7-20.2-19.5-40.4-29.4-60.6c-1.9-3.9-5.3-6.4-10-6.1c-4.6,0.2-7.8,2.7-9.7,6.7c-4.3,8.8-8.5,17.6-13.1,27
	c-2.9-3.4-4.1-7-5.7-10.3c-2.1-4.3-5.3-7-10-7.1c-4.9-0.1-8.4,2.6-10.5,7c-9.7,20.1-19.4,40.1-29.1,60.2c-2.8,5.7-2,10.7,2.7,14.8
	c2,1.8,1.8,3,0.8,5c-2.5,4.9-4.8,9.9-7.2,14.8c-2.9,6-2.7,11.7,2.2,16.5c1.8,1.7,1.3,3,0.5,4.8c-2.5,5.1-5,10.1-7.4,15.3
	c-5,10.8,1.2,20.4,13.1,20.5c8.7,0,17.3,0.1,26-0.1c3.2-0.1,4.4,0.9,4.3,4.3c-0.2,9-0.2,18,0,27c0,3-0.9,4.5-3.8,5.4
	c-10.1,3.3-20.1,6.9-30.2,10.4c-4.2,2-8.7,3.2-13.4,3.7c-0.9,0.1-1.8,0.2-2.6,0.3C358.3,431.3,355.1,429.7,352.5,430.8z"/>
<path class="st4" d="M161.2,181c14.6-14,28.5-27.3,42.4-40.6c6.7-6.5,13.5-12.9,20.2-19.4c1.6-1.6,2.6-2.6,4.3,0.1
	c11,17.2,29.5,15.2,41.8,3.2c3.9-3.8,7.5-8,11.2-12.1c7.9-8.4,16.4-8,23.6,1.1c5.4,6.8,9.1,14.7,13.3,22.3c6.1,11,14.6,17.9,28,17.3
	c9.2-0.4,16.2-4.2,21.6-11.5c3.8-5.1,6.4-10.9,9.4-16.5c2.5-4.5,5.2-8.9,8.5-12.9c6.4-7.5,14.8-7.9,21.6-0.9
	c4.1,4.2,7.8,8.7,11.9,12.8c5.1,5,11,8.5,18.3,9.3c11.3,1.3,18.5-4.6,24.5-13.2c2-2.9,3.3-7.9,6.5-8.1c2.6-0.1,5.5,3.8,8.2,6
	c19.1,15.5,38.3,31,57.4,46.6c2.3,1.9,4.4,13.2,2.8,15.7c-0.3,0.4-1.1,0.7-1.7,0.8c-1,0.1-2,0-3,0c-122.8,0-245.6,0-368.4,0
	C163.3,181.2,162.8,181.2,161.2,181z"/>
<path class="st4" d="M363.5,16.7c35,0.2,88,4.4,140,17.3c10,2.5,19.9,5.4,29.6,8.8c2.7,0.9,3.9,2.1,3.8,5.3c-0.2,11.3-0.2,22.7,0,34
	c0.1,3.1-1,4.3-3.9,5c-10.6,2.7-20.5,1.3-29.8-4.1c-3.9-2.3-7.7-4.6-11.4-7.2c-15.9-11.4-31.9-10.9-48-0.6c-3,1.9-4.7,1.6-7.2-0.5
	c-12.7-10.2-24.7-21.3-38.5-30.2c-8.5-5.4-17.6-9.5-27.7-10.5c-12.5-1.3-23.2,3.4-33.2,10.1c-7.6,5.1-15.1,10.3-22.8,15.4
	c-2.5,1.6-5.2,2.9-7.8,4.4c-6.5,3.8-12,4-18.8-0.9c-20.7-14.9-42.4-15.7-64.4-2.1c-8.3,5.2-16.8,10.2-26.1,13.6
	c-14.4,5.3-28.4,3.9-42.4-1.3c-2.4-0.9-2.4-2.3-2.4-4.2c0-6.8,0.2-13.7-0.1-20.5c-0.1-3.2,1-4.6,4-5.6c20.5-7.1,41.5-12.1,62.8-15.9
	C260.9,19.6,302.9,16.6,363.5,16.7z"/>
<path class="st4" d="M367.2,42.5c13.1,0.6,24,6.8,33.8,14.5c19.1,15,37.8,30.6,56.8,45.8c2.8,2.2,2.8,3.8,0.8,6.3
	c-2.4,3-4.3,6.4-6.7,9.3c-5.7,7-12.5,8.3-20.4,4c-5.7-3-9.6-8.2-14-12.7c-1.8-1.9-3.5-4-5.4-5.9c-9.6-9.1-23.6-8.4-32.4,1.5
	c-4.9,5.5-8.6,11.8-12.1,18.3c-2,3.7-3.9,7.4-6.1,10.9c-8.3,12.9-25,13.1-33.6,0.4c-2.7-4-4.9-8.3-7.1-12.6
	c-3.2-5.9-6.6-11.6-11.1-16.6c-9.6-10.8-23.7-11.2-33.8-0.8c-3.8,3.9-7.5,8.1-11.2,12.1c-2.7,2.8-5.7,5.2-9.3,6.5
	c-11.1,4-16.3-1.6-21.8-9.7c-1.1-1.6,0.2-2.4,1.2-3.3c7.1-6.8,14-13.8,21.4-20.3c7.3-6.4,16.1-10.3,25.8-11
	c16.5-1.2,30.8-7.6,44.2-16.8c7.7-5.3,14.9-11.2,23.3-15.5C355,44.2,360.9,42.3,367.2,42.5z"/>
<path class="st5" d="M277.7,294.1c1.3-1,1.9-1.3,2.3-1.8c9.1-11.9,21.6-14.6,35.6-13.5c3,0.2,3.1,1.1,2.4,3.6
	c-2.4,9-8.5,13.7-17.7,16.5c1.1-3.6,3.4-5,6.1-5.6c4.7-1,2.5-4.6,2.4-6.8c-0.2-3.3-3.1-1.5-4.7-1.1c-7.6,1.8-12.9,8.8-13.4,16.7
	c-0.5,8.7,1.4,16.3,5.6,24.5c24.7,47.3,24.9,95,0,142.5c-1.9,3.6-3.8,4.3-7.8,2.7c-17.4-6.8-33.9-15.3-49.5-25.7
	c-3.2-2.1-3.6-3.3-0.5-6.3c21.5-20.7,32.8-46.1,33-76.1c0.1-21.3-16.5-38-37.8-38.4c-11.8-0.2-23.7,0-35.5,0c-6,0-11.1-1.7-14.6-7
	c-1.8-2.8-1.6-4.1,1.9-5.2c13.5-4.3,26.9-8.8,40.3-13.2c1.9-0.6,3.6-1.1,4.5-3.4c4.8-12.2,15.2-16.1,27-17.2c5.6-0.5,11.3,0,17-0.2
	c3.1-0.1,3.6,1.2,3.5,3.8C277.5,286.2,277.7,289.7,277.7,294.1z"/>
<path class="st3" d="M394.1,295.2c-2.9,0-4.8,0-6.8,0c-4.5-0.1-5.5-1.5-3.6-5.5c4.7-9.9,9.6-19.7,14.4-29.6
	c4.6-9.6,9.2-19.2,13.8-28.7c0.6-1.3,0.9-3,2.9-3.1c1.9,0,2.3,1.7,2.9,3c9.4,19.3,18.8,38.6,28.1,57.9c2.2,4.5,1.1,6.1-3.9,6.1
	c-1.8,0-3.6,0-6.3,0c3.1,6.4,5.9,12.1,8.6,17.9c1.9,3.9,3.8,7.7,5.6,11.7c2.3,4.9,0.8,7.3-4.7,7.1c-5.1-0.2-4.5,1.6-2.7,4.9
	c4,7.7,7.7,15.5,11.4,23.3c3.1,6.6,1.3,9.2-6,9.2c-22.3,0-44.6,0-66.9,0c-6.6,0-8.3-2.7-5.4-8.8c3.9-8.3,7.8-16.5,11.9-24.7
	c1.2-2.5,1.7-3.7-1.9-3.9c-7.6-0.3-8.3-1.8-5-8.8C385,314,389.4,304.9,394.1,295.2z"/>
<path class="st3" d="M379,433.1c13.2-3,25.5-8.4,38.1-13.1c19.6-7.3,39.6-12.5,60.8-10.9c1.2,0.1,2.3,0.1,3.5,0.2
	c2.1,0.3,4.2,0.6,7,1.1c-5.7,7.7-12.2,14.1-18.9,20.1c-30.5,27.6-67.1,43.2-106.6,52.5c-4.7,1.1-9.3,3.5-14.4,2
	c-1.5-3.1-0.8-6.5-0.9-9.7c-0.3-10.3-0.1-20.6-0.1-30.8c0-5,1-6.1,6.1-6.4c3.1-0.2,6.1-1.6,9.2-0.9c0.3,0.2,0.5,0.1,0.7-0.1
	C368.6,434.7,373.8,434.1,379,433.1z"/>
<path class="st6" d="M475.3,350.8c-2.3,0-4.7-0.3-7,0.1c-6.6,1-10.9-1-12.9-7.9c-0.7-2.4-1.5-3.8,0.7-5.9c4-3.8,4.7-8.8,2.6-13.8
	c-2.4-5.7-5.2-11.1-7.8-16.7c-0.8-1.8-1.6-3.1,0.5-5.1c5.1-4.9,5.7-9.2,2.6-15.8c-5.1-10.8-10.2-21.7-15.7-32.3
	c-2.2-4.2-2.6-7.6-0.2-12c4.7-8.6,8.7-17.6,12.9-26.4c0.6-1.3,1-3,2.8-3.2c2.2-0.2,2.5,1.8,3.2,3.2c9.2,18.8,18.4,37.6,27.5,56.5
	c2.3,4.7,1.2,6.2-4.1,6.3c-6,0.2-6,0.2-3.4,5.4c3.7,7.6,7.5,15.2,11.2,22.8c2.9,6,1.8,7.8-4.9,7.8c-3.8,0-3.7,1.3-2.4,4
	c3.9,7.9,7.8,15.8,11.7,23.7c3.2,6.5,1.5,9.3-5.7,9.3C483,350.8,479.1,350.8,475.3,350.8z"/>
<path class="st4" d="M283.4,70.1c-15.7,1.7-27.7,8-38,18c-12.1,11.9-24.7,23.3-36.6,35.4c-4.1,4.2-7.6,4.6-12.6,2.4
	c-6.4-2.9-12.1-7-18-10.7c-7-4.4-14.4-7.8-22.9-7.2c-2.9,0.2-2.8-1.3-2.8-3.3c0.1-6.3,0.2-12.7,0-19c-0.1-3.6,0.7-4.1,4.1-3
	c19.6,6.8,38.3,4.2,56.2-5.8c5.4-3,10.7-6.1,16-9.1c5.1-2.9,10.3-5.4,16-6.8C258.5,57.7,270.6,62.2,283.4,70.1z"/>
<path class="st4" d="M536.9,155.8c-30.3-24.6-59.8-48.4-89.2-72.3c10.1-8.3,22.5-9.7,33.6-3.7c5,2.7,9.7,5.9,14.4,8.9
	c11.6,7.4,24,10.4,37.6,7.3c2-0.5,3.7-1.3,3.7,2.2C536.9,117,536.9,135.8,536.9,155.8z"/>
<path class="st7" d="M152.5,177.2c0-20,0-38.7,0-57.4c0-2.3,0.9-2.8,2.9-2.9c5.9-0.3,11.1,1.7,16,4.6c8,4.7,15.3,10.6,24.8,13.8
	C181.7,149.2,167.6,162.7,152.5,177.2z"/>
<path class="st8" d="M194,401.7c11,0,20.9-0.3,30.8,0.1c12,0.4,23.5-0.9,33.4-8.8c-5.3,17.3-14.8,31.6-28.1,43.4
	c-1.4,1.3-2.3,1.2-3.8,0C214.5,426.4,203.9,415.2,194,401.7z"/>
<path class="st9" d="M419.4,392.9c0.5-4.2-2.3-10.7,1.1-14c3.1-2.9,9.5-0.9,14.5-0.8c4.7,0.1,11.1-2.2,13.8,1.2
	c2.3,2.9,0.7,8.9,0.8,13.5c0,8.3,0,8.2-8.1,10.4c-6.3,1.7-12.5,3.5-18.6,5.6c-2.7,0.9-3.6,0.4-3.5-2.5
	C419.5,402.1,419.4,398,419.4,392.9z"/>
<path class="st10" d="M536.6,189.8c-61.1,0-122.2,0-183.3-0.2c-4.8,0-4.5,2.4-4.5,5.5c0,51.8,0.1,103.6,0,155.4
	c0,26.5-0.1,52.9-0.2,79.4c-3-1.5-2-4.3-2-6.7c0-75.1,0-150.3,0-225.4c0-1.3,0.4-2.9-0.1-4c-2.8-6.2,1.7-5,4.9-5
	c60,0,119.9,0,179.9,0C533.2,188.9,535.1,188.3,536.6,189.8z"/>
<path class="st10" d="M340.8,479.9c-0.1-2-0.2-4-0.2-6c0-92.5,0-184.9,0-277.4c0-1.8-0.1-3.7-0.2-5.5c-0.2-0.4-0.1-0.8,0.2-1.1
	c2.8,2,2.1,5,2.1,7.8c0,84.8,0,169.6,0,254.4c0,7.5,0,15,0,22.5C342.7,476.6,343.1,478.7,340.8,479.9z"/>
<path class="st11" d="M340.6,190c-0.1,0.3-0.2,0.7-0.2,1c-1.6,4.8,0,9.9-1.6,14.7c0-3.8,0-7.7,0-11.5c0-1.8-0.3-3.5-2.6-3.3
	c-3.8,0.3-7.6-1-11.3,0.8c-2.4,1.2-4.1-1-6.4-1C263.2,191,208,191,152.8,191c0.6-2.2,2.4-1.2,3.7-1.2c60.7-0.1,121.4-0.1,182.2-0.1
	C339.3,189.7,339.9,189.9,340.6,190z"/>
<path class="st10" d="M363,437.1c-3.2,1.4-6.7,1.7-10.2,2.1c-3,0.3-4.1,1.6-4,4.8c0.1,13.6-0.1,27.3-0.1,40.9
	c-1.5-0.1-1.9-0.9-1.9-2.3c0-12.8,0-25.7,0-38.5c0-5.9,1.1-7.3,6.8-7C356.7,437.2,359.9,433.3,363,437.1z"/>
<path class="st10" d="M379,433.1c-4.9,2.3-10.1,3.3-15.4,3.9C368,432.6,373.5,432.6,379,433.1z"/>
<path class="st10" d="M363.3,428.8c4.5-1.2,8.9-2.5,13.4-3.7C372.8,428.3,368.3,429.4,363.3,428.8z"/>
<path class="st10" d="M352.5,430.8c2.6-1.2,5.4-1.3,8.2-1.7C358.6,432.7,355.2,430.2,352.5,430.8z"/>
<path class="st12" d="M273.2,243.6c18.1-11.4,33.8-25.4,47.1-42.1c2.4-3,3.8-2.3,6.2-0.4c2.5,1.9,2.5,3.2,0.5,5.5
	c-40,47.8-91,72.9-153.4,75.2c-4.1,0.2-5.1-1.1-4.9-5c0.1-2.6,0.8-3.3,3.4-3.4c7.5-0.4,14.9-1.2,22.4-1.6
	c23-1.2,39.5-23.6,38.4-42.9c-0.1-2-0.7-3.9,2.7-4.6c4.6-0.9,5.9,0.4,5.8,4.8c-0.2,11.2-3.4,21.3-10,30.3c-1,1.3-1.9,2.6-3,4.1
	c23.5-2.4,39.3-18.9,42.1-43.8c0.4-4,0.9-8,0.5-12c-0.4-4.2,2.1-3.6,4.5-4c3.3-0.6,4,0.9,4,3.8c0.3,11.7-1.7,22.9-6.4,33.6
	C273,241.9,272.4,242.4,273.2,243.6z"/>
<path class="st13" d="M246.9,311c-10.2-0.8-10.3-1.4-6.4-10.6c4.2-10,15.6-14.6,25.8-11.4c2.1,0.7,2.4,1.6,2.1,3.6
	C266.8,303.3,257.8,311.1,246.9,311z"/>
<path class="st14" d="M246.7,303.9c3.5-5.5,7.3-8,13.3-8.4C256.9,300.6,253,303,246.7,303.9z"/>
<polygon class="st4" points="0,547.4 18.7,547.4 18.7,626.4 46,626.4 46,644 0,644 "/>
<polygon class="st4" points="60.3,547.4 79,547.4 79,626.4 106.3,626.4 106.3,644 60.3,644 "/>
<path class="st4" d="M150.5,547.4h19l37.8,96.6h-19.5l-7.7-19.9H140l-8,19.9h-19.5L150.5,547.4z M160.1,573l-13.2,33.2h26.3
	L160.1,573z"/>
<path class="st4" d="M268.3,544.9c13.9,0,25.9,4.9,35.9,14.8c10,9.9,15,22,15,36.2c0,14.1-4.9,26-14.8,35.8
	c-9.9,9.8-21.9,14.6-36,14.6c-14.8,0-27-5-36.8-15c-9.8-10-14.7-21.9-14.7-35.7c0-9.2,2.3-17.7,6.8-25.5s10.8-13.9,18.8-18.4
	C250.5,547.2,259.1,544.9,268.3,544.9z M268.1,562.9c-9.1,0-16.8,3.1-23,9.3c-6.2,6.2-9.3,14.1-9.3,23.7c0,10.7,3.9,19.1,11.7,25.4
	c6.1,4.9,13,7.3,20.9,7.3c8.9,0,16.4-3.2,22.7-9.5c6.2-6.3,9.4-14.1,9.4-23.3c0-9.2-3.1-17-9.4-23.4
	C284.7,566.1,277.1,562.9,268.1,562.9z"/>
<polygon class="st4" points="375.2,547.4 393.9,547.4 393.9,626.4 421.2,626.4 421.2,644 375.2,644 "/>
<polygon class="st4" points="435.4,547.4 454.1,547.4 454.1,626.4 481.4,626.4 481.4,644 435.4,644 "/>
<path class="st4" d="M525.7,547.4h19l37.8,96.6H563l-7.7-19.9h-40.1l-8,19.9h-19.5L525.7,547.4z M535.3,573l-13.2,33.2h26.3
	L535.3,573z"/>
<path class="st4" d="M643.4,544.9c13.9,0,25.9,4.9,35.9,14.8c10,9.9,15,22,15,36.2c0,14.1-4.9,26-14.8,35.8
	c-9.9,9.8-21.9,14.6-36,14.6c-14.8,0-27-5-36.8-15c-9.8-10-14.7-21.9-14.7-35.7c0-9.2,2.3-17.7,6.8-25.5
	c4.6-7.8,10.8-13.9,18.8-18.4C625.7,547.2,634.2,544.9,643.4,544.9z M643.2,562.9c-9.1,0-16.8,3.1-23,9.3
	c-6.2,6.2-9.3,14.1-9.3,23.7c0,10.7,3.9,19.1,11.7,25.4c6.1,4.9,13,7.3,20.9,7.3c8.9,0,16.4-3.2,22.7-9.5c6.2-6.3,9.4-14.1,9.4-23.3
	c0-9.2-3.1-17-9.4-23.4C659.9,566.1,652.2,562.9,643.2,562.9z"/>
<path class="st4" d="M78.3,712.2c2.4-0.5,4.5-1.7,6.3-3.7c1.8-2,2.6-4.2,2.6-6.7c0-7.5-5.5-11.3-16.4-11.3c-1.4,0-3.6,0.1-6.6,0.2
	c-3,0.1-4.6,0.2-4.8,0.2v39.3h6.2v-17.1c3,0.2,5.2,0.3,6.6,0.3l12.2,16.9h7.1L78.3,712.2z M70,708.8c-1.4,0-2.9-0.1-4.4-0.3v-12.8
	c1.8-0.2,3.1-0.3,3.7-0.3c3.9,0,6.8,0.5,8.7,1.4c1.8,1,2.7,2.5,2.7,4.7c0,2.7-0.9,4.5-2.6,5.5C76.5,708.3,73.7,708.8,70,708.8z"/>
<polygon class="st4" points="102.5,695.8 102.5,706.7 117.5,706.7 117.5,711.3 102.5,711.3 102.5,725.4 123.1,725.4 123.1,730.3 
	96.2,730.3 96.2,691 123.5,691 123.5,695.8 "/>
<path class="st4" d="M128.4,728.5l2.3-4.9c1.2,0.7,2.6,1.3,4.3,1.8s3.3,0.7,4.7,0.7c2.4,0,4.4-0.6,5.9-1.7s2.2-2.6,2.2-4.4
	c0-1.3-0.4-2.6-1.2-3.7c-0.8-1.1-2.9-2.4-6.2-3.7l-3.7-1.5c-3.1-1.3-5.3-2.7-6.5-4.5s-1.9-3.8-1.9-6.2c0-2.9,1.2-5.4,3.6-7.3
	c2.4-1.9,5.5-2.9,9.3-2.9c5,0,8.6,0.7,10.5,2.1l-1.8,4.7c-0.8-0.5-2.1-1-3.8-1.5c-1.7-0.5-3.3-0.7-4.7-0.7c-2.1,0-3.8,0.5-5,1.6
	c-1.2,1-1.8,2.4-1.8,4c0,1,0.2,1.9,0.7,2.7s1,1.5,1.8,2.1c0.8,0.6,2.4,1.3,4.8,2.3l3.7,1.5c3.1,1.3,5.3,2.8,6.6,4.5
	c1.3,1.8,1.9,4,1.9,6.7c0,2.9-1.4,5.5-4.1,7.5c-2.8,2.1-6.4,3.1-11,3.1C134.7,730.9,131.2,730.1,128.4,728.5z"/>
<path class="st4" d="M191.9,695.6c-3.4-3.5-8.2-5.3-14.6-5.3c-5.6,0-10.1,1.9-13.4,5.7c-3.3,3.8-5,8.6-5,14.3c0,6,1.6,11,4.9,14.9
	c3.3,3.9,7.8,5.8,13.5,5.8c6.3,0,11.2-1.8,14.5-5.5c3.4-3.7,5.1-8.7,5.1-15.2C196.9,704,195.2,699.1,191.9,695.6z M187,722
	c-2.2,2.8-5.5,4.2-9.7,4.2c-3.8,0-6.7-1.5-8.7-4.5s-3.1-6.8-3.1-11.3c0-4.7,1-8.4,3-11.1s5-4.1,8.8-4.1c8.7,0,13.1,5.1,13.1,15.2
	C190.4,715.3,189.3,719.2,187,722z"/>
<path class="st4" d="M223.3,712.2c2.4-0.5,4.5-1.7,6.3-3.7c1.8-2,2.6-4.2,2.6-6.7c0-7.5-5.5-11.3-16.4-11.3c-1.4,0-3.6,0.1-6.6,0.2
	c-3,0.1-4.6,0.2-4.8,0.2v39.3h6.2v-17.1c3,0.2,5.2,0.3,6.6,0.3l12.2,16.9h7.1L223.3,712.2z M215,708.8c-1.4,0-2.9-0.1-4.4-0.3v-12.8
	c1.8-0.2,3.1-0.3,3.7-0.3c3.9,0,6.8,0.5,8.7,1.4s2.7,2.5,2.7,4.7c0,2.7-0.9,4.5-2.6,5.5S218.7,708.8,215,708.8z"/>
<polygon class="st4" points="255.2,695.8 255.2,730.3 249,730.3 249,695.8 234.5,695.8 234.5,691 270.4,691 270.4,695.8 "/>
<path class="st4" d="M267.3,740l-1.6-1.9c3.6-2.5,5.4-4.7,5.4-6.4c0-0.8-0.3-1.6-0.9-2.4c-1.8-0.7-2.7-1.8-2.7-3.2
	c0-0.9,0.4-1.7,1.3-2.3c0.9-0.6,1.9-0.9,3.2-0.9c1.1,0,2.2,0.4,3.1,1.3c0.9,0.9,1.4,1.9,1.4,3c0,2.4-0.6,4.5-1.7,6.4
	C273.5,735.5,271.1,737.6,267.3,740z"/>
<path class="st4" d="M339.3,693.7l-2.6,4.4c-3.1-2-6.2-3-9.2-3c-4.8,0-8.5,1.4-11.3,4.3s-4.1,6.7-4.1,11.5c0,4.5,1.4,8.2,4.1,11
	c2.7,2.8,6.4,4.2,11.1,4.2c3.3,0,6-0.9,8.1-2.6v-9.2h-6.3v-4.6h12.6v17.1c-1.7,1.2-4,2.2-6.9,2.9c-3,0.7-5.9,1.1-8.7,1.1
	c-6.3,0-11.3-1.8-14.9-5.5s-5.5-8.6-5.5-14.7c0-6.1,2-11,6-14.8s9.4-5.7,16.2-5.7C332.4,690.3,336.3,691.5,339.3,693.7z"/>
<path class="st4" d="M381.6,695.6c-3.4-3.5-8.2-5.3-14.6-5.3c-5.6,0-10.1,1.9-13.4,5.7c-3.3,3.8-5,8.6-5,14.3c0,6,1.6,11,4.9,14.9
	c3.3,3.9,7.8,5.8,13.5,5.8c6.3,0,11.2-1.8,14.5-5.5c3.4-3.7,5.1-8.7,5.1-15.2C386.7,704,385,699.1,381.6,695.6z M376.8,722
	c-2.2,2.8-5.5,4.2-9.7,4.2c-3.8,0-6.7-1.5-8.7-4.5c-2.1-3-3.1-6.8-3.1-11.3c0-4.7,1-8.4,3-11.1s5-4.1,8.8-4.1
	c8.7,0,13.1,5.1,13.1,15.2C380.1,715.3,379,719.2,376.8,722z"/>
<polygon class="st4" points="393.8,730.3 393.8,691 400.1,691 400.1,725.4 420.7,725.4 420.7,730.3 "/>
<polygon class="st4" points="432.4,695.8 432.4,706.7 448.4,706.7 448.4,711.3 432.4,711.3 432.4,730.3 426.1,730.3 426.1,691 
	454.3,691 454.3,695.8 "/>
<path class="st4" d="M515.3,725.3c-1.5,0.7-2.8,1-4,1c-1.9,0-3.2-0.4-4-1.3c-0.8-0.9-1.2-2.6-1.2-5V711h7.8v-4.3h-7.8v-6.9l-5.9,2
	v4.9h-11.6c-2.4-1.6-3.6-3.6-3.6-5.9c0-4.3,2.8-6.4,8.3-6.4c1.9,0,4,0.8,6.4,2.5l2.6-4.1c-2.3-1.6-5.6-2.4-9.9-2.4
	c-4,0-7.2,1-9.6,2.9c-2.4,1.9-3.6,4.3-3.6,7c0,2.7,1.5,5.3,4.4,7.8c-1.9,1.6-3.2,3.2-3.9,4.7c-0.7,1.5-1.1,3.3-1.1,5.4
	c0,4,1.2,7.2,3.6,9.4c2.4,2.2,5.7,3.3,10.1,3.3c4.3,0,7.9-0.6,10.9-1.9c1.8,1.3,3.7,1.9,5.6,1.9c2.8,0,5.3-0.3,7.5-0.8L515.3,725.3z
	 M494.3,726.2c-6.3,0-9.5-2.8-9.5-8.4c0-2.4,1-4.7,3-6.9h12.6v10.8c0,1.2,0.1,2.3,0.3,3.1C499.3,725.8,497.1,726.2,494.3,726.2z"/>
<path class="st4" d="M541,728.5l2.3-4.9c1.2,0.7,2.6,1.3,4.3,1.8s3.3,0.7,4.7,0.7c2.4,0,4.4-0.6,5.9-1.7s2.2-2.6,2.2-4.4
	c0-1.3-0.4-2.6-1.2-3.7c-0.8-1.1-2.9-2.4-6.2-3.7l-3.7-1.5c-3.1-1.3-5.3-2.7-6.5-4.5c-1.2-1.7-1.9-3.8-1.9-6.2
	c0-2.9,1.2-5.4,3.6-7.3s5.5-2.9,9.3-2.9c5,0,8.6,0.7,10.5,2.1l-1.8,4.7c-0.8-0.5-2.1-1-3.8-1.5s-3.3-0.7-4.7-0.7
	c-2.1,0-3.8,0.5-5,1.6c-1.2,1-1.8,2.4-1.8,4c0,1,0.2,1.9,0.7,2.7c0.4,0.8,1,1.5,1.8,2.1c0.8,0.6,2.4,1.3,4.8,2.3l3.7,1.5
	c3.1,1.3,5.3,2.8,6.6,4.5c1.3,1.8,1.9,4,1.9,6.7c0,2.9-1.4,5.5-4.1,7.5c-2.8,2.1-6.4,3.1-11,3.1C547.4,730.9,543.9,730.1,541,728.5z
	"/>
<path class="st4" d="M582.3,690.7c-1,0-3.8,0.1-8.5,0.3v39.3h6.2v-15.1c2.4,0.2,3.9,0.3,4.6,0.3c11.7,0,17.6-4.4,17.6-13.2
	C602.2,694.5,595.6,690.7,582.3,690.7z M584.2,710.6c-0.1,0-1.5-0.1-4.2-0.3v-14.5c1.4-0.2,2.6-0.3,3.4-0.3c8.2,0,12.4,2.4,12.4,7.2
	C595.8,708,591.9,710.6,584.2,710.6z"/>
<path class="st4" d="M617.9,690.5h-1.7l-18.5,39.8h7l3.4-8.3h17l3.1,8.3h6.9L617.9,690.5z M609.7,718l7.1-17.3l6.5,17.3H609.7z"/>
<path class="st4" d="M96.6,789.2c8.4,0,15.2-3.5,15.2-10.9c0-7-5.9-10.3-14.4-10.3H81.4v0.9h1.7c2.7,0,3.7,0.7,3.7,3.4v30.4
	c0,2.7-1,3.4-3.7,3.4h-1.7v0.9H98v-0.9h-2.6c-2.7,0-3.8-0.7-3.8-3.4v-13.5H96.6z M91.7,772.2c0-2.7,1.1-3.4,3.8-3.4h1.8
	c8.1,0,9,5,9,9.7c0,4.2-0.8,9.9-9.4,9.9h-5.2V772.2z"/>
<path class="st4" d="M142.1,799.8c-0.1,3.8-0.8,5.5-2.5,5.5c-1,0-1.8-0.9-1.8-3.8v-14.1c0-8.1-4.9-10.1-10.6-10.1
	c-7.5,0-11.4,3.4-11.4,6.9c0,2,1.3,3.3,3.2,3.3c1.8,0,3.2-1.4,3.2-3.2c0-1.7-1.6-3-3-3c-0.3,0-0.4-0.1-0.4-0.3
	c0-1.2,3.2-2.8,7.1-2.8c4.2,0,6.9,2.3,6.9,8.8v2c-13.3,3-18.6,6.1-18.6,11.9c0,4.4,3.5,6.6,8,6.6c4.9,0,9.2-3,10.5-6.6h0.1
	c-0.4,4.9,2.2,6.4,4.9,6.4c2.9,0,5.2-1.2,5.4-7.8H142.1z M132.8,795.2c0,7.6-4.4,10.1-7.8,10.1c-3.2,0-4.9-2.3-4.9-5.3
	c0-3.9,2-7.5,12.8-9.7V795.2z"/>
<path class="st4" d="M147.1,799v-19.8h-4.8v-0.8c4.5-0.8,8.3-3.8,9-12.6h0.9v12.3h9.5v1.1h-9.5v20.1c0,4.3,1.6,6.4,4.8,6.4
	c2.9,0,5.2-3.1,5.5-9.1h1c0,7-3.2,11.1-8.3,11.1C150.2,807.8,147.1,805,147.1,799z"/>
<path class="st4" d="M193.3,799.8c-0.1,3.8-0.8,5.5-2.5,5.5c-1,0-1.8-0.9-1.8-3.8v-14.1c0-8.1-4.9-10.1-10.6-10.1
	c-7.5,0-11.4,3.4-11.4,6.9c0,2,1.3,3.3,3.2,3.3c1.8,0,3.2-1.4,3.2-3.2c0-1.7-1.6-3-3-3c-0.3,0-0.4-0.1-0.4-0.3
	c0-1.2,3.2-2.8,7.1-2.8c4.2,0,6.9,2.3,6.9,8.8v2c-13.3,3-18.6,6.1-18.6,11.9c0,4.4,3.5,6.6,8,6.6c4.9,0,9.2-3,10.5-6.6h0.1
	c-0.4,4.9,2.2,6.4,4.9,6.4c2.9,0,5.2-1.2,5.4-7.8H193.3z M183.9,795.2c0,7.6-4.4,10.1-7.8,10.1c-3.2,0-4.9-2.3-4.9-5.3
	c0-3.9,2-7.5,12.8-9.7V795.2z"/>
<path class="st4" d="M220.7,779.3c0.6,0,0.7,0.5,0.7,1.4c0,1.4,0.8,2.7,2.4,2.7c1.6,0,2.6-1.3,2.6-2.7c0-2.1-1.6-3.4-3.7-3.4
	c-2.4,0-4,2.1-5,3.6c-2.5-2.6-5.4-3.6-9-3.6c-6.6,0-12,4.4-12,10.7c0,3.6,2.3,7,5.2,8.8c-2.7,1.6-5,3.2-5,5.6c0,3.1,4.2,4.3,9.1,4.8
	c-7.3,0.1-11.4,3.4-11.4,7.2c0,4.5,6.3,6.7,14,6.7c8.7,0,15.4-3.7,15.4-9.5c0-7.2-8-8.4-14.4-8.4c-7.3-0.1-9.4-1.1-9.4-2.5
	s1.1-2.4,2.5-3.3c1.6,0.8,3.9,1.4,5.9,1.4c6.6,0,11.9-4.5,11.9-10.8c0-2.2-0.7-4.3-2.1-6.4C219.2,780.1,220,779.3,220.7,779.3z
	 M221.5,813.2c0,3.8-5.4,6.9-12.5,6.9c-4.6,0-10.3-1.4-10.3-5.8c0-3,2.3-6.7,10.4-6.7C217.9,807.6,221.5,809.9,221.5,813.2z
	 M208.6,797.7c-5.1,0-6.3-5.5-6.3-9.8s1.1-9.8,6.3-9.8c5.1,0,6.3,5.5,6.3,9.8S213.7,797.7,208.6,797.7z"/>
<path class="st4" d="M239.8,777.2c-6.6,0-13.8,6.4-13.8,15.3c0,8.7,7.2,15.4,13.8,15.4s13.8-6.9,13.8-15.6
	C253.6,783.5,246.4,777.2,239.8,777.2z M239.8,807c-5.9,0-7.8-6.7-7.8-14.5c0-8,2.1-14.3,7.8-14.3c5.7,0,7.8,6.4,7.8,14.4
	C247.6,800.5,245.7,807,239.8,807z"/>
<path class="st4" d="M256.2,806h0.5c3.1,0,3.8-0.8,3.8-3.8V783c0-3.1-0.7-3.9-3.8-3.9h-0.5v-0.8l9.4-0.5l-0.4,8.4h0.1
	c1.9-5.6,6.3-8.5,10.9-8.5c5.7,0,8.3,3.4,8.3,10.2v14.3c0,3.1,0.7,3.8,3.9,3.8h0.1v1H275v-1h0.7c3.2,0,3.9-0.8,3.9-3.8v-16
	c0-4.8-2.1-6.3-4.9-6.3c-5.1,0-9,5-9,11.1v11.2c0,3.1,0.7,3.8,3.8,3.8h0.7v1h-14V806z"/>
<path class="st4" d="M290,806h0.6c3.1,0,3.8-0.8,3.8-3.8V783c0-3.2-0.7-3.9-3.8-3.9H290v-0.9l9.4-0.5v24.4c0,3.1,0.7,3.8,3.8,3.8
	h0.6v1H290V806z"/>
<ellipse class="st4" cx="296.2" cy="766.7" rx="3.9" ry="3.8"/>
<path class="st4" d="M334.2,799.8c-0.1,3.8-0.8,5.5-2.5,5.5c-1,0-1.8-0.9-1.8-3.8v-14.1c0-8.1-4.9-10.1-10.6-10.1
	c-7.5,0-11.4,3.4-11.4,6.9c0,2,1.3,3.3,3.2,3.3c1.8,0,3.2-1.4,3.2-3.2c0-1.7-1.6-3-3-3c-0.3,0-0.4-0.1-0.4-0.3
	c0-1.2,3.2-2.8,7.1-2.8c4.2,0,6.9,2.3,6.9,8.8v2c-13.3,3-18.6,6.1-18.6,11.9c0,4.4,3.5,6.6,8,6.6c4.9,0,9.2-3,10.5-6.6h0.1
	c-0.4,4.9,2.2,6.4,4.9,6.4c2.9,0,5.2-1.2,5.4-7.8H334.2z M324.9,795.2c0,7.6-4.4,10.1-7.8,10.1c-3.2,0-4.9-2.3-4.9-5.3
	c0-3.9,2-7.5,12.8-9.7V795.2z"/>
<path class="st4" d="M384,802l-13.2-35.2h-1.3L357,799.7c-1.5,4-2.6,5.9-5.9,6.3v0.9h11.1v-0.9h-1.1c-2.2,0-3.3-1-3.3-2.9
	c0-2.1,0.7-4,1.3-5.6l1.3-3.5h15.2l2,5.4c0.9,2.4,1.2,3.5,1.2,4.5c0,1.1-1.2,2.1-3.5,2.1h-1.7v0.9h15.6v-0.9
	C386.7,805.9,385.2,805.3,384,802z M360.7,793.2l7.3-20.2l7.3,20.2H360.7z"/>
<path class="st4" d="M390.1,806h0.5c3.1,0,3.8-0.8,3.8-3.8v-19.2c0-3.1-0.8-3.8-3.8-3.8h-0.5v-0.8l9.4-0.5l-0.5,11.6h0.1
	c2.2-7.5,5.7-11.9,10.4-11.9c3.6,0,5.6,2.1,5.6,4.5c0,2.7-1.6,4-3.5,4c-1.8,0-3.2-1.1-3.2-2.8c0-1.5,0.8-2.2,1.5-2.7
	c0.4-0.3,0.6-0.5,0.6-0.8c0-0.5-0.7-0.7-1.6-0.7c-5.1,0-9.4,9.7-9.4,15.2v8.2c0,3.1,0.7,3.8,3.8,3.8h1.6v1h-14.9V806z"/>
<path class="st4" d="M440.3,779.3c0.6,0,0.7,0.5,0.7,1.4c0,1.4,0.8,2.7,2.4,2.7c1.6,0,2.6-1.3,2.6-2.7c0-2.1-1.6-3.4-3.7-3.4
	c-2.4,0-4,2.1-5,3.6c-2.5-2.6-5.4-3.6-9-3.6c-6.6,0-12,4.4-12,10.7c0,3.6,2.3,7,5.2,8.8c-2.7,1.6-5,3.2-5,5.6c0,3.1,4.2,4.3,9.1,4.8
	c-7.3,0.1-11.4,3.4-11.4,7.2c0,4.5,6.3,6.7,14,6.7c8.7,0,15.4-3.7,15.4-9.5c0-7.2-8-8.4-14.4-8.4c-7.3-0.1-9.4-1.1-9.4-2.5
	s1.1-2.4,2.5-3.3c1.6,0.8,3.9,1.4,5.9,1.4c6.6,0,11.9-4.5,11.9-10.8c0-2.2-0.7-4.3-2.1-6.4C438.8,780.1,439.6,779.3,440.3,779.3z
	 M441.1,813.2c0,3.8-5.4,6.9-12.5,6.9c-4.6,0-10.3-1.4-10.3-5.8c0-3,2.3-6.7,10.4-6.7C437.5,807.6,441.1,809.9,441.1,813.2z
	 M428.2,797.7c-5.1,0-6.3-5.5-6.3-9.8s1.1-9.8,6.3-9.8c5.1,0,6.3,5.5,6.3,9.8S433.3,797.7,428.2,797.7z"/>
<path class="st4" d="M471.4,799.8c-2.3,3.3-5.1,6-10.5,6c-6.1,0-9.2-5.8-9.2-13.4h19.9c0.1-0.3,0.1-1.9,0.1-2.1
	c0-8.8-6.5-13.1-12.1-13.1c-7.1,0-13.7,6.2-13.7,15.5c0,9.4,5.3,15.2,13.4,15.2c6.1,0,10.2-3.4,12.8-7.6L471.4,799.8z M459.4,778.2
	c4.5,0,6.5,4.5,6.5,9.9c0,2.2-0.8,3.1-3.6,3.1h-10.6C451.9,783.4,454.5,778.2,459.4,778.2z"/>
<path class="st4" d="M474.6,806h0.5c3.1,0,3.8-0.8,3.8-3.8V783c0-3.1-0.7-3.9-3.8-3.9h-0.5v-0.8l9.4-0.5l-0.4,8.4h0.1
	c1.9-5.6,6.3-8.5,10.9-8.5c5.7,0,8.3,3.4,8.3,10.2v14.3c0,3.1,0.7,3.8,3.9,3.8h0.1v1h-13.6v-1h0.7c3.2,0,3.9-0.8,3.9-3.8v-16
	c0-4.8-2.1-6.3-4.9-6.3c-5.1,0-9,5-9,11.1v11.2c0,3.1,0.7,3.8,3.8,3.8h0.7v1h-14V806z"/>
<path class="st4" d="M512.1,799v-19.8h-4.8v-0.8c4.5-0.8,8.3-3.8,9-12.6h0.9v12.3h9.5v1.1h-9.5v20.1c0,4.3,1.6,6.4,4.8,6.4
	c2.9,0,5.2-3.1,5.5-9.1h1c0,7-3.2,11.1-8.3,11.1C515.2,807.8,512.1,805,512.1,799z"/>
<path class="st4" d="M529.9,806h0.6c3.1,0,3.8-0.8,3.8-3.8V783c0-3.2-0.7-3.9-3.8-3.9h-0.6v-0.9l9.4-0.5v24.4c0,3.1,0.7,3.8,3.8,3.8
	h0.6v1h-13.8V806z"/>
<ellipse class="st4" cx="536.1" cy="766.7" rx="3.9" ry="3.8"/>
<path class="st4" d="M545.5,806h0.5c3.1,0,3.8-0.8,3.8-3.8V783c0-3.1-0.7-3.9-3.8-3.9h-0.5v-0.8l9.4-0.5l-0.4,8.4h0.1
	c1.9-5.6,6.3-8.5,10.9-8.5c5.7,0,8.3,3.4,8.3,10.2v14.3c0,3.1,0.7,3.8,3.9,3.8h0.1v1h-13.6v-1h0.7c3.2,0,3.9-0.8,3.9-3.8v-16
	c0-4.8-2.1-6.3-4.9-6.3c-5.1,0-9,5-9,11.1v11.2c0,3.1,0.7,3.8,3.8,3.8h0.7v1h-14V806z"/>
<path class="st4" d="M607.7,799.8c-0.1,3.8-0.8,5.5-2.5,5.5c-1,0-1.8-0.9-1.8-3.8v-14.1c0-8.1-4.9-10.1-10.6-10.1
	c-7.5,0-11.4,3.4-11.4,6.9c0,2,1.3,3.3,3.2,3.3c1.8,0,3.2-1.4,3.2-3.2c0-1.7-1.6-3-3-3c-0.3,0-0.4-0.1-0.4-0.3
	c0-1.2,3.2-2.8,7.1-2.8c4.2,0,6.9,2.3,6.9,8.8v2c-13.3,3-18.6,6.1-18.6,11.9c0,4.4,3.5,6.6,8,6.6c4.9,0,9.2-3,10.5-6.6h0.1
	c-0.4,4.9,2.2,6.4,4.9,6.4c2.9,0,5.2-1.2,5.4-7.8H607.7z M598.4,795.2c0,7.6-4.4,10.1-7.8,10.1c-3.2,0-4.9-2.3-4.9-5.3
	c0-3.9,2-7.5,12.8-9.7V795.2z"/>
</svg>
