<?xml version="1.0" encoding="utf-8"?>
<!-- Generator: Adobe Illustrator 22.0.1, SVG Export Plug-In . SVG Version: 6.00 Build 0)  -->
<svg version="1.1" xmlns="http://www.w3.org/2000/svg" xmlns:xlink="http://www.w3.org/1999/xlink" x="0px" y="0px"
	 viewBox="0 0 581.3 581.6" style="enable-background:new 0 0 581.3 581.6;" xml:space="preserve">
<style type="text/css">
	.st0{fill:#5C0C0E;}
</style>
<g id="Layer_2">
</g>
<g id="Layer_1">
	<path class="st0" d="M378.3,333.8c0.6-3-1.2-4.5-3.8-5.6c-4.1-1.7-7.3-4.5-9.7-8.3c-5-7.9-10.1-15.7-16.5-22.6
		c-1.9-2.1-2-3.9-0.4-6.2c3.2-4.5,6.2-9.1,9.4-13.6c4.8-6.6,9.2-13.5,16.9-17.4c1.9-1,2.3-2.8,1.8-4.7c-0.4-2-2.1-2.5-3.8-2.5
		c-5.5-0.1-11-0.1-16.5-0.1c-2,0-4.2,0.2-4.7,2.7c-0.6,2.7,1.1,4,3.3,4.7c3.1,1.1,3.7,3.3,2.2,5.9c-5.1,9.5-12.3,17.3-19.4,25.3
		c-1.3,1.5-2.7,1.4-2.9-1c-0.1-1.3,0-2.7-0.1-4c-0.5-14.8,1-29.6,1.2-44.4c0.1-4.3-1.5-6.1-5.8-6c-5.2,0.2-10.3,0.1-15.5,0.1
		c-1.7,0-3.5,0.2-4,2.3c-0.5,2.1-0.2,4.2,2,5.1c5.6,2.4,6.4,7.2,6.6,12.4c0.2,6,0.4,12,0.6,18c0.6,16.3,0,32.6-1.5,48.9
		c-0.3,3.1-1.2,5.9-5.1,6.4c-2.3,0.3-2.8,2-2.7,4.1c0.1,2.3,1.5,3.2,3.6,3.2c4.3,0,8.7,0,13,0c0,0,0,0,0,0c4,0,8,0,12,0
		c2.1,0,4.1-0.1,4.5-2.8c0.3-2.5-0.4-4.2-3.1-4.8c-2.8-0.6-4.3-2.6-4.5-5.3c-0.5-7.3-0.8-14.6-1.2-21.9c0-0.8-0.1-1.8,0.8-2.2
		c1.2-0.5,1.9,0.5,2.4,1.3c2.2,3.5,4.5,7,6.6,10.6c2.8,4.7,5.4,9.6,8.2,14.3c4.5,7.6,11.5,10.8,20.1,10.9
		C374.7,336.6,377.6,337.4,378.3,333.8z"/>
	<path class="st0" d="M361.2,378.4c-3.7-2.2-7.8-3.8-11.4-6.1c-3.8-2.4-5.1-6.1-4.1-10.4c0.7-2.9,2.8-4.6,5.7-4.8
		c4.4-0.4,7.6,1.6,10,5.3c1.3,2,0.5,6.6,4.2,5.6c3.4-0.9,1.2-5,1.8-7c0-2.1,0-3.6,0-5.1c-0.1-1.3-0.2-2.8-1.8-3.3
		c-1.4-0.5-2.2,0.3-2.7,1.5c-1.3,2.8-2.3,0.4-3.4-0.2c-6.4-3.8-12.9-3.3-18.8,0.7c-5.9,3.9-7.4,9.7-6.2,16.7
		c1.2,6.6,5.3,10.5,10.7,13.6c2.9,1.6,6,3,8.8,4.8c5.7,3.7,7,11.8,3.1,17.2c-3.6,5-11,5.4-16.5,0.9c-2.1-1.7-3.6-3.9-4.7-6.4
		c-0.5-1.1-0.9-2.9-2.8-2c-1.5,0.7-1.4,2.2-1,3.5c0.7,1.9,1.5,3.7,2.6,5.4c4.5,6.5,12,9.1,20.4,7.2c7.6-1.7,14-7.9,15-14.4
		C371.9,390.7,368.8,382.8,361.2,378.4z"/>
	<path class="st0" d="M488.5,224.6c8.8,7.9,22.7,3.5,25.1-8.6c-3.9,4.2-7,7.1-11.4,8c-5.2,1.1-8.7-0.7-10.4-5.3
		c-2.1-5.9-0.7-12.6,3.3-14.5c4.6-2.2,9.4-4.2,14.1-6.4c4.2-2,5.6-5.4,4.9-9.9c-0.9-6.3-4.2-10-10.6-11.8c-6.8-1.9-13.3,0.6-18,6.7
		c-7,9.3-6.9,29.6,0.3,38.8C486.7,222.7,487.5,223.7,488.5,224.6z M491.5,186.9c0.9-4.1,3.2-7,7.7-7.1c4.5-0.1,7.6,2,8.8,6.5
		c1.2,4.5,0,7.8-4.5,9.7c-1.4,0.6-2.8,1.1-4.1,1.7c-8.1,3.3-8.1,3.3-8.1-6.8C491.2,190.5,491.1,188.7,491.5,186.9z"/>
	<path class="st0" d="M508.6,244.2c-6-0.1-12-0.1-18,0c-2,0-3.5,0.9-3.8,3.2c-0.2,2.2,0.4,3.8,2.6,4.8c6.7,3,7.3,4,5.9,11.4
		c-1.5,8.3-3.1,16.7-5.2,24.9c-2.1,8.5-4.2,17-8.2,25.2c-6.9-17.9-12.8-35.8-14.9-54.8c-0.5-4.3,2.1-6,5.7-6.7
		c2.6-0.5,3.6-2,3.4-4.6c-0.2-2.6-1.9-3.3-4.1-3.3c-9.8,0-19.7,0-29.5,0c-2,0-3.5,0.9-3.7,3.2c-0.2,1.9,0,3.9,2.2,4.5
		c4.5,1.3,5.9,5,7.1,8.9c7.7,25.5,15.4,51,23.1,76.5c0.6,1.9,1.4,3.8,0.9,5.9c-1.9,8.8-3.7,17.6-7.9,25.7c-3.9,7.4-11.1,10-19,6.9
		c-4.4-1.7-4.9-4.2-1.1-7c3.6-2.7,5.3-6.3,5.8-10.6c0.8-6.7-4.6-14-10.7-14.8c-6.9-0.8-13.5,4-14.2,11.1c-1,10.7,3.2,24.9,17.8,29.1
		c14,4.1,24.2,0.5,30.8-12.9c1.9-3.9,3.7-7.8,4.9-12c9.1-31,15.6-62.7,23.8-93.9c1.4-5.1,2.1-10.6,8-12.9c2-0.8,2.1-2.9,1.8-4.8
		C511.9,245,510.4,244.2,508.6,244.2z"/>
	<path class="st0" d="M393.4,386.2c5.7-2.3,11.3-4.8,16.8-7.6c5.6-2.8,7.1-6.1,6.2-12.2c-1.2-8.3-5.5-12.7-13.7-14.4
		c-9.6-1.9-18.1,2.4-23,11.9c-4,7.8-4.5,16.3-3.7,24.8c0.9,9.8,3.7,18.7,12.7,24.2c10.9,6.7,26.5-0.3,27.1-12.2
		c-2.5,0.1-2.8,2.6-4.2,3.8c-4.7,4.1-10.1,7.2-16.4,4.9c-6.2-2.2-6.6-8.2-6.8-13.8c0-0.7,0.1-1.3,0-2
		C388.2,390,389.8,387.7,393.4,386.2z M388.5,376.3c0-1,0-2,0-3c-0.1,0-0.1,0-0.2,0c0.3-2.6,0.4-5.3,1-7.9c1.1-5.5,4.6-8.6,9.4-8.6
		c5.8,0,9.4,3.2,10.6,9.2c1,5.2-0.9,8.3-6.6,10.6c-2.8,1.1-5.5,2.3-8.3,3.4C389.3,382,388.7,381.7,388.5,376.3z"/>
	<path class="st0" d="M167.7,303.4c0.3,10.9,4.6,19.9,12.4,27.4c11,10.5,27.4,8.8,37.7-4c9.9-12.3,9.9-26.7,9-41.3
		c-0.6-9.6-4-18.1-10.5-25.3c-6.3-7.1-14.2-10.3-23.7-8.7c-8.1,1.3-13.6,6.7-18.2,13c-6.6,9-7.3,19.4-6.8,30
		C167.7,297.4,167.6,300.4,167.7,303.4z M184.6,275.5c0-4.2,0.8-8.3,3.2-11.9c5-7.4,14.2-7.2,18.9,0.4c2.1,3.4,2.7,7.2,2.7,11
		c0.1,12.6,0.1,25.3,0,37.9c0,4.6-0.9,8.9-3.8,12.7c-4.7,6.3-13.3,6.1-17.7-0.5c-2.6-3.9-3.3-8.3-3.5-12.8c0-0.3,0-0.7,0-1
		c0-5.8,0-11.6,0-17.5c0,0,0,0,0.1,0C184.6,287.8,184.6,281.7,184.6,275.5z"/>
	<path class="st0" d="M265.2,357.4c-7.8-7.6-18.5-7.6-26.3,0c-3,2.9-5.5,6.3-6.6,10.4c-2.7,10.3-2.7,20.8-0.2,31
		c1.5,6,5.4,10.6,10.7,13.9c7.5,4.6,16.1,3.3,22.3-2.9c7.4-7.4,9.5-16.5,9.1-26.3C274.6,373.6,272.5,364.5,265.2,357.4z
		 M260.9,401.3c-0.7,6.1-4.7,9.3-9.5,8.9c-4.7-0.4-8-4.4-8.2-10.3c-0.2-5.5,0-11,0-16.4c0,0,0,0-0.1,0c0-5.3-0.1-10.6,0-15.9
		c0.2-5.9,3.8-10.4,8.4-10.7c4.6-0.3,8.7,3.1,9.3,9.2C262.1,377.8,262.2,389.6,260.9,401.3z"/>
	<path class="st0" d="M325.7,353.5c-5-0.4-10-0.1-15-0.1c-1,0-2,0.5-2.4,1.5c-0.5,1.3,0.2,2.4,1.3,2.9c3.8,1.6,4,4.9,4.1,8.3
		c0,4.8,0,9.7,0,14.5c-0.2,7.5,0.9,15-0.9,22.4c-1.4,5.4-4.1,7.6-9.1,7.3c-4.7-0.2-7.4-2.7-8.3-8.4c-1.9-12.4-1.2-24.9-0.7-37.4
		c0.1-2.9,1.2-5.5,4.3-6.7c1.2-0.4,2-1.3,1.7-2.7c-0.3-1.4-1.4-1.8-2.7-1.8c-6-0.1-12-0.1-18,0c-1.2,0-2.4,0.3-2.9,1.6
		c-0.6,1.5,0.2,2.7,1.5,3.3c2.8,1.3,2.9,3.6,3.1,6.2c0.9,10.8,0.8,21.6,0.8,32.4c0.1,7.7,3.4,13.6,10.3,16.9
		c7.3,3.4,14.9,3.4,22.1-0.5c2.8-1.5,4.6-4.3,5.8-7.3c1.4-3.5,1.5-7.1,1.5-10.8c0-8.8-0.1-17.7,0.1-26.5c0.1-4.1-0.1-8.3,4.3-11
		C329.2,356.1,328.4,353.7,325.7,353.5z"/>
	<path class="st0" d="M306.1,333.6c0.1-1.7,0-3.8-1.9-4.1c-6-1-5.8-5.4-5.9-9.8c-0.3-14.5,0.5-29-0.9-43.4
		c-1-10.2-4.5-18.7-14.7-22.4c-10.6-3.9-21.3-4.5-30.3,4.3c-1.9,1.8-3,2.2-4.7,0c-3.2-4.5-8-4.9-13-4.9c-1.8,0-3.4,0.4-3.8,2.5
		c-0.4,2.1,0.4,3.7,2.5,4.3c4.8,1.4,5.9,5.3,5.9,9.4c0.2,17.5,1.1,34.9-0.5,52.4c-0.3,3.6-1.4,6.5-5.3,7.5c-2.5,0.6-2.9,2.5-2.6,4.7
		c0.3,2.4,2.1,2.8,4,2.8c8.3,0,16.7,0,25,0c2,0,3.7-0.3,4-2.7c0.3-2.1,0-4.2-2.5-4.7c-4.8-1-5.8-4.6-5.9-8.6c-0.1-7,0-14,0-21
		c0,0-0.1,0-0.1,0c0-4.5,0-9,0-13.5c0-6.3,0-12.7,1.7-18.8c1.7-6.2,5.2-8.7,11.7-8.6c6.4,0.1,9.3,2.4,10.9,8.7
		c0.5,1.9,0.8,3.9,1,5.9c1.7,16,0.7,31.9,0.1,47.9c-0.2,4-0.9,7.3-5.5,8.2c-2.3,0.4-2.5,2.4-2.4,4.3c0.2,2,1.4,2.9,3.3,2.9
		c8.8,0,17.6,0,26.5,0C304.7,336.6,306,335.7,306.1,333.6z"/>
	<path class="st0" d="M275.1,226.9c3.7,2.6,6.4,2.8,10.2,0.1c17.8-12.7,26.9-29.9,27-51.8c0.2-6-0.7-12-1.8-17.9
		c-0.3-1.9-1.1-3.4-3-4.3c-17.7-8.4-35.5-9.3-53.3-0.3c-2.3,1.1-3.7,2.8-4.2,5.2C244,185.2,250.3,209.4,275.1,226.9z M288.9,151.8
		c0.5,0.1,1,0.1,1.5,0.2c18.4,4.9,18.3,4.4,19.4,26.2c0,13.5-0.6,14.4-13.9,14.9c-14.8,0.6-13.2,1.5-13.3-12.1
		c-0.1-8,0.1-15.9-0.1-23.9C282.4,152.3,284.5,150.8,288.9,151.8z M282.6,217.6c-0.1-2.1,0-4.3,0-6.5c-0.1-14.7-0.2-11.9,11.8-12.5
		c1.2-0.1,2.3-0.3,3.5-0.3c2.4-0.1,5.4-2,6.9,0.5c1.2,2-1.1,4.3-2.2,6.2c-3.5,5.9-7.6,11.3-13,15.5c-1.6,1.3-3.3,3.6-5.5,2.5
		C281.9,222.1,282.7,219.5,282.6,217.6z M250.8,187.3c-1.1-8.8-0.7-17.6,1.4-26.2c0.5-1.9,1.5-3.3,3.2-4.2c5.3-2.8,11-4.7,17-5.4
		c3.4-0.4,4.5,1,4.5,4.2c-0.1,5.5,0,11,0,16.5c0,5.3-0.1,10.7,0,16c0.1,3.9-1.6,5.5-5.4,5.2c-5.3-0.4-10.6-0.8-15.9-1.2
		C252.7,191.8,251.2,190.2,250.8,187.3z M257.6,197.7c5.5,0.4,10.9,0.8,16.4,1.3c2.4,0.2,2.9,2,2.9,3.9c0,3,0,6,0,9c0,0,0,0,0.1,0
		c0,3,0,6,0,9c0,2.5-1.2,3-3.1,1.8c-8.4-5.4-14.2-13-18.4-21.9C254.5,198.7,255.2,197.5,257.6,197.7z"/>
	<path class="st0" d="M389,326.7c12.3,16.3,35.6,14.4,44.4-3.7c0.7-1.5,2.6-3.5,0.7-4.9c-2.2-1.5-3,1.2-4,2.5
		c-4.3,5.6-10.1,8.6-16.9,9.6c-7.4,1.1-12.9-2.8-14.9-10.1c-1.2-4.4-0.6-8.9-1-13.4c-0.3-4.3,1.5-6.6,5.5-8.3
		c8.4-3.5,16.7-7.4,25-11.4c3.4-1.6,6.3-3.9,7.2-7.8c2.4-9.8-2.7-20.8-11.7-25.4c-14.3-7.3-30.8-1.1-38.5,14.3
		c-4.1,8.2-4.7,16.9-4.2,26.1C379.8,305.8,381.6,317,389,326.7z M398.4,268.3c1.6-5.3,4.8-9.3,10.5-10.1c5.4-0.7,10.5,0.7,13.6,5.5
		c3.2,4.8,3.8,10.2,1.5,15.7c-0.5,1.1-1.6,2.3-2.7,2.8c-6.8,3-13.7,6-20.6,8.8c-2,0.8-3.2-0.2-3.3-2.3c-0.1-2.8,0-5.6,0-8.5
		C397.3,276.1,397.2,272.1,398.4,268.3z"/>
	<path class="st0" d="M116,362.5c5.1-32.9,11.6-65.6,17.6-98.3c0.3-1.6,0.2-3.4,1.8-5.2c0.2,1.3,0.4,2,0.4,2.6
		c0.6,31.3-0.4,62.6-1,93.9c-0.1,3.2-1.2,5.5-4.8,5.9c-2.6,0.3-3.2,2-3.1,4.2c0.2,2.3,1.7,3.1,3.8,3.1c8.5,0,17,0,25.5,0
		c1.8,0,3.4-0.4,3.8-2.4c0.4-2.1-0.3-3.7-2.4-4.3c-4.5-1.2-5.2-4.6-5.3-8.5c-0.2-5.5-0.6-11-0.7-16.5c-0.2-32.2-0.2-64.3-0.4-96.5
		c0-5.7,0.4-11.3,1.2-16.9c0.6-3.6,1.2-7.3,5.4-8.8c2.4-0.9,2.5-2.9,2.2-5c-0.4-2.1-2-2.4-3.8-2.4c-4.2,0-8.3,0.2-12.5-0.1
		c-4.7-0.3-6.7,1.3-7.5,6.2c-5.5,36.2-11,72.4-18.4,108.3c-1.4,6.6-2.5,13.3-5.1,20.4c-2-2.1-2-4-2.4-5.7c-1.8-9.3-3.5-18.6-5.2-28
		c-5.6-31.8-10.4-63.7-14.8-95.7c-0.5-4-2.2-5.6-6.1-5.4c-4.3,0.2-8.7,0-13,0.1c-1.9,0-3.8,0.2-4.4,2.4c-0.5,2.1-0.2,4.2,2,5.1
		c4.5,1.8,5.3,5.7,5.6,9.8c0.3,3.6,0.2,7.3,0.4,11c2.1,39.6-0.1,79.3-0.3,118.9c0,3.4-1,6.2-4.9,7.2c-2,0.5-3.1,1.9-2.9,4.1
		c0.2,2.4,1.9,2.9,3.9,2.9c5.2,0,10.3,0,15.5,0c1.8,0,3.4-0.4,3.8-2.4c0.4-1.8-0.2-3.5-2.1-4c-5.1-1.6-5.5-5.8-5.6-10.1
		c-0.2-29.8-1.9-59.6-1.1-89.4c0-1.2-0.4-2.6,1.2-3.7c0.4,1.2,0.9,2.1,1,3.1c6.1,33.4,12.2,66.8,18.2,100.3c0.7,4.2,2,6.4,6.9,6.5
		C113.6,369,115.3,367,116,362.5z"/>
	<path class="st0" d="M165,352.1c3.6,1.3,3.8,4.2,3.8,7.3c0.1,5,0.4,10,0.5,15c0.2,13.3,0.7,26.6-0.1,40c-0.2,3.5-0.5,7.1-4.5,8.7
		c-1.1,0.5-1.7,1.6-1.3,2.9c0.4,1.1,1.3,1.6,2.3,1.6c6.2,0.1,12.3,0.1,18.5,0.1c1.2,0,2.3-0.5,2.7-1.8c0.4-1.3-0.2-2.5-1.3-2.9
		c-4.1-1.6-4.4-5.1-4.6-8.6c-0.3-4.2-0.4-8.3-0.5-10.7c0-5.4,0.1-9.1,0-12.7c-0.1-3.4,1.5-4.9,4.8-4.8c5.8,0,11.7,0,17.5,0.1
		c2.7,0,4.4,1.1,4.3,4.2c-0.2,8.7,0.3,17.3-1,25.9c-0.4,2.5-0.9,4.9-3.3,6.5c-1.2,0.8-2,1.9-1.4,3.4c0.6,1.5,2,1.7,3.3,1.7
		c5.3,0,10.7,0,16,0c1.4,0,2.8-0.2,3.4-1.6c0.6-1.5-0.2-2.7-1.4-3.4c-2.9-1.8-3.9-4.7-3.9-7.7c-0.2-18.8-2.2-37.6,0.2-56.4
		c0.3-2.7,0.6-5.3,3.6-6.7c1.1-0.5,1.9-1.4,1.6-2.8c-0.3-1.4-1.4-1.8-2.7-1.9c-5.8-0.1-11.7-0.1-17.5,0c-1.2,0-2.3,0.5-2.6,1.9
		c-0.3,1.4,0.5,2.3,1.6,2.8c3.1,1.7,3.6,4.7,3.8,7.7c0.3,5.7,0.2,11.3,0.4,17c0.1,3.3-1.6,4.5-4.6,4.5c-5.8,0-11.7,0-17.5,0
		c-3.1,0-4.6-1.4-4.5-4.6c0.2-4.2,0-8.4,0.4-12.5c0.5-4.7,0.4-9.6,5.2-12.8c2.4-1.6,0.7-3.8-1.8-3.9c-6-0.2-12-0.1-18-0.1
		c-1.4,0-2.7,0.6-2.9,2.2C163,350.8,163.9,351.7,165,352.1z"/>
	<path class="st0" d="M581.3,291.2C582.7,132.3,452.3,0.8,292.3,0C133.5-0.8,0.5,127.1,0,289.7c-0.5,162.2,129.6,289.7,286.6,291.9
		C452.7,583.9,582.6,448.5,581.3,291.2z M47.5,418C29.9,384.6,19.8,348.8,17.2,311c-4.7-68.1,13.1-129.9,54-184.4
		c43.3-57.6,100.8-93.3,171.9-105.9c62.5-11.1,122.2-1.6,178.1,28.7c52.1,28.2,91.2,69.3,117,122.7c16.5,34,25.3,70,26.7,107.8
		c2.3,60.1-13.8,114.9-47,164.8c-0.4,0.6-0.8,1.1-1.1,1.6c-3.4,4.7-3.7,4.7-6.6-0.1c-3.3-5.4-8.5-8.3-13.9-11
		c-10.3-5.1-19.4-11.6-26.4-20.9c-3.6-4.9-6.6-10.1-6.9-16.3c-0.2-3.9-2.2-4.3-5.4-3.3c-8.8,2.8-16.6,7.7-24.4,12.5
		c-20.3,12.4-40.7,24.8-62.6,34.4c-32.5,14.3-66.4,22.6-101.9,24.7c-30.2,1.8-59.6-0.9-87.8-12.1c-11.4-4.5-21.7-10.9-30.9-19
		c-3.1-2.7-3.4-4.9-0.2-7.7c3-2.7,5.2-6,7-9.6c3.9-7.7-2.6-19.7-11.1-20.9c-6.3-0.9-10.8,2-12.7,8.5c-1.7,6-1.8,12.2-2.1,18.3
		c-0.8,14.6-5.5,26.7-20,33c-3.6,1.6-1.3,3.3-0.1,5c18.7,24.9,43.3,41.7,72.7,51.5c44.8,15,90,14.2,135.4,2.8
		c54.2-13.6,104.6-36.4,153.3-63.6c1.3-0.7,2.6-1.5,3.9-2.2c2.4-1.4,3.5-0.6,4.3,1.9c4.2,13.2,1,21.1-12.2,27.2
		c6.3,2.9,12.2,2.1,18.3,1.6c0.4,2.4-1.4,3.4-2.5,4.6c-43.6,42.5-95.3,68.8-155.9,76.8c-72.1,9.5-138-6.9-197.3-48.9
		C95.3,488.5,67.7,456.3,47.5,418z"/>
	<path class="st0" d="M433.5,145.4c-1.1,0.2-1.9,0.6-2.2,1.7c-0.3,1.2,0.4,2,1.3,2.4c2.9,1.2,3.1,3.6,3.3,6.2
		c1.3,20.8,1.1,41.6-0.1,62.4c-0.1,2.2-0.5,4.3-2.7,5.6c-1,0.6-2.1,1.3-1.5,2.8c0.4,1,1.5,1.3,2.5,1.3c4.7,0,9.3,0.2,14-0.1
		c2.8-0.2,3.8-2.1,1.3-3.9c-2.9-2-3.5-4.8-3.6-7.8c-0.2-9-0.4-18-0.1-27c0.2-6.2,3.9-9.7,8.8-9.5c4.5,0.2,7.3,3.8,7.3,10.1
		c0.1,9,0,18,0,27c0,2.9-0.2,5.5-3.3,7.3c-2.2,1.3-1.9,3.5,0.8,3.6c5,0.4,10,0.3,15,0c2.5-0.1,3.4-2,1.3-3.7
		c-3.3-2.5-3.4-5.9-3.4-9.4c-0.1-8.2,0.4-16.4-0.5-24.4c-1.3-12.1-11.4-17.7-22.6-12.9c-2.8,1.2-3.1,0.3-3.1-2.1
		c0.1-4.2,0-8.3,0-12.5c0,0,0.1,0,0.1,0c0-2.3,0-4.7,0-7c0-10.8-0.9-11.6-11.7-10.2C434.2,145.4,433.9,145.4,433.5,145.4z"/>
	<path class="st0" d="M171.9,233.2c2.8,2.1,4.6,1.7,6.6-1.1c4.4-6.3,8.9-12.5,13.5-18.6c29.6-39.5,58.6-79.3,83.6-122
		c3-5.2,3.6-5.1,6.8-0.1c9.1,14.4,17.9,28.9,27.2,43.1c21,32.3,45,62.4,67.4,93.7c5.4,7.5,5.4,7.4,13,1.5c3.2-2.5,3.4-4.3,0.5-7.1
		c-17.3-16.9-30.1-37.3-43.4-57.2c-1.4-2.1-2.5-4.3-2.6-6.9c-0.3-8-1.2-16-0.7-24c0.4-7.3-0.7-15,4.6-21.5c1.8-2.2-0.1-3.7-2.5-3.8
		c-3.7-0.2-7.3,0-11,0c0,0,0-0.1,0-0.1c-2,0-4,0-6,0c-8.2,0-8.1,0-6.4,7.5c0.5,1.9,0.8,4.4-1.4,5.3c-2.3,1-2.8-1.7-3.9-3
		c-0.4-0.5-0.7-1.1-1.1-1.7c-11.5-18.4-23-36.7-34.3-55.2c-2.1-3.4-2.8-4.1-5.3-0.1c-20.2,32.4-40.3,64.8-61,96.8
		c-13.7,21.3-27.3,42.7-44.8,61.2C162.8,228.2,161.9,225.7,171.9,233.2z"/>
	<path class="st0" d="M391.1,130.4c0.7-2,1.3-3.7,3.6-4.4c6.8-2.2,10.7,0.4,11,7.6c1.4,31,1,61.9,0,92.9c-0.1,3.4-1,6.2-4.4,7.7
		c-1.3,0.5-2.4,1.4-1.9,3c0.4,1.3,1.6,1.7,2.8,1.7c6.7,0,13.3,0,20,0c1.2,0,2.3-0.5,2.6-1.9c0.2-1.4-0.6-2.3-1.8-2.6
		c-4.2-1-4.4-4.1-4.8-7.7c-1.4-15.3-0.6-30.6-0.9-46.7c0.6-14.7-0.8-30.2,1-45.6c0.5-3.8,1.1-7.5,5.7-8.4c4.3-0.8,8.4-0.7,10,4.7
		c0.6,1.9,2.4,2.8,3.7,0.8c1.7-2.6,1.2-5.8,0.5-8.7c-0.6-2.8-3.3-2.4-5.4-2.4c-13.5,0-27,0-40.5,0c-2.1,0-4.7-0.4-5.3,2.5
		c-0.6,2.9-1.2,6.1,0.6,8.7C389,133.5,390.5,132.4,391.1,130.4z"/>
</g>
</svg>
