<?xml version="1.0" encoding="utf-8"?>
<!-- Generator: Adobe Illustrator 22.0.1, SVG Export Plug-In . SVG Version: 6.00 Build 0)  -->
<svg version="1.1" id="Capa_1" xmlns="http://www.w3.org/2000/svg" xmlns:xlink="http://www.w3.org/1999/xlink" x="0px" y="0px"
	 viewBox="0 0 524.2 420.6" style="enable-background:new 0 0 524.2 420.6;" xml:space="preserve">
<style type="text/css">
	.st0{fill:#100A11;}
	.st1{fill:#100B11;}
	.st2{fill:#110B12;}
	.st3{fill:#120D12;}
	.st4{fill:#171316;}
	.st5{fill:#EBAA45;}
	.st6{fill:#D29B4D;}
	.st7{fill:#EBAA46;}
	.st8{fill:#161215;}
	.st9{fill:#EAAA49;}
	.st10{fill:#E9A947;}
	.st11{fill:#191416;}
	.st12{fill:#EAA946;}
	.st13{fill:#1B1517;}
	.st14{fill:#EAAA46;}
	.st15{fill:#EBAA47;}
	.st16{fill:#ECAA44;}
	.st17{fill:#E7A748;}
	.st18{fill:#E1A448;}
	.st19{fill:#E6A747;}
	.st20{fill:#EBAB4C;}
	.st21{fill:#EAAA48;}
	.st22{fill:#EAAB4A;}
	.st23{fill:#E3A546;}
	.st24{fill:#EBAB4B;}
	.st25{fill:#E8AB4F;}
	.st26{fill:#E8AE59;}
	.st27{fill:#595859;}
	.st28{fill:#DBA963;}
	.st29{fill:#EAA945;}
</style>
<path class="st0" d="M271.4,84.7c0.6,0.3,1.2,0.5,1.8,0.8c4.4,2,6.8,4.7,4,9.9c-1.6,3-0.2,5.4,3,6.7c1.2,0.5,2.4,1.2,3.4,2.1
	c3,2.8,4.1,6.7,3.3,10.5c-0.6,3-4.1,3.2-6.5,3.7c-15.3,3.1-30.8,3-46.1,0.6c-3.6-0.5-8-0.4-10-4.4c-1.2-2.5,3.5-12.4,6.4-14.5
	c1.5-1.1,3.1-1.9,4.5-3.1c1.5-1.3,3.4-2.7,0.7-4.7c-0.8-0.6-0.8-1.3-0.2-2.1c1.9-2.3,1.3-5,1.4-7.6c0.1-1.3-0.4-2.7,0.6-3.8
	c3.7-4,2.2-6.9-2.1-8.6c-3.8-1.4-6.1-4.9-9.8-6.3c-0.8-0.3-1.4-0.7-1.5-1.7c-1.4-9.7-6.2-18.6-6.3-28.5c-0.1-6.8,1.4-13.1,4.6-19.1
	c4.2-7.9,12.5-9.9,19.6-11.8c18.8-5.2,37-2.7,53.2,8.8c6.7,4.8,11.8,10.9,10.7,20c-0.6,4.9-5.5,7.4-6.6,11.9
	c-1.2,5.1-5.3,10.4,0.6,15.3c0.5,0.4,1.1,1.4,0.9,1.6c-2.1,2.9-2.9,6.4-4.6,9.2c-1.7,2.9-3.6,5.8-4.4,9c-1.1,4.1-3.1,5.9-7.4,5.3
	c-4.1-0.5-8.2-0.5-12.2-0.8C272,83.6,271.7,84.1,271.4,84.7z"/>
<path class="st0" d="M251.2,179c-0.3-1.6,1.5-1.5,2-2.5c2.4-2.3,2.9-5,2-8.2c-1.7-5.9-3.2-11.8-5.3-17.6c-1.6-4.5-4-7.9-8.9-9.2
	c-1-0.2-1.9-0.7-2.3-1.7c-1.2-2.2,0-2.5,1.8-2.5c10.5-0.2,20.9-0.4,31.4-0.5c1.1,0,2.6-0.3,3,1.1c0.5,1.7-1.2,1.5-2.2,2
	c-3.5,1.5-5,3.6-3.8,7.8c6.4,22.4,12.5,44.9,18.7,67.4c2.7-1.1,3.2-3.7,4-6c7-18.9,14-37.7,22.2-56.1c2.5-5.5,0.6-9.3-2.3-13.3
	c0.6-1.8,2.1-1.4,3.4-1.3c9.9,0.8,19.9,1.5,29.8,2.4c1.2,0.1,3.1-0.3,3.3,1.3c0.3,2-1.9,1.6-2.9,1.8c-6.2,1.1-9.8,4.9-12,10.6
	c-2.2,5.9-4.7,11.6-7.2,17.4c-1.5,3.3-0.9,5.7,2.4,7.5c0.9,0.5,2.5,0.4,2.1,2.1c-0.3,1.5-1,3-2.7,3.2c-7.5,1.2-10.6,6.4-12.7,13
	c-1.8,5.7-4.3,11.1-6.3,16.7c-0.9,2.4-0.7,4.5,1.8,6c1.1,0.7,3.5,0.6,3,2.6c-0.6,2.4-2.9,0.3-4.3,1.2c-0.8,0.8-1.8,0.7-2.8,0.7
	c-12.5-0.1-25-1.1-37.6-1.1c-1.9,0-4.1,0.1-5-2.3c0.3-1.1,1-1.7,2-2.2c2.5-2.3,2.8-5,2.1-8.1c-1.4-6-3.2-11.8-4.8-17.7
	c-1.3-4.6-4-8-8.5-9.6C252.1,182.9,250.7,181.7,251.2,179z"/>
<path class="st0" d="M391.8,152.2c-2.6,0.8-3.3,3.2-3.7,5.4c-1.1,6.5-2.2,13.1-3,19.6c-0.8,6.7,1.4,9.6,7.9,10.9
	c3.9,0.8,7.8,1.4,11.7,2.1c4.2,0.8,7.7-1,10.1-4c3-3.7,5.8-0.6,8.5-0.2c2.4,0.4,0.9,3.2,0.6,4.7c-0.7,4.1-2,8-2.6,12.1
	c-0.5,3.5-2,4.2-5,2.8c-2.9,1.3-4.5-0.3-5.4-2.7c-1.6-4.2-4.9-6.1-9-6.8c-5.6-1-11-3.3-16.9-1.9c-2.3,0.9-3.1,3-3.5,5.1
	c-1.3,7.1-2.4,14.3-3.4,21.5c-0.5,3.6,0.7,7.1,4.3,8.1c8.7,2.3,17.5,4.6,26.6,4.4c1.6-1.1,3.1-2.4,4.9-3.3c2.7-3.9,6.4-1.8,8.7-0.4
	c2.4,1.5-0.3,4.7-0.3,7.1c-0.1,3.8-2.8,2.2-4.6,2.6c-5.6,0.9-10.7-1.4-15.9-2.5c-13.8-2.8-27.7-4.6-41.6-6.7
	c-2.8-0.4-6.5,0.5-8.2-3.2c0.5-2.1,2.8-1.5,3.9-2.7c2.8-2,3.9-5,4.4-8.1c0.9-5.7,1.7-11.4,2.4-17.2c0.5-4-0.1-7.6-4.3-9.6
	c-2.1-1-2.7-2.8-1.3-4.9c0.9-1.4,2.5-1.7,4-2.3c2.9-1.8,4.1-4.6,4.8-7.7c1.4-6.4,1.9-13,2.7-19.6c0.4-3-0.6-5.5-3.5-7
	c-1.2-0.6-2.4-1.1-2.7-2.7c0.2-3.7,3-2,4.5-1.8c13.9,2,27.9,4.1,41.8,6.4c9.3,1.6,18.5,3.7,27.8,5.5c2.6,0.5,4.8,1.1,3.3,4.4
	c-1.2,2.6,0.7,8.5-5.8,6c-3.3,1.4-5.1-0.3-6-3.2c-1.1-3.1-3.4-5-6.3-5.9c-8.9-2.5-18-4.2-27.3-5
	C393.4,151.6,392.5,151.9,391.8,152.2z"/>
<path class="st1" d="M96.3,157.6c-1-2.6,1-2.8,2.5-3.1c9.9-2,19.9-3.8,29.8-5.7c1.2-0.2,2.4-0.6,2.9,0.8c0.4,1.2-0.7,1.6-1.7,2
	c-4.7,2.4-6,6.1-4.8,11.2c1.3,5.8,2.3,11.7,3.2,17.6c0.7,4.3,2.7,7.1,7.1,7.6c1.9,0.2,3,0.7,3.4,2.7c0.4,2-1,2.5-2.2,3.3
	c-3.4,2.2-5.3,4.9-4,9.5c1.6,6.1,2.4,12.4,3.4,18.6c1.1,6.3,4.5,8.8,10.8,7.9c5.9-0.9,11.8-2.2,17.7-2.7c4.8-0.4,6.9-3.9,8.6-7.2
	c2-3.7,5.2-3.2,7.6-2.7c2.9,0.6,1.6,4.1,2.3,6.3c1.1,3.4-1.5,3.7-3.6,4.5c-4,2.6-8.7,1.8-13,2.5c-15.9,2.5-31.7,5.3-47.5,8.5
	c-1.8,0.4-4.7,2.3-5.4-1.7c0.4-1.3,1.6-1.8,2.6-2.6c1.1-1.5,1.9-3.3,1.8-5.1c-0.6-8.6-2.4-17-4.9-25.2c-0.7-2.4-3-3.4-5.4-3.9
	c-2.4-0.6-3.9-1.8-3.4-4.5c0.4-1.6,1.7-2.3,2.9-3.1c2.3-2.9,2.7-6.2,2-9.8c-1.1-5.8-2.5-11.6-3.7-17.4c-0.7-3.6-2.4-6.1-6.2-6.7
	C98.2,159,97.1,158.5,96.3,157.6z"/>
<path class="st0" d="M191.6,182.8c0.1-2.1,1.9-2.4,3.3-3.1c2.3-3.4,3.1-7.2,2.8-11.3c-0.4-4.9-1.1-9.8-1.2-14.8
	c-0.1-5.7-4.4-8-8.5-10.4c-0.2-1.8,0.2-2.7,2.3-2.9c10.3-0.6,20.6-1.4,30.8-2.1c1-0.1,2.6-0.7,2.8,1.1c0.1,1.5-1.4,1.5-2.4,2
	c-4.2,1.6-6.1,4.7-5.7,9.3c0.5,6.3,0.9,12.6,1.2,18.9c0.2,4.7,2.3,8,7.1,8.8c1.9,0.3,2,1.1,2.1,2.5c0.1,1.5-0.1,2.3-1.8,2.9
	c-4.7,1.9-6.5,5.4-5.9,10.6c0.8,6.4,1,12.9,1.5,19.4c0.2,3,1.7,5.3,4.5,6.6c1.2,0.6,3.6-0.1,3.6,1.9c0,2.4-3.1,0.4-3.9,2
	c-2.8,2-6.1,1.1-9.1,1.4c-5.1,0.5-10.1,1.1-15.2,1.3c-1.6,0.1-3.4,0.8-3.8-1.7c-0.4-2.2,1.7-2.1,2.7-3.1c2.4-2.4,3.2-5.5,2.8-8.7
	c-0.8-6.3-0.6-12.6-1.8-18.9c-0.6-3.4-2-5.9-5.5-7C191.9,186.9,190.6,185.5,191.6,182.8z"/>
<path class="st2" d="M262.2,373.2c-2.7,0-5.6,0.7-7.9-0.2c-3.1-1.2-0.9-4.6-1.5-7c-2.3-8.6-4.2-17.4-6.3-26.1c-0.7-3-1.4-6,1.3-8.3
	c2.5-2.2,5.4-2.5,8.1-0.2c1.2,1,1.7,0,2.6-0.4c4.9-2.2,10,0.3,15.1-0.8c3.7-0.8,5.2,3.9,4.5,7.8c-1.4,8.3-3,16.6-4.5,25
	c-0.1,0.5-0.2,1-0.4,1.4c-1.2,2.8,1.4,7-1.2,8.4c-2.6,1.3-6.5,0.3-9.8,0.3C262.2,373.1,262.2,373.1,262.2,373.2z"/>
<path class="st3" d="M300.3,351.5c-0.5-3.5,2.3-2.1,3.6-2.2c11.5-0.1,22.9,0,34.4-0.1c14.6-0.1,29.3-0.3,43.9-0.1
	c2.6,0,4.7-1.7,7.3-1c-0.9-1.5-3.2,0.1-3.6-1.9l-0.1,0.1c0.6-0.2,1.5-0.2,1.9-0.6c6.5-7.9,14.1-8.7,21.7-2c2.5,2.2,4.8,4.5,5.9,8
	c-5.3,0.7-8.4,4.6-12.2,7.5c-3,2.3-6.4,2.8-9.9,1.4c-3.1-1.3-0.8,1.7-1.8,2c1.6,5.6-2.5,8.5-5.8,11.7c-1.5,1.5-3.4,2.6-5.1,3.9
	c-0.9,0.4-2.4,0.9-2.4-0.3c-0.2-5.4-2.8-10.8,0.1-16.1c0.7-2.4,4.3-3.3,3.7-6.5c1.2-0.2,2,0.2,2.9,1.4c-0.6-4-3.6-4-6.6-4
	c-20.8,0-41.5,0-62.3,0c-3.5,0-7,0-10.5,0C303.7,352.8,301.8,352.9,300.3,351.5z"/>
<path class="st4" d="M113.2,351c2.4-3.4,5-6.6,8.5-8.9c5.9-3.9,12.1-3.7,17.6,0.5c1.9,3.3-1.5,3.1-2.9,4.3c-1.3-0.1-2.6-0.1-3.4-0.1
	c3.1,0.7,7.1-0.6,10.2,2.3c26.3,0.1,52.6,0.2,78.9,0.2c1.2,0,2.3-0.1,3.5,0c1,0.1,2.6-0.7,2.8,1.1c0.1,1.7-1.7,1.2-2.6,1.8
	c-1.9,1.6-4.1,1-6.2,1c-22.6,0-45.2,0-67.9,0c-2,0-4-0.5-5.8,0.7c-2.8,1.9-5.3,4.4-8.8,5.3l-0.1,0c-5.1,3.2-10,3-14.6-1.1
	c-2.4-2.1-4.9-4-8-4.9C113.7,353.1,112.1,352.7,113.2,351z"/>
<path class="st5" d="M2.9,226.5c0.8,1.4,1.1,2.9,3.6,2.4c4.3-0.9,6.9,1.6,8.5,5.2c1.1,2.4,1.9,4.9,2.8,7.4
	c4.9,13.3,17.2,19.5,30.5,15.3c9.6-3,19.2-6,28.8-9c-2,3.5-5.6,4.4-9.1,5.5c-7.7,2.5-15.5,4.8-23.3,7.2c-12.5,3.9-24.9-2-29.6-14
	c-1.1-2.8-2-5.6-3.1-8.4c-1.5-3.5-3.9-5.8-7.9-5.7c-1.8,0.1-3.3,0.2-4-1.9C-0.6,228,1.5,227.5,2.9,226.5z"/>
<path class="st6" d="M300.3,351.5c25.6,0,51.2,0.1,76.8,0.1c0.2,0,0.3,0,0.5,0c8-0.1,9.1,1.3,6.9,8.8c-0.9-1.8,0.1-4.1-1.8-5.5
	c-0.1-0.1-0.3,0-0.4,0c-0.1,0.1-0.2,0.2-0.4,0.3c-1.8-1.3-3.8-0.9-5.8-0.9c-24.9,0-49.8,0-74.6-0.1c-1.3,0-3.4,0.9-3.7-1.2
	C297.5,351.7,299.3,351.8,300.3,351.5z"/>
<path class="st7" d="M311.6,139.6c0.6,0.6,1.1,1.4,1.7,1.6c4.5,1.5,4.6,4.4,3,8.3c-5.9,14.7-11.8,29.5-17.6,44.3
	c-2.6,6.6-5,13.3-7.7,19.9c-0.5,1.3-1,4.3-3.5,1.3c8.2-21.2,16.3-42.5,24.5-63.7c1-2.5,1.4-4.8-1.2-6.7c-1.3-0.9-3.8-0.6-3.7-2.7
	C307.4,139.3,310.7,141.6,311.6,139.6z"/>
<path d="M292.9,399.5c-3.1,3.8-6.2,4.6-9.7-0.6c-0.5,6.6-1.4,12-1.1,17.4c0.2,4.4-1.6,4.5-4.7,3.8c1.7-8.1,2.1-16.2,2.1-24.6
	c2.4-0.1,5-0.9,7,1.8c1.4,2,3.1,0.8,4-0.6c1.6-2.4,4-1.6,5.8-1.2c1.7,0.4,0.5,2.6,0.6,4c0.5,5.8,0.9,11.6,1.2,17.4
	c0.1,1.1,3,3.3-1.2,3.5c-3.6,0.2-2.2-1.9-2.4-3.7C293.9,411.2,294.5,405.5,292.9,399.5z"/>
<path d="M276,420.1c-2.9,0.6-4.8,1.2-4.4-3.5c0.5-5.3-0.7-10.8-1.3-17c-3.5,3.2-6.7,4.9-10-1c-0.5,6.9-1,12.3-1.3,17.8
	c-0.2,3.9-0.1,3.9-4.4,3.8c1.5-8,1.9-16.2,2.3-24.5c2.3-0.6,4.9-0.8,7,2c1.4,1.8,2.9,0.6,3.6-0.6c1.5-2.5,3.9-1.9,5.7-1.4
	c2.1,0.6,0.7,2.8,0.8,4.3C274.6,406.5,274.8,413.3,276,420.1z"/>
<path class="st5" d="M471,213.3c0.9-1,2.1-1.2,3.2-1c7.2,1.2,14.4,2.8,20.4,7.2c4.8,3.5,7.1,8.6,6.8,14.7c-0.3,6.1-2.6,11.6-4.9,17
	c-1,2.4-3.3,4.2-6.4,3.9c4-6,6-12.9,6.7-19.9c0.7-7-4-14-10.8-16.9C481.1,216.4,476,215,471,213.3z"/>
<path class="st8" d="M137.1,362.1c0.4-0.5,0.7-1,1.1-1.6c1.1-1.6,1.1-1.5,6.2-3.3c0.6-0.2,0-2.3,1.3-3c0.5-0.2,0.9-0.1,1.2,0.3
	c0.2,1.1-0.3,2.3,0.6,3.3c3.6,4.4,4.2,9.2,2.3,14.4c-0.7,2-0.4,3.8,0.5,6c-1.5-0.4-2.4-0.6-3.3-0.9
	C138.8,375,134.8,368.7,137.1,362.1z"/>
<path class="st7" d="M251.2,179c0.9,1.9,2.1,3.2,4.5,3.8c3.8,1,6.5,3.6,7.6,7.7c2,7.4,4.1,14.6,6.1,22c0.9,3.4,0,5.9-3.8,6.7
	c-0.6-10.2-4.3-19.6-7.7-29.1c-0.9-2.5-3.6-4.4-6.6-4.9c-2.4-0.3-3.7-1.6-3.8-3.8C247.6,179.4,249.7,179.5,251.2,179z"/>
<path class="st5" d="M238.7,139.9c6.5,0.5,10.6,3.9,12.4,10.2c1.8,6.3,4.1,12.6,5.7,18.9c0.9,3.2,1.4,6.9-3.6,7.5
	c-1.1-10.2-4.6-19.7-8.8-28.9c-1.9-4.1-6.8-4.1-10.7-5.9C235.1,139.4,237.2,140.5,238.7,139.9z"/>
<path d="M197,400.4c0.7,3.1-1.3,3.3-3.4,2.9c-4.1-0.7-5.2,1.2-4.6,4.9c0,0.2,0,0.3,0,0.5c0,8.1,0,8.2,8.3,7.7c1.5-0.1,2.4,1,3.7,0.8
	c0.2,0.2,0.3,0.5,0.2,0.7c0,0.2-0.1,0.4-0.2,0.4c-4.5,3.9-9.9,1.5-14.9,2c-1.4,0.1-1-1.3-1-2.2c0-6.8,0-13.6,0-20.5
	c0-0.9-0.4-2.1,1.2-2.2c3.5,0,7.1-0.5,10.4,0.1c2.3,0.4,1.6,2.5,0.3,4c-1-0.2-2-0.2-3.1-0.2C195.2,399.4,196.3,399.4,197,400.4z"/>
<path class="st9" d="M113.7,237.5c1.9,2.4,4.2,0.7,6.2,0.3c19.3-3.9,38.6-7.5,58.2-9.5c0.5-0.1,1,0,1.5,0c0.3,3.5-2.7,2.5-4.2,2.7
	c-20.1,2.5-39.9,6.2-59.7,10.3c-1.6,0.3-3.9,2.1-5,0.1C109.7,239.2,112.9,239,113.7,237.5z"/>
<path d="M331.9,411.7c0.8-4.7,1.7-9.5,2.2-14.2c0.5-4,3.1-1.4,4.5-2c-1.6,7.7-3.3,15.1-4.4,22.7c-0.4,2.7-1.7,2.2-3.3,2.3
	c-1.9,0.2-2.3-0.5-2.6-2.5c-1.1-7.4-2.6-14.7-3.9-22c3.9-0.8,3.8-0.7,4.4,3.2c0.6,4.2,1.6,8.4,2.5,12.6
	C331.5,411.7,331.7,411.7,331.9,411.7z"/>
<path class="st10" d="M352,227c5.7,2.6,11.9,2.3,17.9,3.2c16.1,2.5,32.1,5,47.8,9.1c-0.7,2.8-2.6,1.7-4.4,1.3
	c-20.4-4.3-40.9-7.7-61.6-10.3c-1.3-0.2-3.5,0.6-3.4-1.7C348.5,226.6,350.7,227.5,352,227z"/>
<path d="M314.5,395.9c-6.9,8.2-3.9,16.2,0.8,24.1c-7.4,2.1-4.7-5.2-7.6-7.2c-3.2,1.6-0.3,9.3-7.7,7.2c4.7-7.9,7.7-16,0.8-24.1
	c6.3-2.7,4.8,3.3,6.8,5.2C309.9,399.5,308,393.5,314.5,395.9z"/>
<path class="st11" d="M137,346.5c-0.7-2.2,3.1-1.6,2.3-3.8c-0.6-8,3.1-13.5,10.4-17c-0.9,3,0.2,5.9,0.8,8.7c1.6,7,0.3,9.6-6.3,12.7
	c-1.6-0.4-3.2-0.8-4.8,0.2C138.6,347.8,137.2,348.6,137,346.5z"/>
<path class="st12" d="M104.4,196.2c0.7,1.5,0.8,3.2,3.4,3.3c4.5,0.1,7,2.7,7.7,7.5c1,6.5,2.4,13,4,19.4c0.9,3.8,0,6.4-3.3,8.4
	c-0.1-9.5-3.1-18.5-5.1-27.7c-0.6-2.8-3.2-3.5-5.7-4.2c-1.6-0.5-3.8,0.1-4.3-2.5C100.6,197.8,102.9,197.4,104.4,196.2z"/>
<path class="st13" d="M385.9,346.3c-2.2,2.1-3.9,0.4-5.5-0.9c-2.6-2.1-4.1-4.7-3.5-8.2c0.7-3.8,2.4-7.3,2.3-11.4
	c10.2,5.8,12.3,12.6,6.6,20.5C385.8,346.5,385.9,346.3,385.9,346.3z"/>
<path class="st14" d="M96.3,157.6c8.3,0.6,9.3,1.5,10.8,9.3c1.1,5.7,2.4,11.3,3.6,17c0.8,3.8,0.5,7.3-3.5,9.3
	c1-5.1-1.3-9.7-2.1-14.6c-0.6-3.6-1.5-7.2-2.1-10.7c-0.7-3.7-2.9-5.8-6.6-6.5c-1.4-0.3-4,0.9-4.1-1.5
	C92.3,157.5,95.2,158.7,96.3,157.6z"/>
<path class="st15" d="M444,200.5c-0.1,1.9,0.2,3.2,2.3,4.3c3.5,1.8,4.4,5.1,3.5,8.9c-1.6,6.4-3.1,12.8-4.9,19.2
	c-1,3.5-2.5,6.9-7,7.2c4.1-8.3,5.3-17.3,7.3-26.2c0.7-3.1-0.4-5.9-3.3-7.7c-1.4-0.8-3.1-1.1-2.5-3.5
	C440.1,200.1,441.9,200.3,444,200.5z"/>
<path class="st5" d="M191.6,182.8c0.4,1.8,0.7,3.3,3.3,3.5c3.8,0.3,5.7,3.1,6.1,6.7c0.8,6.9,1.5,13.8,2,20.8c0.3,3.6-0.3,7-4.3,8.5
	c1.3-9.3-0.6-18.4-1.8-27.5c-0.4-2.9-2.5-5-5.6-5.6c-1.6-0.3-3.2-0.3-3.4-2.7C187.7,183.4,189.8,183.4,191.6,182.8z"/>
<path class="st7" d="M188,143.2c6.6,0.7,8.9,2.5,9.6,9c0.8,6.7,1.1,13.5,1.5,20.3c0.2,3.3-1.1,5.8-4.2,7.1
	c0.9-8.7-0.7-17.2-1.6-25.8c-0.4-3.6-2.4-6.1-5.9-7.3c-1.3-0.4-3.7,0.5-3.6-1.6C184,142.7,186.6,143.7,188,143.2z"/>
<path class="st15" d="M453.9,162.1c5.9,2.7,7.4,5.2,6.1,11.2c-1.4,6.4-3.1,12.8-5,19.1c-1.2,4.1-3.8,6.8-8.6,6.4
	c2.4-1,3.4-2.9,3.9-5.2c1.7-6.8,3.3-13.5,5-20.3c0.9-3.5-0.4-6.1-3.1-8.3c-1.1-0.9-4.1-0.8-2.9-3
	C450.3,160.3,452.4,161.8,453.9,162.1z"/>
<path class="st15" d="M362.3,145.2c7.6,3.1,8.4,4.7,7.1,13.2c-0.9,5.7-1.4,11.5-2.3,17.2c-0.5,3.4-1.9,6.3-6.1,6.6
	c3.2-9,3.6-18.4,4.1-27.8c0.1-2.6-1.5-4.7-4-5.8c-1.2-0.6-3.6-0.4-2.8-2.5C358.9,144.3,361,145.6,362.3,145.2z"/>
<path class="st7" d="M357,184.5c0.1,1.8-0.1,3.4,2.5,4.1c3.2,0.8,4.8,3.4,4.6,6.8c-0.3,8.1-1.6,16-3.1,24c-0.5,2.5-1.8,5.1-5.2,5
	c2.8-8.6,2.9-17.6,4-26.5c0.4-3-1.1-5.6-3.9-6.9c-1.7-0.8-3.4-1.2-3-3.7C353.3,184.5,355.5,185.1,357,184.5z"/>
<path class="st16" d="M147,354.5l-0.3,0.1l-0.2-0.2c-1,0.4-1.9,0.6-2.8-0.4c0.9-1.6,2.3-2.2,4.1-2.2c26,0.1,52,0.2,78.1,0.3
	c0.2,3.8-2.8,2.1-4.2,2.1c-23.9,0.1-47.8,0.1-71.7,0.1C149,354.5,148,354.5,147,354.5z"/>
<path d="M201.1,418.3c0-0.4,0-0.7-0.1-1.1c0.9-1.9,1.5-3.8,4-1.3c1.7,1.7,4,1.7,5.8,0c2-2,1.6-4.4,0.1-6.3c-1.8-2.3-4.2-4.2-6.1-6.5
	c-1.5-1.8-2.5-4-0.9-6.4c1.6-2.3,3.9-2.1,6.3-1.6c1,0.2,2.7,0.2,2.3,1.8c-0.3,1.3-1.2,2.9-3.2,1.6c-0.5-0.3-1.2-0.1-1.8-0.1
	c-1,1.6,0.3,2.3,1,3.1c1.1,1.2,2.4,2.2,3.6,3.4c4.3,4.5,5.2,9.3,2.4,12.8C211.7,421.3,206.5,421.5,201.1,418.3z"/>
<path class="st17" d="M391.8,152.2c4-3.3,8.2-1,12.3-0.5c4.9,0.6,9.7,1.7,14.6,2.7c5,1.1,9.7,2.4,10.4,8.8c0.3,2.7,3.1,1.8,4.8,2.5
	c-2.6,2.5-9.2,2-9.6-1c-0.7-5.9-4.8-7.5-9.6-8.4C407.1,154.8,399.4,153.5,391.8,152.2z"/>
<path d="M232,395.3c0.2,1.6-0.5,2.9-1.6,2.8c-5.2-0.4-4.3,3.1-4.3,6.1c0,4.6-0.2,9.3,0.2,13.9c0.2,2-0.3,2.1-1.8,2.2
	c-1.5,0-2.3,0.1-2.2-2.1c0.3-5.5,0.1-11,0.3-16.4c0.1-2.5-0.7-3.9-3.4-3.2c-1.2,0.3-2.2,0.8-2.3-1.2c-0.1-1.9,0.8-2.2,2.4-2.2
	C223.5,395.4,227.8,395.3,232,395.3z"/>
<path class="st18" d="M263.7,221.4c1.4,1.7,3.4,1,5.1,1.1c11.4,0.4,22.9,0.7,34.3,1c2,0.1,3.9,0.5,5.9,0.7c0.4,2.6-1.5,2.1-2.9,2.1
	c-14.5-0.8-28.9-1.2-43.4-1.1c-0.9,0-2.3,0.3-2.4-1C259.9,221.5,262.8,222.7,263.7,221.4z"/>
<path class="st19" d="M385,194.3c5.8-3.9,11.5,0,17.2,0.5c4.9,0.4,9,2.4,9.8,8.2c0.3,2.6,2.7,2,4.3,2.6c-2.5,2.9-8.3,2-9-1.5
	c-0.9-4.5-3.8-6.4-7.7-7.2C394.7,195.9,389.8,195.2,385,194.3z"/>
<path class="st15" d="M4.2,190.2c-2.5,8,0.4,15.2,3.1,22.4c1.4,3.8,1.8,7.4-2,10.1c0.2-5.4-2.7-9.9-4.1-14.8
	C-0.8,201.5-0.3,195.5,4.2,190.2z"/>
<path class="st20" d="M113.2,351c5.5,1.5,9.1,6,13.9,8.6c3.3,1.8,6.7,0.5,10-0.2c-5.8,4.9-11.1,4.9-16.8,0c-2.7-2.3-5.2-5.2-9.4-4.5
	C111.1,353.1,111.9,351.9,113.2,351z"/>
<path d="M318,407.2c0-3.1,0.3-6.3-0.1-9.4c-0.3-2.1,0.1-2.5,2-2.5c2-0.1,1.9,0.7,1.8,2.4c-0.7,6.7-0.8,13.5,0,20.3
	c0.2,2.1-0.2,2.5-2.1,2.5c-1.8-0.1-1.9-0.4-1.7-2.2C318.2,414.5,317.9,410.9,318,407.2C318,407.2,318,407.2,318,407.2z"/>
<path class="st21" d="M434,242.1c7.8,3.6,16.4,4.4,24.4,7.2c1.1,0.4,2.2,0.7,3.3,1.1c-0.5,2.5-2.1,1.8-3.8,1.4
	c-8.1-2.2-16.2-4.3-24.3-6.4c-1.3-0.4-3.6-0.2-3.3-2.1C430.5,241.3,432.7,242.5,434,242.1z"/>
<path class="st22" d="M486.1,256.7c3.9,3.4,9.1,3.6,13.6,5.6c4.4,1.9,9,3.4,13.4,5.1c-0.6,3-2.4,1.4-3.8,1c-8-2.7-16-5.4-24-8.3
	c-1.2-0.4-3.6-0.2-3.1-2.4C482.7,255.5,484.8,257,486.1,256.7z"/>
<path class="st23" d="M196,225.3c4.7,0.9,9.3,0,14-0.4c4.7-0.4,9.5-0.7,14.2-0.6c0.4,2.5-1.4,2.1-2.8,2.2c-8.4,0.7-16.7,1.4-25.1,2
	c-1.3,0.1-3.5,1-3.7-1C192.4,225.8,194.7,225.7,196,225.3z"/>
<path class="st24" d="M137.1,362.1c-1.2,8.1,5,11.3,9.9,15.3c-0.5,0.9,1.1,4-1.7,2.6c-4.5-2.3-8.8-5.3-10.5-10.5
	C133.9,366.6,134.6,364,137.1,362.1z"/>
<path class="st25" d="M378.2,361.9c-1.1,5.3,1.6,10.4,0.8,15.7c-0.1,0.9,1,0.5,1.6,0.7c-0.9,1.3-2.2,1.9-4.1,2.5
	C378.2,374.4,372,367.7,378.2,361.9z"/>
<path class="st26" d="M391.5,362.7c-0.5-2-1.9-3.3-3-5.2c4.7,2.6,9.5,3.9,14.6,1.8C400,363.1,395.9,363.4,391.5,362.7z"/>
<path class="st27" d="M380.1,261.9c3.4-1.4,7-1.8,10.7-2c-4.4-0.9-8.6-0.9-12.3,1.5C379,261.6,379.6,261.7,380.1,261.9z"/>
<path d="M241.1,409.3c0-1.9,1.2-2,2.4-2c1.8,0,1.6,1.3,1.6,2.4c0,1.4-0.9,1.5-2,1.5C241.7,411.3,241,410.6,241.1,409.3z"/>
<path class="st28" d="M413.9,230.1c-0.7,2.4-2.5,3.3-4.9,3.3C410.2,231.6,410.4,228.4,413.9,230.1z"/>
<path class="st0" d="M522.4,187.9c-2.8-6.9-7.9-11.3-14.9-13.5c-16.1-5.1-32.3-9.7-48.7-13.7c-1.5-0.4-4.4-2.7-4.9,1.5
	c5.7,4.8,5.7,10.6,3.4,17c-1.3,3.7-1.9,7.7-3.2,11.4c-1.3,3.8-3,7.4-7.6,8.3c-1.1,0.1-2,0.7-2.5,1.7c-1.7,2.4-0.3,4,1.5,5.4
	c2.1,1.7,3.4,3.9,3,6.5c-1.4,7.7-3.4,15.2-6.2,22.5c-0.8,2.1-2.4,4-4.5,5.2c-1.5,0.3-3.3-0.1-3.8,1.9c-0.2,2.8,2.2,2.5,3.7,2.9
	c5.4,1.5,10.8,3.1,16.3,4.2c2.5,0.5,4.8,2.5,7.6,1.2c1.4-0.7,3.4,2,4.3-0.6c0.7-1.9-1.6-1.7-2.5-2.5c-2.5-2.2-3.4-4.9-2.6-8.1
	c1.9-7.2,3.9-14.4,6-21.5c0.6-2.1,1.6-4.1,4.2-4.4c7.9-0.1,14.8,3.1,21.6,6.5c2.7,1.3,4.6,3.8,5.9,6.6c3.6,8.4-0.7,23.3-8.4,28.7
	c-1.4,0.2-3.1-0.1-4,1.5c0.1,2.6,2.2,3,4.1,3.6c4.9,1.6,9.6,3.5,14.5,5c2.8,0.8,5.3,2.9,8.5,2.1c1.5-0.8,3.2,2.3,4.4,0
	c0.9-1.9-1.3-2.3-2.3-3.2c-3.2-2.9-2.5-6.3-1.5-9.7c0.9-3,2.2-5.9,3.2-8.9c3.2-9.6,0.2-18.7-8.1-24.6c-2.1-1.5-4.4-2.7-6.8-4.2
	c3-0.7,5.6-1.2,8-2C522.2,211,527.2,199.7,522.4,187.9z M502.8,197c-1.8,5.6-3.4,11.2-9.9,13.2c-7.9,2.1-16.5-4.9-18.6-10.3
	c-3.1-8.1,3.2-22.5,11.3-26C500,173.7,507.2,183.4,502.8,197z"/>
<path class="st7" d="M492.8,210.2c7.2-4.6,8.7-12.3,10.1-19.7c1.3-7-5.8-14.7-13.9-16.2c-1.1-0.2-2.3-0.3-3.4-0.4
	c8.4-2.1,15.5,0.4,20.1,7c2.3,3.3,3.1,6.8,1.8,10.8c-1.4,4.1-2.2,8.4-4.5,12C500.6,207.3,497.3,209.7,492.8,210.2z"/>
<path class="st0" d="M91.7,200.2c-0.5-1.3-0.8-2.3-2.7-2.2c-5,0.2-7.4-3-8.6-7.3c-0.5-1.9-0.9-3.9-1.3-5.8
	c-3.4-13.9-16.1-21.6-30-17.8c-7.2,1.9-14.2,4.5-21.4,6.2c-10.3,2.4-18,8-23.5,16.9c-3.8,6.6-2.1,13.1,0.6,19.6
	c1.8,4.3,2.7,8.6,0.4,13c-1.1,1-2.6,1.9-2.3,3.8c-0.7,2.9,1.2,3.6,3.3,3.5c4.6,0,6.9,2.7,8.3,6.6c0.8,2.2,1.5,4.4,2.3,6.6
	c5,12.8,18.4,19.2,31.3,14.8c6.6-2.2,13.3-4.2,20-6.1c3.1-0.9,6.2-2.1,8.9-4.2c6.8-5.7,12.6-12.1,11.8-21.8
	c-0.3-3.9-1.7-7.7-2.6-11.6c-1.1-4.6-0.6-8.6,4.1-11C91.8,202.6,92.3,201.7,91.7,200.2z M69.8,242.3c-4.3,7.9-11.5,9.4-19.5,9.1
	c-7.1-0.2-11.7-4.2-14.3-10.5c-1.4-3.2-2.2-6.6-3.5-9.8c-2.1-5-1.9-9.4,3.2-12.5c1.7-1,0.9-2.1,0.6-3.4c-0.3-1.4-1-2-2.4-1.7
	c-5.7,0.8-8.1-2.7-9.7-7.3c-0.6-1.9-1.2-3.8-1.9-5.6c-3.4-8.7-1.6-16.2,5.5-22.4c4.9-2,9.8-4,15.4-2.6c7.1,1.9,12.4,5.8,14.8,12.8
	c1.9,5.3,5.2,10.6,2.2,16.7c-2.3,0.9-2.7,2.9-2.3,4.9c0.5,2.4,2.6,1.6,4.1,1.6c2,0,3.5,0.9,4.8,2.3
	C71.7,219.4,73.5,235.5,69.8,242.3z"/>
<path class="st29" d="M60.1,205.1c0.4-6.8-1.7-13.1-4.6-19c-4-8.1-12.7-11.1-23.5-8.6c-1.4,0.3-2.7,1.4-4.3,0.7
	c12.3-10.5,29-5.6,33.4,9.7c0.8,2.9,1.5,5.8,2.2,8.6C64.2,200.1,63.3,203,60.1,205.1z"/>
<path d="M141.7,268.8c0,1.1-0.1,2.4-0.4,3.7s-0.6,2-0.9,2c-0.2,0-0.3-0.1-0.3-0.3c0-0.1,0-0.2,0.1-0.3c0.6-1.5,0.9-3.1,0.9-4.9
	c0-2.7-0.8-4.9-2.4-6.6c-1.6-1.7-3.8-2.5-6.4-2.5c-3.6,0-7.2,1.2-11,3.5c3,2.3,4.5,4.9,4.5,7.9c0,4.8-3.3,7.7-9.8,8.6
	c5.4,1.9,8.1,5.3,8.1,10.4c0,3.7-1.6,7-4.8,9.8c-3.2,2.8-6.9,4.2-11.1,4.2c-2,0-3.6-0.5-4.8-1.6c-1.2-1-1.8-2.5-1.8-4.3
	c0-2.8,1.3-5.5,3.8-8.2s5.1-4.1,7.7-4.1c1.4,0,2.6,0.4,3.5,1.3c0.9,0.9,1.4,2,1.4,3.5c0,0.8-0.3,1.9-0.8,3.1
	c-0.5,1.3-0.9,1.9-1.3,1.9c-0.2,0-0.4-0.1-0.4-0.3c0-0.1,0-0.2,0.1-0.4c1.1-1.6,1.7-3.1,1.7-4.4c0-1.2-0.4-2.2-1.2-3
	c-0.8-0.8-1.8-1.1-3.1-1.1c-2.4,0-4.8,1.3-7.2,3.9c-2.3,2.6-3.5,5.2-3.5,7.9c0,1.4,0.5,2.6,1.5,3.6c1,1,2.2,1.4,3.6,1.4
	c3.3,0,6.3-1.6,9.1-4.8c2.8-3.2,4.1-6.7,4.1-10.6c0-3.6-1.7-6.2-5.2-7.9l-1.9,0.2c-0.5,0.1-1,0.1-1.6,0.1c-1.6,0-2.5-0.3-2.5-0.8
	c0-0.4,0.7-0.6,2-0.6c1,0,2.3,0.2,3.9,0.6c2.2-0.7,4-1.9,5.3-3.6c1.3-1.7,2-3.7,2-6c0-2.2-0.8-4.1-2.5-5.9
	c-4.7,3.6-9.2,9.8-13.4,18.5c-2.6,5.3-4.9,9.2-7.1,11.6c-2.1,2.3-5,4.4-8.9,6.3c-4.5,2.2-8.6,3.3-12.1,3.3c-2.9,0-5.3-0.7-7.2-2
	c-1.9-1.3-2.9-3-2.9-5c0-1.1,0.3-2.1,1-2.9c0.7-0.8,1.4-1.2,2.4-1.2c1.3,0,2,0.7,2,2.2c0,0.7-0.2,1.4-0.7,1.9s-1,0.8-1.6,0.8
	c-1.1,0-1.7-0.6-1.6-1.8c0-0.5,0-0.7-0.1-0.7c-0.3,0-0.5,0.6-0.5,1.7c0,1.8,0.9,3.3,2.6,4.5c1.8,1.2,4,1.8,6.7,1.8
	c4.7,0,9-1.8,12.9-5.3c1.7-1.5,3.1-3.1,4.3-4.8c1.2-1.7,4.1-5.9,8.5-12.6c2.1-3.2,4.7-6.5,7.7-9.8c3-3.3,5.5-5.7,7.6-7.1
	c-3.4-2.9-8.4-4.3-14.9-4.3c-9.1,0-17.1,3.3-23.8,9.9c-5.5,5.4-8.3,10.5-8.3,15.3c0,2.4,0.8,4.3,2.3,5.8c1.6,1.4,3.7,2.1,6.3,2.1
	c4.3,0,8.8-2.1,13.5-6.3c4.6-4.2,7-8.2,7-12.2c0-3.1-1.6-4.7-4.8-4.7c-3.2,0-6.7,1.8-10.4,5.4c-3.7,3.6-5.5,6.9-5.5,10.1
	c0,0.8,0.3,1.4,0.8,2c0.5,0.6,1.1,0.8,1.8,0.8c0.4,0.1,0.6,0.2,0.6,0.3c0,0.2-0.2,0.3-0.6,0.3c-1,0-1.9-0.5-2.6-1.4
	c-0.7-0.9-1.1-2.1-1.1-3.5c0-3.4,1.8-6.6,5.5-9.8c3.7-3.2,7.5-4.8,11.4-4.8c3.7,0,5.6,1.7,5.6,5.2c0,4.2-2.4,8.4-7.1,12.7
	s-9.4,6.4-14,6.4c-3,0-5.4-0.9-7.2-2.7c-1.8-1.8-2.7-4.2-2.7-7.3c0-6.1,3.5-11.7,10.4-16.8c6.9-5.1,14.5-7.6,22.9-7.6
	c6.3,0,11.6,1.4,16,4.3c4-2.5,7.8-3.7,11.5-3.7c2.9,0,5.2,0.9,7,2.6C140.8,263.7,141.7,265.9,141.7,268.8z"/>
<path d="M151.3,292.2c-0.1,0-0.2,0.1-0.4,0.3c-2,2.9-3.9,5.3-5.8,7.3s-3.3,3-4.2,3c-0.8,0-1.3-0.5-1.3-1.5c0-1.1,1-3.3,3-6.6
	l5.7-9.5c-0.9,0.2-1.7,0.2-2.3,0.2c-0.5,0-1.1-0.1-1.7-0.2l-1.7,3.1c0.2-0.6,0.3-1.1,0.3-1.5c0-1.3-0.7-1.9-2-1.9
	c-1.6,0-3.7,0.7-6.2,2.1c-5.9,3.2-8.8,6.9-8.8,11c0,1.5,0.4,2.7,1.2,3.7s1.7,1.5,2.9,1.5c1.1,0,2.2-0.5,3.3-1.6
	c1.1-1.1,2.8-3.1,5-6.1c-0.7,1.4-1,2.6-1,3.8c0,1.1,0.3,2.1,0.9,2.8c0.6,0.7,1.4,1.1,2.4,1.1c1.5,0,3.5-1.5,6-4.6
	c3.2-3.7,4.7-5.9,4.7-6.3C151.5,292.2,151.5,292.2,151.3,292.2z M138.1,295.4c-3.7,5-6.3,7.4-7.8,7.4c-1.3,0-1.9-0.7-1.9-2.1
	c0-2.4,1.6-5.6,4.8-9.4c3.2-3.9,5.8-5.8,7.8-5.8c1,0,1.5,0.5,1.5,1.6C142.6,288.5,141.1,291.3,138.1,295.4z"/>
<path d="M168.8,269.4c-0.2,0.3-0.4,0.7-0.8,1.3c-0.6,0.9-1.4,2.3-2.5,4.1c-0.5,0.9-1.4,2.3-2.5,4.2l-5.6,9c-1.9,3-3.4,5.7-4.7,8.2
	c-1.4,2.7-2.6,4.8-3.5,6.3l-0.4,0.6c-0.6-0.1-1.2-0.2-1.7-0.2c-0.5,0-1.2,0.1-2.1,0.2c0.5-0.8,1-1.8,1.7-2.9l3.8-6.6
	c0.6-1,1.4-2.4,2.5-4.4l11.9-19.9c0.9,0.2,1.5,0.3,2,0.3S167.9,269.5,168.8,269.4z"/>
<path d="M171.6,292.4c0,0.1-0.1,0.2-0.3,0.5l-1.4,1.9c-4.1,5.7-7.2,8.5-9.3,8.5c-0.9,0-1.8-0.3-2.5-0.9c-0.7-0.6-1.1-1.3-1.1-2.1
	c0-0.7,0.6-2.2,1.8-4.6l0-0.1c0.4-0.8,0.6-1.4,0.6-1.8c0-0.5-0.4-0.9-1.1-1.3c-0.8,0.3-1.5,0.5-2,0.5c-0.8,0-1.1-0.2-1.1-0.6
	c0-0.4,0.4-0.6,1.1-0.6c0.7,0,1.3,0.1,1.9,0.3c1.1-0.5,2.8-2.1,5.2-4.8c1.3-1.5,2.6-2.2,3.9-2.2c1.6,0,2.5,0.8,2.5,2.3
	c0,1-0.4,2.1-1.2,3.1c-0.8,1-1.7,1.5-2.5,1.5c-0.9,0-1.4-0.4-1.4-1.3c0-0.8,0.7-1.6,2.1-2.5c0.6-0.4,0.9-0.9,0.9-1.6
	c0-0.5-0.3-0.8-1-0.8c-0.9,0-2.1,0.8-3.5,2.5c-1.8,2.1-3.3,3.3-4.4,3.8c2.2,1,3.4,2.2,3.4,3.6c0,0.8-0.5,2.2-1.6,4.4
	c-0.5,0.9-0.7,1.5-0.7,1.9c0,0.6,0.4,0.8,1.1,0.8c2,0,5.4-3.4,10-10.3c0.2-0.2,0.3-0.3,0.4-0.3C171.5,292.2,171.6,292.2,171.6,292.4
	z"/>
<path d="M187.8,292.2c-0.2,0-0.4,0.2-0.6,0.5c-5,6.7-9.1,10-12.6,10c-2,0-3-0.9-3-2.8c0-1.5,0.7-3.4,2.2-5.6c4.8-1,8.1-2,10.2-3.1
	s3-2.4,3-4c0-0.7-0.3-1.2-0.8-1.7c-0.6-0.5-1.2-0.7-2-0.7c-1.8,0-4.1,0.8-7,2.3c-5.4,3-8.1,6.4-8.1,10.3c0,1.6,0.5,3,1.5,4.1
	s2.3,1.6,3.8,1.6c3.2,0,7-2.8,11.5-8.3l1.4-1.8c0.4-0.5,0.6-0.8,0.6-0.8C187.9,292.3,187.9,292.2,187.8,292.2z M179.5,287.7
	c1.9-1.6,3.4-2.4,4.5-2.4c0.8,0,1.1,0.3,1.1,1c0,1.3-1.1,2.7-3.2,4.1c-2.2,1.5-4.8,2.6-7.9,3.4C175.8,291.4,177.6,289.3,179.5,287.7
	z"/>
<path d="M206.4,292.4c0,0.2-0.6,1-1.9,2.4c-1.6,1.8-3.2,2.7-4.6,2.7c-1.6,0-2.5-1-2.5-2.9c0-0.6,0.1-1.4,0.4-2.3
	c-1.4,1.2-2.5,2.4-3.3,3.5c-0.9,1.2-2.3,3.5-4.4,7.1c-1.1-0.1-1.8-0.1-2-0.1c-0.1,0-0.7,0-2,0.1l5.3-8.6c2.7-4.3,4-7,4-8
	c0-0.6-0.3-0.9-0.7-0.9c-1.2,0-3.4,2.3-6.6,7c-0.2,0.3-0.4,0.5-0.5,0.5c-0.1,0-0.1-0.1-0.1-0.2c0-0.1,0.1-0.2,0.1-0.3l0.6-0.8
	c3.3-4.4,5.6-6.7,6.8-6.7c1.7,0,2.6,1.1,2.6,3.3c0,1.7-0.9,3.9-2.7,6.6c1.1-1.3,2.2-2.4,3.2-3.2c0.8-1.9,1.8-3.5,3.1-4.8
	c1.2-1.3,2.3-1.9,3.3-1.9c0.7,0,1,0.3,1,0.9c0,1-1.5,2.5-4.5,4.4c-0.5,0.3-1.2,0.7-2.1,1.3l-0.4,0.3c-0.3,1-0.5,1.8-0.5,2.5
	c0,1.8,0.7,2.7,2,2.7c1.7,0,3.5-1.4,5.5-4.2c0.4-0.5,0.7-0.7,0.8-0.7C206.3,292.2,206.4,292.2,206.4,292.4z"/>
<path d="M226.6,292.2c-0.1,0-0.3,0.2-0.6,0.6c-2.3,2.9-4.3,5.1-6.1,6.7c-1.8,1.6-4,3.1-6.7,4.4c4.6-8.2,8.2-14.5,10.9-18.8
	c-0.9,0.2-1.6,0.2-2.2,0.2c-0.7,0-1.3,0-1.8-0.1l-3,5.1c-4.8,8.3-8.4,12.4-10.8,12.4c-0.9,0-1.3-0.5-1.3-1.5c0-0.9,0.9-2.8,2.7-5.8
	l6.4-10.4c-1,0.2-1.8,0.2-2.3,0.2c-0.6,0-1.2,0-1.7-0.1l-5,8.4c-1.5,2.6-2.3,4.5-2.3,5.8c0,1,0.3,1.9,1,2.7c0.7,0.8,1.4,1.1,2.3,1.1
	c1,0,2.1-0.5,3.1-1.4c1-1,2.6-3,4.9-6.1l-5.7,10.2l-0.5,0.3c-1.6,0.7-2.9,1.3-3.7,1.7c-10,4.7-15,9.2-15,13.5c0,0.8,0.3,1.5,0.9,2.1
	c0.6,0.6,1.3,0.8,2.2,0.8c2.6,0,5.7-1.4,9.2-4.3c3.4-2.7,6.7-6.9,9.8-12.6l1.6-2.9c4.2-2.3,7.7-4.9,10.3-7.8
	c2.4-2.6,3.6-4.1,3.6-4.4C226.8,292.3,226.7,292.2,226.6,292.2z M207.6,307.1c-3.4,6.2-6.2,10.6-8.4,13.1c-2.3,2.5-4.6,3.7-6.8,3.7
	c-1.8,0-2.7-0.8-2.7-2.4c0-3.9,4.9-8.3,14.8-13.2c2.1-1,3.3-1.7,3.7-1.9L207.6,307.1z"/>
<path d="M261.2,292.2c-0.1,0-0.2,0.1-0.4,0.3c-2,2.9-3.9,5.3-5.8,7.3s-3.3,3-4.2,3c-0.8,0-1.3-0.5-1.3-1.5c0-1.1,1-3.3,3-6.6
	l5.7-9.5c-0.9,0.2-1.7,0.2-2.3,0.2c-0.5,0-1.1-0.1-1.7-0.2l-1.7,3.1c0.2-0.6,0.3-1.1,0.3-1.5c0-1.3-0.7-1.9-2-1.9
	c-1.6,0-3.7,0.7-6.2,2.1c-5.9,3.2-8.8,6.9-8.8,11c0,1.5,0.4,2.7,1.2,3.7s1.7,1.5,2.9,1.5c1.1,0,2.2-0.5,3.3-1.6
	c1.1-1.1,2.8-3.1,5-6.1c-0.7,1.4-1,2.6-1,3.8c0,1.1,0.3,2.1,0.9,2.8c0.6,0.7,1.4,1.1,2.4,1.1c1.5,0,3.5-1.5,6-4.6
	c3.2-3.7,4.7-5.9,4.7-6.3C261.4,292.2,261.3,292.2,261.2,292.2z M247.9,295.4c-3.7,5-6.3,7.4-7.8,7.4c-1.3,0-1.9-0.7-1.9-2.1
	c0-2.4,1.6-5.6,4.8-9.4c3.2-3.9,5.8-5.8,7.8-5.8c1,0,1.5,0.5,1.5,1.6C252.4,288.5,250.9,291.3,247.9,295.4z"/>
<path d="M287.4,292.4c0,0.5-1.6,2.6-4.7,6.3c-2.6,3.1-4.6,4.6-6.1,4.6c-1,0-1.8-0.4-2.5-1.1c-0.7-0.8-1-1.7-1-2.8
	c0-1,0.2-1.9,0.6-2.7c0.4-0.8,1.4-2.5,3.1-5c1.8-2.6,2.6-4.3,2.6-5c0-0.9-0.5-1.3-1.4-1.3c-3.2,0-8,5.9-14.6,17.6
	c-1.1-0.1-1.7-0.1-1.9-0.1c-0.8,0-1.5,0-2.1,0.1l5.1-8c2.9-4.6,4.3-7.5,4.3-8.6c0-0.6-0.3-1-0.8-1c-1.1,0-3.3,2.3-6.5,7
	c-0.2,0.3-0.3,0.4-0.5,0.5c-0.1,0-0.2-0.1-0.2-0.2c0-0.1,0.1-0.2,0.1-0.3l0.6-0.8c3.3-4.4,5.5-6.7,6.7-6.7c0.7,0,1.4,0.3,1.9,1
	s0.8,1.5,0.8,2.4c0,1.4-0.8,3.3-2.4,5.8c2.6-3.5,4.5-5.9,5.9-7.2c1.4-1.3,2.6-1.9,3.8-1.9c1,0,1.8,0.4,2.4,1.2s1,1.7,1,2.9
	c0,1.5-1,3.7-3,6.7c-2,3.1-3,5-3,5.8c0,0.9,0.4,1.3,1.3,1.3c1.9,0,5.3-3.4,10-10.3c0.1-0.2,0.2-0.3,0.3-0.3
	C287.3,292.2,287.4,292.2,287.4,292.4z"/>
<path d="M310,292.2c-0.1,0-0.2,0.1-0.4,0.3c-4.7,6.9-8.1,10.3-10,10.3c-0.9,0-1.3-0.5-1.3-1.5c0-1,1.1-3.3,3.2-6.9
	c2.1-3.6,7.2-11.8,15.3-24.7c-1.2,0.1-1.8,0.1-2,0.1c-0.7,0-1.4-0.1-2.1-0.3l-11.6,19.4c0.4-0.8,0.6-1.4,0.6-2c0-1.3-0.7-1.9-2-1.9
	c-2,0-4.8,1.2-8.3,3.5c-4.4,2.9-6.6,6.1-6.6,9.7c0,1.5,0.4,2.7,1.2,3.7s1.7,1.5,2.9,1.5c1.8,0,4.6-2.7,8.4-8.1
	c-0.8,1.5-1.2,2.9-1.2,4.1s0.3,2.1,0.9,2.9c0.6,0.7,1.4,1.1,2.4,1.1c1.9,0,5-2.8,9.1-8.5l1.4-1.9c0.2-0.3,0.3-0.5,0.3-0.5
	C310.2,292.2,310.1,292.2,310,292.2z M288.9,302.8c-1.2,0-1.8-0.7-1.8-2.2c0-2.4,1.6-5.5,4.8-9.4c3.2-3.9,5.8-5.8,7.7-5.8
	c1.1,0,1.6,0.6,1.6,1.7c0,1.2-1.1,3.4-3.4,6.7C293.6,299.8,290.6,302.8,288.9,302.8z"/>
<path d="M396.6,268.8c0,1.1-0.1,2.4-0.4,3.7s-0.6,2-0.9,2c-0.2,0-0.3-0.1-0.3-0.3c0-0.1,0-0.2,0.1-0.3c0.6-1.5,0.9-3.1,0.9-4.9
	c0-2.7-0.8-4.9-2.4-6.6c-1.6-1.7-3.8-2.5-6.4-2.5c-3.6,0-7.2,1.2-11,3.5c3,2.3,4.5,4.9,4.5,7.9c0,4.8-3.3,7.7-9.8,8.6
	c5.4,1.9,8.1,5.3,8.1,10.4c0,3.7-1.6,7-4.8,9.8c-3.2,2.8-6.9,4.2-11.1,4.2c-2,0-3.6-0.5-4.8-1.6c-1.2-1-1.8-2.5-1.8-4.3
	c0-2.8,1.3-5.5,3.8-8.2s5.1-4.1,7.7-4.1c1.4,0,2.6,0.4,3.5,1.3c0.9,0.9,1.4,2,1.4,3.5c0,0.8-0.3,1.9-0.8,3.1
	c-0.5,1.3-0.9,1.9-1.3,1.9c-0.2,0-0.4-0.1-0.4-0.3c0-0.1,0-0.2,0.1-0.4c1.1-1.6,1.7-3.1,1.7-4.4c0-1.2-0.4-2.2-1.2-3
	c-0.8-0.8-1.8-1.1-3.1-1.1c-2.4,0-4.8,1.3-7.2,3.9c-2.3,2.6-3.5,5.2-3.5,7.9c0,1.4,0.5,2.6,1.5,3.6c1,1,2.2,1.4,3.6,1.4
	c3.3,0,6.3-1.6,9.1-4.8c2.8-3.2,4.1-6.7,4.1-10.6c0-3.6-1.7-6.2-5.2-7.9l-1.9,0.2c-0.5,0.1-1,0.1-1.6,0.1c-1.6,0-2.5-0.3-2.5-0.8
	c0-0.4,0.7-0.6,2-0.6c1,0,2.3,0.2,3.9,0.6c2.2-0.7,4-1.9,5.3-3.6c1.3-1.7,2-3.7,2-6c0-2.2-0.8-4.1-2.5-5.9
	c-4.7,3.6-9.2,9.8-13.4,18.5c-2.6,5.3-4.9,9.2-7.1,11.6c-2.1,2.3-5,4.4-8.9,6.3c-4.5,2.2-8.6,3.3-12.1,3.3c-2.9,0-5.3-0.7-7.2-2
	c-1.9-1.3-2.9-3-2.9-5c0-1.1,0.3-2.1,1-2.9c0.7-0.8,1.4-1.2,2.4-1.2c1.3,0,2,0.7,2,2.2c0,0.7-0.2,1.4-0.7,1.9s-1,0.8-1.6,0.8
	c-1.1,0-1.7-0.6-1.6-1.8c0-0.5,0-0.7-0.1-0.7c-0.3,0-0.5,0.6-0.5,1.7c0,1.8,0.9,3.3,2.6,4.5c1.8,1.2,4,1.8,6.7,1.8
	c4.7,0,9-1.8,12.9-5.3c1.7-1.5,3.1-3.1,4.3-4.8c1.2-1.7,4.1-5.9,8.5-12.6c2.1-3.2,4.7-6.5,7.7-9.8c3-3.3,5.5-5.7,7.6-7.1
	c-3.4-2.9-8.4-4.3-14.9-4.3c-9.1,0-17.1,3.3-23.8,9.9c-5.5,5.4-8.3,10.5-8.3,15.3c0,2.4,0.8,4.3,2.3,5.8c1.6,1.4,3.7,2.1,6.3,2.1
	c4.3,0,8.8-2.1,13.5-6.3c4.6-4.2,7-8.2,7-12.2c0-3.1-1.6-4.7-4.8-4.7c-3.2,0-6.7,1.8-10.4,5.4c-3.7,3.6-5.5,6.9-5.5,10.1
	c0,0.8,0.3,1.4,0.8,2c0.5,0.6,1.1,0.8,1.8,0.8c0.4,0.1,0.6,0.2,0.6,0.3c0,0.2-0.2,0.3-0.6,0.3c-1,0-1.9-0.5-2.6-1.4
	c-0.7-0.9-1.1-2.1-1.1-3.5c0-3.4,1.8-6.6,5.5-9.8c3.7-3.2,7.5-4.8,11.4-4.8c3.7,0,5.6,1.7,5.6,5.2c0,4.2-2.4,8.4-7.1,12.7
	s-9.4,6.4-14,6.4c-3,0-5.4-0.9-7.2-2.7c-1.8-1.8-2.7-4.2-2.7-7.3c0-6.1,3.5-11.7,10.4-16.8c6.9-5.1,14.5-7.6,22.9-7.6
	c6.3,0,11.6,1.4,16,4.3c4-2.5,7.8-3.7,11.5-3.7c2.9,0,5.2,0.9,7,2.6C395.8,263.7,396.6,265.9,396.6,268.8z"/>
<path d="M394.8,292.4c0,0.1-0.1,0.2-0.3,0.5l-1.4,1.9c-4.1,5.7-7.2,8.5-9.3,8.5c-1,0-1.9-0.4-2.5-1.1c-0.7-0.7-1-1.6-1-2.7
	c0-1.3,0.7-3.2,2.2-5.7l5.1-8.6c0.7,0.2,1.2,0.2,1.6,0.2c0.6,0,1.4-0.1,2.5-0.2l-7.4,12.1c-1.1,1.8-1.6,3.1-1.6,4.1
	c0,1,0.5,1.5,1.5,1.5c1.9,0,5.3-3.4,10.2-10.3c0.1-0.2,0.2-0.3,0.3-0.3C394.7,292.2,394.8,292.2,394.8,292.4z"/>
<path d="M394.3,278.9c0,0.8-0.3,1.5-1,2.1c-0.6,0.7-1.3,1-2.1,1c-1,0-1.5-0.5-1.5-1.5c0-0.7,0.3-1.4,1-2.1c0.7-0.7,1.4-1,2.1-1
	C393.9,277.5,394.3,278,394.3,278.9z"/>
<path d="M401.6,286.7c0-0.5,0.1-1.1,0.2-1.8c2.7-2.6,4.1-4.3,4.1-5.1c0-0.4-0.2-0.6-0.5-0.6c-0.7,0-1.5,0.5-2.2,1.6
	c-0.8,1.1-1.3,2.4-1.7,3.9c-1.3,1.6-2.3,2.9-3.1,3.9l-2.6,3.2c-0.2-0.1-0.4-0.1-0.6-0.1c-1.2,0-2.4,0.8-3.6,2.3
	c-1.2,1.5-1.7,3.1-1.7,4.7c0,1.4,0.4,2.5,1.3,3.4c0.9,0.8,2,1.3,3.5,1.3c2.6,0,4.8-0.7,6.7-2.1c1.9-1.4,2.8-3.1,2.8-5.1
	c0-0.9-0.3-2.1-0.9-3.4C402.1,289.9,401.6,287.9,401.6,286.7z M401.2,290.6c0,0.6,0.1,1.3,0.1,1.9c0,2.4-0.8,4.7-2.4,6.8
	c-1.6,2.1-3.4,3.2-5.2,3.2c-0.9,0-1.7-0.3-2.3-0.9c-0.6-0.6-0.9-1.3-0.9-2.2c0-0.8,0.3-1.6,0.9-2.3c0.6-0.7,1.3-1.2,2.2-1.4
	c2.1-0.5,3.1-1.3,3.1-2.6c0-0.5-0.2-0.9-0.6-1.3c2.3-2.8,4-5,5.3-6.5c-0.1,0.6-0.1,1.5-0.1,2.4C401.2,289.1,401.2,290,401.2,290.6z"
	/>
<path d="M419.8,284.9l-0.3,0.5h-4.2l-7.2,12.4c-0.9,1.5-1.3,2.7-1.3,3.6c0,1,0.5,1.5,1.5,1.5c2,0,5.3-3.4,10-10.3
	c0.2-0.2,0.3-0.3,0.4-0.3c0.1,0,0.2,0.1,0.2,0.2c0,0.1-0.1,0.2-0.3,0.5l-1.4,1.9c-4.1,5.7-7.1,8.5-9.2,8.5c-1,0-1.9-0.4-2.5-1.1
	c-0.7-0.7-1-1.7-1-2.8c0-1.3,0.6-2.9,1.7-4.9l5.4-9.2h-3.3l0.3-0.5h3.2l3.8-6.3c0.6,0.2,1.3,0.3,1.8,0.3c0.6,0,1.2-0.1,1.9-0.3
	l-3.7,6.3H419.8z"/>
<path d="M437.3,292.4c0,0.2-0.6,1-1.9,2.4c-1.6,1.8-3.2,2.7-4.6,2.7c-1.6,0-2.5-1-2.5-2.9c0-0.6,0.1-1.4,0.4-2.3
	c-1.4,1.2-2.5,2.4-3.3,3.5c-0.9,1.2-2.3,3.5-4.4,7.1c-1.1-0.1-1.8-0.1-2-0.1c-0.1,0-0.7,0-2,0.1l5.3-8.6c2.7-4.3,4-7,4-8
	c0-0.6-0.3-0.9-0.7-0.9c-1.2,0-3.4,2.3-6.6,7c-0.2,0.3-0.4,0.5-0.5,0.5c-0.1,0-0.1-0.1-0.1-0.2c0-0.1,0.1-0.2,0.1-0.3l0.6-0.8
	c3.3-4.4,5.6-6.7,6.8-6.7c1.7,0,2.6,1.1,2.6,3.3c0,1.7-0.9,3.9-2.7,6.6c1.1-1.3,2.2-2.4,3.2-3.2c0.8-1.9,1.8-3.5,3.1-4.8
	c1.2-1.3,2.3-1.9,3.3-1.9c0.7,0,1,0.3,1,0.9c0,1-1.5,2.5-4.5,4.4c-0.5,0.3-1.2,0.7-2.1,1.3l-0.4,0.3c-0.3,1-0.5,1.8-0.5,2.5
	c0,1.8,0.7,2.7,2,2.7c1.7,0,3.5-1.4,5.5-4.2c0.4-0.5,0.7-0.7,0.8-0.7C437.2,292.2,437.3,292.2,437.3,292.4z"/>
<path d="M456.3,292.2c-0.1,0-0.3,0.2-0.5,0.5c-0.8,1.3-1.9,2.4-3.2,3.3c-1.3,0.9-2.4,1.4-3.4,1.4c-0.5,0-1-0.1-1.5-0.4
	c2.6-3.5,3.9-6.5,3.9-9c0-2-0.9-3-2.8-3c-2,0-4.5,1.1-7.6,3.3c-4.4,3.1-6.5,6.3-6.5,9.6c0,1.5,0.5,2.8,1.4,3.8
	c0.9,1.1,2,1.6,3.3,1.6c2.5,0,5.2-2,8-6.1c0.5,0.3,1.1,0.4,1.8,0.4c1.6,0,3.4-0.9,5.3-2.8c1.3-1.3,1.9-2.1,1.9-2.4
	C456.4,292.2,456.4,292.2,456.3,292.2z M447.5,291.5c-0.8,1.1-1.3,2.2-1.3,3.3c0,0.7,0.3,1.5,0.9,2.1c-2.8,3.9-5.3,5.8-7.7,5.8
	c-1.4,0-2.1-0.7-2.1-2.2c0-2.6,1.4-5.7,4.2-9.5s5.2-5.6,7.2-5.6c1.6,0,2.4,0.9,2.4,2.6c0,0.9-0.2,1.8-0.5,2.5
	c-0.1-0.4-0.4-0.6-0.7-0.6C449.1,289.9,448.3,290.4,447.5,291.5z"/>
</svg>
