<?xml version="1.0" encoding="utf-8"?>
<!-- Generator: Adobe Illustrator 22.0.1, SVG Export Plug-In . SVG Version: 6.00 Build 0)  -->
<svg version="1.1" id="Layer_1" xmlns="http://www.w3.org/2000/svg" xmlns:xlink="http://www.w3.org/1999/xlink" x="0px" y="0px"
	 viewBox="0 0 335.2 74.6" style="enable-background:new 0 0 335.2 74.6;" xml:space="preserve">
<style type="text/css">
	.st0{fill:#FF0000;}
	.st1{fill:#07090B;}
</style>
<path d="M48.4,39.8l0.6-1.5c0.3,0.2,0.7,0.4,1.2,0.6c0.5,0.2,0.9,0.2,1.2,0.2c0.6,0,1.2-0.2,1.6-0.5s0.6-0.8,0.6-1.4
	c0-0.4-0.1-0.8-0.3-1.1c-0.2-0.4-0.8-0.7-1.6-1.1l-1-0.5c-0.8-0.4-1.4-0.8-1.7-1.4c-0.3-0.5-0.5-1.2-0.5-1.9c0-0.9,0.3-1.7,1-2.3
	s1.5-0.9,2.5-0.9c1.3,0,2.3,0.2,2.8,0.7l-0.5,1.4c-0.2-0.2-0.6-0.3-1-0.5s-0.9-0.2-1.3-0.2c-0.6,0-1,0.2-1.3,0.5
	c-0.3,0.3-0.5,0.7-0.5,1.2c0,0.3,0.1,0.6,0.2,0.8s0.3,0.5,0.5,0.6c0.2,0.2,0.6,0.4,1.3,0.7l1,0.5c0.8,0.4,1.4,0.9,1.7,1.4
	c0.3,0.5,0.5,1.2,0.5,2.1c0,0.9-0.4,1.7-1.1,2.3c-0.7,0.6-1.7,1-2.9,1C50.1,40.6,49.2,40.3,48.4,39.8z"/>
<path d="M66.4,38.2V35c0-1.3-0.3-2.2-0.9-2.8c-0.6-0.6-1.5-0.9-2.8-0.9c-0.5,0-1,0.1-1.5,0.3c-0.5,0.2-0.9,0.4-1.2,0.6l0.7,1.3
	c0.5-0.5,1.3-0.8,2.3-0.8c1.3,0,1.9,0.7,1.9,2.2c-0.4-0.1-0.8-0.2-1.1-0.2c-1.2,0-2.2,0.3-3,0.9c-0.8,0.6-1.2,1.4-1.2,2.3
	c0,0.8,0.3,1.4,0.8,1.9c0.5,0.5,1.1,0.8,1.8,0.8c1.3,0,2.3-0.4,2.9-1.2c0.1,0.4,0.4,0.7,0.7,0.9c0.3,0.2,0.8,0.3,1.4,0.3v-0.8
	C66.6,39.5,66.4,38.9,66.4,38.2z M64.8,38.1c-0.6,0.8-1.3,1.1-2.1,1.1c-1.1,0-1.6-0.5-1.6-1.4c0-0.6,0.3-1,0.8-1.5s1.2-0.6,2-0.6
	c0.2,0,0.5,0.1,1,0.2V38.1z"/>
<path d="M77.2,40.4v-5.2c0-0.9-0.1-1.6-0.4-2c-0.3-0.4-0.8-0.6-1.4-0.6c-0.4,0-0.7,0.1-1.1,0.3s-0.7,0.5-0.9,0.8v6.6h-1.6v-8.9h1.1
	l0.5,1.1c0.5-0.9,1.4-1.3,2.5-1.3c1.9,0,2.9,1.2,2.9,3.6v5.5H77.2z"/>
<path d="M99.9,28.6l-0.6,1.4c-0.5-0.4-1.4-0.6-2.5-0.6c-1.1,0-1.9,0.5-2.6,1.4c-0.6,0.9-1,2.1-1,3.6c0,1.4,0.3,2.5,1,3.4
	c0.7,0.9,1.5,1.3,2.6,1.3c1.1,0,2-0.4,2.6-1.2l0.9,1.3c-1,1-2.2,1.4-3.7,1.4c-1.6,0-2.8-0.6-3.8-1.7s-1.4-2.7-1.4-4.5
	c0-1.8,0.5-3.3,1.5-4.5s2.2-1.8,3.8-1.8C98.1,28,99.1,28.2,99.9,28.6z"/>
<path d="M111.5,38.2V35c0-1.3-0.3-2.2-0.9-2.8s-1.5-0.9-2.8-0.9c-0.5,0-1,0.1-1.5,0.3c-0.5,0.2-0.9,0.4-1.2,0.6l0.7,1.3
	c0.5-0.5,1.3-0.8,2.3-0.8c1.3,0,1.9,0.7,1.9,2.2c-0.4-0.1-0.8-0.2-1.1-0.2c-1.2,0-2.2,0.3-3,0.9c-0.8,0.6-1.2,1.4-1.2,2.3
	c0,0.8,0.3,1.4,0.8,1.9c0.5,0.5,1.1,0.8,1.8,0.8c1.3,0,2.3-0.4,2.9-1.2c0.1,0.4,0.4,0.7,0.7,0.9s0.8,0.3,1.4,0.3v-0.8
	C111.8,39.5,111.5,38.9,111.5,38.2z M109.9,38.1c-0.6,0.8-1.3,1.1-2.1,1.1c-1.1,0-1.6-0.5-1.6-1.4c0-0.6,0.3-1,0.8-1.5
	c0.5-0.4,1.2-0.6,2-0.6c0.2,0,0.5,0.1,1,0.2V38.1z"/>
<path d="M121.7,33c-0.3-0.2-0.7-0.4-1-0.4c-0.6,0-1,0.3-1.5,0.8s-0.6,1.1-0.6,1.9v5.1H117v-8.9h1.6v1.4c0.6-1.1,1.4-1.6,2.6-1.6
	c0.3,0,0.7,0,1.2,0.1L121.7,33z"/>
<path d="M126.5,37.8v-10h1.6v9.8c0,0.5,0.1,0.9,0.4,1.1c0.3,0.3,0.6,0.4,1.1,0.4v1.4C127.6,40.5,126.5,39.6,126.5,37.8z"/>
<path d="M140.8,32.5c-0.7-0.8-1.7-1.2-3-1.2c-1.2,0-2.2,0.4-2.9,1.3c-0.7,0.8-1.1,2-1.1,3.3c0,1.4,0.4,2.5,1.1,3.4
	c0.7,0.8,1.7,1.3,3,1.3c1.2,0,2.2-0.4,2.9-1.2c0.7-0.8,1.1-2,1.1-3.4C141.8,34.4,141.5,33.3,140.8,32.5z M139.5,38.3
	c-0.4,0.6-1,0.9-1.7,0.9c-1.6,0-2.4-1.1-2.4-3.3c0-1,0.2-1.8,0.6-2.4s1-0.9,1.7-0.9c1.6,0,2.4,1.1,2.4,3.3
	C140.1,36.9,139.9,37.7,139.5,38.3z"/>
<path d="M145.8,39.8l0.6-1.5c0.9,0.6,1.6,0.9,2.1,0.9c1,0,1.5-0.4,1.5-1.2c0-0.6-0.5-1.1-1.4-1.5c-0.7-0.3-1.2-0.6-1.5-0.8
	s-0.5-0.4-0.7-0.6c-0.2-0.2-0.3-0.5-0.4-0.7c-0.1-0.2-0.1-0.5-0.1-0.8c0-0.7,0.3-1.3,0.8-1.7s1.2-0.6,2.1-0.6c0.6,0,1.5,0.2,2.4,0.6
	l-0.4,1.5c-0.6-0.5-1.3-0.7-1.9-0.7c-0.4,0-0.7,0.1-1,0.3c-0.3,0.2-0.4,0.4-0.4,0.7c0,0.6,0.3,1,1,1.3l1.1,0.5
	c0.7,0.3,1.2,0.7,1.5,1.1c0.3,0.4,0.5,0.9,0.5,1.5c0,0.8-0.3,1.4-0.8,1.9c-0.6,0.5-1.3,0.7-2.3,0.7
	C147.5,40.5,146.6,40.3,145.8,39.8z"/>
<path d="M169.8,27.8v4.1c-0.5-0.4-1.2-0.6-2.1-0.6c-1.1,0-2,0.5-2.8,1.4c-0.8,0.9-1.2,2.1-1.2,3.4c0,1.3,0.3,2.4,1,3.2
	s1.6,1.2,2.7,1.2c1,0,1.8-0.3,2.4-0.8v0.7h1.6V27.8H169.8z M169.8,38.5c-0.1,0.2-0.3,0.3-0.7,0.5c-0.3,0.2-0.6,0.2-0.9,0.2
	c-1.9,0-2.9-1.1-2.9-3.2c0-1,0.3-1.8,0.8-2.4c0.5-0.6,1.2-0.9,2.1-0.9c0.7,0,1.2,0.3,1.6,0.9V38.5z"/>
<path d="M184.2,35.1c0-1.1-0.3-2-1-2.7c-0.7-0.7-1.7-1.1-3-1.1c-1.1,0-2,0.4-2.8,1.2c-0.9,0.9-1.3,2.1-1.3,3.5
	c0,1.4,0.4,2.5,1.3,3.4c0.8,0.8,1.7,1.1,2.8,1.1c0.8,0,1.5-0.1,2.1-0.3c0.5-0.2,0.9-0.4,1.1-0.6l-0.7-1.1c-0.6,0.5-1.4,0.8-2.3,0.8
	c-0.8,0-1.4-0.2-1.9-0.7c-0.6-0.6-0.9-1.4-0.9-2.4h6.4C184.1,35.8,184.2,35.4,184.2,35.1z M177.7,34.9c0.1-0.6,0.3-1.2,0.8-1.6
	c0.5-0.5,1.1-0.7,1.8-0.7c0.8,0,1.3,0.2,1.8,0.7c0.4,0.4,0.6,1,0.6,1.6H177.7z"/>
<path d="M203.9,34.6c-0.4-0.5-1.1-0.9-2.1-1.2c0.5-0.1,1-0.4,1.4-0.9s0.6-1,0.6-1.5c0-1-0.3-1.7-1-2.2c-0.7-0.5-1.6-0.8-2.8-0.8
	c-0.7,0-1.7,0-3.2,0.1v12.2h3.5c1.3,0,2.3-0.3,3.1-1s1.2-1.5,1.2-2.6C204.6,35.9,204.4,35.2,203.9,34.6z M198.6,29.5
	c0.4,0,0.9-0.1,1.5-0.1c1.4,0,2.2,0.6,2.2,1.7c0,1.3-0.8,1.9-2.4,1.9c-0.5,0-0.9,0-1.3,0V29.5z M202.1,38.4
	c-0.5,0.4-1.2,0.6-2.3,0.6c-0.3,0-0.7,0-1.3-0.1v-4.6l1.3,0c1.1,0,1.8,0.2,2.3,0.6c0.5,0.4,0.7,1,0.7,1.8
	C202.9,37.4,202.6,38,202.1,38.4z"/>
<path d="M215.8,38.2V35c0-1.3-0.3-2.2-0.9-2.8s-1.5-0.9-2.8-0.9c-0.5,0-1,0.1-1.5,0.3c-0.5,0.2-0.9,0.4-1.2,0.6l0.7,1.3
	c0.5-0.5,1.3-0.8,2.3-0.8c1.3,0,1.9,0.7,1.9,2.2c-0.4-0.1-0.8-0.2-1.1-0.2c-1.2,0-2.2,0.3-3,0.9c-0.8,0.6-1.2,1.4-1.2,2.3
	c0,0.8,0.3,1.4,0.8,1.9c0.5,0.5,1.1,0.8,1.8,0.8c1.3,0,2.3-0.4,2.9-1.2c0.1,0.4,0.4,0.7,0.7,0.9s0.8,0.3,1.4,0.3v-0.8
	C216,39.5,215.8,38.9,215.8,38.2z M214.2,38.1c-0.6,0.8-1.3,1.1-2.1,1.1c-1.1,0-1.6-0.5-1.6-1.4c0-0.6,0.3-1,0.8-1.5
	c0.5-0.4,1.2-0.6,2-0.6c0.2,0,0.5,0.1,1,0.2V38.1z"/>
<path d="M226,33c-0.3-0.2-0.7-0.4-1-0.4c-0.6,0-1,0.3-1.5,0.8s-0.6,1.1-0.6,1.9v5.1h-1.6v-8.9h1.6v1.4c0.6-1.1,1.4-1.6,2.6-1.6
	c0.3,0,0.7,0,1.2,0.1L226,33z"/>
<polygon points="231.4,40.4 231.4,32.8 230.2,32.8 230.2,31.5 233,31.5 233,40.4 "/>
<path d="M232.3,28.1c0.3,0,0.5,0.1,0.7,0.3c0.2,0.2,0.3,0.4,0.3,0.7c0,0.3-0.1,0.5-0.3,0.7c-0.2,0.2-0.4,0.3-0.7,0.3
	c-0.3,0-0.5-0.1-0.7-0.3c-0.2-0.2-0.3-0.4-0.3-0.7s0.1-0.5,0.3-0.7S232,28.1,232.3,28.1z"/>
<path d="M238.5,37.8v-10h1.6v9.8c0,0.5,0.1,0.9,0.4,1.1c0.3,0.3,0.6,0.4,1.1,0.4v1.4C239.6,40.5,238.5,39.6,238.5,37.8z"/>
<path d="M252.7,32.5c-0.7-0.8-1.7-1.2-3-1.2c-1.2,0-2.2,0.4-2.9,1.3c-0.7,0.8-1.1,2-1.1,3.3c0,1.4,0.4,2.5,1.1,3.4
	c0.7,0.8,1.7,1.3,3,1.3c1.2,0,2.2-0.4,2.9-1.2c0.7-0.8,1.1-2,1.1-3.4C253.8,34.4,253.4,33.3,252.7,32.5z M251.5,38.3
	c-0.4,0.6-1,0.9-1.7,0.9c-1.6,0-2.4-1.1-2.4-3.3c0-1,0.2-1.8,0.6-2.4s1-0.9,1.7-0.9c1.6,0,2.4,1.1,2.4,3.3
	C252.1,36.9,251.9,37.7,251.5,38.3z"/>
<path d="M265.1,32.2l-0.8,1.1c-0.2-0.2-0.4-0.3-0.9-0.5c-0.4-0.1-0.8-0.2-1.2-0.2c-0.9,0-1.5,0.3-2,0.9c-0.5,0.6-0.8,1.4-0.8,2.5
	c0,1,0.3,1.8,0.8,2.4c0.5,0.5,1.2,0.8,2.1,0.8c0.7,0,1.4-0.3,2.1-0.8l0.6,1.3c-0.8,0.5-1.9,0.8-3.1,0.8c-1.2,0-2.2-0.4-3-1.2
	s-1.2-1.9-1.2-3.3c0-1.4,0.4-2.6,1.2-3.4c0.8-0.9,1.9-1.3,3.4-1.3c0.5,0,1,0.1,1.5,0.3S264.8,32,265.1,32.2z"/>
<path d="M275.2,40.4v-5.6c0-0.7-0.2-1.2-0.5-1.6s-0.8-0.6-1.4-0.6c-0.4,0-0.8,0.1-1.1,0.3c-0.4,0.2-0.7,0.5-0.9,0.8v6.6h-1.6V27.8
	h1.6v4.6c0.2-0.3,0.5-0.6,1-0.8c0.5-0.2,1-0.3,1.4-0.3c0.9,0,1.7,0.3,2.2,0.9s0.8,1.5,0.8,2.5v5.6H275.2z"/>
<path d="M289.5,35.1c0-1.1-0.3-2-1-2.7c-0.7-0.7-1.7-1.1-3-1.1c-1.1,0-2,0.4-2.8,1.2c-0.9,0.9-1.3,2.1-1.3,3.5
	c0,1.4,0.4,2.5,1.3,3.4c0.8,0.8,1.7,1.1,2.8,1.1c0.8,0,1.5-0.1,2.1-0.3c0.5-0.2,0.9-0.4,1.1-0.6l-0.7-1.1c-0.6,0.5-1.4,0.8-2.3,0.8
	c-0.8,0-1.4-0.2-1.9-0.7c-0.6-0.6-0.9-1.4-0.9-2.4h6.4C289.4,35.8,289.5,35.4,289.5,35.1z M283,34.9c0.1-0.6,0.3-1.2,0.8-1.6
	c0.5-0.5,1.1-0.7,1.8-0.7c0.8,0,1.3,0.2,1.8,0.7c0.4,0.4,0.6,1,0.6,1.6H283z"/>
<path class="st0" d="M21.5,70.8c-2.8,0-4.8-0.7-6-2c3.8-1.9,5.7-5.8,5.7-11.6c0-3.9-0.9-7-2.8-9.2c-1.9-2.2-4.6-3.3-8.1-3.3
	c-3.1,0-5.6,1.2-7.5,3.6C0.9,50.6,0,53.6,0,57.2c0,3.8,0.9,6.8,2.7,9.2c1.8,2.4,4.3,3.6,7.5,3.6c0.9,0,1.6,0,2-0.1
	c1,1.5,2.3,2.7,4,3.5c1.7,0.8,3.6,1.3,5.7,1.3c0.8,0,1.5,0,2.2-0.1v-4C23.5,70.7,22.6,70.8,21.5,70.8z M10.3,66.1
	c-1.8,0-3.3-0.9-4.3-2.6c-1-1.7-1.5-3.8-1.5-6.4c0-2.7,0.5-4.8,1.5-6.3c1-1.5,2.4-2.3,4.3-2.3c4.3,0,6.5,2.9,6.5,8.6
	c0,2.8-0.5,5-1.6,6.6C14,65.3,12.4,66.1,10.3,66.1z"/>
<path class="st0" d="M34.6,64.3c0.8,0,1.4,0.3,1.9,0.8c0.5,0.5,0.8,1.2,0.8,1.9c0,0.8-0.3,1.4-0.8,1.9c-0.5,0.5-1.2,0.8-1.9,0.8
	c-0.8,0-1.4-0.3-1.9-0.8s-0.8-1.2-0.8-1.9c0-0.8,0.3-1.4,0.8-1.9S33.8,64.3,34.6,64.3z"/>
<path class="st0" d="M35.3,63.1h-1.7c-0.9-5.5-1.3-9.4-1.3-11.6v-6.8h4.3v6.8C36.6,53.7,36.2,57.6,35.3,63.1z"/>
<path d="M71.4,58.5c1.3-0.5,2.4-1.3,3.2-2.5c0.9-1.2,1.3-2.5,1.3-3.9c0-4.8-3.1-7.2-9.3-7.2c-1,0-2.3,0-3.9,0.1s-2.6,0.1-2.8,0.1
	v24.3h4.5V59.3c1.2,0.1,2.1,0.1,2.7,0.1l6.5,10h5L71.4,58.5z M70.1,55c-0.8,0.5-2.2,0.8-4,0.8c-0.4,0-1,0-1.8-0.1v-6.8
	c0.5-0.1,1-0.1,1.5-0.1c1.9,0,3.3,0.2,4.2,0.7c0.9,0.5,1.3,1.3,1.3,2.5C71.4,53.5,71,54.5,70.1,55z"/>
<polygon points="90.4,49 90.4,54.7 98.4,54.7 98.4,58.3 90.4,58.3 90.4,65.6 101.4,65.6 101.4,69.4 86.1,69.4 86.1,45.1 101.6,45.1 
	101.6,49 "/>
<path d="M109.7,68.1l1.6-3.9c1.7,1.2,3.4,1.8,5,1.8c2.5,0,3.8-0.9,3.8-2.7c0-0.8-0.3-1.6-0.9-2.4c-0.6-0.8-1.8-1.6-3.7-2.5
	c-1.9-0.9-3.1-1.7-3.8-2.3c-0.6-0.6-1.1-1.3-1.5-2.1c-0.3-0.8-0.5-1.7-0.5-2.8c0-1.9,0.7-3.4,2.1-4.7c1.4-1.2,3.1-1.9,5.3-1.9
	c2.8,0,4.9,0.5,6.2,1.6L122,50c-1.5-1.1-3.1-1.6-4.8-1.6c-1,0-1.8,0.3-2.3,0.8c-0.5,0.5-0.8,1.2-0.8,2.1c0,1.4,1.5,2.8,4.6,4.3
	c1.6,0.8,2.8,1.5,3.5,2.2c0.7,0.7,1.3,1.5,1.6,2.3c0.4,0.9,0.6,1.9,0.6,3c0,2-0.8,3.6-2.3,4.9c-1.6,1.3-3.6,1.9-6.3,1.9
	C113.6,69.9,111.5,69.3,109.7,68.1z"/>
<polygon points="143.6,49 143.6,69.4 139.2,69.4 139.2,49 131.5,49 131.5,45.1 151.7,45.1 151.7,49 "/>
<path d="M165.9,44.8H164l-9.7,24.7h4.8l1.7-4.9h8.3l1.8,4.9h4.8L165.9,44.8z M162,61.2l2.9-9l2.9,9H162z"/>
<path d="M183.7,45.1h4.3v16.5c0,1.3,0.4,2.4,1.2,3.2c0.8,0.8,1.9,1.2,3.3,1.2c1.6,0,2.8-0.4,3.6-1.2c0.9-0.8,1.3-1.9,1.3-3.3V45.1
	h4.3v16.7c0,2.5-0.8,4.5-2.5,5.9c-1.7,1.4-3.9,2.1-6.7,2.1c-2.8,0-5-0.7-6.5-2.1c-1.5-1.4-2.3-3.4-2.3-5.9V45.1z"/>
<path d="M223.7,58.5c1.3-0.5,2.4-1.3,3.2-2.5c0.9-1.2,1.3-2.5,1.3-3.9c0-4.8-3.1-7.2-9.3-7.2c-1,0-2.3,0-3.9,0.1s-2.6,0.1-2.8,0.1
	v24.3h4.5V59.3c1.2,0.1,2.1,0.1,2.7,0.1l6.5,10h5L223.7,58.5z M222.4,55c-0.8,0.5-2.2,0.8-4,0.8c-0.4,0-1,0-1.8-0.1v-6.8
	c0.5-0.1,1-0.1,1.5-0.1c1.9,0,3.3,0.2,4.2,0.7c0.9,0.5,1.3,1.3,1.3,2.5C223.7,53.5,223.3,54.5,222.4,55z"/>
<path d="M247.5,44.8h-1.9l-9.7,24.7h4.8l1.7-4.9h8.3l1.8,4.9h4.8L247.5,44.8z M243.7,61.2l2.9-9l2.9,9H243.7z"/>
<polygon points="281.3,69.8 269.5,54.4 269.5,69.5 265.3,69.5 265.3,45.1 267.4,45.1 278.9,59.8 278.9,45.1 283,45.1 283,69.8 "/>
<polygon points="303.4,49 303.4,69.4 299,69.4 299,49 291.3,49 291.3,45.1 311.4,45.1 311.4,49 "/>
<polygon points="324,49 324,54.7 332.1,54.7 332.1,58.3 324,58.3 324,65.6 335,65.6 335,69.4 319.7,69.4 319.7,45.1 335.2,45.1 
	335.2,49 "/>
<g>
	<path class="st1" d="M164.3,22.8c-0.2-0.4,0.3-8.4,0.3-8.6c0-0.7,0-1.4-0.6-2c-1-0.9-0.9-2.2-0.8-3.5c0.1-0.9,0.4-1.7,0.9-2.4
		c0.7-0.9,1.4-0.9,2.1,0c1.1,1.4,1.4,4,0.5,5.5c-0.1,0.2-0.3,0.5-0.5,0.6c-0.4,0.3-0.5,0.6-0.5,1.1c0,0.1,0,0.2,0,0.3
		c0.1,0.1,0,0.2,0,0.3c0,0.2,0.6,8.3,0.4,8.6C166,23.2,164.6,23.2,164.3,22.8z"/>
</g>
<g>
	<path class="st1" d="M174.8,10.5c0,0,0.4-2.6,1.1-3.8c0.2-0.2,0.4-0.5,0.7-0.7c0.3-0.2,0.3-0.1,0.4,0.2c0.1,1.1,0.1,2.1,0.1,3.2
		c0,1.8,0,12.8,0,12.9s-0.3,0.1-0.6,0.2c-0.2,0-0.6,0-0.6-0.1c-0.1-0.1-0.1-6.3-0.1-6.3s-0.7,0-1,0C174.2,16,174.8,10.5,174.8,10.5z
		"/>
</g>
<g>
	<path class="st1" d="M172,6.2c0,0,0,2.7,0,3.9c0,0.2,0.1,0.4-0.2,0.4c-0.3,0-0.2-0.2-0.2-0.4c-0.1-1.2-0.2-3.9-0.2-3.9
		c0-0.1-0.2-0.1-0.2,0c0,0.1-0.1,2.7-0.1,4c0,0.2,0,0.4-0.2,0.4c-0.2,0-0.2-0.2-0.2-0.3c0-0.7,0-1.3-0.1-2c0-0.8-0.1-1.9-0.1-2
		c0-0.1-0.1-0.1-0.2,0c0,0.1-0.1,2.6-0.2,3.9c0,0.2,0.1,0.4-0.2,0.4c-0.3,0-0.2-0.3-0.2-0.4c0-1.2,0-3.9,0-3.9c0,0-0.2,0-0.2,0
		c0,0-0.4,3.5-0.4,3.5c0,0.6,0,1.2-0.1,1.8c0,0.3,0,0.6,0.2,0.8c0.2,0.2,0.3,0.4,0.6,0.5c0.5,0.2,0.6,0.5,0.5,1
		c-0.1,0.3-0.2,9.8-0.3,10.1c0,0.1,0,0.1,0,0.2c0.2,0.1,1,0.2,1.2,0.1c0.1-0.1,0.4-0.1,0.4-0.2c0-0.1-0.2-10-0.2-10.1
		c-0.1-0.4,0-0.7,0.4-0.9c0.5-0.2,0.7-0.7,0.7-1.3c0-1.8-0.3-5.3-0.3-5.4C172.2,6.1,172,6.1,172,6.2z"/>
</g>
<g>
	<path d="M170.3,24.5c-6.8,0-12.3-5.5-12.3-12.3c0-6.8,5.5-12.3,12.3-12.3s12.3,5.5,12.3,12.3C182.6,19,177.1,24.5,170.3,24.5z
		 M170.3,1.2c-6.1,0-11.1,5-11.1,11.1c0,6.1,5,11.1,11.1,11.1s11.1-5,11.1-11.1C181.4,6.1,176.5,1.2,170.3,1.2z"/>
</g>
</svg>
