<?xml version="1.0" encoding="utf-8"?>
<!-- Generator: Adobe Illustrator 22.0.1, SVG Export Plug-In . SVG Version: 6.00 Build 0)  -->
<svg version="1.1" id="Layer_1" xmlns="http://www.w3.org/2000/svg" xmlns:xlink="http://www.w3.org/1999/xlink" x="0px" y="0px"
	 viewBox="0 0 42.9 42.6" style="enable-background:new 0 0 42.9 42.6;" xml:space="preserve">
<style type="text/css">
	.st0{fill:#020202;}
	.st1{fill:none;}
</style>
<path d="M8.7,10.6c0.2,0,0.3-0.1,0.5-0.1c-1.1,0.7-1.9,1.8-2.1,3.3c-0.4,2.3,0.9,3.2,3.7,2.8c1-0.2,2.2-0.6,3.3-1.4
	c0.4-0.3,0.8-0.7,1.1-1c1.2-1.5,0.9-2.4-1.1-3.6c-0.8-0.4-0.8-0.4-1.6-0.8c-2.2-1.1-2.4-1.7-1-2.9c0.3-0.2,0.6-0.4,1.2-0.7
	c0.4-0.2,0.8-0.4,1.2-0.5c1.3-0.5,1.9-0.5,2.6-0.3c0.1,0,0.2,0.1,0.3,0.1c0.8,0.4,0.8,0.6-0.1,1.2c-0.1,0-0.2,0.1-0.2,0.1
	c-0.1,0-0.2,0.1-0.2,0.1L16,7c0,0,0-0.1-0.1-0.1c-0.5-0.8-1.8-1.1-3-0.5c-0.3,0.1-0.5,0.2-0.7,0.4c-0.9,0.7-0.6,1.3,1.5,2.4
	c0.6,0.3,1.1,0.6,1.1,0.6s0.2,0.1,0.5,0.2c2.4,1.2,2.6,2.3,0.5,4.3c-0.7,0.7-1.8,1.4-3.1,2c-0.7,0.4-1.6,0.7-2.5,1
	c-3,0.9-4.5,0.3-4.7-1.4c0-0.1,0-0.2,0-0.4c0-1.2,0.2-2,0.5-2.6C6.7,11.5,7.1,11.2,8.7,10.6z"/>
<path d="M20.6,11.2l0.1,0l0.1,0l0.1,0l0.4,0.2l0.5,0.2l0.2,0.1l-0.1,0c0,0-0.1,0-0.1,0.1c-0.1,0-0.2,0.1-0.2,0.1
	c-0.5,0.3-0.8,0.3-1.1,0.3c-0.6-0.1-0.7-0.5-0.3-0.8c0.2-0.1,0.3-0.2,0.4-0.3L20.6,11.2z"/>
<path d="M16.2,16.1c0.2-0.1,0.4-0.3,0.4-0.3l2.5-1.7l0.9-0.6l0,0c0.1,0,0.2-0.1,0.3-0.1c0.9-0.3,1.4-0.1,2.5,0.9
	c0,0.1,0.1,0.1,0.1,0.1l0.7,0.7l0.2,0.2l0.5,0.4l0,0l0.2,0.2L22.9,17l-0.1-0.2c0,0-0.1-0.1-0.2-0.2c-0.4-0.5-0.7-0.8-1.1-1.2
	l-0.3,0.2c-0.1,0-0.3,0.1-0.3,0.1l0,0l-0.8,0.4l-0.6,0.3c0,0-0.2,0.1-0.4,0.2c-0.1,0.1-0.2,0.1-0.4,0.2c-1,0.4-1.7,0.5-2.2,0.4
	c-0.6-0.1-0.8-0.4-0.6-0.7C15.9,16.3,16.1,16.2,16.2,16.1z M17.9,15.6c0,0.4,0.6,0.7,1.6,0.4c0.4-0.1,0.9-0.3,1.4-0.7
	c0.5-0.4,0.4-0.6-0.8-0.9c-0.4-0.1-1.1,0-1.6,0.4C18.1,15.1,17.9,15.4,17.9,15.6z"/>
<path d="M25.1,37.3L25,36.8c0.5-0.7,0.8-1.6,1.2-3.3c0.2-0.7,0.3-1.6,0.4-3.6c0.1-1,0.1-1.9,0.1-1.9s0-0.3,0-0.7
	c0-0.8,0.1-1.6,0.1-2.5c0-1.3,0-2.6,0-2.6l0-1.8c0,0,0-0.6,0-1.2c0-1.8-0.1-3-0.3-4.3l1.6-1.6c0.2,1.7,0.2,2.4,0,6.4
	c-0.1,1.8-0.1,1.8-0.1,3.6c-0.2,6-0.4,6.9-1.4,9.8c-0.1,0.3-0.2,0.6-0.2,0.6l-0.5,1.5l-0.1,0.3c0,0-0.1,0.3-0.2,0.7
	C25.5,36.5,25.4,36.8,25.1,37.3z"/>
<path d="M27.8,11l0.1-0.1l0.8,0.4l-0.1,0.1c0,0-0.1,0.1-0.2,0.2c-0.4,0.4-0.6,0.5-1.3,0.9c-0.2,0.1-0.4,0.3-0.4,0.3
	c-0.5-0.3-0.5-0.8,0.4-1.4c0.1-0.1,0.2-0.1,0.4-0.2C27.7,11.1,27.8,11,27.8,11z"/>
<path d="M30,16.1c0.2-0.1,0.4-0.3,0.4-0.3l2.5-1.7l0.9-0.6l0,0c0.1,0,0.2-0.1,0.3-0.1c0.9-0.3,1.4-0.1,2.5,0.9
	c0,0.1,0.1,0.1,0.1,0.1l0.7,0.7l0.2,0.2l0.5,0.4l0,0l0.2,0.2L36.7,17l-0.1-0.2c0,0-0.1-0.1-0.2-0.2c-0.4-0.5-0.7-0.8-1.1-1.2
	l-0.3,0.2c-0.1,0-0.3,0.1-0.3,0.1l0,0l-0.8,0.4l-0.6,0.3c0,0-0.2,0.1-0.4,0.2c-0.1,0.1-0.2,0.1-0.4,0.2c-1,0.4-1.7,0.5-2.2,0.4
	c-0.6-0.1-0.8-0.4-0.6-0.7C29.8,16.3,29.9,16.2,30,16.1z M31.8,15.6c0,0.4,0.6,0.7,1.6,0.4c0.4-0.1,0.9-0.3,1.4-0.7
	c0.5-0.4,0.4-0.6-0.8-0.9c-0.4-0.1-1.1,0-1.6,0.4C31.9,15.1,31.7,15.4,31.8,15.6z"/>
<g>
	<g>
		<g>
			<path class="st0" d="M36.5,31.2c-0.2-0.2-0.4-0.2-0.4-0.5c0.3,0.3,0.4,0.2,0.7,0.8c0.1-0.2-0.3-0.3-0.2-0.5
				c0.1,0.1,0.1,0.2,0.3,0.3c0,0,0.2-0.2,0-0.4c-0.3,0.1-0.1-0.6,0.1-0.7c-0.7-0.5,0.1-1-0.5-1.4c0.1-0.1,0.2-0.1,0.3-0.1
				c-0.1-0.1-0.1-0.1,0-0.2c-0.3-0.3-0.4,0-0.4-0.3c0.4,0.2,0-0.3,0.2-0.2c0.1,0.1,0.1,0.3,0.2,0.4c0.1-0.2-0.1-0.4-0.1-0.6
				c0.1,0,0.3,0,0.1-0.1c0,0.1-0.1,0.1-0.3,0c-0.1,0.2,0.1,0.4-0.1,0.5c0-0.2-0.4-0.3-0.5-0.5c0.1-0.3,0.4,0.3,0.4,0
				c-0.2-0.1-0.4-0.3-0.3-0.4c-0.8-0.5-0.1,0.8-0.1,1.1c0,0.1-0.2-0.2,0.1,0.2c-0.3,0.1-0.1,0.1,0.1,0.5c-0.2-0.1,0,0.4-0.3,0.3
				c0,0.2,0.3,0.1,0.3,0.4c-0.1-0.1-0.2-0.1-0.3-0.1c0.4,0.6,0.1-0.1,0.4,0.2c-0.3,0.3,0.3,0.4,0.4,0.8c-0.2-0.1-0.2-0.2-0.5-0.3
				c0.1,0,0.1-0.1-0.1-0.3c0,0.1-0.1,0-0.1,0.3C36.2,30.5,36,31.3,36.5,31.2z"/>
			<path class="st0" d="M35.6,27.1c0-0.5,0.3-0.3-0.1-0.8l0.3,0.2c-0.2-0.3-0.1-0.6-0.5-0.8c0.5,0.2,0.2-0.2,0.8,0.2
				c-0.2-0.4-0.3-0.4-0.4-0.7c-0.2,0-0.1,0.2-0.1,0.3c-0.5-0.2-0.5-0.6-0.5-0.9c0.3,0.3,0.1,0,0.4,0c-0.1-0.2-0.6-0.2-0.4-0.4
				c0.1,0.1,0.1,0.2,0.4,0.3c0.1,0,0.2-0.1,0.4-0.1c0-0.3-0.4,0.1-0.4-0.2c0,0,0.3-0.1,0.2-0.5c-0.2-0.1-0.3,0-0.4,0.1
				c-0.3-0.1-0.1-0.3-0.2-0.4c0.1-0.2,0.2,0.2,0.1,0.3c0.3,0,0.2-0.2,0.6-0.1c0.2,0.1,0.2,0.4,0.5,0.5c0.3,0.1-0.5-0.6,0.1-0.2
				c-0.2-0.3-0.1-0.2,0-0.5c-0.3,0.1-0.7,0.2-1.1,0.1c0.1-0.2,0.2-0.1,0.4,0c-0.2-0.2-0.1-0.4,0.1-0.4c-0.1-0.1-0.7-0.4-0.6-0.1
				c-0.4-0.1-0.2-0.1-0.1-0.3c0.3,0,0.3,0.1,0.5,0.2c-0.2-0.2,0-0.2,0-0.4c-0.7-0.2,0.2-0.2-0.4-0.4c0-0.1,0.4-0.5,0-0.5
				c0.4-0.3-0.1-1,0.5-0.9c0-0.3-0.4-0.3-0.7-0.4c0-0.1,0.1-0.2,0.2-0.2l1.1,1.1c-0.1-0.1-0.1-0.1-0.2-0.2c0.3,0.6-0.4-0.4-0.4,0.3
				c-0.1-0.2-0.4-0.2-0.5-0.4c-0.2,0.1,0.1,0.2-0.1,0.4c-0.3-0.2-0.3,0.1-0.7,0c-0.1-0.5-0.2-0.5-0.5-0.9c-0.3,0.1,0.1,0.4,0,0.6
				c-0.4-0.2-1-0.2-1.2,0.3c-0.2-0.1-0.4-0.3-0.6-0.1c0-0.1,0.1-0.1,0.1-0.3C32.1,20.8,32,21,31.8,21c0-0.2,0.1-0.2,0.1-0.4
				c-0.3,0.1-0.4,0.5-0.5,0c-0.2,0-0.1,0.4-0.3,0.3c-0.1-0.5-0.9,0.1-1.1-0.6c0,0.4-0.2,0.4-0.4,0.7c0-0.5-0.6,0.2-0.4-0.4
				c-1.3,0.2-2.2,0.1-2.9-0.3c-0.1,0-0.1,0.2-0.1,0.4c0.3,0.2-0.2,0.1-0.1-0.3c-0.3,0.2-0.7,0-0.9,0.4c-0.5-0.7-1.8-0.5-2.3-0.1
				c-0.1-0.1-0.1-0.3-0.1-0.5c-0.2,0.2-0.6,0.2-0.6,0.7c-0.2-0.4,0-0.3-0.3-0.1c-0.1-0.9-1.7-0.1-1.7-0.4c-0.1,0,0,0.1,0,0.1
				c-1.4-0.3-2.6,0.3-4-0.2c0,0.1,0.1,0.1,0.2,0.1c-1,0.2-1.6,0-2.5-0.3c-0.1,0.1,0,0.4-0.4,0.4c0-0.1,0.1-0.2,0.1-0.4
				c-0.1,0.1-0.2,0.2-0.2,0.4c-0.8-0.5-1.6-0.4-2.3-0.1c0.5-0.4-0.7-0.4-0.4-0.2c-0.7-0.3-1.7,0.6-2.3-0.3c-0.4,0.2-1.1,0.2-1.9,0.2
				l0.4-0.4c-0.1,0.9-0.2,1.8-0.2,2.6c-0.2,0-0.3-0.1-0.5-0.1c0,0.2,0.5,0.1,0.7,0.2c-0.3,0.7,0.6,1.2-0.4,1.6
				c0.7,0.2,0.4,1,0.1,1.1c0.1,0.1,0.2,0,0.3-0.1c0.6,0.3-0.3,0.6,0.3,0.7c-0.6,0.9,0,2.1-0.4,3.2c0.3-0.1,0.1,0.5-0.1,0.9
				c0.6,0,0,1.1-0.1,1.6c0,0.1,0,0.3,0.1,0.4l0,0l0,0c0.3-0.1,0.6-0.2,0.9-0.2c0.7,0,1.5,0.4,2.1,0.4c0.9,0,1.6-0.6,2.3-0.5
				c-0.1,0,0.3,0.6,0.2,0c0.5,0.4,1-0.2,1.4,0.3c0.3-0.4,0.9-0.2,1.2,0.1c2.7-0.4,5.2-0.4,7.9-0.3c2.7,0,5.4,0,8-0.3
				c1.7-0.2,3.3-0.5,5.5,0.1c0.7,0.8-1,0.1-1.7,0c-1.4,0-2.6,0.7-4.2,0.6c-0.3,0.6-1.7,0.1-2.5,0.2c-0.2,0-0.2,0.1,0,0.3
				c-1.1,0.1-2.5-0.4-3.4-0.3c-0.5,0-0.7,0.3-1.3,0.3c0,0,0-0.2,0-0.2c-0.3-0.2-1.3,0.6-2,0c-0.2,0.5-1.2-0.1-1.5,0.4
				c-0.1-0.1-0.2-0.2-0.3-0.4c0,0.2-0.2,0.4-0.1,0.1c-1-0.1-2,0.2-3.3-0.1c-0.2,0.2-0.2,0.6-0.5,0.2c-0.1,0.9-1.7-0.1-2,0.4
				c0-0.2,0.1-0.3,0.2-0.3c-0.2-0.1-0.4,0.1-0.7-0.2c0.1,0.2-0.3,0.5-0.5,0c0,0.6-0.6-0.2-0.5,0.4c-0.3,0.4-0.6-0.5-0.9-0.5
				c-0.2,0-0.3,0.9-0.6,0c-0.2,0,0,0.4-0.1,0.5c-0.6-0.2-0.6,0-1.1,0.1c0-0.5-0.3,0.1-0.1-0.4c-0.4,0.3-1,0-1.5-0.1
				c0.2,0.7-0.2,0.1-0.2,0.7c-0.3,0.1-0.5,0-0.7-0.1l-1.2-1c-0.1-0.1-0.1-0.2,0-0.3c0.1-0.1,0.2-0.2,0.4-0.3c0-0.2-0.4,0-0.4,0.1
				c-0.3-0.1,0.3-0.2,0.1-0.5c0.4,0.3,0-0.1,0.5-0.1c0-0.3-0.7-0.4,0-0.4c0-0.2-0.4-0.1-0.3-0.3c0.2,0.1,0.2,0,0.4,0
				c-0.2,0-0.4-0.5-0.7-0.2c-0.2-0.3,0-1.3,0.2-1.3c0-0.2-0.4-0.1-0.3-0.3c0.4-0.2,0.2-0.3,0.2-0.7c0.2,0,0.3-0.1,0.5-0.1
				c-0.1-0.3-0.3,0.1-0.5,0l0-0.3c0.5,0.1-0.2-0.4,0.5-0.3c-0.3-0.7-0.5-0.3,0-1c-0.2-0.3-0.3-1.8,0-2.3c-0.6-0.1-0.1-0.5-0.7-0.7
				c0.1-0.3,0.1-1,0.3-1.7l0.4,0c-0.3-0.2,0-0.2,0.1-0.3c-0.4-0.1-0.1,0.3-0.5,0.2c0.4-0.4,0.5-0.9,0.4-1.3c0-0.3,0.1-0.5,0.4-0.5
				l0,0l0.2,0c0.3,0,0.6-0.2,0.8-0.2c0.2,0.3,0.6,0.5,0.7,0c0.3,0.6,1.2-0.1,1.4,0.7c-0.1-0.2,0.3-0.9,0.4-0.3
				c0.2-0.2,0.3-0.1,0.2-0.5c0.2,0.3,0.3,0.5,0.1,0.8c0.5-0.6,1.5-0.9,1.9-0.2c0-0.2,0.5-0.3,0.3-0.4c0-0.4,0.3,0.3,0.3-0.1
				c0.2,0.3-0.4,0.5-0.4,0.9c0.3-0.1,0.2-0.6,0.7-0.4c0-0.1-0.1-0.1-0.2-0.1c0-0.4,0.5-0.2,0.4,0.2c0.3-0.1,0.6-0.2,0.6-0.2
				c0.2,0,0.2,0.2,0.4,0.2c0.1,0,0.2-0.4,0.4-0.4c-0.2,0,0.4,0.6,0.4,0.2c0,0.2-0.1,0.2-0.2,0.3c0,0.3,0.3,0,0.3-0.1
				c0.3,0.1-0.1,0.2-0.1,0.4c0.2,0,0.3-0.1,0.3-0.3c0.2,0.1-0.2,0.5,0.2,0.5c-0.1-0.6,0.3,0.3,0.4-0.3c-0.1-0.5-0.4,0.1-0.4-0.4
				c0.2,0.1,0.5,0.1,0.7,0.2c0-0.1-0.1-0.2-0.2-0.3c0.3-0.3,1.2,0,1.4,0.5c0-0.1,0-0.1,0.1-0.1c-0.1-0.1-0.2-0.2-0.3-0.2
				c0.1-0.2,0.1-0.4,0.2-0.5c0.2,0.1,0.5,0.5,0.4,0.8c0.1,0,0.1-0.1,0.2-0.1c-0.1-0.3-0.3-0.3-0.3-0.8c0.4,0.5,0.5,0.2,0.4,0.6
				c0.4,0.1,0-0.6,0.3-0.3c0,0.1,0,0.1,0.1,0.1c0,0.1-0.1,0.1-0.2,0.1c0,0.2,0.3,0.1,0.4,0.2c-0.3-0.3,0.6-0.9,0.5-0.4
				c0.1,0,0.1-0.2,0.1-0.4c0.1,0.3,0.7-0.2,0.5,0.5c0.3-0.7,0.7,0.1,1-0.4c0.2,0.5,0.8,0,0.8,0.6c0.2-0.3,0.7-0.1,0.8,0.5
				c0.5-0.8,0.9,0.2,1.8-0.7c0.1,0.1,1,0.2,1.3-0.2c-0.2,0.6,0.3,0.7,0.5,0.9c0-0.3-0.1-0.5-0.4-0.5c0.3-0.2,0.7-0.1,0.9-0.3
				c0.3,0.2-0.1,0.4-0.2,0.1c0.1,0.4,0.1,0.2,0,0.6c0-0.3,0.4-0.1,0.3-0.5c0.5,0.3,0.5,0.1,0.8,0.5c0.2-0.8,0.6,0.2,0.7-0.6
				c0.1,0.1,0.2,0.1,0.2,0c0.3,0.4,0.8,0.8,0.9,0c0.2,0.1,0.3,0.2,0.3,0.6c0.2,0,0.2-0.3,0.2-0.7c0.5,0.2,0.7,0.4,1.4,0.2
				c-0.4,0.7,0.4-0.1,0.2,0.5c0.2,0,0.3-0.1,0.3-0.4c0.2,0.4,0.4-0.1,0.7,0.2c0-0.5,0.4-0.2,0.3-0.4c0-0.2,0.2-0.1,0.3-0.1
				c0,0.3,0,0.5,0.3,0.4c0,0.2-0.1,0.3-0.3,0.3c0,0.2,0.5,0,0.4-0.3c0.2-0.1,0.6,0.6,0.6,0c0.1,0.1,0.3,0.2,0.3,0.5
				c-0.1,0-0.1-0.1-0.2-0.1c0,0.1,0.1,0.1,0.1,0.3c0.2,0,0.2-0.2,0.2-0.5c0.2,0.3,0.4-0.3,0.4,0.2c0.1-0.1,0.2-0.2,0.2-0.4
				c0.3,0.1,0.6,0.1,0.9-0.2c0.1,0,0.1,0.2,0.1,0.4c0.1,0,0.2-0.1,0.3-0.3c0.1,0,0.1,0.2,0.1,0.3l0,0c-0.1,0-0.1,0.1-0.1,0.1
				c0.3-0.1,0.7,0.9,0,0.9c0.4,0.1,0,0,0,0.4c0.2,0,0.1-0.2,0.1-0.3c0.4,0.2-0.1,0.4-0.1,0.6c0,0.2,0.7,0,0.5,0.3
				c-0.2-0.1-0.3-0.2-0.6-0.2c-0.2,0.1,0.2,0.7-0.3,0.7c0.6,0.3,0.1,0.4,0.3,0.6c0.2-0.1,0.3-0.3,0.4-0.4c0.1,0.1,0.1,0.2,0,0.3
				c0.3,0.1,0.1-0.3,0.5-0.2c-0.2,0.4,0.2,1.2-0.1,1.4c0,0,0,0,0,0c-0.2-0.5-0.2,0.1,0,0c0,0,0,0,0,0.1c0.1,0.3,0,0.7-0.5,0.9
				c0.1,0,0.1,0.1,0.1,0.1c0.2,0,0.2-0.1,0.2-0.3c0.4,0.3,0,0.5-0.3,0.3c0.1,0.2,0.5,0.2,0.4,0.5c-0.3-0.1-0.2-0.3-0.5-0.4
				c-0.1,0.2,0.4,0.3,0.3,0.5c0.1,0,0.1-0.1,0.1-0.1c0.3,0.3,0,0.3,0.1,0.7c-0.4-0.2-0.4,0-0.7-0.1c0.1,0.3,0.3-0.1,0.7,0.2
				c-0.2,0-0.5,0,0,0.3c0.2,0.6-0.6,0.3-0.3,0.6C36.2,27.9,36,27.2,35.6,27.1z M20.9,19.6c-0.1,0-0.2,0-0.2-0.1c0,0,0.1-0.1,0-0.1
				c0,0.2-0.3-0.1-0.4-0.1c0,0.2,0.1,0.3,0.1,0.5c0,0-0.1,0.1,0,0.1c0-0.1,0.1-0.2,0.2-0.1c0,0.1,0.1,0.1,0.1,0
				c-0.1,0-0.2-0.2-0.1-0.3C20.5,19.7,20.9,19.9,20.9,19.6z M32.8,20.2c-0.5-0.3-0.4,1.1-0.1,0.5c-0.1,0-0.2,0-0.2-0.1
				C32.5,20.3,32.8,20.4,32.8,20.2z M35.4,19.9c-0.1,0-0.1-0.1-0.1-0.3c-0.2,0-0.2,0.2-0.3,0.1C34.8,20.2,35.4,20.1,35.4,19.9z
				 M36.1,20.8c0-0.1,0.2-0.1,0.2-0.2c-0.3-0.2-0.1,0-0.4,0.1c-0.1-0.1-0.2-0.2-0.4-0.3C35.5,20.7,35.8,20.7,36.1,20.8z"/>
			<path class="st0" d="M36.3,21.9c0.2,0.3,0.3,0.5,0.2,0.7C37,22.6,36.6,21.8,36.3,21.9z"/>
			<polygon class="st0" points="36.4,22.6 36.4,22.6 36.4,22.6 			"/>
			<path class="st0" d="M36.7,32.1c0-0.1,0-0.3,0.1-0.2c0.2,0.3-0.2,0.1,0.2,0.5c0-0.2,0-0.3,0.1-0.3c-0.1-0.1-0.3-0.3-0.4-0.4
				c0-0.1,0.1,0,0.1-0.1c-0.5-0.4-0.1,0.4-0.3,0.3c-0.1-0.3,0-0.4-0.1-0.5c-0.1,0.2-0.2-0.3-0.4-0.3C36.2,31.4,36.2,31.8,36.7,32.1z
				"/>
		</g>
	</g>
</g>
<g>
	<g>
		<g>
			<path d="M42.2,20c-0.3,0.1-0.4,0.3-0.5-0.2c0.3,0.1,0.4-0.3,0.8,0.2c0.1-0.5-0.4-0.1-0.3-0.5c0.1,0,0.2,0.2,0.3,0.1
				c0-0.1,0.2-0.6,0-0.5c-0.2,0.3-0.2,0.1-0.2-0.2c0-0.3,0.1-0.8,0.1-0.9c-0.7,0.1-0.2-1.6-0.8-1.3c0.1-0.3,0.1-0.4,0.2-0.5
				c-0.1,0-0.1-0.1-0.1-0.3c-0.3-0.1-0.3,0.5-0.4,0.1c0.4-0.1-0.1-0.5,0.1-0.6c0.1,0.1,0.2,0.3,0.3,0.3c0-0.4-0.2-0.4-0.3-0.7
				c0.1-0.1,0.2-0.3,0-0.3c0,0.2,0,0.3-0.2,0.4c0,0.5,0.2,0.5,0.1,0.8c-0.1-0.4-0.4,0-0.5-0.2c-0.1-0.5,0.4,0,0.3-0.5
				c-0.2,0.1-0.4,0-0.5-0.3c-0.7,0.1,0.2,1.3,0.3,1.8c0,0.2-0.2,0,0.2,0.2c-0.2,0.6,0,0.3,0.2,0.6c-0.2,0.2,0.1,0.6-0.2,0.8
				c0.1,0.3,0.3-0.2,0.4,0.2c-0.1,0.1-0.2,0.2-0.3,0.3c0.5,0.3,0-0.2,0.4-0.2c-0.2,0.8,0.4,0.2,0.5,0.6c-0.2,0.2-0.2,0-0.5,0.2
				c0.1-0.2,0.1-0.3-0.1-0.4c0,0.2-0.1,0.3-0.1,0.5C41.9,19.2,41.6,20.9,42.2,20z"/>
			<path d="M40.3,14.8c-0.3-0.7,0-0.7-0.4-1.1l0.3-0.1c-0.2-0.2-0.4-0.8-0.8-0.6c0.4-0.2-0.1-0.5,0.6-0.6c-0.4-0.3-0.5-0.2-0.7-0.5
				c-0.1,0.1,0.1,0.3,0.1,0.5c-0.4,0.3-0.7-0.3-0.9-0.8c0.4,0.1,0.1-0.1,0.2-0.3c-0.2-0.2-0.4,0.3-0.6-0.3c0.1,0,0.3,0.2,0.4,0
				c0-0.2,0.1-0.3,0.1-0.5c-0.3-0.4-0.2,0.4-0.3,0.1c0,0,0.1-0.4-0.3-0.9c-0.2,0.1-0.2,0.2-0.1,0.4c-0.2,0.2-0.3-0.3-0.5-0.4
				c-0.2-0.4,0.3,0.1,0.3,0.2c0.2-0.2-0.1-0.5,0.2-0.6c0.2,0,0.4,0.4,0.7,0.1c0.2-0.2-0.8-0.3-0.2-0.4c-0.3-0.2-0.3-0.2-0.5-0.6
				c0,0.4-0.2,0.7-0.5,1c-0.1-0.2,0-0.3,0.2-0.3c-0.3,0-0.4-0.4-0.3-0.6c-0.1,0-0.8,0-0.4,0.4c-0.3,0.1-0.2-0.1-0.4-0.3
				c0.1-0.2,0.3-0.1,0.4-0.2c-0.3-0.1-0.2-0.2-0.4-0.5c-0.5,0.3-0.1-0.4-0.6-0.1c-0.1-0.1-0.3-0.9-0.5-0.6c-0.1-0.6-1.2-1-0.8-1.3
				c-0.3-0.3-0.6-0.1-0.8,0c-0.2-0.2-0.2-0.4-0.3-0.6c0,0.7-0.3-0.6-0.6-0.2c-0.1-0.2-0.4-0.5-0.5-0.7c-0.3-0.1,0,0.2-0.3,0.2
				c-0.3-0.3-0.4-0.2-0.9-0.5c0.1-0.5,0-0.5-0.2-1c-0.4-0.1-0.1,0.4-0.2,0.5c-0.5-0.4-1.2-0.8-1.7-0.5c-0.3-0.2-0.4-0.4-0.8-0.4
				c0.1-0.1,0.2-0.1,0.2-0.2c-0.2,0-0.4,0.1-0.7,0c0-0.2,0.2-0.1,0.2-0.3c-0.4-0.1-0.7,0.2-0.7-0.2C27,2,27,2.3,26.7,2.2
				c-0.1-0.5-1.3-0.3-1.5-0.9c0,0.3-0.3,0.3-0.7,0.5c0-0.4-0.8,0-0.5-0.4c-1-0.1-1.8,0-2.5-0.1c-0.7,0-1.3-0.1-1.8-0.2
				c-0.1,0-0.1,0.2-0.1,0.3c0.4,0.1-0.3,0.1-0.2-0.2c-0.5,0.3-1,0.1-1.3,0.6c-0.2-0.1-0.5-0.2-0.8-0.2c-0.3,0-0.6,0.1-1,0.2
				C16,1.8,15.7,1.9,15.4,2c-0.3,0.2-0.5,0.3-0.7,0.5c-0.1-0.1-0.2-0.2-0.3-0.4c-0.3,0.3-0.7,0.5-0.6,0.8c-0.4-0.2-0.2-0.2-0.5,0.1
				C13.2,2.8,12.6,3,12,3.3c-0.5,0.3-1,0.7-1,0.6C10.9,4,11,4,11.1,4c-1,0.4-1.7,1.1-2.4,1.7C7.9,6.4,7.2,7,6.4,7.7
				c0.1,0.1,0.2-0.1,0.3-0.1C6.4,7.9,6.2,8.1,6,8.3C5.8,8.6,5.6,8.8,5.4,9C5,9.5,4.6,9.8,4.2,10.4c0.1,0.1,0.3,0.3,0,0.7
				c0-0.1-0.1-0.2-0.2-0.3c0,0.2,0,0.3,0.2,0.4c-1,0.8-1.4,2-1.6,3.1c-0.1-0.8-0.7,0.9-0.4,0.4c-0.5,0.9-0.1,2.6-1,3.4
				c0.1,0.6,0,1.7-0.1,3c0,0.6,0,1.3,0,1.9c0.1,0.6,0.1,1.3,0.2,1.8C1,25,1,24.9,0.8,25c0.1,0.3,0.4,0.1,0.6,0.3
				c0,1.1,0.9,1.6,0.3,2.4c0.7,0.1,0.8,1.3,0.7,1.6c0.1,0.1,0.2-0.1,0.1-0.2c0.6,0.2,0.1,1,0.7,0.8c0.2,1.6,1.6,2.8,2.4,4.3
				c0.1-0.3,0.5,0.5,0.8,1c0.2-0.2,0.4,0.1,0.8,0.5c0.3,0.4,0.7,0.9,0.9,1.2c0.4,0.4,1.2,0.6,1.7,1c0.9,0.6,1.7,1.5,2.6,1.9
				c0.3,0.1,0.6,0.3,0.9,0.4c0.3,0.1,0.6,0.1,0.9,0.2c0.6,0.1,1.1,0.2,1.6,0.4c-0.1-0.1,0.2,0.6,0.3,0.1c0.3,0.2,0.7,0.3,1,0.4
				c0.4,0.1,0.8,0.1,1,0.3c0.3-0.1,0.6-0.1,1,0c0.3,0.1,0.7,0.2,0.9,0.3c2.1,0,4.2-0.3,6.2-0.8c2-0.5,3.9-1.3,5.6-2.3
				c0.9-0.5,1.7-1.1,2.5-1.7c0.8-0.7,1.5-1.4,2.2-2.2c1.4-1.6,2.5-3.4,3.2-5.5c0.2-0.6,0.4-1.3,0.6-2c0.1-0.7,0.2-1.4,0.4-2.1
				c0.1-0.7,0.2-1.4,0.3-2c0.1-0.7,0.2-1.3,0.4-1.9c0.5,0.1,0.5,0.5,0.4,1c-0.1,0.5-0.4,1.1-0.5,1.6c-0.1,0.5-0.1,1.1-0.2,1.7
				C41.1,26,41,26.6,41,27.2c-0.1,0.6-0.3,1.2-0.4,1.8c-0.2,0.6-0.5,1.1-0.7,1.6c0,1.4-1.3,2.3-2,3.5c-0.2,0.2-0.2,0.4,0,0.5
				c-1.1,1.4-2.7,2.3-3.9,3.2c-0.3,0.2-0.5,0.5-0.8,0.8c-0.3,0.2-0.5,0.5-0.9,0.7c0,0,0-0.3,0-0.3c-0.2,0-0.6,0.5-1.2,0.8
				c-0.5,0.3-1.1,0.7-1.6,0.6c-0.2,0.3-0.6,0.5-1.1,0.6c-0.4,0.1-0.9,0.3-1.2,0.6c-0.1,0-0.3-0.1-0.4-0.2c0,0.1-0.5,0.5-0.2,0.2
				c-1.4,0.3-3.2,0.8-5,0.6c-0.3,0.2-0.5,0.5-0.8,0.1c-0.2,0.4-0.9,0.3-1.6,0.2c-0.7-0.2-1.4-0.4-1.7-0.3c0.1-0.1,0.2-0.2,0.4-0.2
				c-0.2-0.2-0.7,0-0.9-0.4c0.1,0.2-0.7,0.3-0.8-0.2c-0.2,0.5-0.8-0.3-0.9,0.1c-0.7,0.1-0.7-0.7-1.1-0.8c-0.3-0.1-0.8,0.5-0.9-0.3
				c-0.2-0.1-0.2,0.3-0.4,0.3c-0.7-0.6-0.9-0.4-1.5-0.7c0.3-0.4-0.5-0.1,0-0.4c-0.6,0-1.3-0.7-2-1.3c-0.1,0.6-0.3-0.1-0.6,0.2
				c-0.8-0.4-0.9-0.8-1-1.3c-0.3-0.2-0.3,0.3-0.1,0.4c-0.3,0.1-0.1-0.5-0.6-0.6c0.6,0.1-0.1-0.1,0.2-0.4c-0.3-0.3-0.9,0-0.5-0.4
				c-0.2-0.2-0.3,0.1-0.6-0.2c0.2,0,0.2-0.1,0.2-0.2c-0.2,0.1-0.8-0.4-0.7,0.1c-0.5-0.3-1.4-1.6-1.2-1.7c-0.2-0.2-0.3,0.1-0.5-0.3
				c0.1-0.5-0.2-0.5-0.5-1c0.2-0.1,0.1-0.3,0.3-0.4c-0.3-0.3-0.1,0.2-0.4,0.3l-0.3-0.5c0.5,0-0.4-0.4,0.1-0.6
				c-0.8-0.8-0.7-0.2-0.8-1.3c-0.2-0.2-0.6-0.8-0.9-1.5c-0.3-0.7-0.5-1.5-0.5-1.9c-0.5,0-0.3-0.7-0.8-0.9C0.2,25.8,0,24.7,0,23.4
				l0.3,0c-0.3-0.2,0-0.3,0.1-0.6c-0.4-0.1-0.1,0.5-0.4,0.3c0.3-0.6,0.3-1.2,0.3-1.8c0-0.6-0.1-1.2-0.2-1.6c0.3-0.2,0.5-0.8,0-1.1
				c0.6-0.4,0.1-2,1-2.1C0.9,16.7,0.5,16,1,15.9c0-0.4,0-0.4-0.4-0.4c0.3-0.2,0.5-0.4,0.7,0c-0.1-0.2-0.1-0.5-0.2-0.8
				c0-0.3,0-0.6,0.1-0.9c0.2-0.6,0.4-1.1,0.8-1.2c-0.2,0,0.1-0.8-0.1-0.5c-0.3-0.1,0.4-0.3,0.1-0.4c0.4-0.2,0.1,0.8,0.4,0.9
				c0.1-0.4-0.3-0.5,0.1-1.1c-0.1,0-0.1,0.1-0.2,0.2c-0.3-0.2,0.2-0.7,0.5-0.5c0.1-0.2,0.2-0.4,0.2-0.6c0.1-0.2,0.1-0.3,0.1-0.3
				c0.2-0.3,0.4-0.2,0.5-0.5c0.1-0.2-0.2-0.4,0.1-0.8C3.7,9.4,4.6,9,4.4,8.7c0.2,0.1,0.1,0.2,0,0.3c0.2,0.1,0.3-0.4,0.2-0.5
				c0.3-0.3,0,0.3,0.2,0.3C5,8.7,5.1,8.5,5,8.3c0.3-0.2,0.2,0.5,0.5,0C5.1,8.1,6,8.1,5.8,7.7C5.4,7.6,5.5,8.2,5.2,7.9
				C5.4,7.7,5.7,7.3,6,7.2c-0.1,0-0.2,0-0.3,0.1C5.8,7,6.1,6.7,6.4,6.4c0.4-0.3,0.8-0.4,1-0.4c-0.1-0.1,0-0.1,0-0.2
				C7.3,5.8,7.2,5.9,7,6C7,5.8,7,5.6,7,5.4c0.3-0.2,0.9-0.2,0.9,0.1c0.1-0.1,0-0.2,0.1-0.3C7.8,5.1,7.4,5.4,7.2,5
				C8,4.9,7.9,4.6,8.1,4.9c0.6-0.4-0.3-0.4,0.3-0.5c0,0.1,0.1,0,0.2,0c0.1,0.1-0.1,0.2-0.1,0.3C8.6,4.8,8.8,4.5,9,4.5
				c-0.5,0,0.3-1.2,0.4-0.8c0.1-0.1,0-0.2-0.1-0.4c0.3,0.1,0.8-0.7,0.9-0.1c0.1-0.8,0.9-0.5,1.2-1.1c0.5,0.3,1.1-0.6,1.4-0.1
				c0.1-0.4,1-0.5,1.3-0.1c0.3-0.5,0.6-0.6,1-0.7c0.4-0.1,0.9-0.2,1.5-0.7c0.2,0,1.6-0.1,2-0.5c-0.2,0.6,0.5,0.6,0.8,0.7
				c-0.1-0.3-0.3-0.4-0.6-0.4c0.5-0.2,1-0.2,1.5-0.4c0.4,0.1-0.1,0.3-0.3,0.1c0.1,0.3,0.1,0.2,0.1,0.6c0-0.3,0.6-0.2,0.5-0.5
				c0.8,0.2,0.8,0,1.2,0.4c0.3-0.6,0.9,0.2,1.1-0.4c0.1,0.1,0.2,0.1,0.3,0c0.4,0.3,1.1,0.8,1.4,0.1c0.2,0.1,0.4,0.3,0.3,0.6
				c0.3,0,0.3-0.2,0.3-0.5c0.7,0.3,1,0.6,2.1,0.7c-0.7,0.4,0.7,0.1,0.1,0.5c0.3,0.1,0.4,0,0.5-0.2c0.2,0.5,0.7,0.2,0.9,0.6
				c0.1-0.4,0.6,0,0.5-0.2c0.1-0.1,0.4,0,0.5,0.1c-0.2,0.2-0.1,0.4,0.2,0.5c-0.1,0.1-0.2,0.1-0.4,0c0,0.2,0.7,0.3,0.7,0.1
				c0.3,0.1,0.6,0.8,0.9,0.4c0.1,0.2,0.3,0.4,0.2,0.6c-0.1-0.1-0.1-0.2-0.2-0.2c0,0.1,0.1,0.2,0,0.3c0.2,0.1,0.3,0,0.4-0.3
				c0.2,0.4,0.7,0.1,0.5,0.5c0.2,0,0.3,0,0.4-0.2c0.4,0.3,0.7,0.6,1.3,0.7c0.1,0.1,0,0.2-0.1,0.4c0.2,0.1,0.3,0.1,0.5,0
				C34.3,4.8,34,5,34.3,5.1c0.1-0.3,1.4,0.4,1.1,0.9c0.3-0.2,0,0,0.5,0.4c0.1-0.1-0.1-0.2-0.2-0.3c0.5-0.1,0.5,0.5,0.6,0.7
				c0.2,0.3,0.4-0.5,0.6,0c-0.2,0-0.3,0.1-0.5,0.3c0,0.3,0.8,0.6,0.6,1.1c0.6-0.1,0.4,0.4,0.7,0.6c-0.1-0.3-0.1-0.6-0.2-0.8
				c0.2,0.1,0.3,0.2,0.3,0.4c0.3-0.2-0.3-0.5,0.1-0.6c0.3,0.6,1.3,1.3,1.2,1.8c0,0,0,0,0,0c-0.5-0.4-0.1,0.3,0,0c0,0,0,0,0.1,0.1
				c0.3,0.3,0.6,1,0.5,1.6c0.1-0.1,0.1,0,0.2,0.1c0.1-0.2,0-0.4-0.1-0.6c0.4,0,0.4,0.7,0,0.8c0.2,0.2,0.4-0.1,0.5,0.3
				c-0.2,0.2-0.3-0.1-0.5,0c0.1,0.4,0.4,0,0.5,0.5c0.1-0.1,0-0.2,0-0.3c0.4,0.2,0.2,0.5,0.5,0.8c-0.3,0.1-0.3,0.4-0.5,0.7
				c0.2,0.3,0.1-0.5,0.6-0.4c-0.1,0.2-0.4,0.5,0.2,0.4c0.5,0.6-0.2,1.1,0.1,1.3C41.1,15.3,40.7,14.4,40.3,14.8z M11.7,2.7
				c-0.1,0-0.2,0.1-0.3,0c0.1,0,0.1-0.2-0.1-0.1c0.1,0.2-0.5,0.2-0.6,0.3c0.1,0.2,0.3,0.1,0.4,0.3c-0.1,0-0.1,0.2,0.1,0.1
				c0-0.1,0-0.2,0.2-0.2c0,0.1,0.2,0,0.1-0.1c-0.1,0.1-0.4,0-0.2-0.1C11.2,3.1,11.7,2.9,11.7,2.7z M29.4,2.5
				c-0.6-0.5-0.9,0.7-0.3,0.4c-0.1-0.1-0.2-0.1-0.2-0.2C29,2.4,29.3,2.6,29.4,2.5z M33,4.2c-0.1-0.1-0.1-0.2,0-0.3
				c-0.2-0.1-0.3,0-0.5-0.2C32.1,3.9,32.9,4.3,33,4.2z M35.3,6.1c-0.1-0.1,0-0.2-0.1-0.3c-0.4,0-0.1,0.1-0.1,0.3
				C35,6,34.8,6,34.6,6.1C34.9,6.5,35.1,6.3,35.3,6.1z"/>
			<path d="M36.6,7.2c0.4,0.1,0.7,0.4,0.8,0.7C37.8,7.4,36.6,6.8,36.6,7.2z"/>
			<polygon points="37.5,7.9 37.5,7.9 37.5,7.9 			"/>
			<path d="M42.5,21.1c0-0.2,0-0.4,0.1-0.4c0.3,0.2-0.2,0.4,0.3,0.4c0-0.2,0-0.4,0.1-0.6c-0.2,0-0.4,0.1-0.5-0.1
				c0-0.1,0.1-0.2,0.1-0.3c-0.6,0,0,0.7-0.3,0.8c-0.2-0.3,0-0.6-0.2-0.7c0,0.4-0.2-0.1-0.4,0C41.9,20.7,42,21.2,42.5,21.1z"/>
		</g>
	</g>
</g>
<g>
	<g>
		<g>
			<polygon class="st1" points="23.1,26.8 23.1,26.8 23.1,26.8 			"/>
			<path class="st1" d="M23.2,26.4c-0.1,0-0.2,0.5-0.1,0.4C23.1,26.7,23.2,26.5,23.2,26.4z"/>
			<path class="st1" d="M17.8,23c-0.1,0.5,0.4-0.4,0.3-0.2C18,22.6,18,22.6,17.8,23z"/>
			<path d="M26.7,27.7c-0.3,0.1-0.4,0.5-0.3-0.2c-0.3,0.3-0.6,0.3-0.4-0.4c-0.2,0.3-0.3,0.3-0.3,0c-0.4,0.8-0.2,0-0.4,0.6
				c0.4-1.5-1,0.9-0.6-0.5c-0.5,0.6-0.6,0.4-0.5-0.5c-0.2,0.4-0.4,0.7-0.2,0c-0.4,0.8-0.6,0.7-0.5-0.1c-0.1,0.4-0.5,0.7-0.4,0.2
				c0,0,0,0,0,0c0,0,0,0,0,0c0-0.1,0-0.2,0.1-0.4c-0.1,0-0.2,0.5-0.1,0.4c0,0,0,0,0,0c-0.3,0.3-0.5,0.3-0.3-0.4
				c-0.3,0.6-0.5,0.5-0.4,0c-0.1,0.4-0.2,0.4-0.1,0c0,0-0.2,0.4-0.2,0.6c-0.3,0,0-0.8-0.4-0.4c0.6-1-0.4,0,0.1-0.8
				c-0.3,0.2-0.6,1.1-0.2-0.2c-0.4,1.2-0.1-0.3-0.7,0.5c0.2-0.3,0.1-0.5,0.2-0.6c0.1-0.2,0-0.1-0.1-0.2c-0.1,0.3-0.1,0.4,0,0.4
				c-0.1,0-0.4,0.4-0.2-0.2c-0.4,1-0.3,0.2-0.5,0.5C20,25,20,24.1,19,24.9c-0.2-0.7-0.7-0.9-1.1-0.7c0.2-0.5,0.1-0.4,0.2-0.8
				c-0.1,0.4-0.5,1.1-0.1,0c-0.3,0.6,0-0.1-0.1-0.2c-0.3,1.1-0.5,0.4-0.5,0.1c0,0-0.2,0.4-0.2,0.6c-0.5-0.5-0.6-0.3-1.4,0.1
				c0.4-0.7-0.1,0-0.2,0c0.1-0.2,0.2-0.4,0.3-0.8c-0.6,0.8-0.9,0.7-0.8-0.3c-0.1,0.1-0.2,0.4-0.2,0.4c0.3-0.7,0-0.3-0.2-0.2
				c-0.4,0.1-0.9,0.4-1.2,0.1c-0.3-0.3-0.2-1.2-0.8-0.3c0.3-0.7-0.2-0.1,0.2-1c-0.7,1.2-0.6,0-1.2,0.5c0-0.1,0.1-0.2,0.1-0.4
				c-0.5,0-1.1,0.1-1.2-0.3c-0.4,0.8-0.2-0.4-0.7,0.5c0,0,0.1-0.4,0.2-0.6c-0.3,0.3-0.5,0.4-0.3,0c-0.3,0.6-0.2,0.1-0.4,0.6
				c0.3-0.7-0.1,0,0.1-0.6c0,0.1-0.5,0.4-0.6,0.3c-0.2-0.1-0.1-1-0.5-0.1c-0.1-1.1-1-0.3-1.4-0.3C7,21.1,7,21.1,7,20.8
				c-0.3,0.6-0.5-0.1-0.7-0.1c0,0-0.2,0.4-0.2,0.4L7,19c-0.4,1.1,0.7-0.4,0.6,0.9c0.2-0.5,0.1-0.2,0.3-0.4c0,0-0.2,0.4-0.2,0.4
				c0.2,0.2,0.9-0.9,1.1-0.5c0.1,0.1,0.6,0,0.5,0.9c1.5-1.2,1.8,0.5,2.9-0.1c0,0.1-0.3,0.7-0.2,0.8c0.1,0,0.3-0.6,0.2-0.6
				c0.3,0.1,0.7,0,1,0.1c0.2,0.1,0.6,0.1,0.5,0.9c0.4-0.7,0.4-0.1,0.3,0.2c0.2-0.4,0.6-0.5,0.4,0.2c0.3-0.4,0.4-0.2,0.4-0.2
				c0,0,0.2-0.3,0.2-0.2c0,0-0.2,0.6-0.2,0.6c0.1,0,0.1-0.4,0.2-0.6c0.5-0.6,0.1,1.1,0.7,0.1c-0.2,1,0.2,0.2,0.5,0.1
				c-0.1,0.4-0.3,0.8-0.4,1.2c0.3-0.8,0.1-0.1,0.4-0.8c0.1-0.3-0.1,0.1-0.1,0c0.4-0.8,0.2,0,0,0.6c0.1,0,0.2-0.3,0.2-0.5
				c0,0.2,0.1,0.4,0.4-0.3c-0.3,0.8,0.4-0.6-0.1,0.6c0.4-0.9,0.7-0.6,0.6-0.1c0.3-0.6,0.2-0.2,0.5-0.6c-0.2,0.3-0.2,0.5-0.2,0.6
				c0.1-0.2,0-0.2,0-0.2c0.3-0.6,0.1-0.2,0.1,0c0.6-1.2,0.6,0.1,0.9-0.1c0,0.2-0.1,0.3-0.3,0.8c0.1-0.1,0.1-0.2,0.2-0.2
				c0-0.2,0.1-0.3,0.2-0.6c0.3-0.2,0.3,0.5,0.5,0.9c0.2,0.4,1.6-1,1.3,0.7c0.5-0.4,0.6,0.5,1.3,0.1c-0.5,1.2,0.3-0.4,0.1,0.4
				c0.5-1.1,0.4,0.5,0.7,0.7c0.2,0.1,1-1.3,0.5,0.3c0.3-0.5,0.2-0.1,0.4-0.4c-0.3,0.5,0,0.4,0.2,0c0,0.1-0.1,0.2-0.1,0.4
				c0.3-0.1,0.3-0.4,0.3,0c-0.1,0.3,0-0.1-0.1,0c-0.2,0.7,0.1,0,0,0.4c0.2-0.6,0.5-0.6,0.3,0c0,0,0.2-0.4,0.2-0.6c0,0.8,1-0.5,1,0.5
				c0,0-0.2,0.6-0.2,0.6c0.1,0,0.1-0.4,0.1-0.4c0.4-0.8,0.5,0.1,0.6,0.1c0.3,0,0.7-0.3,0.8,0.1c-0.3,0.8-0.1,0.4-0.2,0.8
				c0,0.1,0.2-0.6,0.2-0.6c0.1-0.3,0.2,0.1-0.1,0.4c0.3-0.4,0.3-0.3,0.4-0.2c-0.1,0.2-0.2,0.3-0.1,0.4c-0.1,0.3-0.3,0.3-0.2,0.4
				c-0.1,0.2-0.2,0.2-0.1,0C26.6,27.6,26.7,27.6,26.7,27.7z M18,22.8c0-0.2-0.1-0.2-0.3,0.2C17.6,23.4,18.2,22.6,18,22.8z"/>
			<path d="M16.4,22.1c0,0,0-0.1,0-0.1C16.4,22.1,16.4,22.1,16.4,22.1z"/>
		</g>
	</g>
</g>
<path d="M31.1,24.8l0.1,0l0.1,0l0.1,0l0.4,0.2l0.5,0.2l0.2,0.1l-0.1,0c0,0-0.1,0-0.1,0.1c-0.1,0-0.2,0.1-0.2,0.1
	c-0.5,0.3-0.8,0.3-1.1,0.3c-0.6-0.1-0.7-0.5-0.3-0.8c0.2-0.1,0.3-0.2,0.4-0.3L31.1,24.8z"/>
</svg>
