<?xml version="1.0" encoding="utf-8"?>
<!-- Generator: Adobe Illustrator 22.0.1, SVG Export Plug-In . SVG Version: 6.00 Build 0)  -->
<svg version="1.1" id="Layer_1" xmlns="http://www.w3.org/2000/svg" xmlns:xlink="http://www.w3.org/1999/xlink" x="0px" y="0px"
	 viewBox="0 0 1715.4 514.5" style="enable-background:new 0 0 1715.4 514.5;" xml:space="preserve">
<style type="text/css">
	.st0{fill:#FE0000;stroke:#FFFFFF;stroke-width:20;stroke-miterlimit:10;}
	.st1{fill:#FF67A2;}
	.st2{fill:#FFFFFF;}
	.st3{fill:none;}
	.st4{fill:none;stroke:#FFFFFF;stroke-width:7;stroke-miterlimit:10;}
</style>
<path class="st0" d="M1419.6,317.3h-1256C78.8,317.3,10,248.5,10,163.7v0C10,78.8,78.8,10,163.7,10h1256
	c84.9,0,153.7,68.8,153.7,153.7v0C1573.3,248.5,1504.5,317.3,1419.6,317.3z"/>
<path class="st1" d="M804.5,193.6c0,12-3.9,21.7-11.8,29.2c-7.8,7.5-17.9,11.2-30.2,11.2c-7.4,0-14.6-2-21.6-5.9
	c-8.4-4.7-14-9.3-16.7-13.7l16.7-19.4c2.2,2.8,4.1,4.8,5.6,6.1c4.9,4.2,9.9,6.2,14.9,6.2c4.4,0,7.9-0.8,10.6-2.4
	c3.5-2.1,5.3-5.3,5.3-9.7c0-4.8-5.4-9.1-16.2-12.6c-7.3-2.4-12.4-4.5-15.4-6.2c-6.5-3.9-11.2-9.1-14.3-15.6
	c-2.6-5.5-3.9-11.6-3.9-18.3c0-10.6,3.6-19.7,10.8-27.2c7.2-7.5,15.7-11.2,25.4-11.2c10.2,0,19.8,3.6,28.7,10.7
	c2.9,2.3,6.4,5.9,10.4,10.7l-18,16.8c-2-2.8-3.6-4.8-5-6.2c-4.4-4.2-9-6.2-13.9-6.2c-3,0-5.6,1.1-7.7,3.2c-2.1,2.1-3.2,4.8-3.2,8
	c0,5.3,3.8,9.4,11.3,12.3c3.5,1.3,7.1,2.5,10.6,3.8c11,4.2,18.5,9.3,22.4,15.6C802.8,178.4,804.5,185.3,804.5,193.6z"/>
<path class="st1" d="M911.7,123.1c-11.4-12.4-26.3-18.6-44.6-18.6c-15.7,0-29.5,6.4-41.5,19.1c-12,12.8-18,28.1-18,46.2
	c0,18,6.2,33.4,18.5,46.2c12,12.5,26.1,18.7,42.3,18.7c17.4,0,31.9-6.5,43.6-19.6c11.2-12.5,16.8-27.6,16.8-45.4
	C928.9,151.1,923.2,135.5,911.7,123.1z M891.8,195.1c-6.5,7.3-14.2,10.9-23.2,10.9c-8.9,0-16.5-3.5-22.9-10.5
	c-6.4-7-9.6-15.3-9.6-25.1c0-9.8,3.1-18.6,9.2-26.3c6.1-7.7,13.7-11.5,22.9-11.5c9.8,0,17.9,3.8,24.3,11.3c6,7.2,9.1,15.8,9.1,25.8
	C901.5,179.4,898.2,187.8,891.8,195.1z"/>
<polygon class="st1" points="965.8,229.6 937.7,232.7 937.7,67.3 965.8,64.4 "/>
<path class="st1" d="M1078.1,123.1c-11.4-12.4-26.3-18.6-44.6-18.6c-15.7,0-29.5,6.4-41.5,19.1c-12,12.8-18,28.1-18,46.2
	c0,18,6.2,33.4,18.5,46.2c12,12.5,26.1,18.7,42.3,18.7c17.4,0,31.9-6.5,43.6-19.6c11.2-12.5,16.8-27.6,16.8-45.4
	C1095.3,151.1,1089.6,135.5,1078.1,123.1z M1058.2,195.1c-6.5,7.3-14.2,10.9-23.2,10.9c-8.9,0-16.5-3.5-22.9-10.5
	c-6.4-7-9.6-15.3-9.6-25.1c0-9.8,3.1-18.6,9.2-26.3c6.1-7.7,13.7-11.5,22.9-11.5c9.8,0,17.9,3.8,24.3,11.3c6,7.2,9.1,15.8,9.1,25.8
	C1067.9,179.4,1064.6,187.8,1058.2,195.1z"/>
<polygon class="st2" points="1249,107.3 1198.4,235.1 1168.3,161.8 1138,235.1 1088,107.3 1117,103.1 1139.2,168 1169.4,97 
	1198.2,167.1 1220.2,104.2 "/>
<path class="st2" d="M1319.6,105.5l-10.4,32.2c-1.3-0.2-2.9-0.3-5-0.3c-2.7,0-5.9,0.8-9.6,2.2c-5,2.2-9,5.8-11.8,10.9
	c-3.6,6.5-5.4,15.2-5.4,26.1v52.9l-27.4,2.8V109.5l26-2.1v19.2c1-3.4,4.6-7.7,10.7-12.9c5.1-4.3,10.2-7,15.2-7.9
	c5-0.9,8.5-1.4,10.5-1.4C1314.1,104.5,1316.5,104.9,1319.6,105.5z"/>
<path class="st2" d="M1393,112.8c-7.2-6.6-17-9.9-29.4-9.9c-4.9,0-11.9,0.8-21,2.2c-7.2,1.2-11.1,1.9-11.6,2.2l-6.9,32.2
	c0.9-1,4-2.6,9.1-4.7c7.2-2.9,14.4-4.3,21.7-4.3c9.5,0,16,1.6,19.5,4.7c2.8,2.5,4.2,6.8,4.2,12.8c0,1.8,0,3.4,0,4.7c0,1.3,0,2.6,0,4
	c-2.6-2.1-4.9-3.6-6.9-4.5c-5.9-2.9-12.2-4.3-19-4.3c-11,0-20.5,4-28.6,11.9s-12.1,17.7-12.1,29.2c0,13,3.9,23.7,11.8,32
	c7.5,8,16.9,11.9,28.1,11.9c6.7,0,13.5-1.9,20.4-5.7c2.2-1.2,4.9-3,8.2-5.5v10.4l24.5-2.6v-86.1C1404.8,130.2,1400.8,120,1393,112.8
	z M1372,203c-3.5,3.4-7.6,5.1-12.4,5.1c-5.7,0-10.5-1.7-14.4-5.1c-3.9-3.4-5.9-7.8-5.9-13.2c0-5.1,1.8-9.3,5.4-12.6
	c3.6-3.3,7.9-5,12.8-5c5.4,0,10,1.6,13.9,4.9c3.9,3.3,5.8,7.6,5.8,13.1C1377.3,195.3,1375.6,199.6,1372,203z"/>
<path class="st2" d="M1515.5,122.6c-11.6-12.1-25.8-18.1-42.5-18.1c-8.8,0-16.9,2.8-24.3,8.4c-1.7,1.3-4.5,4.1-8.5,8.4v-14
	l-27.4,2.2v163.3l28.1-2.4v-49c3.6,3,6.5,5.2,8.8,6.6c7,4.3,13.7,6.4,20.1,6.4c18,0,33-6.5,45.1-19.4c12.1-13,18.1-28.8,18.1-47.6
	C1532.9,149.7,1527.1,134.7,1515.5,122.6z M1493.9,196.2c-6.8,6.2-14.7,9.3-23.8,9.3c-8.6,0-15.8-3.6-21.8-10.9s-8.9-15.6-8.9-25.2
	c0-1.7,0.1-3,0.2-3.8c0.8-9.3,4.5-17.1,11.1-23.3c6.5-6.2,14.1-9.3,22.7-9.3c0.9,0,2.4,0.1,4.2,0.3c8.7,1.2,15.6,5.6,20.7,13.3
	c4.7,7.1,7.1,15.7,7.1,25.7C1504.4,182.1,1500.6,190,1493.9,196.2z"/>
<path class="st2" d="M1024.7,445.3c4.4,0.4,7.4,6,6.6,12.5c-0.7,6.3-5.1,10.9-9.5,10.5c-4.4-0.4-7.4-5.9-6.6-12.2
	S1020.3,444.9,1024.7,445.3z"/>
<path class="st2" d="M1056.8,445.3c4.4,0.4,7.4,6,6.6,12.5c-0.7,6.3-5.1,10.9-9.5,10.5c-4.4-0.4-7.4-5.9-6.6-12.2
	S1052.3,444.9,1056.8,445.3z"/>
<path class="st2" d="M1088.8,445.3c4.4,0.4,7.4,6,6.6,12.5c-0.7,6.3-5.1,10.9-9.5,10.5c-4.4-0.4-7.4-5.9-6.6-12.2
	S1084.4,444.9,1088.8,445.3z"/>
<path class="st2" d="M1154.9,427.3c-12.4,18.1-25.3,28.7-31.8,28.7c-1.8,0-3.2-2.4-3.2-6.5c0-5.6,1.3-12.8,3.4-20.3
	c1.4,0,4.3,0.4,7.7-0.7c9.8-3.2,26.6-18.8,26.6-29.4c0-11.8-8.3-20.9-16.8-20.9c-15.3,0-34.4,44.2-34.4,67.9
	c0,9.4,8.7,20.8,17.1,20.8c9.6,0,27.8-24.1,31.6-34.4C1155.4,431.3,1156,427.5,1154.9,427.3z M1145.3,387.7c1.6,0,2.3,2.2,1.7,6
	c-2,12.7-10.5,23.4-15.5,26.6c-2.4,1.6-3.8,1.8-6.2,2.1C1131.1,405.3,1140.3,387.7,1145.3,387.7z"/>
<path class="st2" d="M1149.5,456.2c0-3.2,4-21.9,11.7-48.3c3.1-11,9.7-31.9,12.9-41.2c2.1-6.2,4.8-13.4,6.3-15.7
	c0.3-0.6,1.1-1.5,1.7-1.5c3.6-0.1,9.8,5.7,10,7.1c-1.2,1-3.5,7.7-5.1,11.9c-3.5,10-16.1,50-20.8,70.8c-3.4,14.9-5.9,25-4.5,29.4
	C1157.1,467.5,1149.6,460.2,1149.5,456.2z"/>
<path class="st2" d="M1260.6,468.7c-4.5-1.2-12.7-8.8-12.7-12.8c0-10.6,12.1-52.4,17.1-65.1c-7.3,8.8-15.7,24.3-22.2,40.2
	c-3.3,7.9-10.4,26.8-10.4,33.4c0,0.7,0.1,1.3,0.2,1.5c-4.5-1.2-11.7-8.8-11.7-12.8c0-3.7,7.4-41.4,15.6-62.6
	c-5.4,5.3-15.9,25-22.1,40.8c-1.9,4.7-10.1,25.6-10.1,32.4c0,0.7,0,1.8,0.1,2.4c-4.5-1.2-11.1-8.7-11.1-12.7
	c0-6.6,11.7-55,19.3-70.4c0.3-0.7,1-1,1.7-1c3.6,0,9.8,5.9,9.7,7.2c-1.5,0.1-7,16.8-11.7,34.4c7.8-18.3,18.9-39.6,24.9-42.5
	c3.6-1.8,11.5,6.2,12,9.4c-4.1,12.2-8.1,26.8-11.2,39.9c6.9-18.3,21-46.4,28.6-50.5c3.5-1.9,11.7,7.4,12,10
	C1274.6,400.6,1256.8,464.6,1260.6,468.7z"/>
<path class="st2" d="M1318.8,427.3c-12.4,18.1-25.3,28.7-31.8,28.7c-1.8,0-3.2-2.4-3.2-6.5c0-5.6,1.3-12.8,3.4-20.3
	c1.4,0,4.3,0.4,7.7-0.7c9.8-3.2,26.6-18.8,26.6-29.4c0-11.8-8.3-20.9-16.8-20.9c-15.3,0-34.4,44.2-34.4,67.9
	c0,9.4,8.7,20.8,17.1,20.8c9.6,0,27.8-24.1,31.6-34.4C1319.3,431.3,1319.9,427.5,1318.8,427.3z M1309.2,387.7c1.6,0,2.3,2.2,1.7,6
	c-2,12.7-10.5,23.4-15.5,26.6c-2.4,1.6-3.8,1.8-6.2,2.1C1295,405.3,1304.2,387.7,1309.2,387.7z"/>
<path class="st2" d="M1325.5,459.1c-3.3,13.5-6.3,27.5-8.8,42.5c-0.4,3.5-1,7.2-1.3,12.2c-0.3,0.3-0.6,0.4-1,0.4
	c-2.9,0-10.2-10-10.2-12.4c0-6,4.2-26.1,9.4-47c3.9-16.3,7.4-30.5,15.1-55.9c2.3-7.2,4.7-13.7,6.2-15.9c0.4-0.6,1.1-1.3,1.8-1.3
	c3.5-0.1,10.1,5.9,10.2,7.2c-0.9,0.7-2.6,5-4,8.8C1338,410.6,1330.5,438.5,1325.5,459.1z"/>
<path class="st2" d="M1348.5,347.4c4.4,0,7.5,5.3,6.8,11.8c-0.7,6.5-5,11.6-9.4,11.6c-4.4,0-7.5-5.2-6.7-11.6
	C1339.9,352.7,1344.1,347.4,1348.5,347.4z"/>
<path class="st2" d="M1377.2,380.1h-0.6c-1.5-0.7-3-1.8-5.2-1.8c-14.7,0-34.5,38.1-34.5,65.4c0,14,9.2,23.1,18,23.1
	c15.3,0,34.4-38.7,34.4-68.7C1389.3,392.6,1383.7,380.1,1377.2,380.1z M1353.6,458c-2.8,0-3.6-4.1-3.6-7.8c0-21.9,16.8-64.2,26-64.2
	c1.9,0,2.1,5.4,2.1,7.1C1377.6,409.7,1362,458,1353.6,458z"/>
<path class="st2" d="M1426.6,414.8c-0.4-3.2,1.6-20.6,2.7-27.8c-8.5,11.2-18.1,28.1-25.3,47c-2.6,6.9-8.2,23.4-8.2,29.9
	c0,0.7,0.1,1.8,0.2,2.2c-4.5-1.2-11.5-8.7-11.5-12.7c0-6.6,11.7-55,19.3-70.4c0.3-0.7,1-1,1.7-1c3.6,0,10.2,5.7,10.1,7.1
	c-1.5,0.3-7,16.8-11.7,34.3c5.5-17.1,21.9-45.5,26-45.5c5.6,0,12.8,7.7,13.2,10.9c-0.4,1.2-3.5,7.2-6.6,13.4c-3.2,6.6-6.5,14.3-7,15
	C1428.8,417.5,1426.7,415.9,1426.6,414.8z"/>
<path class="st2" d="M1485.3,452.5c-0.1-0.6-0.2-1.9-0.2-3.8c0-8.7,1.3-28.8,3.2-42.8c-8.9,19.3-21.1,58.4-21.9,60.2
	c-4.1,0-12-7.8-13-12.2c-0.1-0.4-0.2-1.8-0.2-3.2c0.4-12.8,7.7-55.2,11.2-67c1.1-3.1,13.5,2.2,13.2,6.3
	c-1.5,2.5-10.7,45.9-11.3,58.3c6.2-17.4,20.2-51.7,24.3-58.7c1.5-3.2,12.3,2.6,12.4,6.3c-1.3,2.6-4.5,47.1-4.1,55.2
	c2.3-8.8,23.6-70.1,27.4-73.6c1.4-1.6,7.1,1,8.2,3.2c-4.2,3.8-14.5,28.7-22.4,50c-6.7,17.8-12.3,33.9-12.4,35.3
	C1495.2,466.1,1485.8,456.8,1485.3,452.5z"/>
<path class="st2" d="M1559,414.8c-0.4-3.2,1.6-20.6,2.7-27.8c-8.5,11.2-18.1,28.1-25.3,47c-2.6,6.9-8.2,23.4-8.2,29.9
	c0,0.7,0.1,1.8,0.2,2.2c-4.5-1.2-11.5-8.7-11.5-12.7c0-6.6,11.7-55,19.3-70.4c0.3-0.7,1-1,1.7-1c3.6,0,10.2,5.7,10.1,7.1
	c-1.5,0.3-7,16.8-11.7,34.3c5.5-17.1,21.9-45.5,26-45.5c5.6,0,12.8,7.7,13.2,10.9c-0.4,1.2-3.5,7.2-6.6,13.4c-3.2,6.6-6.5,14.3-7,15
	C1561.2,417.5,1559.1,415.9,1559,414.8z"/>
<path class="st2" d="M1614.2,382c-0.6,0-1.3,0.9-1.6,1.3c-1,1.6-2.5,5-4.1,9.6c-2.7-9.9-10.3-13.5-16.8-13.5c-4.1,0-9.7,6.6-14.6,16
	c-8.4,16.3-16,40.9-16,54c0,7.9,9.4,17.7,16.7,17.7c2.2,0,11-18.3,20.1-38.4c-1.7,6.2-5.9,23.4-5.9,27.4c0,4,7.8,11.5,12.3,12.7
	c-0.2-0.7-0.3-1.9-0.3-3.2c0.1-5.9,2.5-16.6,5.5-28.8c2.1-8.7,5.1-20.3,9.9-35.2c1.4-4.3,3.8-10.9,5.1-11.9
	C1624.3,387.7,1617.8,381.9,1614.2,382z M1575.5,456.8c-0.7,0-1.2-1.2-1.2-2.5c-0.3-17.2,16.3-64.3,25.3-64.3c3.3,0,4.9,4.4,5.9,8.8
	C1596.6,420.6,1579,456.8,1575.5,456.8z"/>
<path class="st2" d="M1673,393c-0.7-5.2-7.5-13.7-12.9-13.7c-5.6,0-19.8,22.1-24.6,36.1c2.6-9.1,3.3-11.9,5.4-17.4
	c1.4-3.8,3.1-8.1,4-8.8c-0.1-1.3-6.7-7.4-10.2-7.2c-0.7,0-1.4,0.7-1.8,1.3c-1.4,2.2-3.9,8.7-6.2,15.9c-6.7,21.9-11.6,41.8-15.1,55.9
	c-5.1,20.9-9.4,40.9-9.4,47c0,2.4,7.3,12.4,10.2,12.4c0.4,0,0.7-0.1,1-0.4c0.3-5,0.9-8.7,1.3-12.2c2.5-15,5.5-29,8.8-42.5l1.7-7.1
	c5.1,7.9,11.4,13.8,18.7,13.8c13.3,0,22.5-33,25.9-47.1C1672.3,408.6,1673.7,398.5,1673,393z M1656.2,414.2
	c-3.1,13.4-11.3,40-19.2,40.2c-3.8,0-8.2-3.4-10.1-6.6c2.9-11.3,24.6-59.2,32.5-59.2c0.9,0,0.9,1.9,0.9,2.6
	C1660.3,395.5,1658.5,404.4,1656.2,414.2z"/>
<path class="st2" d="M1681.1,445.3c4.4,0.4,7.4,6,6.6,12.5c-0.7,6.3-5.1,10.9-9.5,10.5s-7.4-5.9-6.6-12.2S1676.6,444.9,1681.1,445.3
	z"/>
<path class="st2" d="M1687.4,393.9c4.6-16.6,12.3-41.4,16.5-48.7c0.4-0.7,1.1-1,1.9-1c3.6,0.1,9.7,5.6,9.6,6.8
	c-1.3,1-3.7,7.9-5.2,12.5c-5.8,16.2-12.9,39.4-16.9,55.2c-2,8.1-3.9,16.3-3,17.7c-4.9-1.2-10.8-5.2-10.8-9.3
	C1679.5,424.1,1683,409.4,1687.4,393.9z"/>
<g>
	<path class="st3" d="M1609.6,42.6c1-0.6,1.7-1.4,2.2-2.5c0.5-1.1,0.8-2.3,0.8-3.8c0-1.4-0.3-2.7-0.8-3.8c-0.5-1.1-1.2-1.9-2.2-2.5
		c-0.9-0.6-2-0.9-3.3-0.9h-12.1v14.3h12.1C1607.6,43.5,1608.7,43.2,1609.6,42.6z"/>
	<path class="st2" d="M1613.7,69.2h7.7l-10.7-20.2c0.8-0.3,1.6-0.6,2.3-1c2-1.1,3.6-2.7,4.7-4.7c1.1-2,1.7-4.4,1.7-7
		c0-2.6-0.6-5-1.7-7c-1.1-2-2.7-3.6-4.7-4.7c-2-1.1-4.4-1.7-7-1.7h-11.8h-3.7h-2.8v46.2h6.5V49.6h9.6L1613.7,69.2z M1594.3,29.1
		h12.1c1.2,0,2.3,0.3,3.3,0.9c0.9,0.6,1.7,1.4,2.2,2.5c0.5,1.1,0.8,2.3,0.8,3.8c0,1.4-0.3,2.7-0.8,3.8c-0.5,1.1-1.3,1.9-2.2,2.5
		c-1,0.6-2,0.9-3.3,0.9h-12.1V29.1z"/>
</g>
<circle class="st4" cx="1603.6" cy="46.3" r="34.1"/>
</svg>
