<svg version="1.1" xmlns="http://www.w3.org/2000/svg" xmlns:xlink="http://www.w3.org/1999/xlink" x="0px" y="0px"
	 viewBox="0 0 641.5 642.8" style="enable-background:new 0 0 641.5 642.8;" xml:space="preserve">
<g id="Barras">
	<polygon class="st0 barra" points="168.4,286.9 8.3,252.7 9.3,248 169.4,282.3"/>
	<polygon class="st1 barra" points="179.9,253.8 30.5,186.8 32.8,181.8 182.2,248.8"/>
	<polygon class="st2 barra" points="197.2,224.9 65.2,128.2 69,123.1 201,219.8"/>
	<polygon class="st3 barra" points="219.6,200.9 110.9,78.5 116.2,73.8 224.9,196.2"/>
	<polygon class="st4 barra" points="246,182.3 166.1,39.4 173,35.6 253,178.5"/>
	<polygon class="st5 barra" points="275.9,169.7 229.3,12.8 237.7,10.4 284.3,167.3"/>
	<polygon class="st6 barra" points="308.9,163.8 298.6,0.5 308,0 318.3,163.3"/>
	<polygon class="st7 barra" points="344.3,165.4 370.7,3.9 380.8,5.7 354.4,167.2"/>
	<polygon class="st8 barra" points="377.2,174.3 438.2,22.5 448.4,26.7 387.3,178.5"/>
	<polygon class="st9 barra" points="406.9,189.8 498.8,54.3 508.5,61 416.6,196.5"/>
	<polygon class="st10 barra" points="432.8,210.9 550.8,97.5 559.4,106.7 441.4,220.1"/>
	<polygon class="st11 barra" points="453.8,236.9 592.8,150.4 599.7,161.8 460.7,248.3"/>
	<polygon class="st12 barra" points="468.9,266.4 623.1,211.5 627.7,224.9 473.5,279.7"/>
	<polygon class="st13 barra" points="477.4,298.6 639.9,279 641.6,293.8 479.1,313.4"/>
	<polygon class="st14 barra" points="478.7,332.5 641.5,350.2 639.6,365.8 476.9,348.1"/>
	<polygon class="st15 barra" points="472.7,364.8 627.4,418.3 621.9,433.8 467.2,380.3"/>
	<polygon class="st16 barra" points="460,394.7 599.5,480.4 590.3,495 450.8,409.4"/>
	<polygon class="st17 barra" points="440.9,421.7 559.5,534.6 546.9,547.5 428.4,434.6"/>
	<polygon class="st18 barra" points="416.3,444.6 509.1,579.4 493.6,589.9 400.7,455.2"/>
	<polygon class="st19 barra" points="386.8,462.4 450.1,613.4 432,620.9 368.7,469.9"/>
	<polygon class="st20 barra" points="353.4,474.3 384,635.1 364,638.8 333.3,478"/>
	<polygon class="st21 barra" points="316.3,479.2 312.4,642.8 291.3,642.2 295.2,478.6"/>
	<polygon class="st22 barra" points="280.5,476.5 239.8,635.1 218.6,629.5 259.2,471"/>
	<polygon class="st23 barra" points="249.7,467.3 173.3,612 153.3,601.3 229.6,456.6"/>
	<polygon class="st24 barra" points="223.2,452.1 115.4,575.2 97.7,559.7 205.6,436.5"/>
	<polygon class="st25 barra" points="200.7,431 67.9,526.8 53.8,507.1 186.5,411.3"/>
	<polygon class="st26 barra" points="182.6,404.3 32.3,469.2 22.4,446.2 172.7,381.3"/>
	<rect x="5.3" y="362.8" transform="matrix(0.9801 -0.1984 0.1984 0.9801 -72.8169 24.7599)" class="st27 barra" width="163.7" height="25.9"/>
	<rect class="barra" y="308.5" width="163.7" height="26.6"/>
</g>
<g id="adminSymbol">
	<path d="M287.1,252.9h57.3c9.1,0,16.5-7.4,16.5-16.5s-7.4-16.5-16.5-16.5h-3c-1.3-9.2-9.2-16.4-18.8-16.4h-13.8
		c-9.6,0-17.5,7.2-18.8,16.4h-2.9c-9.1,0-16.5,7.4-16.5,16.5C270.6,245.6,278,252.9,287.1,252.9L287.1,252.9z"/>
	<path d="M366.2,214.9H356c6.1,3.4,10.7,9.2,12.3,16.3c12.4,1.1,22.2,11.5,22.2,24.2v145.3c0,13.4-10.9,24.3-24.3,24.3h-101
		c-13.4,0-24.3-10.9-24.3-24.3V255.4c0-12.7,9.8-23.2,22.2-24.2c1.6-7,6.1-13,12.3-16.3h-10.2c-22.3,0-40.5,18.2-40.5,40.5v145.3
		c0,22.3,18.2,40.5,40.5,40.5h101c22.3,0,40.5-18.2,40.5-40.5V255.4C406.7,233.1,388.6,214.9,366.2,214.9L366.2,214.9z"/>
	<path d="M366,281.1h-50.2c-4.5,0-8.1,3.6-8.1,8.1s3.6,8.1,8.1,8.1H366c4.5,0,8.1-3.6,8.1-8.1S370.4,281.1,366,281.1L366,281.1z"/>
	<path d="M366,324.3h-50.2c-4.5,0-8.1,3.6-8.1,8.1s3.6,8.1,8.1,8.1H366c4.5,0,8.1-3.6,8.1-8.1S370.4,324.3,366,324.3L366,324.3z"/>
	<path d="M366,367.5h-50.2c-4.5,0-8.1,3.6-8.1,8.1s3.6,8.1,8.1,8.1H366c4.5,0,8.1-3.6,8.1-8.1S370.4,367.5,366,367.5L366,367.5z"/>
	<path d="M303.6,289.2c0-13.4-10.9-24.3-24.3-24.3S255,275.8,255,289.2c0,9.4,5.3,17.5,13.2,21.6c-7.8,4-13.2,12.2-13.2,21.6
		s5.3,17.5,13.2,21.6c-7.8,4-13.2,12.2-13.2,21.6c0,13.4,10.9,24.3,24.3,24.3s24.3-10.9,24.3-24.3c0-9.4-5.3-17.6-13.2-21.6
		c7.8-4.1,13.2-12.2,13.2-21.6s-5.3-17.6-13.2-21.6C298.3,306.7,303.6,298.6,303.6,289.2L303.6,289.2z M294.3,364.9
		c1.8,1.8,1.8,4.7,0,6.5l-14.8,14.8c-0.9,0.9-2.1,1.4-3.2,1.4s-2.4-0.5-3.2-1.4l-8.7-8.7c-1.8-1.8-1.8-4.7,0-6.5s4.7-1.8,6.5,0
		l5.5,5.5l11.5-11.5C289.5,363.2,292.4,363.2,294.3,364.9L294.3,364.9z M294.3,321.7c1.8,1.8,1.8,4.7,0,6.5L279.5,343
		c-0.9,0.9-2.1,1.4-3.2,1.4s-2.4-0.5-3.2-1.4l-8.7-8.7c-1.8-1.8-1.8-4.7,0-6.5s4.7-1.8,6.5,0l5.5,5.5l11.5-11.5
		C289.5,320,292.4,320,294.3,321.7L294.3,321.7z M294.3,285l-14.8,14.8c-0.9,0.9-2.1,1.4-3.2,1.4s-2.4-0.5-3.2-1.4l-8.7-8.7
		c-1.8-1.8-1.8-4.7,0-6.5s4.7-1.8,6.5,0l5.5,5.5l11.5-11.5c1.8-1.8,4.7-1.8,6.5,0C296,280.3,296,283.2,294.3,285L294.3,285z"/>
</g>
</svg>
