<svg version="1.1" xmlns="http://www.w3.org/2000/svg" xmlns:xlink="http://www.w3.org/1999/xlink" x="0px" y="0px"
	 viewBox="0 0 641.5 642.8" style="enable-background:new 0 0 641.5 642.8;" xml:space="preserve">
<g id="Barras">
	<polygon class="st0 barra" points="168.4,286.9 8.3,252.7 9.3,248 169.4,282.3"/>
	<polygon class="st1 barra" points="179.9,253.8 30.5,186.8 32.8,181.8 182.2,248.8"/>
	<polygon class="st2 barra" points="197.2,224.9 65.2,128.2 69,123.1 201,219.8"/>
	<polygon class="st3 barra" points="219.6,200.9 110.9,78.5 116.2,73.8 224.9,196.2"/>
	<polygon class="st4 barra" points="246,182.3 166.1,39.4 173,35.6 253,178.5"/>
	<polygon class="st5 barra" points="275.9,169.7 229.3,12.8 237.7,10.4 284.3,167.3"/>
	<polygon class="st6 barra" points="308.9,163.8 298.6,0.5 308,0 318.3,163.3"/>
	<polygon class="st7 barra" points="344.3,165.4 370.7,3.9 380.8,5.7 354.4,167.2"/>
	<polygon class="st8 barra" points="377.2,174.3 438.2,22.5 448.4,26.7 387.3,178.5"/>
	<polygon class="st9 barra" points="406.9,189.8 498.8,54.3 508.5,61 416.6,196.5"/>
	<polygon class="st10 barra" points="432.8,210.9 550.8,97.5 559.4,106.7 441.4,220.1"/>
	<polygon class="st11 barra" points="453.8,236.9 592.8,150.4 599.7,161.8 460.7,248.3"/>
	<polygon class="st12 barra" points="468.9,266.4 623.1,211.5 627.7,224.9 473.5,279.7"/>
	<polygon class="st13 barra" points="477.4,298.6 639.9,279 641.6,293.8 479.1,313.4"/>
	<polygon class="st14 barra" points="478.7,332.5 641.5,350.2 639.6,365.8 476.9,348.1"/>
	<polygon class="st15 barra" points="472.7,364.8 627.4,418.3 621.9,433.8 467.2,380.3"/>
	<polygon class="st16 barra" points="460,394.7 599.5,480.4 590.3,495 450.8,409.4"/>
	<polygon class="st17 barra" points="440.9,421.7 559.5,534.6 546.9,547.5 428.4,434.6"/>
	<polygon class="st18 barra" points="416.3,444.6 509.1,579.4 493.6,589.9 400.7,455.2"/>
	<polygon class="st19 barra" points="386.8,462.4 450.1,613.4 432,620.9 368.7,469.9"/>
	<polygon class="st20 barra" points="353.4,474.3 384,635.1 364,638.8 333.3,478"/>
	<polygon class="st21 barra" points="316.3,479.2 312.4,642.8 291.3,642.2 295.2,478.6"/>
	<polygon class="st22 barra" points="280.5,476.5 239.8,635.1 218.6,629.5 259.2,471"/>
	<polygon class="st23 barra" points="249.7,467.3 173.3,612 153.3,601.3 229.6,456.6"/>
	<polygon class="st24 barra" points="223.2,452.1 115.4,575.2 97.7,559.7 205.6,436.5"/>
	<polygon class="st25 barra" points="200.7,431 67.9,526.8 53.8,507.1 186.5,411.3"/>
	<polygon class="st26 barra" points="182.6,404.3 32.3,469.2 22.4,446.2 172.7,381.3"/>
	<rect x="5.3" y="362.8" transform="matrix(0.9801 -0.1984 0.1984 0.9801 -72.8169 24.7599)" class="st27 barra" width="163.7" height="25.9"/>
	<rect class="barra" y="308.5" width="163.7" height="26.6"/>
</g>
<g id="CalienteSymbol">
	<path d="M336.1,334.6c0.8,16.7-4.3,29.8-14.9,40.7c-10.4,10.7-22.6,12.5-35.9,12.1c-14.2-0.4-28.5,0.3-42.7,0.6
		c-17.4,0.4-33.2-4.1-44.1-20.8c-6.1-9.4-8.9-20.3-8.1-32.6L336.1,334.6L336.1,334.6z"/>
	<path d="M438.5,312.9c5.1,0.4,9.8,0.1,14,1.4c2.3,0.7,5.5,4.3,5.4,6.3c-0.2,2.6-2.9,5.8-5.3,7.2c-2.4,1.4-5.7,1.1-8.7,1.5
		c-15.6,1.8-31.3,2.6-46.7,5.7c-7.2,1.4-13.7,7-20.5,10.8c-1.8,1-3.2,2.6-5,3.6c-6.1,3.2-12.2,0.5-14.5-6.3
		c-2.3-6.5,0.2-13.5,6.5-15.4c14.6-4.3,29.3-8.3,44.1-11.4C418.1,314.2,428.7,313.9,438.5,312.9"/>
	<path d="M304.1,314.6c-1.1,1.6-2.1,2.8-3.3,4.4c-1.1-1.1-2.1-1.9-2.8-2.8c-8.7-10.1-9.5-21.8-2.4-33.4c0.4-0.7,0.9-1.5,1.4-2.2
		c11.5-17,11.6-19.6,0.9-37.1c1-1.2,2-2.4,3.1-3.7c0.7,0.5,1.3,0.7,1.6,1.1c11.3,14.5,11.4,25.8,0.4,41
		C293.6,295,293.8,302,304.1,314.6"/>
	<path d="M265.9,315.1c-0.8,1.1-1.6,2.3-2.4,3.6c-0.7-0.3-1.4-0.4-1.8-0.7c-10.5-10.7-11.6-23.4-3.1-36.2c1.1-1.6,2.2-3.1,3.3-4.7
		c7.7-10.6,8-18.5,0.5-29.4c-2.4-3.5-2.7-5.6,1.1-7.5c12.1,12.6,13,26.2,2.8,40.6c-4.8,6.8-10.4,13.5-6.8,23.3
		C260.8,307.7,263.5,310.9,265.9,315.1"/>
	<path d="M228.4,314.6c-1.1,1.6-1.8,2.8-2.7,4c-0.8-0.3-1.4-0.4-1.8-0.7c-10.4-10.7-11.5-23.5-3.1-36.3c1.1-1.6,2.3-3.1,3.3-4.7
		c7.8-10.7,7.9-18.4,0.6-29.4c-2.6-4-2.6-4,1-7.4c11.8,12,12.9,26.2,3.1,40c-0.5,0.7-1,1.4-1.5,2.1
		C218,295.2,218.1,301.7,228.4,314.6"/>
	<path d="M351.7,339.4c1.1,3.7,2.2,7,3.3,10.6c-5.6,2.7-11.2,5.4-16.7,8.1C341.3,341,338.5,344.6,351.7,339.4"/>
</g>
</svg>
