<svg version="1.1" xmlns="http://www.w3.org/2000/svg" xmlns:xlink="http://www.w3.org/1999/xlink" x="0px" y="0px"
	 viewBox="0 0 641.5 642.8" style="enable-background:new 0 0 641.5 642.8;" xml:space="preserve">

<g id="Barras">
	<polygon class="st0 barra" points="168.4,286.9 8.3,252.7 9.3,248 169.4,282.3"/>
	<polygon class="st1 barra" points="179.9,253.8 30.5,186.8 32.8,181.8 182.2,248.8"/>
	<polygon class="st2 barra" points="197.2,224.9 65.2,128.2 69,123.1 201,219.8"/>
	<polygon class="st3 barra" points="219.6,200.9 110.9,78.5 116.2,73.8 224.9,196.2"/>
	<polygon class="st4 barra" points="246,182.3 166.1,39.4 173,35.6 253,178.5"/>
	<polygon class="st5 barra" points="275.9,169.7 229.3,12.8 237.7,10.4 284.3,167.3"/>
	<polygon class="st6 barra" points="308.9,163.8 298.6,0.5 308,0 318.3,163.3"/>
	<polygon class="st7 barra" points="344.3,165.4 370.7,3.9 380.8,5.7 354.4,167.2"/>
	<polygon class="st8 barra" points="377.2,174.3 438.2,22.5 448.4,26.7 387.3,178.5"/>
	<polygon class="st9 barra" points="406.9,189.8 498.8,54.3 508.5,61 416.6,196.5"/>
	<polygon class="st10 barra" points="432.8,210.9 550.8,97.5 559.4,106.7 441.4,220.1"/>
	<polygon class="st11 barra" points="453.8,236.9 592.8,150.4 599.7,161.8 460.7,248.3"/>
	<polygon class="st12 barra" points="468.9,266.4 623.1,211.5 627.7,224.9 473.5,279.7"/>
	<polygon class="st13 barra" points="477.4,298.6 639.9,279 641.6,293.8 479.1,313.4"/>
	<polygon class="st14 barra" points="478.7,332.5 641.5,350.2 639.6,365.8 476.9,348.1"/>
	<polygon class="st15 barra" points="472.7,364.8 627.4,418.3 621.9,433.8 467.2,380.3"/>
	<polygon class="st16 barra" points="460,394.7 599.5,480.4 590.3,495 450.8,409.4"/>
	<polygon class="st17 barra" points="440.9,421.7 559.5,534.6 546.9,547.5 428.4,434.6"/>
	<polygon class="st18 barra" points="416.3,444.6 509.1,579.4 493.6,589.9 400.7,455.2"/>
	<polygon class="st19 barra" points="386.8,462.4 450.1,613.4 432,620.9 368.7,469.9"/>
	<polygon class="st20 barra" points="353.4,474.3 384,635.1 364,638.8 333.3,478"/>
	<polygon class="st21 barra" points="316.3,479.2 312.4,642.8 291.3,642.2 295.2,478.6"/>
	<polygon class="st22 barra" points="280.5,476.5 239.8,635.1 218.6,629.5 259.2,471"/>
	<polygon class="st23 barra" points="249.7,467.3 173.3,612 153.3,601.3 229.6,456.6"/>
	<polygon class="st24 barra" points="223.2,452.1 115.4,575.2 97.7,559.7 205.6,436.5"/>
	<polygon class="st25 barra" points="200.7,431 67.9,526.8 53.8,507.1 186.5,411.3"/>
	<polygon class="st26 barra" points="182.6,404.3 32.3,469.2 22.4,446.2 172.7,381.3"/>
	<rect x="5.3" y="362.8" transform="matrix(0.9801 -0.1984 0.1984 0.9801 -72.8169 24.7599)" class="st27 barra" width="163.7" height="25.9"/>
	<rect class="barra" y="308.5" width="163.7" height="26.6"/>
</g>
<g id="friaSymbol">
	<path d="M456.2,290.8c-7-3.5-14.9-5.3-22.5-4.5c2.4-6.1,3.1-13.6-1.6-17.9c-6.7-6.1-15.4-3.3-22.9,0.3c-2.7-5.1-5.7-10.6-6.7-16.2
		c-0.6-3.5-5.3-3.5-7-0.9c-2.8,4.4-6.8,7.8-10.7,11.2c-4.7-6.2-11.9-13.5-19.7-10.1c-0.8,0.3-1.5,0.8-2.2,1.3
		c-9.3-13.3-22-12.6-33.5-0.6c-12.9-18.6-31.5-21.9-45.1-2.1c-16.3-11.5-34.4-8.8-30.7,13.8c-9.6,0.4-17.2,9.9-21.9,17.5
		c-5.3-5.7-13.3-12-20.6-9.5c-7.9,2.6-10.2,10.4-10.3,18c-5.6-0.6-11.7-0.6-16.7-2.7c-1.9-0.8-3.8,1.2-3.8,2.9
		c-0.1,6.4,0.1,13,4.3,18.1c2.2,2.8,6.2,3.5,10,4c-1,1-1.9,2.2-2.6,3.5c-3.4,6.5-0.9,14,2.8,19.8c2.5,3.8,8.5,0.3,6.1-3.5
		c-4.2-6.5-5.2-16.5,4.8-17.7c3.8-0.4,7.2,0.9,9.7,3.7c3.8,4.1,3,10.6,2.4,15.6c-7.4,0.3-14.4,1.7-20.6,4.6
		c-0.3,0.1-0.4,0.3-0.5,0.6c-0.7-1.2-1.5-2.3-2.2-3.5c-1.7-2.7-5.3-0.8-4.9,2.1c9.7,56.2,77.4,78.6,126.7,78.7
		c55.8,0.1,115.3-28.6,134.6-83.7c1.9-5.3-4-8.1-8-6.2c-1.2-0.8-2.8-1.3-4.9-1c-2.6,0.3-5.1,0.8-7.6,1.1
		c6.3-12.2,13.8-22.1,25.8-29.8C458.6,296.2,459.1,292.2,456.2,290.8L456.2,290.8z M282.8,258.9c1.7,1.5,4.4,1.3,5.6-0.7
		c10.3-17,28.3-12.9,37.5,2.9c1.5,2.6,4.7,2.1,6.3,0c12.7-8.3,21.5-8.9,26.5-2c-3,6.3-1.7,14.9-0.1,21.3c0.3,1,0.8,1.5,1.5,1.7
		c-1.6,1.4-3.2,3.1-4.7,5c-2.2-3.6-4.2-7.4-5.3-11.3c-0.7-2.4-4.4-3.9-6.1-1.6c-5.1,6.6-11.4,11.1-15.7,18
		c-5.5-4.9-13.2-10.7-19.9-7.6c-9,4-6.5,14.3-4.2,21.9c0.7,2.2,3.7,1.3,3.3-0.9c-3.2-7.7-0.2-12.4,9-14.1c3.8,2.2,7.3,4.9,10.4,8.1
		c1.4,1.3,4,1.3,4.9-0.6c3-6.1,8.5-10.4,13.4-15.1c2,4.3,4.7,8.3,6.9,12.4c1.3,2.3,5,2.4,6.3,0c3.6-6.9,8.2-13.3,16.7-13.8
		c11.4-0.6,10.3,14.3,8.9,21.5c-23.8-9.4-61.6,5.7-51.8,38.9c-1,0.1-2.2,0.1-3.2,0.2c-6.9-13.7-16.3-31.8-29-34.7
		c2.1-7.6,1-16.5-3.1-22.9c-5.4-8.4-15.7-7.5-24-4.4c-2.8-7.4-6.9-13.9-14.9-15.5C258.2,251.4,273.3,250.2,282.8,258.9L282.8,258.9z
		 M255.9,338.9c-10.3-1.9-21-3.7-31.2-4c0.8-5.6,0.1-11.5-2.3-16.4c0.1-0.1,0.1-0.1,0.1-0.1c9.2-4.4,18.6-6.7,28.8-4.2
		c6,1.5,10.2,5,14,9.2c-4.8,2.9-8.4,7.5-9.6,13.8C255.7,337.7,255.8,338.3,255.9,338.9L255.9,338.9z M223.4,315
		c3.2-12.2,17.1-12.6,27.9-10c9.9,2.4,17.5,7.6,23.9,14.7c-1.3,0.2-2.5,0.5-3.7,0.8C260.1,306.1,239.5,306.7,223.4,315L223.4,315z
		 M262.4,338.9c1.3-4.7,4-7.9,7.9-9.8c0.5,0.6,1,1.3,1.6,1.9c2,2.4,5.1-0.7,4-3.1c-0.1-0.1-0.1-0.3-0.2-0.4c4-0.6,8,0.2,11.9,1
		c3.5,5,6.7,10.2,10.1,15.4c-5.4-0.1-10.8-0.4-16.3-0.9c-6-0.6-12.6-1.7-19.5-3C262.1,339.6,262.3,339.3,262.4,338.9L262.4,338.9z
		 M293.8,329.4c0.1,0,0.1,0,0.2,0c3.3,0.2,4.2-4.4,1.6-5.9c-2.3-1.4-4.9-2.4-7.5-3.2c-0.6-0.8-1.1-1.7-1.8-2.5
		c1.7-1.5,3.5-2.4,5.1-3.1c-0.1,2.8,3.5,3.1,4.9,1.3c0.6-0.8,1-1.6,1.5-2.4c4.9,0.4,9.3,4,13.5,10c4.3,6.3,7.4,13.1,10.9,19.9
		c-7,0.4-14.1,0.6-21.2,0.5C298.6,339.1,296.3,334.1,293.8,329.4L293.8,329.4z M205.2,308.6c-1.3,0.1-2.5,0.4-3.7,0.8c0,0,0,0-0.1,0
		c-3.2-0.9-6.4-1.6-9.6-2.6c-4.8-1.5-5.4-6.9-5.5-11.7c5.5,0.8,11-0.1,16.5,1.8c1.9,0.6,3.3-1,3.5-2.6c0.7-5.8,1.3-16.4,9.7-14.8
		c6,1.1,10.6,6.9,14.6,11c2.7,2.8,6.3-1,4.3-4c9.6-14.5,27.4-23.5,32.2-0.1c0.3,1.7,2.6,3.1,4.3,2.4c8.7-3.5,18.2-5.5,21.5,5.8
		c1.4,4.5,0.3,9.1-0.7,13.6c-3.6,0.9-7.5,3.1-11.7,6.8c-15.8-18.1-59.1-29.3-61.2-0.9C216.4,310.3,211.6,307.9,205.2,308.6
		L205.2,308.6z M436.5,338.5c-22,45.2-71.2,65.9-120.2,67.2c-51.8,1.4-91.1-21.8-118.2-63.4c0.1,0,0.2,0.1,0.3,0.1
		c11.7-2.7,29.5,3.1,40.9,4.9c15.8,2.5,31.5,5.1,47.4,6.9C337.4,360.1,386.7,345.5,436.5,338.5L436.5,338.5z M360,319
		c10.5-1.2,18.3,7.8,21.4,16.8c-11.1,1.9-22.2,3.7-33.4,5.1c0-0.1,0-0.3,0-0.6C346.4,331,349.1,320.2,360,319L360,319z M421.2,328.1
		c-0.1,0.3-0.1,0.6-0.1,0.8c-11.3,1.9-22.6,3.9-33.8,5.8c0-0.2,0-0.3-0.1-0.6c-4-12.4-15.1-23.8-29.2-21.1
		c-13.9,2.7-17.6,16-13.1,28.1l0,0c-2.7,0.3-5.4,0.7-8.1,1c-4.1-17.6,6-30.4,23.3-34.1c17.6-3.8,30.4,5.9,35.7,21.9
		c1.1,3.3,6.3,2.8,6.2-0.8c-0.3-10.1-4.9-17.3-11.5-22c0.1-0.1,0.1-0.2,0.2-0.4c6.4-24.5-12-36.7-27.2-27.4c0-0.1,0.1-0.3,0-0.5
		c-0.7-4.6-1.2-9.1-0.2-13.5c2.3,0.3,4.7-2.2,3.4-4.9c-0.2-0.4-0.4-0.8-0.6-1.1c5.1-4.7,14.1,9,15,10.4c1.3,2,3.8,2.3,5.6,0.7
		c3.6-3.1,7.2-5.9,10.4-9.2c1.9,5,4.8,9.9,7.1,14.5c1,1.9,3.5,2.3,5.3,1.4c3.4-1.8,14.9-8.7,17.6-1.7c1.3,3.5-0.4,8.3-1.3,12.6
		c-2.6,1-5.3,2.4-7.6,4.4c-11.1,9-16.3,23.3-12,37.1c0.5,1.6,3.1,1.3,3-0.4c-1.3-22,15.7-40,36.6-34
		C434.6,303.6,426,314.7,421.2,328.1L421.2,328.1z"/>
</g>
</svg>
