<svg version="1.1" xmlns="http://www.w3.org/2000/svg" xmlns:xlink="http://www.w3.org/1999/xlink" x="0px" y="0px"
	 viewBox="0 0 641.6 642.8" style="enable-background:new 0 0 641.6 642.8;" xml:space="preserve">
<g id="Barras">
	<polygon class="st0 barra" points="168.4,286.9 8.3,252.7 9.3,248 169.4,282.3"/>
	<polygon class="st1 barra" points="179.9,253.8 30.5,186.8 32.8,181.8 182.2,248.8"/>
	<polygon class="st2 barra" points="197.2,224.9 65.2,128.2 69,123.1 201,219.8"/>
	<polygon class="st3 barra" points="219.6,200.9 110.9,78.5 116.2,73.8 224.9,196.2"/>
	<polygon class="st4 barra" points="246,182.3 166.1,39.4 173,35.6 253,178.5"/>
	<polygon class="st5 barra" points="275.9,169.7 229.3,12.8 237.7,10.4 284.3,167.3"/>
	<polygon class="st6 barra" points="308.9,163.8 298.6,0.5 308,0 318.3,163.3"/>
	<polygon class="st7 barra" points="344.3,165.4 370.7,3.9 380.8,5.7 354.4,167.2"/>
	<polygon class="st8 barra" points="377.2,174.3 438.2,22.5 448.4,26.7 387.3,178.5"/>
	<polygon class="st9 barra" points="406.9,189.8 498.8,54.3 508.5,61 416.6,196.5"/>
	<polygon class="st10 barra" points="432.8,210.9 550.8,97.5 559.4,106.7 441.4,220.1"/>
	<polygon class="st11 barra" points="453.8,236.9 592.8,150.4 599.7,161.8 460.7,248.3"/>
	<polygon class="st12 barra" points="468.9,266.4 623.1,211.5 627.7,224.9 473.5,279.7"/>
	<polygon class="st13 barra" points="477.4,298.6 639.9,279 641.6,293.8 479.1,313.4"/>
	<polygon class="st14 barra" points="478.7,332.5 641.5,350.2 639.6,365.8 476.9,348.1"/>
	<polygon class="st15 barra" points="472.7,364.8 627.4,418.3 621.9,433.8 467.2,380.3"/>
	<polygon class="st16 barra" points="460,394.7 599.5,480.4 590.3,495 450.8,409.4"/>
	<polygon class="st17 barra" points="440.9,421.7 559.5,534.6 546.9,547.5 428.4,434.6"/>
	<polygon class="st18 barra" points="416.3,444.6 509.1,579.4 493.6,589.9 400.7,455.2"/>
	<polygon class="st19 barra" points="386.8,462.4 450.1,613.4 432,620.9 368.7,469.9"/>
	<polygon class="st20 barra" points="353.4,474.3 384,635.1 364,638.8 333.3,478"/>
	<polygon class="st21 barra" points="316.3,479.2 312.4,642.8 291.3,642.2 295.2,478.6"/>
	<polygon class="st22 barra" points="280.5,476.5 239.8,635.1 218.6,629.5 259.2,471"/>
	<polygon class="st23 barra" points="249.7,467.3 173.3,612 153.3,601.3 229.6,456.6"/>
	<polygon class="st24 barra" points="223.2,452.1 115.4,575.2 97.7,559.7 205.6,436.5"/>
	<polygon class="st25 barra" points="200.7,431 67.9,526.8 53.8,507.1 186.5,411.3"/>
	<polygon class="st26 barra" points="182.6,404.3 32.3,469.2 22.4,446.2 172.7,381.3"/>
	<rect x="5.3" y="362.8" transform="matrix(0.9801 -0.1984 0.1984 0.9801 -72.8169 24.7599)" class="st27 barra" width="163.7" height="25.9"/>
	<rect class="barra" y="308.5" width="163.7" height="26.6"/>
</g>
<g id="panSymbol">
	<path d="M253.4,438.7l-3.4-33.2c0-3,3.9-0.3,8.8-0.3s8.8-2.7,8.8,0.3l-2.7,32.5C264.9,444.9,253.4,442,253.4,438.7L253.4,438.7z
		 M239.2,330.5c-24.2-11-22.2-28.2-22.2-28.2c-3.1,6.1,3.4,59,28.6,59C256.9,361.5,266.3,342.7,239.2,330.5L239.2,330.5z
		 M239.2,292.9C215,282,217,264.8,217,264.8c-3.1,6,3.4,59.1,28.6,59.1C256.9,324,266.3,305.2,239.2,292.9L239.2,292.9z
		 M239.2,256.7C215,245.9,217,228.6,217,228.6c-3.1,6.1,3.4,59,28.6,59C256.9,287.6,266.3,268.9,239.2,256.7L239.2,256.7z
		 M272.8,361.5c25.2,0,31.7-53,28.6-59.1c0,0,2,17.2-22.2,28.2C251.9,342.7,261.4,361.5,272.8,361.5L272.8,361.5z M239.2,368.8
		C215,357.9,217,340.7,217,340.7c-3.1,6.1,3.4,59,28.6,59C256.9,399.8,266.3,381.1,239.2,368.8L239.2,368.8z M272.8,399.8
		c25.2,0,31.7-52.9,28.6-59c0,0,2,17.2-22.2,28.1C251.9,381.1,261.4,399.8,272.8,399.8L272.8,399.8z M272.8,324
		c25.2,0,31.7-53.2,28.6-59.1c0,0,2,17.2-22.2,28.1C251.9,305.2,261.4,324,272.8,324L272.8,324z M272.8,287.6
		c25.2,0,31.7-53,28.6-59c0,0,2,17.3-22.2,28.1C251.9,268.9,261.4,287.6,272.8,287.6L272.8,287.6z M260.9,259.5
		c26.7,0-1.5-57.1-1.5-57.1C256,207.8,234.2,259.5,260.9,259.5L260.9,259.5z M333.3,443.1l16.2-28.3c1.3-2.7-3.5-1.9-7.8-4
		c-4.5-2.1-6.9-6.2-8.2-3.4L322.4,439C321,442,330.3,449.5,333.3,443.1L333.3,443.1z M355.2,334.9c-17.3-20.2-8.3-34.9-8.3-34.9
		c-5.3,4.3-21.7,55.1,1.1,65.7C358.2,370.5,374.7,357.5,355.2,334.9L355.2,334.9z M371,300.9c-17.3-20.1-8.3-34.9-8.3-34.9
		c-5.3,4.3-21.8,55.1,1,65.7C374,336.5,390.5,323.6,371,300.9L371,300.9z M386.3,268c-17.3-20-8.3-34.9-8.3-34.9
		c-5.3,4.2-21.8,55,1.1,65.7C389.3,303.5,405.8,290.5,386.3,268L386.3,268z M372.6,377.2c22.9,10.6,51.2-34.8,50.9-41.6
		c0,0-5.5,16.4-32.1,16.1C361.7,351.4,362.4,372.4,372.6,377.2L372.6,377.2z M339,369.7c-17.3-20.1-8.3-34.9-8.3-34.9
		c-5.3,4.3-21.8,55.1,1.1,65.7C342.1,405.2,358.5,392.2,339,369.7L339,369.7z M356.4,411.9c22.9,10.7,51.1-34.7,50.9-41.5
		c0,0-5.5,16.4-32.1,16.1C345.5,386.3,346.2,407.1,356.4,411.9L356.4,411.9z M388.4,343.2c22.9,10.6,51.1-34.8,50.9-41.6
		c0,0-5.5,16.5-32.1,16.1C377.4,317.5,378.1,338.4,388.4,343.2L388.4,343.2z M403.7,310.1c22.9,10.7,51.1-34.7,50.9-41.5
		c0,0-5.5,16.5-32.1,16.2C392.8,284.5,393.4,305.4,403.7,310.1L403.7,310.1z M404.8,279.6c24.3,11.2,22.7-52.4,22.7-52.4
		C422.2,230.8,380.5,268.3,404.8,279.6L404.8,279.6z"/>
</g>
</svg>
