<svg version="1.1" xmlns="http://www.w3.org/2000/svg" xmlns:xlink="http://www.w3.org/1999/xlink" x="0px" y="0px"
	 viewBox="0 0 641.6 642.8" style="enable-background:new 0 0 641.6 642.8;" xml:space="preserve">

<g id="Barras">
	<polygon class="st0 barra" points="168.4,286.9 8.3,252.7 9.3,248 169.4,282.3"/>
	<polygon class="st1 barra" points="179.9,253.8 30.5,186.8 32.8,181.8 182.2,248.8"/>
	<polygon class="st2 barra" points="197.2,224.9 65.2,128.2 69,123.1 201,219.8"/>
	<polygon class="st3 barra" points="219.6,200.9 110.9,78.5 116.2,73.8 224.9,196.2"/>
	<polygon class="st4 barra" points="246,182.3 166.1,39.4 173,35.6 253,178.5"/>
	<polygon class="st5 barra" points="275.9,169.7 229.3,12.8 237.7,10.4 284.3,167.3"/>
	<polygon class="st6 barra" points="308.9,163.8 298.6,0.5 308,0 318.3,163.3"/>
	<polygon class="st7 barra" points="344.3,165.4 370.7,3.9 380.8,5.7 354.4,167.2"/>
	<polygon class="st8 barra" points="377.2,174.3 438.2,22.5 448.4,26.7 387.3,178.5"/>
	<polygon class="st9 barra" points="406.9,189.8 498.8,54.3 508.5,61 416.6,196.5"/>
	<polygon class="st10 barra" points="432.8,210.9 550.8,97.5 559.4,106.7 441.4,220.1"/>
	<polygon class="st11 barra" points="453.8,236.9 592.8,150.4 599.7,161.8 460.7,248.3"/>
	<polygon class="st12 barra" points="468.9,266.4 623.1,211.5 627.7,224.9 473.5,279.7"/>
	<polygon class="st13 barra" points="477.4,298.6 639.9,279 641.6,293.8 479.1,313.4"/>
	<polygon class="st14 barra" points="478.7,332.5 641.5,350.2 639.6,365.8 476.9,348.1"/>
	<polygon class="st15 barra" points="472.7,364.8 627.4,418.3 621.9,433.8 467.2,380.3"/>
	<polygon class="st16 barra" points="460,394.7 599.5,480.4 590.3,495 450.8,409.4"/>
	<polygon class="st17 barra" points="440.9,421.7 559.5,534.6 546.9,547.5 428.4,434.6"/>
	<polygon class="st18 barra" points="416.3,444.6 509.1,579.4 493.6,589.9 400.7,455.2"/>
	<polygon class="st19 barra" points="386.8,462.4 450.1,613.4 432,620.9 368.7,469.9"/>
	<polygon class="st20 barra" points="353.4,474.3 384,635.1 364,638.8 333.3,478"/>
	<polygon class="st21 barra" points="316.3,479.2 312.4,642.8 291.3,642.2 295.2,478.6"/>
	<polygon class="st22 barra" points="280.5,476.5 239.8,635.1 218.6,629.5 259.2,471"/>
	<polygon class="st23 barra" points="249.7,467.3 173.3,612 153.3,601.3 229.6,456.6"/>
	<polygon class="st24 barra" points="223.2,452.1 115.4,575.2 97.7,559.7 205.6,436.5"/>
	<polygon class="st25 barra" points="200.7,431 67.9,526.8 53.8,507.1 186.5,411.3"/>
	<polygon class="st26 barra" points="182.6,404.3 32.3,469.2 22.4,446.2 172.7,381.3"/>
	<rect x="5.3" y="362.8" transform="matrix(0.9801 -0.1984 0.1984 0.9801 -72.8169 24.7599)" class="st27 barra" width="163.7" height="25.9"/>
	<rect class="barra" y="308.5" width="163.7" height="26.6"/>
</g>
<g id="parrillaSymbol">
	<g>
		<path d="M377.6,398.6c-20.7,0-44.3-7.6-70-22.5c-20.7-12-42.1-15.8-60.9-19.2c-19.2-3.5-38.9-7.1-50.6-20.4
			c1.3,53.9,60.3,29.6,117,62.5c69.7,40.4,112.4,18.2,118.9-29.2C420.7,388,401.8,398.6,377.6,398.6L377.6,398.6z"/>
	</g>
	<path d="M255.6,329.1c18,2.9,38.3,6.2,58.7,16.9c21.3,11.2,40.5,16.8,57,16.8c14.6,0,26.8-4.7,34.9-13.6
		c7.9-8.6,12.1-20.9,12.1-35.5c0-44.2-47.2-80.2-105.3-80.2c-65.3,0-102.8,22.8-102.8,62.5C210.4,321.8,228.4,324.7,255.6,329.1
		L255.6,329.1z M270.5,257.3c16.3,0,29.6,10.3,29.6,22.9s-13.2,22.9-29.6,22.9s-29.6-10.3-29.6-22.9
		C240.8,267.5,254.1,257.3,270.5,257.3L270.5,257.3z"/>
	<path d="M313.1,366.8c75.8,44,119.8,13.8,119.8-42.4s-53.6-101.7-119.8-101.7s-117,23.8-117,79.9
		C196.1,358.8,255.8,333.6,313.1,366.8L313.1,366.8z M313.2,228.5c60.8,0,110.3,38.3,110.3,85.2c0,16-4.7,29.4-13.4,38.9
		c-9.2,10-22.6,15.1-38.7,15.1c-17.3,0-37.3-5.9-59.3-17.4c-19.7-10.3-39.6-13.6-57.2-16.4c-27.7-4.5-49.4-8-49.4-38.1
		C205.4,253.1,244.7,228.5,313.2,228.5L313.2,228.5z"/>
	<path d="M285.1,280.2c0,6.3-6.6,11.4-14.7,11.4s-14.7-5.1-14.7-11.4c0-6.2,6.6-11.4,14.7-11.4S285.1,273.9,285.1,280.2L285.1,280.2
		z"/>
</g>
</svg>
