<?xml version="1.0" encoding="utf-8"?>
<!-- Generator: Adobe Illustrator 22.0.1, SVG Export Plug-In . SVG Version: 6.00 Build 0)  -->
<svg version="1.1" id="Layer_1" xmlns="http://www.w3.org/2000/svg" xmlns:xlink="http://www.w3.org/1999/xlink" x="0px" y="0px"
	 viewBox="0 0 500 500" style="enable-background:new 0 0 500 500;" xml:space="preserve">
<style type="text/css">
	.st0{fill:#00C1C1;}
	.st1{fill:url(#XMLID_12_);}
	.st2{fill:url(#XMLID_13_);}
	.st3{fill:url(#XMLID_14_);}
	.st4{fill:url(#XMLID_15_);}
	.st5{opacity:0.9;fill:url(#XMLID_16_);}
	.st6{fill:url(#XMLID_17_);}
	.st7{fill:url(#XMLID_18_);}
	.st8{fill:url(#XMLID_19_);}
	.st9{opacity:0.9;fill:#007C7C;}
</style>
<g>
	<polygon id="XMLID_10_" class="st0" points="304,432.3 135.5,432.3 104.5,358.3 194.6,326.8 112.3,250 196.8,173.8 104.5,141.7 
		135.5,67.4 304,67.4 395.4,249.9 	"/>
	<linearGradient id="XMLID_12_" gradientUnits="userSpaceOnUse" x1="253.8517" y1="175.0603" x2="253.8517" y2="250.884">
		<stop  offset="0" style="stop-color:#00C7C7"/>
		<stop  offset="1" style="stop-color:#00B5B5"/>
	</linearGradient>
	<polygon id="XMLID_9_" class="st1" points="112.3,250 395.4,249.9 196.8,173.8 	"/>
	<linearGradient id="XMLID_13_" gradientUnits="userSpaceOnUse" x1="214.5709" y1="131.2397" x2="260.2262" y2="214.6068">
		<stop  offset="0" style="stop-color:#009999"/>
		<stop  offset="1" style="stop-color:#005454"/>
	</linearGradient>
	<polygon id="XMLID_8_" class="st2" points="395.4,249.9 228.9,141.7 104.5,141.7 196.8,173.8 	"/>
	<linearGradient id="XMLID_14_" gradientUnits="userSpaceOnUse" x1="109.2019" y1="123.1253" x2="302.5639" y2="74.0054">
		<stop  offset="0" style="stop-color:#00C7C7"/>
		<stop  offset="0.3542" style="stop-color:#00C1C1"/>
		<stop  offset="0.8307" style="stop-color:#00B0B0"/>
		<stop  offset="1" style="stop-color:#00A8A8"/>
	</linearGradient>
	<polygon id="XMLID_7_" class="st3" points="228.9,141.7 104.5,141.7 135.5,67.4 304,67.4 	"/>
	<linearGradient id="XMLID_15_" gradientUnits="userSpaceOnUse" x1="343.8419" y1="148.8246" x2="313.6148" y2="193.638">
		<stop  offset="0.85" style="stop-color:#007878"/>
		<stop  offset="0.898" style="stop-color:#007272"/>
		<stop  offset="0.9596" style="stop-color:#006262"/>
		<stop  offset="1" style="stop-color:#005454"/>
	</linearGradient>
	<polygon id="XMLID_6_" class="st4" points="228.9,141.7 304,67.4 395.4,249.9 	"/>
	<linearGradient id="XMLID_16_" gradientUnits="userSpaceOnUse" x1="312.1328" y1="142.7697" x2="312.1328" y2="253.4313">
		<stop  offset="0" style="stop-color:#006B6B"/>
		<stop  offset="1" style="stop-color:#007878"/>
	</linearGradient>
	<polygon id="XMLID_5_" class="st5" points="395.4,249.9 228.9,249.9 228.9,141.7 	"/>
	<linearGradient id="XMLID_17_" gradientUnits="userSpaceOnUse" x1="127.9309" y1="375.5598" x2="393.3066" y2="256.3208">
		<stop  offset="0" style="stop-color:#007878"/>
		<stop  offset="1" style="stop-color:#005454"/>
	</linearGradient>
	<polygon id="XMLID_4_" class="st6" points="395.4,249.9 228.9,358.1 104.5,358.1 196.8,326.1 	"/>
	<linearGradient id="XMLID_18_" gradientUnits="userSpaceOnUse" x1="110.0737" y1="364.0987" x2="293.1777" y2="443.3109">
		<stop  offset="0" style="stop-color:#00C7C7"/>
		<stop  offset="0.429" style="stop-color:#00B8B8"/>
		<stop  offset="1" style="stop-color:#00A8A8"/>
	</linearGradient>
	<polygon id="XMLID_3_" class="st7" points="228.9,358.1 104.5,358.1 135.5,432.4 304,432.4 	"/>
	<linearGradient id="XMLID_19_" gradientUnits="userSpaceOnUse" x1="369.1114" y1="388.5189" x2="311.1779" y2="302.6291">
		<stop  offset="0.85" style="stop-color:#007878"/>
		<stop  offset="0.898" style="stop-color:#007272"/>
		<stop  offset="0.9596" style="stop-color:#006262"/>
		<stop  offset="1" style="stop-color:#005454"/>
	</linearGradient>
	<polygon id="XMLID_2_" class="st8" points="228.9,358.1 304,432.4 395.4,249.9 	"/>
	<polygon id="XMLID_1_" class="st9" points="395.4,249.9 228.9,250 228.9,358.1 	"/>
</g>
</svg>
