<?xml version="1.0" encoding="utf-8"?>
<!-- Generator: Adobe Illustrator 22.0.1, SVG Export Plug-In . SVG Version: 6.00 Build 0)  -->
<svg version="1.1" id="Layer_1" xmlns="http://www.w3.org/2000/svg" xmlns:xlink="http://www.w3.org/1999/xlink" x="0px" y="0px"
	 viewBox="0 0 500 500" style="enable-background:new 0 0 500 500;" xml:space="preserve">
<style type="text/css">
	.st0{fill:#D291FF;}
	.st1{fill:#1F0040;}
</style>
<g id="XMLID_1_">
	<rect id="XMLID_3_" class="st0" width="500" height="500"/>
	<rect id="XMLID_5_" x="22" y="22" class="st1" width="456" height="456"/>
	<g id="XMLID_10_">
		<g>
			<path id="XMLID_42_" class="st0" d="M140.5,283.7l-18.1,61.5c-0.3,2.1-1.2,2.8-3,2.8H89.3c-2.1,0-2.7-1.1-2.1-3.5
				c16-54.1,42.9-144.3,61.8-205.5c0.9-3.5,1.8-7.1,2.4-19.5c0-1.4,0.9-2.1,1.8-2.1h40.8c1.5,0,1.8,0.4,2.4,1.8
				c21.9,72.5,45.9,152.4,68.4,225.6c0.6,2.1,0,3.2-1.8,3.2h-33.1c-1.5,0-2.1-0.7-2.7-2.1l-18.9-62.2H140.5z M200.3,249.1
				c-5.9-23.7-20.4-71.4-26.3-96.2h-0.3c-4.4,23.3-16.6,63.3-25.4,96.2H200.3z"/>
		</g>
	</g>
	<g id="XMLID_6_">
		<g>
			<path id="XMLID_38_" class="st0" d="M310.5,270.4c0.6,26.4,14.8,45.2,45.3,45.2c11.2,0,24.7-2.1,37.7-8.7c0.9-0.3,1.8,0,1.8,1.7
				v27.8c0,2.4-0.6,3.1-1.8,3.8c-11.8,7-25.9,9.4-45.3,9.7c-54.9,0-74.8-43.2-74.8-87c0-49.8,25.6-89.1,70.9-89.1
				c44.3,0,62.1,39,62.1,71.3c0,15-1.5,21.9-2.7,23c-3.6,1.7-15.1,2.1-31.7,2.1H310.5z M358.8,243.6c11.2,0,13-1.4,13.3-2.8
				c0-0.7,0-2.4,0-3.8c0-10.4-6-33.1-29.3-33.1c-19.6,0-29.9,17.4-32.3,39.7H358.8z"/>
		</g>
	</g>
</g>
</svg>
