<?xml version="1.0" encoding="utf-8"?>
<!-- Generator: Adobe Illustrator 22.0.1, SVG Export Plug-In . SVG Version: 6.00 Build 0)  -->
<svg version="1.1" id="Layer_1" xmlns="http://www.w3.org/2000/svg" xmlns:xlink="http://www.w3.org/1999/xlink" x="0px" y="0px"
	 viewBox="0 0 500 500" style="enable-background:new 0 0 500 500;" xml:space="preserve">
<style type="text/css">
	.st0{fill:#00E4BB;}
	.st1{fill:#002620;}
	.st2{fill-rule:evenodd;clip-rule:evenodd;fill:#00E4BB;}
</style>
<g id="XMLID_1_">
	<rect id="XMLID_3_" class="st0" width="500" height="500"/>
	<rect id="XMLID_5_" x="22" y="22" class="st1" width="456" height="456"/>
	<g id="XMLID_8_">
		<g>
			<path id="XMLID_38_" class="st0" d="M140.7,282.8l-18.1,61.6c-0.3,2.1-1.2,2.8-3,2.8H89.4c-2.1,0-2.7-1.1-2.1-3.5
				c16-54.1,43-144.4,62-205.6c0.9-3.5,1.8-7.1,2.4-19.5c0-1.4,0.9-2.1,1.8-2.1h40.9c1.5,0,1.8,0.4,2.4,1.8
				c22,72.5,46,152.5,68.5,225.8c0.6,2.1,0,3.2-1.8,3.2h-33.2c-1.5,0-2.1-0.7-2.7-2.1l-19-62.3H140.7z M200.6,248.1
				c-5.9-23.7-20.5-71.5-26.4-96.3h-0.3c-4.4,23.4-16.6,63.3-25.5,96.3H200.6z"/>
		</g>
	</g>
	<path id="XMLID_25_" class="st2" d="M407.2,312.9c0,2.4,0.3,9.6,1,21.3c0,1.4-0.1,2.1-1.5,2.4c-18.2,6.9-38.4,14.1-63.9,14.1
		c-31.3,0-61.2-12-61.2-60.2V180.7c0-1.7,0.7-2.8,2.4-2.8h32.7c1.7,0,2.4,1,2.4,2.8v105.3c0,20.3,7.7,31.3,29,31.3
		c8.6,0,16.4-1.7,21.5-3.8V180.7c0-1.7,0.7-2.8,2.4-2.8h32.7c2.1,0,2.4,1,2.4,2.8V312.9z"/>
</g>
</svg>
