<svg version="1.1" id="Layer_1" xmlns="http://www.w3.org/2000/svg" xmlns:xlink="http://www.w3.org/1999/xlink" x="0px" y="0px"
	 viewBox="0 0 406.7 158.9" style="enable-background:new 0 0 406.7 158.9;" xml:space="preserve">
<style type="text/css">
	.st0{fill:#005CFF;}
	.st1{fill:#FFFFFF;}
</style>
<path class="st0" d="M0,0h406.7v158.9H0V0z"/>
<path class="st1" d="M92.5,81.5c-1.6-2.5-4.3-4.3-7.7-5.4c2.4-1.2,4.5-2.9,5.7-4.7c1.4-1.9,2-4.3,2-7.2c0-2.5-0.4-4.8-1.2-6.6
	c-0.8-1.9-2-3.3-3.7-4.3c-1.6-1-3.5-1.9-5.7-2.3c-2.2-0.6-4.7-0.8-7.3-0.8H48v57h27.2c2.4,0,4.9-0.4,7.3-1c2.4-0.6,4.7-1.7,6.5-2.9
	c1.8-1.2,3.5-3.1,4.5-5.2c1-2.1,1.6-4.5,1.6-7.4C95.2,87.1,94.2,84,92.5,81.5z M60.4,59.8h11.8c1.2,0,2.2,0,3.3,0.2
	c1,0.2,1.8,0.6,2.6,1c0.8,0.6,1.4,1.2,1.8,2.1c0.4,0.8,0.6,2.1,0.6,3.3c0,2.3-0.6,4.1-2,5.2c-1.4,1-3.3,1.7-5.5,1.7H60.4V59.8z
	 M82,93.7c-0.6,1-1.2,1.7-2,2.3c-0.8,0.6-1.8,1-2.8,1.2c-1,0.2-2.2,0.4-3.5,0.4H60.4V81.7h13.4c2.6,0,4.9,0.6,6.5,1.9
	c1.6,1.4,2.4,3.5,2.4,6.4C82.8,91.4,82.4,92.6,82,93.7z"/>
<path class="st1" d="M139.1,80.3c-0.8-2.9-2-5.6-3.7-7.9c-1.6-2.5-3.7-4.1-6.3-5.6s-5.7-2.1-9.1-2.1c-3.3,0-5.9,0.6-8.5,1.7
	c-2.4,1-4.7,2.7-6.5,4.5c-1.8,2.1-3.3,4.3-4.3,7c-1,2.7-1.4,5.6-1.4,8.7c0,3.3,0.4,6.2,1.4,8.9c0.8,2.7,2.2,5,4.1,6.8
	c1.8,2.1,3.9,3.5,6.5,4.5c2.6,1,5.5,1.7,8.7,1.7c4.7,0,8.5-1.2,11.8-3.3c3.3-2.3,5.7-5.8,7.3-10.7h-10c-0.4,1.2-1.4,2.5-3,3.7
	c-1.6,1-3.7,1.7-5.9,1.7c-3.3,0-5.7-0.8-7.3-2.5v0c-1.6-1.7-2.8-4.8-2.8-8.1h29.5C139.7,86,139.5,83.1,139.1,80.3z M110.2,82.3
	c0-0.8,0.2-1.7,0.4-2.7c0.2-1,0.6-2.1,1.4-2.9c0.8-0.8,1.6-1.7,2.8-2.3c1.2-0.6,2.6-1,4.5-1c2.6,0,4.9,0.8,6.3,2.3h0
	c1.4,1.4,2.4,3.5,2.8,6.6H110.2z"/>
<path class="st1" d="M155.3,50.1v21.5h0.2c1.4-2.5,3.3-4.1,5.5-5.2c2.2-1,4.3-1.7,6.5-1.7c3,0,5.5,0.4,7.3,1.2
	c1.8,0.8,3.5,2.1,4.5,3.5c1,1.4,1.8,3.3,2.2,5.4s0.6,4.3,0.6,7v25.4H171V84c0-3.5-0.6-6-1.6-7.6s-2.8-2.5-5.5-2.5
	c-3,0-5.3,1-6.5,2.7c-1.4,1.9-2,5-2,9.1v21.7h-11.2V50.1H155.3z"/>
<path class="st1" d="M225.8,103.4c-0.2-1.7-0.4-3.5-0.4-5.4V76.3c0-2.5-0.6-4.5-1.6-6c-1.2-1.4-2.4-2.7-4.3-3.5
	c-1.6-0.8-3.7-1.4-5.7-1.7c-2.2-0.2-4.3-0.4-6.3-0.4c-2.2,0-4.5,0.2-6.7,0.6c-2.2,0.4-4.3,1.2-6.1,2.3c-1.8,1.2-3.3,2.5-4.5,4.3
	c-1,1.7-1.8,3.9-1.8,6.4h11.2c0.2-2.1,1-3.7,2.2-4.8c1.2-1,2.8-1.4,5.1-1.4c1,0,2,0,2.8,0.2c0.8,0.2,1.6,0.4,2.2,0.8
	c0.6,0.4,1.2,1,1.6,1.7c0.4,0.6,0.6,1.7,0.6,2.9s-0.2,2.1-1,2.7c-0.8,0.6-1.8,1-3,1.4c-1.2,0.2-2.6,0.4-4.3,0.6l-4.9,0.6
	c-1.8,0.2-3.5,0.6-5.1,1c-1.6,0.4-3.3,1.2-4.5,2.1c-1.2,1-2.2,2.3-3,3.7c-0.8,1.4-1.2,3.5-1.2,5.8c0,2.3,0.4,3.9,1,5.6
	c0.8,1.7,1.8,2.9,3,3.9c1.4,1,2.8,1.9,4.5,2.3c1.8,0.6,3.5,0.8,5.5,0.8c2.4,0,4.9-0.2,7.3-1c2.4-0.8,4.5-2.1,6.3-3.9
	c0,0.6,0,1.4,0.2,2.1c0.2,0.6,0.4,1.4,0.8,1.9h11.4C226.6,106.5,226,105,225.8,103.4z M214.2,91.4c0,0.6,0,1.4-0.2,2.5
	c0,1-0.4,2.1-1,3.1c-0.6,1-1.4,1.9-2.6,2.7c-1.2,0.6-2.8,1-5.1,1c-1,0-1.8,0-2.6-0.2c-0.8-0.2-1.6-0.4-2.2-0.8c-0.6-0.4-1-1-1.4-1.7
	c-0.4-0.6-0.6-1.4-0.6-2.5c0-1,0-1.9,0.6-2.7c0.4-0.6,0.8-1.2,1.4-1.7c0.4-0.4,1.2-0.8,2-1l2.4-0.6c0.8-0.2,1.8-0.2,2.6-0.4
	c1-0.2,1.8-0.2,2.6-0.4c0.8-0.2,1.6-0.4,2.2-0.6c0.6-0.2,1.2-0.6,1.8-1V91.4z"/>
<path class="st1" d="M242.3,65.8v5.8h0.2c1.4-2.5,3.3-4.1,5.5-5.2c2.2-1,4.7-1.7,6.9-1.7c3,0,5.5,0.4,7.3,1.2c2,0.8,3.5,2.1,4.5,3.5
	s1.8,3.3,2.4,5.4c0.4,2.1,0.6,4.3,0.6,7v25.4h-11.2V84c0-3.5-0.6-6-1.6-7.6c-1-1.7-2.8-2.7-5.7-2.7c-3,0-5.3,1.2-6.7,3.1
	c-1.4,1.9-2,5-2,9.1v21.7h-11.2V65.8H242.3z"/>
<path class="st1" d="M294.7,73.2c-1.8,0-3.3,0.4-4.5,1.2c-1.2,0.8-2.2,1.9-3,3.3c-0.8,1.2-1.2,2.7-1.6,4.3c-0.4,1.7-0.4,3.1-0.4,4.8
	c0,1.4,0.2,3.1,0.4,4.5c0.4,1.7,0.8,2.9,1.6,4.1c0.8,1.2,1.6,2.3,2.8,3.1c1.2,0.8,2.6,1.2,4.5,1.2c2.6,0,4.7-0.8,6.3-2.3
	c1.4-1.4,2.4-3.5,2.6-6.2h10.8c-0.8,5.6-2.8,9.7-6.3,12.6c-3.5,2.9-7.9,4.3-13.4,4.3c-3,0-5.9-0.6-8.3-1.7c-2.6-1-4.7-2.5-6.5-4.3
	c-1.8-1.9-3.3-4.1-4.3-6.6c-1-2.7-1.4-5.4-1.4-8.5c0-3.3,0.4-6.2,1.4-8.9c1-2.7,2.2-5.2,4.1-7.2c1.8-2.1,4.1-3.5,6.5-4.8
	c2.6-1,5.5-1.7,8.7-1.7c2.4,0,4.7,0.4,6.9,1c2.2,0.6,4.3,1.7,5.9,2.9c1.8,1.2,3.3,2.9,4.3,5c1,1.9,1.6,4.3,1.8,7h-11
	C302.2,75.7,299.6,73.2,294.7,73.2L294.7,73.2z"/>
<rect x="107.8" y="54" class="st1" width="22.8" height="5.6"/>
<path class="st1" d="M356.9,80.3c-0.8-2.9-2-5.6-3.7-7.9c-1.6-2.5-3.7-4.1-6.3-5.6c-2.4-1.4-5.5-2.1-8.9-2.1c-3,0-5.9,0.6-8.5,1.7
	c-2.4,1-4.7,2.7-6.5,4.5c-1.8,2-3.3,4.4-4.3,7c-1,2.7-1.4,5.6-1.4,8.7c0,3.3,0.4,6.2,1.4,8.9c0.8,2.7,2.2,5,4.1,6.8
	c1.8,2,4,3.6,6.5,4.5c2.6,1,5.5,1.7,8.7,1.7c4.7,0,8.5-1.2,11.8-3.3c3.3-2.3,5.7-5.8,7.3-10.7h-9.8c-0.4,1.2-1.4,2.5-3,3.7
	c-1.6,1-3.7,1.7-5.9,1.7c-3,0-5.7-0.8-7.3-2.5c-1.6-1.7-2.8-4.8-2.8-7.9h29.5C357.9,86.2,357.7,83.1,356.9,80.3z M328.6,82.3
	c0-0.8,0.2-1.7,0.4-2.7c0.2-1,0.8-2.1,1.4-2.9c0.6-0.8,1.6-1.7,2.8-2.3c1.2-0.6,2.6-1,4.5-1c2.6,0,4.9,0.8,6.3,2.3h0
	c1.2,1.4,2.2,3.5,2.8,6.6H328.6z"/>
</svg>
