<?xml version="1.0" encoding="utf-8"?>
<!-- Generator: Adobe Illustrator 22.0.1, SVG Export Plug-In . SVG Version: 6.00 Build 0)  -->
<svg version="1.1" id="Layer_1" xmlns="http://www.w3.org/2000/svg" xmlns:xlink="http://www.w3.org/1999/xlink" x="0px" y="0px"
	 viewBox="0 0 500 500" style="enable-background:new 0 0 500 500;" xml:space="preserve">
<style type="text/css">
	.st0{fill:#FFFFFF;}
	.st1{fill:#0D528A;}
	.st2{fill:#F5792A;}
</style>
<rect class="st0" width="500" height="500"/>
<g>
	<path id="XMLID_34_" class="st0" d="M226.2,194.7c2.6-20.6,13.8-38.5,29.6-51c15.6-12.3,35.8-19.5,57.4-19
		c21.5,0.5,40.7,8.8,54.5,21.8c14.1,13.3,22.7,31.7,22.4,52.3c-0.3,21.2-10.1,40.7-25.8,54.9c-16,14.5-37.9,23.3-61.7,22.7
		c-23.8-0.6-44.5-10.5-58.4-25.7C230.6,235.8,223.6,215.9,226.2,194.7"/>
	<path id="XMLID_33_" class="st1" d="M258.2,197.5c0.7-12.6,6.9-23.8,16.2-31.7c9.2-7.8,21.5-12.5,35-12.5
		c13.4,0,25.8,4.7,34.9,12.5c9.3,7.9,15.5,19,16.2,31.7c0.7,13-4.5,25.1-13.7,34c-9.3,9.1-22.6,14.8-37.5,14.8
		c-14.9,0-28.2-5.7-37.5-14.8C262.7,222.5,257.5,210.5,258.2,197.5"/>
	<path id="XMLID_30_" class="st2" d="M176.7,223c0.1,5,1.7,14.6,4,22.1c5,15.9,13.4,30.6,25.2,43.6c12.1,13.3,26.9,24,44,31.6
		c18,8,37.5,12.1,57.8,12c20.3-0.1,39.8-4.2,57.8-12.2c17.1-7.7,32-18.4,44-31.8c11.7-13,20.2-27.8,25.2-43.7
		c2.5-8,4.1-16.2,4.7-24.4c0.6-8.1,0.4-16.1-0.8-24.2c-2.2-15.7-7.7-30.5-16-43.9c-7.7-12.4-17.5-23.2-29.3-32.3l0,0l-118.5-91
		l-0.3-0.2c-7.8-6-20.9-5.9-29.4,0c-8.6,6-9.6,16-1.9,22.4l0,0l49.4,40.2L142,91.5h-0.2c-12.4,0-24.4,8.2-26.8,18.5
		c-2.4,10.5,6,19.2,19,19.3l0,0l76.3-0.1L74.1,233.7l-0.5,0.4c-12.9,9.8-17,26.2-8.9,36.6c8.2,10.5,25.7,10.6,38.7,0.1l74.4-60.9
		C177.7,209.9,176.6,218.1,176.7,223L176.7,223z M367.8,250.6c-15.3,15.6-36.8,24.5-60,24.5c-23.2,0.1-44.7-8.7-60-24.3
		c-7.5-7.6-13-16.3-16.4-25.6c-3.3-9.1-4.6-18.8-3.8-28.6c0.8-9.6,3.7-18.7,8.2-27c4.5-8.1,10.6-15.5,18.2-21.7
		c14.9-12.1,33.8-18.7,53.7-18.7c19.8,0,38.8,6.5,53.7,18.6c7.6,6.2,13.7,13.5,18.2,21.6c4.6,8.3,7.4,17.4,8.2,27
		c0.8,9.8-0.5,19.5-3.8,28.6C380.7,234.2,375.2,242.9,367.8,250.6"/>
</g>
<g>
	<path id="XMLID_27_" class="st1" d="M359,414.7c0.6-7,6-11.4,14.3-11.4c8.3,0,13.7,4.4,14.3,11.4H359z M386.8,432
		c-2.1,5.2-7.1,8.3-13.9,8.3c-8.5,0-14.2-5.3-14.4-13.7h48.8c0-0.9,0-1.6,0-2.5c0-21-12.3-32.7-34.4-32.7
		c-21.4,0-34.4,11.9-34.4,30.5c0,18.8,13.2,30.6,34.4,30.6c12.7,0,22.6-4.4,28.7-12L386.8,432"/>
	<path id="XMLID_11_" class="st1" d="M142.5,414.7c0.6-7,6.1-11.4,14.3-11.4c8.3,0,13.7,4.4,14.3,11.4H142.5z M170.3,432
		c-2.1,5.2-7.1,8.3-13.9,8.3c-8.5,0-14.2-5.3-14.4-13.7h48.8c0-0.9,0-1.6,0-2.4c0-21-12.3-32.8-34.4-32.8
		c-21.4,0-34.4,11.9-34.4,30.5c0,18.8,13.1,30.6,34.4,30.6c12.7,0,22.6-4.3,28.7-12L170.3,432"/>
	<rect id="XMLID_9_" x="100.1" y="378.7" class="st1" width="17.6" height="72"/>
	<path id="XMLID_8_" class="st1" d="M195.2,397.8h17.7v4.3c6.3-6.7,13.8-10.1,22.3-10.1c9.8,0,17.2,3.4,21,9.1
		c3.2,4.8,3.4,10.5,3.4,18v31.5h-17.7V423c0-11.5-2.3-16.8-12.4-16.8c-10.2,0-16.6,6.1-16.6,16.2v28.2h-17.7L195.2,397.8"/>
	<path id="XMLID_6_" class="st1" d="M316.5,422.8c0,9.8-6.6,16.3-16.8,16.3c-10.2,0-16.8-6.2-16.8-16.2c0-10.1,6.5-16.3,16.8-16.3
		C309.9,406.6,316.5,412.9,316.5,422.8L316.5,422.8z M316.5,400.2c-4.5-4.8-10.9-7.4-19.9-7.4c-19.4,0-32.7,12-32.7,29.9
		c0,17.6,13.2,29.9,32.4,29.9c8.8,0,15.3-2.2,20.3-7.2v5.3h17.7v-76.5l-17.7,4.6V400.2"/>
	<path id="XMLID_5_" class="st1" d="M59.9,406.6c10.3,0,16.8,6.2,16.8,16.3c0,10-6.6,16.2-16.8,16.2c-10.2,0-16.8-6.5-16.8-16.3
		C43.1,412.9,49.7,406.6,59.9,406.6L59.9,406.6z M43.1,378.7l-17.7-4.6v76.5h17.7v-5.3c5,5,11.5,7.2,20.3,7.2
		c19.2,0,32.3-12.3,32.3-29.9c0-17.9-13.3-29.9-32.7-29.9c-9,0-15.5,2.6-19.9,7.4V378.7"/>
	<path id="XMLID_3_" class="st1" d="M411.7,450.7v-52.8h17.7v3.3c5.3-6.4,10.9-9.6,17.3-9.6c1.3,0,2.9,0.2,5,0.4V407
		c-1.7-0.2-3.6-0.2-5.6-0.2c-10.3,0-16.6,6.8-16.6,18.3v25.6L411.7,450.7"/>
	<path id="XMLID_2_" class="st1" d="M474.6,391.6h-1.4l0-4.8l0.1-1.6l-0.4,1.3l-1.6,5.1h-1.2l-1.6-5.1l-0.4-1.3l0.1,1.6l0,4.8H467
		v-7.8h1.9l2,6.2l1.9-6.2h1.9V391.6L474.6,391.6z M463.8,391.6h-1.4v-6.7H460v-1.2h6.4v1.2h-2.5V391.6"/>
</g>
</svg>
