<svg version="1.1" id="Layer_1" xmlns="http://www.w3.org/2000/svg" xmlns:xlink="http://www.w3.org/1999/xlink" x="0px" y="0px"
	 viewBox="0 0 1280 1024" style="enable-background:new 0 0 1280 1024;" xml:space="preserve">
<g>
	<path d="M319.8,757.2l-18.5-14.7c-9.4-7.6-11-21.5-3.4-31l413.8-512.8c7.6-9.4,21.5-11,31-3.4l18.5,14.7c9.4,7.6,11,21.5,3.4,31
		L351.2,753.8C343.2,763.2,329.3,764.7,319.8,757.2z"/>
	<path d="M393.5,816.5L375,801.8c-9.4-7.6-11-21.5-3.4-31L785,257.9c7.6-9.4,21.5-11,31-3.4l18.5,14.7c9.4,7.6,11,21.5,3.4,31
		L424.5,813.1C416.9,822.5,403,824.1,393.5,816.5z"/>
	<path d="M466.8,875.8l-18.5-14.7c-9.4-7.6-11-21.5-3.4-31l413.8-512.8c7.6-9.4,21.5-11,31-3.4l18.5,14.7c9.4,7.6,11,21.5,3.4,31
		L498.2,872.4C490.3,881.9,476.6,883.4,466.8,875.8z"/>
	<polygon points="311.5,978.6 234,915.9 211,1024 	"/>
	<rect x="835" y="98" transform="matrix(0.6279 -0.7783 0.7783 0.6279 141.431 748.8511)" width="37.8" height="257"/>
	<path d="M1052.6,191.4c25.7-32.1,20.8-79-11.3-105.1l-86.9-69.9c-32.1-25.7-79-20.8-105.1,11.3l-10.2,12.5l203.3,163.6
		L1052.6,191.4z"/>
</g>
</svg>
