<?xml version="1.0" encoding="utf-8"?>
<!-- Generator: Adobe Illustrator 22.0.1, SVG Export Plug-In . SVG Version: 6.00 Build 0)  -->
<svg version="1.1" id="Layer_1" xmlns="http://www.w3.org/2000/svg" xmlns:xlink="http://www.w3.org/1999/xlink" x="0px" y="0px"
	 viewBox="0 0 512 512" style="enable-background:new 0 0 512 512;" xml:space="preserve">
<style type="text/css">
	.st0{fill:#0170BA;}
	.st1{fill:#29A9DF;}
	.st2{fill:#CFCFCF;}
	.st3{fill:#FFFFFF;}
</style>
<g id="_x23_000000ff_1_">
	<path d="M146.5,0.2c22.4-0.3,44.9-0.1,67.3-0.1c0.1,7,0.2,14-0.1,21.1c-15.5-0.1-31.1,0-46.6,0.1c-0.1,10.2-0.3,20.4-0.2,30.6
		c15.6,0.1,31.2,0.2,46.8,0.2c0.2,5.8,0.1,11.6-0.1,17.3c-22.4-0.1-44.7-0.1-67.1-0.1C146.5,46.2,146.6,23.2,146.5,0.2z"/>
	<path d="M221.8,0.1c22.7,0,45.4-0.2,68.2,0.1c-0.1,6.6,0,13.3,0,19.9c-16.5-0.1-33.1,0-49.6,0.2c0,2.6,0,5.2,0,7.8
		c16.5,0.3,33,0.3,49.5,0.4c0.1,13.6,0,27.2,0.1,40.8c-22.7,0-45.5,0-68.2,0.1c-0.1-5.5-0.1-11,0-16.5c15.7,0,31.5,0.1,47.3-0.1
		c0.1-3.5,0.1-7.1,0.1-10.6c-15.8,0-31.7,0.1-47.5-0.1C221.7,28.1,221.7,14.1,221.8,0.1z"/>
	<path d="M297.6,0.2c22.7,0,45.4,0,68,0c0.1,6.7,0.2,13.3,0,20c-16.6,0-33.2,0.1-49.8,0.1c0,2.7,0.1,5.4,0.2,8.2
		c16.5-0.1,33,0.1,49.5,0.3c0.1,13.5,0.3,27.1,0.1,40.6c-22.7-0.1-45.5-0.1-68.2,0c-0.1-5.5-0.2-11,0.1-16.4
		c15.7,0.1,31.4,0.1,47.2-0.1c0-3.5,0.1-7.1,0.1-10.6c-15.8,0.1-31.6,0.1-47.4,0C297.3,28.3,297.5,14.2,297.6,0.2z"/>
</g>
<g id="_x23_0170baff_1_">
	<path class="st0" d="M73.4,97.9c121.7,0,243.4,0,365.2,0c-6.7,75.7-13.3,151.4-20.3,227.1c-4.1,48.4-8.4,96.7-12.9,145.1
		c-26,6.9-51.7,14.7-77.7,21.6c-23.8,7-47.9,13.3-71.7,20.3h-0.7c-22.7-6.8-45.6-12.7-68.3-19.4c-26.8-7.2-53.4-15.3-80.2-22.5
		c-3.5-36.2-6.6-72.5-9.8-108.7c-5.9-67-12.2-133.9-17.9-200.9c-2-20.2-3.4-40.4-5.7-60.5V97.9 M256.6,127.8
		c-0.3,14.5,0.2,29.1-0.3,43.6c-41.8-0.1-83.5,0-125.3,0c0.7,14.1,2.6,28.1,4.6,42.1c38.9,1.4,77.8-0.1,116.6,1.1
		c-34,15.2-68.4,29.6-102.5,44.5c-2.9,1.3-6.1,2.3-8.7,4.2c0.3,15.5,2.8,30.9,3.9,46.4c20.7-0.1,41.4-0.4,62.1-0.4
		c16.6-0.1,33.2,0.2,49.8-0.1c-0.8,25.5,0.2,51-0.5,76.5c-11.2-1.7-22.2-4.1-33.3-6.1c-8.8-1.9-17.8-2.9-26.4-5.4
		c-1.2-12.2-2.1-24.5-3.2-36.8c-2.5-0.8-5.2-0.7-7.7-0.7c-12.5,0.1-25.1,0-37.7,0.1c1.2,23.5,3.3,47,6.9,70.4
		c12.4,3.2,24.8,6.4,37.1,9.8c18.9,5.2,38.1,9.4,57,14.5c2.3,0.5,4.5,1.3,6.9,1.1c1.3,15.5,0.3,31.1,0.5,46.6
		c4.4-0.7,8.7-1.8,12.9-3.1c35.9-9.7,71.7-19.7,107.6-29.5c1.8-14.1,2.6-28.3,4-42.4c3.7-43,7.5-85.9,11.4-128.9
		c4.6-49.2,8.5-98.4,13.2-147.5C355.9,127.8,306.2,127.6,256.6,127.8z"/>
</g>
<g id="_x23_29a9dfff_1_">
	<path class="st1" d="M256.6,127.8c49.6-0.2,99.3,0,148.9-0.1c-4.6,49.2-8.6,98.4-13.2,147.5c-3.9,43-7.7,85.9-11.4,128.9
		c-1.4,14.1-2.2,28.3-4,42.4c-35.9,9.8-71.7,19.8-107.6,29.5c-4.2,1.3-8.5,2.4-12.9,3.1c-0.2-15.5,0.7-31.1-0.5-46.6
		c0.3-0.1,1-0.2,1.3-0.3c33.4-8.4,66.5-17.6,99.8-26.3c4.2-47.2,8.9-94.4,11.8-141.8c-28.3,0.1-56.6,0.1-85,0.2
		c-4.1,0-8.2,0-12.4-0.3c15.2-7.8,31.3-14.1,46.9-21.1c15-6.8,30.2-13.2,45.3-19.9c2.9-1.3,6-2.4,8.6-4.4c1-3.7,1-7.5,1.3-11.3
		c0.9-12,2.4-23.9,3-35.8c-40.1-0.3-80.2,0-120.3-0.3C256.8,156.9,256.3,142.3,256.6,127.8z"/>
	<path class="st1" d="M256.8,309.2c19.4-0.3,38.7,0.2,58.1,0.1c-1.1,19.8-2.7,39.6-3.8,59.4c-11.9,3.9-23.9,7.2-35.9,10.7
		c-6.4,1.9-12.9,3.5-19,6.3C257,360.2,256,334.7,256.8,309.2z"/>
</g>
<g id="_x23_cfcfcfff_1_">
	<path class="st2" d="M131,171.4c41.8,0,83.5-0.2,125.3,0c0.5,45.9-0.1,91.9,0.5,137.8c-16.6,0.4-33.2,0-49.8,0.1
		c-20.7,0-41.4,0.4-62.1,0.4c-1.1-15.5-3.6-30.9-3.9-46.4c2.6-1.9,5.7-2.9,8.7-4.2c34.1-14.9,68.5-29.3,102.5-44.5
		c-38.9-1.2-77.8,0.3-116.6-1.1C133.6,199.6,131.8,185.5,131,171.4z"/>
	<path class="st2" d="M148,336.9c12.6-0.2,25.1-0.1,37.7-0.1c2.6,0,5.2,0,7.7,0.7c1.1,12.2,1.9,24.5,3.2,36.8
		c8.6,2.5,17.6,3.5,26.4,5.4c11.1,2,22.1,4.5,33.3,6.1c1.1,15.5-0.8,31.1,1,46.6c-0.3,0.1-1,0.2-1.3,0.3c-2.3,0.2-4.6-0.6-6.9-1.1
		c-19-5.1-38.1-9.3-57-14.5c-12.4-3.4-24.7-6.5-37.1-9.8C151.3,383.9,149.2,360.4,148,336.9z"/>
</g>
<g id="_x23_ffffffff_1_">
	<path class="st3" d="M256.3,171.4c40.1,0.2,80.2-0.1,120.3,0.3c-0.6,12-2.1,23.9-3,35.8c-0.4,3.8-0.3,7.6-1.3,11.3
		c-2.6,2-5.7,3.1-8.6,4.4c-15.1,6.7-30.3,13.1-45.3,19.9c-15.6,7-31.7,13.2-46.9,21.1c4.1,0.3,8.2,0.3,12.4,0.3
		c28.3-0.1,56.6,0,85-0.2c-3,47.3-7.6,94.5-11.8,141.8c-33.3,8.7-66.4,17.9-99.8,26.3c-1.8-15.5,0.1-31.1-1-46.6
		c6.1-2.9,12.6-4.4,19-6.3c12-3.6,24-6.9,35.9-10.7c1-19.8,2.7-39.6,3.8-59.4c-19.4,0.1-38.7-0.4-58.1-0.1
		C256.2,263.3,256.9,217.4,256.3,171.4z"/>
</g>
</svg>
