<svg version="1.1" id="Layer_1" xmlns="http://www.w3.org/2000/svg" xmlns:xlink="http://www.w3.org/1999/xlink" x="0px" y="0px"
	 viewBox="0 0 1280 1024" style="enable-background:new 0 0 1280 1024;" xml:space="preserve">
<g>
	<path d="M609.8,1023.2c-17.4-7.2-28.4-20.4-38.6-35.5c-5.3-7.9-14-11.3-23.8-12.5c-20.4-2.3-30.6-11.3-29.5-26.5
		c1.1-15.1,12.1-22.7,32.5-22.7c60.1,0,120.2,0,180.7,0c9.5,0,18.1,1.1,24.2,8.7c11.7,13.6,5.3,34.4-12.1,38.9
		c-4.2,1.1-8.3,1.5-12.9,2.3c-9.1,1.1-17.8,4.5-22.3,12.1c-9.8,15.9-22.3,28-38.9,35.9C649.9,1023.2,629.5,1023.2,609.8,1023.2z"/>
	<path d="M639.3,854.2c-30.6,0-61.3,0-91.9,0c-15.5,0-24.6-5.7-28-17.4c-3.8-12.1,1.9-25.7,14-29.1c7.9-2.3,6.8-6.4,5.7-11.7
		c-5.7-37.4-22.7-69.9-45-99.8c-23.4-31.4-51-59.7-72.6-92.6c-33.3-51-44.6-106.6-34-166c17.4-102.5,76.4-172,174.3-204.2
		c90-29.5,173.9-11.7,246.1,51c66.9,58.2,94.5,133.5,85.8,221.6c-4.2,42-21.2,79.4-46.5,113.1c-20,26.1-41.2,51.4-61.6,77.5
		c-22.7,29.1-38.6,60.9-45,97.9c-1.1,6.8-2.3,12.1,6.8,14.7c9.5,2.6,14.7,14.4,13.6,23.4c-1.5,11-8.3,18.9-18.9,21.6
		c-11,2.3-21.9,1.1-32.9,1.1C686.2,854.6,662.8,854.2,639.3,854.2z M433.6,423.5c-0.4,11,4.9,17.8,12.9,20
		c8.3,2.3,17.4-1.5,21.2-9.5c1.9-3.4,3-7.6,4.2-11c10.6-35.5,31.4-64.3,60.1-87.3c12.5-10.2,26.8-17.4,41.2-24.2
		c12.1-5.7,15.5-17.4,9.1-26.8c-5.7-8.3-14.4-10.2-25.3-5.3c-45.8,19.3-80.5,51.4-104.4,94.5C443.5,390.3,436.7,407.3,433.6,423.5z"
		/>
	<path d="M639.7,865.5c32.1,0,63.9,0,96,0c10.6,0,18.9,4.5,23.4,14c4.2,8.7,3,17.4-3,25.3c-4.9,6.4-12.1,9.5-20,9.5
		c-63.9,0-128.2,0.4-191.7,0c-15.5,0-26.1-11-26.1-24.6c0.4-13.6,11-23.4,25.7-23.4C575.8,865.5,607.6,865.5,639.7,865.5z"/>
	<path d="M249.9,487.4c-15.1,0-29.9,0.4-45,0c-16.3-0.4-24.6-7.2-27.6-21.6c-2.3-11,5.7-23.4,17.4-25.7c3.4-0.8,7.2-1.5,11-1.5
		c29.5,0,59.4-0.4,88.9,0c19.7,0.4,30.6,12.1,27.6,29.1c-2.3,12.1-12.1,19.7-27.2,20C279.8,487.4,264.6,487.4,249.9,487.4
		L249.9,487.4z"/>
	<path d="M1029.9,487.4c-15.5,0-31.4,0.4-46.9,0c-13.2-0.4-23.1-7.6-25.3-18.5c-2.6-11.3,2.3-21.6,12.1-27.2c4.2-2.3,9.1-3,13.6-3
		c31-0.4,62-0.4,93-0.4c10.6,0,19.7,4.2,24.2,14.4c4.2,8.7,3,17.4-3,25.3c-5.7,7.6-14.4,9.5-23.1,9.5
		C1059.4,487.4,1044.7,487.4,1029.9,487.4z"/>
	<path d="M422.3,704.1c0.4,7.9-3.8,14-9.1,19.3c-21.6,21.9-43.5,43.9-65.4,65.4c-10.2,10.2-25.7,10.6-35.2,1.5
		c-9.8-9.5-10.6-24.2-0.4-35.2c22.7-23.4,46.5-46.9,69.6-69.6c7.6-7.6,17.4-7.9,26.8-3.4C418.1,686.7,422.3,694.3,422.3,704.1z"/>
	<path d="M974,771.8c0,11.7-5.3,19.3-14.7,23.4c-10.2,4.5-19.7,2.3-27.6-5.7c-22.3-21.9-44.2-44.2-66.2-66.5
		c-1.9-1.9-3.4-4.2-4.9-6.4c-5.7-9.5-4.5-21.6,3-29.5c7.6-7.9,19.7-9.5,29.1-4.2c2.3,1.5,4.5,3,6.4,4.9
		c22.3,21.9,44.2,44.2,66.5,66.5C970.6,759.3,974.3,765.3,974,771.8z"/>
	<path d="M305.5,152.4c0.4-9.8,4.2-17.4,12.9-21.6c9.1-4.2,18.9-4.2,26.1,3c24.2,23.4,48,46.9,71.5,71.1
		c10.2,10.2,8.3,25.7-1.5,34.8c-9.5,8.3-24.2,7.9-34-2.3c-22.3-21.9-44.2-44.2-66.2-66.2C308.9,166,305.5,160.4,305.5,152.4z"/>
	<path d="M857.1,220.9c-0.4-7.6,3.4-13.6,8.3-18.5c21.6-21.6,43.1-43.5,65-65c11.7-11.3,26.1-12.1,36.3-2.3
		c10.2,9.8,9.5,25-1.9,36.7c-21.6,21.6-43.1,43.5-65,65c-8.3,8.3-18.1,11.3-29.1,6.4C861.7,239,857.5,231.1,857.1,220.9z"/>
	<path d="M617,72.7c0-15.5-0.4-30.6,0-45.8c0.4-16.3,10.2-27.2,24.2-26.8c14,0.4,23.8,11,23.8,26.5c0.4,31,0.4,62,0,93
		c0,15.5-10.2,26.1-23.8,26.5c-14.4,0.4-24.2-10.6-24.2-26.8C617,103.3,617,87.8,617,72.7z"/>
</g>
</svg>
