<svg version="1.1" id="Layer_1" xmlns="http://www.w3.org/2000/svg" xmlns:xlink="http://www.w3.org/1999/xlink" x="0px" y="0px"
	 viewBox="0 0 1280 1024" style="enable-background:new 0 0 1280 1024;" xml:space="preserve">
<g>
	<g id="Layer_1_2_">
		<path d="M649.3,832H455.2c-6.2,0-11.4,5.1-11.4,11.4v42.8c0,3.1-1,5.2-3.1,7.3l-32.2,33.3c-6.2,7.3-2.1,18.8,8.3,18.8h272.8
			c9.3,0,14.5-11.5,7.3-18.8l-33.2-33.3c-2.1-2.1-3.1-5.2-3.1-8.3v-41.8C660.6,837.1,655.5,832,649.3,832z"/>
		<path d="M237.4,485.2c0-13.6-11.1-24.8-24.8-24.8H112.6H64.5H24.8C11.1,460.4,0,471.5,0,485.2v384c0,13.6,11.1,24.8,24.8,24.8
			h187.9c13.6,0,24.8-11.1,24.8-24.8v-71.9V669.4L237.4,485.2z M185.8,832H51.6c-11.4,0-20.6-9.3-20.6-20.6V532.6
			c0-11.4,9.3-20.6,20.6-20.6h13h48h73.2c11.4,0,20.6,9.3,20.6,20.6v135.8v125.5v17.4C206.5,822.7,197.2,832,185.8,832z"/>
		<path d="M1058.3,109.4c0-15.5-15.5-31-35.1-31H101.4c-19.6,0-29.1,35.1-29.1,35.1v326.2h41.3V179.6c1.2-16.5,31.2-28.9,31.2-28.9
			h837c16.5,0,29.9,13.4,29.9,29.9v21.7h51.6v-92.9H1058.3z"/>
		<path d="M1011.6,639c-1.9,16.5-31.8,27.9-31.8,27.9H258.1v123.9h759.7c19.4,0,35.1-15.7,35.1-35.1V625.5h-41.3V639z"/>
		<path d="M1245.1,223h-192h-48.3H736c-18.7,0-34.1,15.3-34.1,34.1v313.8c0,18.7,15.3,34.1,34.1,34.1h269.9h48.3h191.8
			c18.7,0,34.1-15.3,34.1-34.1v-314C1279,237.3,1263.6,223,1245.1,223z M1218.1,544c0,16.5-13.4,29.9-29.9,29.9h-125h-48.9H804.1
			c-16.5,0-29.9-13.4-29.9-29.9V283.9c0-16.5,13.4-29.9,29.9-29.9h210.2h48.9h125c16.5,0,29.9,13.4,29.9,29.9V544z"/>
	</g>
	<g id="Layer_2_2_">
		<polygon points="1021.9,356.1 1021.9,367.5 1066.3,412.9 1021.9,457.3 1021.9,468.6 1077.7,412.9 		"/>
		<polygon points="914.6,412.9 960,367.5 960,356.1 903.2,412.9 960,468.6 960,457.3 		"/>
		<polygon points="987.2,460.4 980.4,460.4 996.1,357.2 1003,357.2 		"/>
		<polygon points="144.5,634.8 144.5,642.1 174.5,672 144.5,703 144.5,710.2 182.7,672 		"/>
		<polygon points="73.3,672 103.2,642.1 103.2,634.8 65,672 103.2,710.2 103.2,703 		"/>
		<polygon points="117.9,708.1 112.8,708.1 124,635.9 129.1,635.9 		"/>
		<polygon points="588.4,356.1 588.4,367.5 632.8,412.9 588.4,457.3 588.4,468.6 644.1,412.9 		"/>
		<polygon points="492.4,412.9 536.8,367.5 536.8,356.1 481,412.9 536.8,468.6 536.8,457.3 		"/>
		<polygon points="557.8,460.4 550.9,460.4 566.7,357.2 573.6,357.2 		"/>
	</g>
</g>
</svg>
