<?xml version="1.0" encoding="utf-8"?>
<!-- Generator: Adobe Illustrator 22.0.1, SVG Export Plug-In . SVG Version: 6.00 Build 0)  -->
<svg version="1.1" id="Layer_1" xmlns="http://www.w3.org/2000/svg" xmlns:xlink="http://www.w3.org/1999/xlink" x="0px" y="0px"
	 viewBox="0 0 500 500" style="enable-background:new 0 0 500 500;" xml:space="preserve">
<style type="text/css">
	.st0{fill:#35FA00;}
	.st1{fill:#072600;}
</style>
<g id="XMLID_1_">
	<rect id="XMLID_3_" class="st0" width="500" height="500"/>
	<rect id="XMLID_5_" x="22" y="22" class="st1" width="456" height="456"/>
	<g id="XMLID_8_">
		<g>
			<path id="XMLID_43_" class="st0" d="M67.8,123.3c0-1.4,0.3-2.1,2-2.4c17.2-0.7,38.7-1,57.3-1c64.8,0,97.4,44.4,97.4,110.4
				c0,98-64.2,115.6-103.2,115.6c-20.3,0-35.3-0.3-51.6-0.7c-1.4,0-2-0.7-2-3.1V123.3z M102.5,312.9c5.2,0.3,12,0.3,20.1,0.3
				c40.1,0,66.5-25.1,66.5-81.9c0-51.9-22.6-78.4-61.9-78.4c-12.9,0-22.1,0.3-24.6,0.7V312.9z"/>
		</g>
	</g>
	<g id="XMLID_2_">
		<g>
			<path id="XMLID_32_" class="st0" d="M370.1,347.2c-2,0-2.5-0.7-3.1-2.8c-15.8-76.7-21.1-105.6-23.9-121.8h-0.3
				c-2.8,17.2-9.6,47.8-27.3,121.8c-0.6,2.1-1.4,2.8-3.1,2.8h-31.3c-2.5,0-3.1-1-3.7-3.1l-36.9-161.3c-0.6-1.7,0-2.8,1.7-2.8h30.1
				c1.7,0,2.3,0.3,2.5,2.1c19.1,89.1,23.1,114.2,25.1,126.6h0.6c1.1-5.8,8.2-41.6,26.7-125.9c0.3-2.1,0.6-2.8,2.5-2.8h30.1
				c1.4,0,2,0.7,2.3,2.1c18.3,87.7,22.8,115.2,24.8,127.6h0.6c3.4-20.3,8.7-53.3,26.2-127.3c0.3-1.7,1.1-2.4,2.3-2.4h27.9
				c1.1,0,2,0.7,1.7,2.4l-40.8,162c-0.6,2.1-0.8,2.8-3.1,2.8H370.1z"/>
		</g>
	</g>
</g>
</svg>
