<svg version="1.1" id="Layer_1" xmlns="http://www.w3.org/2000/svg" xmlns:xlink="http://www.w3.org/1999/xlink" x="0px" y="0px"
	 viewBox="0 0 1280 1024" style="enable-background:new 0 0 1280 1024;" xml:space="preserve">
<g>
	<path d="M0,941.4c0-239.8,0-479.8,0-719.6c3.9-1.2,3.9-5.1,4.8-8c10.1-29.7,30-48.8,59.8-58.6c8.3-3,20.5,1.5,24.7-6.8
		c3.6-7.4,1.8-18.1,0.6-27.1c-1.5-12.5,3.9-14.9,15.5-14.9c62.2,0.6,124,0.3,186.2,0.3c22,0,18.1-2.1,18.7,18.4
		c0.3,10.1-4.8,23.8,2.4,29.7c5.9,5.1,19,0.9,28.9,1.8c7.4,0.6,11-2.1,14-8.9c11.9-25.6,24.1-50.9,37.2-76.2
		c22-42.5,56.5-65.1,105-65.1c94.6,0,189.5,0,284.4,0c48.2,0,83,22.9,105,65.4c13.1,25.6,25.3,51.5,37.8,77c2.1,4.2,3.6,7.7,9.8,7.7
		c45.2-0.3,90.7-0.3,136.2-0.3c-3-27.1,8.3-39.9,34.8-39.9c21.1,0,42.5-0.3,63.7,0.3c19.3,0.6,29.4,10.4,29.7,29.4
		c0,5.7,1.8,6.8,6.5,8c47.9,11.3,74.1,44.3,74.1,94c0,222.2-0.3,444.7,0.3,666.9c0.3,53.8-38.4,102.6-102.3,102.3
		c-358.4-1.2-716.9-0.6-1075.3-0.6c-5.4,0-10.7,0-16.4-0.3c-26.2-1.5-46.4-13.4-63.4-33C11.6,970.8,7.7,955.4,0,941.4z M988.2,582.9
		c0.3-192.2-158-350.7-349.8-350.7c-191.9,0.3-348.6,157.1-349.8,349.5c-1.2,192.2,155.3,349.2,349.2,351
		C828.8,934.6,987.9,775.4,988.2,582.9z M636.8,146.3c47.7,0,95.3,0,143,0c16.6,0,17.5-0.9,17.5-17.8c0-8.3,0-16.6,0-24.9
		c0-15.1-2.1-16.9-17.5-16.9c-61.3,0-122.5,0-184.1,0c-33.4,0-67.2,0.3-100.6,0c-11.5,0-17.2,3.6-16.3,16c0.6,8.6,0,17.5,0,26
		c0,16.9,0.9,17.8,17.5,17.8C543.3,146.3,590,146.3,636.8,146.3z M138.4,352.1c33.3,0.3,60.4-26.8,60.4-59.8
		c0-32.4-27.1-59.5-59.5-60.1c-32.4-0.6-60.4,27.4-60.4,60.1C78.9,325,105.7,351.8,138.4,352.1z M218.7,402.1c17,0,30-13.1,30-29.7
		c-0.3-16.4-14.3-30-30.3-29.7c-15.8,0.3-29.2,13.7-29.4,29.4C188.7,388.7,201.7,402.1,218.7,402.1z"/>
	<path d="M638.4,302.4c153.5,0,280.5,127.6,279.6,280.8C917.4,737,791.3,862.9,638.1,862.6c-153.8-0.3-280.5-127.3-279.6-280.8
		C359.4,428.3,485.5,302.1,638.4,302.4z M638.7,732.6c83-0.3,149.6-67.5,149.6-150.2c-0.3-82.7-67.8-150.2-150.2-149.6
		c-83,0.6-149.6,67.8-149.6,150.5C488.8,665.9,556.3,732.9,638.7,732.6z"/>
</g>
</svg>
