<svg version="1.1" id="Layer_2" xmlns="http://www.w3.org/2000/svg" xmlns:xlink="http://www.w3.org/1999/xlink" x="0px" y="0px"
	 viewBox="0 0 406.7 158.9" style="enable-background:new 0 0 406.7 158.9;" xml:space="preserve">
<style type="text/css">
	.st0{fill:#0092CF;}
	.st1{fill:#0293D0;}
	.st2{fill:#6DBBE2;}
	.st3{fill:#3C3F47;}
	.st4{fill:#0193CF;}
	.st5{fill:#0192CF;}
	.st6{fill:#B3D7EE;}
</style>
<path class="st0" d="M30.5,129.7c3.4-14.1,6.9-28.3,10.3-42.4c1-0.3,1.3,0.5,1.7,0.9c4.3,4.6,8.5,9.3,12.9,13.8
	c1.4,1.4,1.2,2.2-0.1,3.5c-7.3,7.1-14.6,14.3-21.9,21.5c-0.8,0.8-1.5,1.7-2.3,2.6C30.9,129.7,30.7,129.7,30.5,129.7z"/>
<path class="st1" d="M25.2,29.1c1.6,1.6,3.8,1.8,5.8,2.6c7.2,2.9,14.5,5.6,21.8,8.3c0.4,0.2,1,0.1,1.1,0.9c-8-0.4-15.9-0.8-23.8-1.2
	c-1.3-0.1-1.6-0.9-2-1.8c-1.3-3-2.7-5.9-4-8.9C24.4,29.1,24.8,29.1,25.2,29.1z"/>
<path class="st2" d="M62.8,42.7c7.4,0.4,13.7,0.9,20,1c2.3,0.1,2.3,1.2,2.1,2.8c-1.4,8.1-2.8,16.3-4.2,24.4
	c-0.3,1.5-0.7,3.1-0.7,4.6c0,5.2-2.7,8.9-6.5,12.2c-4.8,4.3-9.3,9.1-13.9,13.7c-1.2,1.2-1.7,1.2-2.9-0.1c-5.4-6-10.9-11.9-16.5-17.7
	c-1.1-1.2-1.3-1.9-0.5-3.5C45.9,68.8,52,57.3,57.8,45.7C59.3,42.7,61.3,42.4,62.8,42.7z"/>
<path class="st0" d="M-0.6,39.6c19.7,1,39,2,58.6,3C51.2,55.5,44.6,68.1,37.8,81C25,67.2,12.4,53.6-0.6,39.6z"/>
<path class="st3" d="M280.6,74.5c4.1-2.2,7.6-3.7,11.6-3.5c4.6,0.3,7.7,2.8,8.9,7.2c1.2,4.3,0.3,8.4-0.3,12.6
	c-0.8,5.5-1.9,10.9-2.7,16.3c-0.3,1.8-1,2.6-2.9,2.5c-2.5-0.1-4.9-0.1-7.4,0c-2.2,0.1-2.7-0.8-2.4-2.8c1.2-6.8,2.2-13.6,3.3-20.4
	c0.3-2,1.2-4.3-2-4.9c-3.5-0.6-6.2,0.9-6.7,3.7c-1.2,7.1-2.4,14.2-3.5,21.3c-0.3,2.2-1.2,3.3-3.6,3.1c-2.3-0.2-4.7-0.1-7.1-0.1
	c-1.8,0-2.5-0.6-2.2-2.5c1.8-11.1,3.6-22.1,5.4-33.2c0.3-1.6,0.9-2.5,2.7-2.4c2.3,0.1,4.5,0.1,6.8,0
	C280.4,71.5,281.5,71.9,280.6,74.5z"/>
<path class="st3" d="M101.3,109.7c-7.5-0.1-6.6,0.9-5.5-6.4c1.7-10.9,3.4-21.8,5.2-32.7c0.3-1.6,0.7-3.3,1.2-4.9
	c1.4-4.2,4.1-6.8,8.7-7.4c3-0.4,5.9-0.3,8.8,0.1c1.9,0.3,2.3,1.1,1.9,2.8c-0.2,1.1-0.4,2.1-0.5,3.2c-0.1,2-1.1,3.1-3.2,2.9
	c-0.7-0.1-1.4-0.1-2.1,0.1c-1.7,0.4-2,1.8-2,3.2c0.1,1.7,1.5,0.9,2.2,0.9c3.8,0.1,3.8,0.1,3.1,3.9c-0.1,0.8-0.4,1.5-0.4,2.3
	c0,2.6-1.3,3.6-3.7,3.1c-2.4-0.4-3.2,0.6-3.5,2.9c-1.1,7.6-2.4,15.2-3.5,22.8c-0.3,2.2-1.1,3.5-3.6,3.2
	C103.4,109.6,102.3,109.7,101.3,109.7z"/>
<path class="st3" d="M325.5,81.8c-6.6-0.5-7.7,0.4-8.9,6.9c-0.4,2.4-0.7,4.9-0.9,7.3c-0.2,2.4,1.1,3.7,3.6,3.6
	c2.2-0.1,4.3-0.1,6.5-0.3c1.8-0.1,2.7,0.4,2.1,2.4c-0.2,0.8-0.3,1.6-0.4,2.3c-1,5.4-1,5.6-6.6,6c-2.8,0.2-5.7,0.5-8.5-0.2
	c-5.6-1.3-9.2-5.9-9.3-12.5c0-5.7,0.9-11.4,3.2-16.7c2.2-5.2,6.2-8.3,11.7-9.3c4.2-0.8,8.4-0.5,12.6,0.5c0.6,0.1,1.4,0.4,1.5,0.7
	c0.7,2.9-0.4,5.6-1,8.3c-0.4,2-2.4,1-3.8,1C326.6,82,326.1,81.9,325.5,81.8z"/>
<path class="st3" d="M219,109.7c-7.8,0-6.6,0.6-5.5-6.4c2.1-13.2,4.3-26.4,6.3-39.7c0.7-4.5,0.6-4.5,5.1-4.5c1.9,0,3.8,0.1,5.6,0
	c2.2-0.2,2.7,0.7,2.3,2.8c-2.5,15.2-4.9,30.3-7.3,45.5c-0.3,1.6-1.1,2.4-2.8,2.3C221.6,109.6,220.3,109.7,219,109.7z"/>
<path class="st3" d="M134.2,74c2.7-2,5.3-3,8.3-3c1.7,0,2.3,0.6,1.9,2.3c-0.4,1.9-0.6,3.9-0.9,5.8c-0.2,1.5-0.9,2.1-2.5,2.3
	c-7.6,0.6-7.6,0.6-8.8,8.1c-0.9,5.8-1.9,11.6-2.8,17.5c-0.3,2-1.2,2.9-3.3,2.8c-2.5-0.2-4.9-0.1-7.4,0c-1.6,0-2.4-0.4-2.1-2.2
	c1.9-11.3,3.7-22.5,5.4-33.8c0.2-1.6,1-2.2,2.6-2.1c2.5,0.1,4.9,0.1,7.4,0C133.7,71.6,134.3,72.3,134.2,74z"/>
<path class="st3" d="M384.2,71.6c-1,6.1-1.8,11.3-2.7,16.6c-1,6.2-2,12.4-3,18.7c-0.3,2.1-1.1,3.1-3.4,3c-2.4-0.2-4.9-0.1-7.4,0
	c-1.7,0-2.2-0.7-2-2.4c1.2-7.1,2.3-14.2,3.4-21.3c0.1-0.8,0.2-1.6,0.9-2.1C374.6,80,379,76.1,384.2,71.6z"/>
<path class="st4" d="M77.5,31c19.1,0,37.7,0,56.2,0c0,0.1,0.1,0.2,0.1,0.3c-4.1,0.9-8.1,1.9-12.2,2.8c-11.2,2.5-22.5,5-33.6,7.7
	c-1.7,0.4-2.5,0-3.4-1.3C82.4,37.4,80,34.4,77.5,31z"/>
<path class="st5" d="M384,84.5c0.6-4,1.2-7.3,1.6-10.7c0.2-1.6,0.8-2.2,2.4-2.2c6.4,0.1,12.7,0,19.3,0.5
	C399.6,76.2,392,80.2,384,84.5z"/>
<path class="st6" d="M83.9,42.3c-7.7-0.3-14.7-0.6-22.4-1c4.8-3.6,9-6.7,13.3-9.8c1-0.7,1.5,0.3,1.9,0.8
	C78.9,35.4,81.2,38.6,83.9,42.3z"/>
<path class="st3" d="M156.9,94.3c2.7-0.1,5.3,0,8,0c1.1,0,2.2,0,3.2,0c8.6,0,9.6-1,9.1-9.9c-0.3-4.7-1.9-8.9-6.3-11.4
	c-8.5-5-22.1-0.8-26.1,8.2c-2.2,5.1-3.2,10.6-3,16.1c0.2,6.8,5.2,12.1,12,12.8c5.5,0.6,11,0,16.4-1.6c1.4-0.4,2.2-1.2,2.4-2.6
	c0.1-1.2,0.3-2.3,0.6-3.5c0.5-2.2,0-3.2-2.6-3c-3.7,0.4-7.5,0.4-11.2,0.5c-1.3,0-2.6-0.1-3.7-0.8c-1.5-0.9-1.6-2.4-1.4-3.9
	C154.5,93.6,156,94.3,156.9,94.3z M161.5,80.8c2.8,0,4.7,2.7,3.8,5.3c-0.2,0.8-0.7,1.1-1.5,1.1c-2.7,0-5.4,0-8.2,0
	C156.5,82.8,158.4,80.7,161.5,80.8z"/>
<path class="st3" d="M193,94.3c2.7-0.1,5.3,0,8,0c1,0,2,0,3,0c9.2,0,9.8-0.6,9.3-10c-0.2-4.8-2-8.8-6.3-11.4
	c-7.6-4.5-20.3-1.3-24.9,6.2c-2.9,4.8-3.6,10.2-4.1,15.6c-0.7,8.9,4.9,15.2,13.5,15.5c3.5,0.1,7.1,0,10.6-0.7
	c6.4-1.2,6.4-1.3,7.3-7.8c0.3-2-0.4-2.4-2.2-2.3c-3.9,0.3-7.9,0.4-11.8,0.5c-1.3,0-2.6-0.1-3.7-0.8c-1.6-0.9-1.6-2.5-1.4-3.9
	C190.6,93.5,192.1,94.3,193,94.3z M193,83.3c1.3-2,3.2-2.8,5.5-2.4c1.6,0.3,2.6,1.4,2.8,3c0.3,2.1,0.2,3.8-2.7,3.4
	c-0.8-0.1-1.6,0-2.3,0c-0.5,0-1,0.1-1.5,0c-1-0.1-2.6,0.6-2.9-0.4C191.5,85.7,192.3,84.4,193,83.3z"/>
<path class="st3" d="M345.8,94.3c2.7-0.1,5.3,0,8,0c1.3,0,2.6,0,3.8,0c8.5,0,8.5,0,8.5-8.7c0-5.3-1.6-9.8-6.2-12.6
	c-8.2-5-21.6-1-25.8,7.7c-2.4,5-3.2,10.4-3.3,15.8c-0.1,8,5.5,13.5,13.5,13.8c3.3,0.2,6.7,0,10-0.6c6.8-1.2,6.8-1.2,7.9-7.9
	c0.3-2-0.3-2.4-2.1-2.3c-3.9,0.2-7.9,0.3-11.8,0.5c-1.3,0.1-2.6-0.1-3.7-0.8c-1.5-0.9-1.7-2.4-1.5-3.9
	C343.5,93.6,344.9,94.3,345.8,94.3z M346.1,82.9c1.3-1.8,3.2-2.6,5.4-2c1.6,0.4,2.5,1.4,2.8,3c0.3,2.1,0,3.7-2.8,3.3
	c-0.7-0.1-1.4,0-2,0c-0.5,0-1,0.1-1.5,0c-1.1-0.2-2.7,0.6-3.2-0.5C344.3,85.4,345.3,84,346.1,82.9z"/>
<path class="st3" d="M256.5,71c-4.8-1-9.6-0.5-14.4,0.2c-5.1,0.7-5.4,1.1-6.2,6.1c-0.6,4-0.6,4.1,3.3,3.8c1.2-0.1,2.4-0.1,3.3-0.2
	c2.5,0,4.7-0.1,7,0c2,0.2,2.4,1.6,2.4,3.4c0,2-1.1,2.1-2.7,2.1c-3.7-0.1-7.3,0.3-10.8,1.3c-6.6,1.9-10.4,9.3-8.3,16.1
	c1.5,5.1,7.4,7.1,14.2,4.9c0.6-0.2,1.1-0.4,1.7-0.6c1.2-0.4,2.7-2.5,3.4,0.5c0.1,0.2,1.3,0.3,1.9,0.3c2.2,0,4.3-0.1,6.5,0
	c1.9,0.1,2.9-0.5,3.1-2.6c0.4-3.2,1.2-6.4,1.6-9.6c0.8-5.3,2.3-10.6,2.3-16C264.8,75.6,261.7,72.1,256.5,71z M245.5,100.6
	c-1.7,0-3.2-0.3-3.2-2.5c0-3.1,1.9-4.7,5.9-4.8c0.7,0.5,2.4-1,2.4,1.2C250.6,99,249.4,100.6,245.5,100.6z"/>
</svg>
