<?xml version="1.0" encoding="utf-8"?>
<!-- Generator: Adobe Illustrator 22.0.1, SVG Export Plug-In . SVG Version: 6.00 Build 0)  -->
<svg version="1.1" id="Layer_1" xmlns="http://www.w3.org/2000/svg" xmlns:xlink="http://www.w3.org/1999/xlink" x="0px" y="0px"
	 viewBox="0 0 640 480" style="enable-background:new 0 0 640 480;" xml:space="preserve">
<style type="text/css">
	.st0{fill:#F7DF1E;}
</style>
<path class="st0" d="M80.7,2.5c0-1.5,0.3-1.8,1.8-1.8c158.6,0,317.2,0,475.7,0c1.5,0,1.8,0.3,1.8,1.8c0,158.6,0,317.2,0,475.7
	c0,1.5-0.3,1.8-1.8,1.8c-79.3,0-158.6,0-237.9,0s-158.6,0-237.9,0c-1.5,0-1.8-0.3-1.8-1.8L80.7,2.5L80.7,2.5z"/>
<path d="M445,218.3c12.6,0,23.8,1.6,34.4,6.6c13.1,6.1,22.4,16.2,29.6,28.5c0.5,0.9,0.4,1.2-0.4,1.7c-11,7.1-22.1,14.1-33,21.3
	c-1.1,0.7-1.3,0-1.7-0.7c-2.7-4.6-5.6-8.9-9.9-12.1c-8.5-6.4-18-7.7-27.8-4.1c-15.3,5.5-15.3,25.5-5,33.7c5.3,4.2,11.2,7.1,17.3,9.8
	c11.6,5.2,23.4,9.8,34.6,15.9c7.7,4.2,14.9,8.9,21.3,15c11,10.4,16.8,23.2,18.1,38.2c1,11.1,0.1,21.9-4.2,32.3
	c-6.2,15-17.3,24.9-31.9,31.2c-14.6,6.3-29.9,7.9-45.5,7c-13.5-0.8-26.4-3.7-38.6-9.8c-15.5-7.8-27.2-19.3-35.4-34.6
	c-0.6-1.1-0.5-1.6,0.6-2.3c11.3-6.5,22.6-13,33.8-19.6c1.2-0.7,1.7-0.5,2.4,0.6c4.9,7.7,10.7,14.6,18.6,19.4
	c8.9,5.4,18.7,7,28.9,6.3c4.6-0.3,9-1.4,13.3-3.2c16.8-7.3,17.1-27.3,4.2-36.5c-6.4-4.6-13.5-7.7-20.6-10.8
	c-10.4-4.7-21.1-8.7-31.1-14.3c-7.9-4.4-15.3-9.6-21.6-16.3c-9.4-10.1-14.2-22.1-15.5-35.7c-1-11,0-21.7,4.6-31.8
	c7.6-17,21-27.2,38.5-32.4C430.5,219.1,438.2,218.2,445,218.3z"/>
<path d="M341.7,302.5c0,25.2,0.1,50.3,0,75.5c-0.1,11.6-2.3,22.7-7.5,33.1c-7.3,14.4-19,23.6-34.5,27.9c-19.9,5.5-39.6,5-58.7-3.3
	c-15.3-6.7-26-18.4-33.4-33.2c-0.4-0.9-0.3-1.3,0.5-1.9c11.5-6.9,23-13.9,34.4-20.9c1.1-0.7,1.5-0.1,1.9,0.7
	c2.1,3.8,4.4,7.5,6.9,10.9c8.4,11.2,20.4,13.1,32.7,9.1c7-2.3,10.1-8.1,11.6-14.8c1-4.3,1.1-8.7,1.1-13.1c0-49.6,0-99.3,0-148.9
	c0-2.8,0-2.8,2.9-2.8c13.4,0,26.8,0,40.1,0c1.7,0,2.1,0.5,2,2.1C341.8,249.4,341.8,276,341.7,302.5L341.7,302.5z"/>
</svg>
