<svg version="1.1" id="Layer_1" xmlns="http://www.w3.org/2000/svg" xmlns:xlink="http://www.w3.org/1999/xlink" x="0px" y="0px"
	 viewBox="0 0 500 500" style="enable-background:new 0 0 500 500;" xml:space="preserve">
<path d="M109.6,245.8h-5c-2,20.5-4.8,45.4-40.2,45.4H48.2c-9.4,0-9.8-1.4-9.8-8V176.5c0-6.8,0-9.6,18.9-9.6h6.6v-6
	c-7.2,0.6-25.3,0.6-33.5,0.6c-7.8,0-23.5,0-30.3-0.6v6h4.6c15.5,0,15.9,2.2,15.9,9.4v105.4c0,7.2-0.4,9.4-15.9,9.4H0v6.2h104.2
	L109.6,245.8z"/>
<path d="M106.2,160.6c-0.8-2.4-1.2-3.2-3.8-3.2c-2.6,0-3.2,0.8-4,3.2l-32.3,81.9c-1.4,3.4-3.8,9.6-16.3,9.6v5h31.1v-5
	c-6.2,0-10-2.8-10-6.8c0-1,0.2-1.4,0.6-2.8l6.8-17.3h39.8l8,20.5c0.4,0.8,0.8,1.8,0.8,2.4c0,4-7.6,4-11.4,4v5H155v-5h-2.8
	c-9.4,0-10.4-1.4-11.8-5.4L106.2,160.6z M98.2,174.9l17.9,45.4H80.3L98.2,174.9z"/>
<path d="M267.1,162H144.8l-3.6,45h4.8c2.8-32.3,5.8-39,36.1-39c3.6,0,8.8,0,10.8,0.4c4.2,0.8,4.2,3,4.2,7.6v105.4
	c0,6.8,0,9.6-21.1,9.6h-8v6.2c8.2-0.6,28.5-0.6,37.8-0.6s29.9,0,38.2,0.6v-6.2h-8c-21.1,0-21.1-2.8-21.1-9.6V176.1
	c0-4,0-6.8,3.6-7.6c2.2-0.4,7.6-0.4,11.4-0.4c30.1,0,33.1,6.6,35.9,39h5L267.1,162z"/>
<path d="M374.7,291h-5c-5,30.7-9.6,45.4-44,45.4h-26.5c-9.4,0-9.8-1.4-9.8-8v-53.4h17.9c19.5,0,21.7,6.4,21.7,23.5h5v-53h-5
	c0,17.1-2.2,23.3-21.7,23.3h-17.9v-48c0-6.6,0.4-8,9.8-8h25.7c30.7,0,35.9,11,39.2,39h5l-5.6-45H251v6h4.6c15.5,0,15.9,2.2,15.9,9.4
	v104.8c0,7.2-0.4,9.4-15.9,9.4H251v6.2h115.3L374.7,291z"/>
<path d="M435.1,220.1l27.5-40.2c4.2-6.4,11-12.9,28.9-13.1v-6h-47.8v6c8,0.2,12.4,4.6,12.4,9.2c0,2-0.4,2.4-1.8,4.6l-22.9,33.7
	l-25.7-38.6c-0.4-0.6-1.4-2.2-1.4-3c0-2.4,4.4-5.8,12.9-6v-6c-6.8,0.6-21.5,0.6-29.1,0.6c-6.2,0-18.7-0.2-26.1-0.6v6h3.8
	c11,0,14.9,1.4,18.7,7l36.7,55.6l-32.7,48.4c-2.8,4-8.8,13.3-28.9,13.3v6.2h47.8v-6.2c-9.2-0.2-12.7-5.6-12.7-9.2
	c0-1.8,0.6-2.6,2-4.8l28.3-42l31.7,47.8c0.4,0.8,1,1.6,1,2.2c0,2.4-4.4,5.8-13.1,6v6.2c7-0.6,21.7-0.6,29.1-0.6
	c8.4,0,17.7,0.2,26.1,0.6v-6.2h-3.8c-10.4,0-14.7-1-18.9-7.2L435.1,220.1z"/>
</svg>
