<?xml version="1.0" encoding="utf-8"?>
<!-- Generator: Adobe Illustrator 22.0.1, SVG Export Plug-In . SVG Version: 6.00 Build 0)  -->
<svg version="1.1" id="Layer_1" xmlns="http://www.w3.org/2000/svg" xmlns:xlink="http://www.w3.org/1999/xlink" x="0px" y="0px"
	 viewBox="0 0 500 500" style="enable-background:new 0 0 500 500;" xml:space="preserve">
<style type="text/css">
	.st0{fill:#ADD5EC;}
	.st1{fill:#0A2431;}
</style>
<g id="XMLID_6_">
	<rect id="XMLID_3_" y="1" class="st0" width="499" height="499"/>
	<rect id="XMLID_5_" x="22" y="23" class="st1" width="455.1" height="455.1"/>
	<g id="XMLID_9_">
		<g>
			<path id="XMLID_25_" class="st0" d="M139.2,347c-2.4,0-3-1-3-3.4V120.9c0-1.7,0.6-2.7,2.4-2.7h31.3c1.5,0,2.1,0.7,2.1,2.4v193.2
				h86.5c1.8,0,2.1,1,1.8,2.7l-4.4,28.2c-0.6,2.1-1.5,2.4-3,2.4H139.2z"/>
		</g>
	</g>
	<g id="XMLID_1_">
		<path id="XMLID_30_" class="st0" d="M364.6,175.7c1.2-0.1,2.8,0,4,0.3c1.5,0.3,1.9,0.7,1.9,3.4v27.6c0,1.7-0.6,2.4-2.5,2.4
			c-17.6-0.7-26-1.2-38.6,3.9v131.3c0,2.1-0.6,2.7-2.5,2.7h-32.5c-1.9,0-2.5-0.7-2.5-2.7V229c0-15.1-0.6-26.5-1.5-37.8
			c-0.3-1.4,0.3-2.1,1.9-2.1C292.3,189.1,322.3,178,364.6,175.7z"/>
	</g>
</g>
</svg>
