<svg version="1.1" id="Layer_1" xmlns="http://www.w3.org/2000/svg" xmlns:xlink="http://www.w3.org/1999/xlink" x="0px" y="0px"
	 viewBox="0 0 1280 1024" style="enable-background:new 0 0 1280 1024;" xml:space="preserve">
<polygon class="st10" points="645,147.7 128.8,58.1 638.2,0 1154.5,59.2 "/>
<path d="M125.5,56.2v697.6L643.9,1024V146.1L125.5,56.2z M335.6,726c-43.5-20.2-80.3-52.8-97.9-75.6l13.5-41.5
	c14,17.1,47.7,49.2,83.9,65.3c71,31.1,93.8-13.5,92.7-54.4c-0.5-68.9-53.4-117.1-105.7-135.2l-29-10.4v-46.6l29,9.3
	c38.9,13,90.7,5.2,90.7-52.3c0-38.9-21.2-78.8-72-92.2c-31.1-8.3-60.6,0.5-76.7,10.4l-13-48.2c19.2-12.4,57.5-21.2,100-10.9
	c81.9,19.2,120.7,87,120.7,147.7c0,51.3-26.9,86.5-79.3,90.7v1.6c52.3,30.1,96.9,91.7,96.9,162.7C489.4,726.5,434.5,771.6,335.6,726
	z"/>
<path d="M784.7,277.5c27.2-12.6,59.2-25.1,92.7-33c58.6-13.6,99-2.1,124.6,30.9c25.7,31.9,40.3,82.7,40.3,158.6
	c0,77-14.1,146.1-40.8,201.1c-27.8,57.6-74.3,103.7-136.7,132.5c-30.9,14.1-57.1,24.1-79.6,30.9v-521H784.7z M832.4,726.2
	c11-1.6,26.7-7.9,43.5-15.2c86.9-38.2,130.9-131.9,130.9-261.3c0.5-113.6-38.7-175.4-124.1-153.4c-22,5.8-38.7,13.1-50.3,19.9V726.2
	z"/>
</svg>
