<svg version="1.1" id="Layer_1" xmlns="http://www.w3.org/2000/svg" xmlns:xlink="http://www.w3.org/1999/xlink" x="0px" y="0px"
	 viewBox="0 0 500 500" style="enable-background:new 0 0 500 500;" xml:space="preserve">
<path id="XMLID_9_" class="st0" d="M102.8,286.1V70.5L293.5,0l103.7,33.2v290.3l-103.7,31.2L102.8,286.1l190.8,23v-251l-124.4,29
	v170L102.8,286.1z"/>
<g>
	<path class="offst0" d="M120.8,500c-15,0-27-4.9-36-14.8c-9-9.9-13.5-22.8-13.5-38.6c0-17,4.6-30.6,13.8-40.7
		c9.2-10.1,21.7-15.2,37.6-15.2c14.6,0,26.4,4.9,35.3,14.8c8.9,9.8,13.4,22.7,13.4,38.6c0,17.3-4.6,30.9-13.7,41
		C148.4,495,136.1,500,120.8,500L120.8,500z M121.7,401.9c-11.1,0-20.1,4-27.1,12c-6.9,8-10.4,18.5-10.4,31.6
		c0,13,3.4,23.5,10.1,31.5c6.8,7.9,15.6,11.9,26.5,11.9c11.6,0,20.8-3.8,27.4-11.4c6.7-7.6,10-18.2,10-31.8c0-14-3.2-24.8-9.7-32.4
		C142,405.7,133.1,401.9,121.7,401.9L121.7,401.9z"/>
	<path id="XMLID_6_" class="offst0" d="M215.3,384.7c-6.8,0-12.5,2.3-17.1,6.9c-4.6,4.6-6.9,10.9-6.9,18.8v12.2h-12.9V433h12.9v65.2h12
		V433h29.5v65.2h12V433h17.7v-10.4h-17.7V411c0-10.7,4.2-16,12.7-16c3,0,5.7,0.6,8,1.9v-10.9c-2.2-0.9-5.1-1.4-8.7-1.4
		c-6.8,0-12.6,2.3-17.2,6.9c-4.6,4.6-6.9,10.9-6.9,18.8v12.2h-29.5V411c0-10.7,4.2-16,12.7-16c3,0,5.7,0.6,8,1.9v-10.9
		C222,385.2,219,384.7,215.3,384.7L215.3,384.7z"/>
	<path class="offst0" d="M280.2,403.5c-2.2,0-4-0.7-5.5-2.2c-1.5-1.5-2.3-3.3-2.3-5.6c0-2.3,0.8-4.1,2.3-5.6c1.5-1.5,3.4-2.3,5.5-2.3
		c2.2,0,4.1,0.8,5.6,2.3c1.5,1.5,2.3,3.4,2.3,5.6c0,2.2-0.8,4-2.3,5.5C284.3,402.7,282.4,403.5,280.2,403.5L280.2,403.5z
		 M286.1,498.2H274v-75.6h12.1V498.2z"/>
	<path id="XMLID_3_" class="offst0" d="M354.8,494.7c-5.8,3.5-12.7,5.2-20.7,5.2c-10.8,0-19.5-3.5-26.1-10.5c-6.6-7-9.9-16.1-9.9-27.3
		c0-12.4,3.6-22.4,10.7-30c7.1-7.6,16.7-11.3,28.6-11.3c6.6,0,12.5,1.2,17.6,3.7V437c-5.6-3.9-11.6-5.9-18-5.9
		c-7.7,0-14.1,2.8-19,8.3c-4.9,5.5-7.4,12.8-7.4,21.8c0,8.9,2.3,15.8,7,21c4.6,5.1,10.9,7.7,18.7,7.7c6.6,0,12.8-2.2,18.6-6.6
		L354.8,494.7z"/>
	<path class="offst0" d="M428.8,463.5h-53.3c0.2,8.4,2.5,14.9,6.8,19.5c4.3,4.6,10.3,6.9,17.9,6.9c8.5,0,16.3-2.8,23.5-8.4v11.4
		c-6.6,4.8-15.4,7.2-26.3,7.2c-10.7,0-19.1-3.4-25.2-10.3c-6.1-6.9-9.1-16.5-9.1-29c0-11.8,3.3-21.3,10-28.7
		c6.7-7.4,14.9-11.1,24.8-11.1c9.9,0,17.5,3.2,22.9,9.6c5.4,6.4,8.1,15.3,8.1,26.6L428.8,463.5z M416.4,453.2c0-7-1.7-12.4-5.1-16.3
		c-3.3-3.9-7.9-5.8-13.8-5.8c-5.7,0-10.6,2-14.5,6.1c-4,4.1-6.4,9.4-7.4,16L416.4,453.2z"/>
</g>
</svg>
