<?xml version="1.0" encoding="utf-8"?>
<!-- Generator: Adobe Illustrator 22.0.1, SVG Export Plug-In . SVG Version: 6.00 Build 0)  -->
<svg version="1.1" id="Layer_1" xmlns="http://www.w3.org/2000/svg" xmlns:xlink="http://www.w3.org/1999/xlink" x="0px" y="0px"
	 viewBox="0 0 640 480" style="enable-background:new 0 0 640 480;" xml:space="preserve">
<style type="text/css">
	.st0{fill:#8993BE;}
	.st1{fill:#232531;}
</style>
<path class="st0" d="M291.2,73.4c18.9,0,37.9,0,56.8,0c0.4,0.6,1.1,0.7,1.7,0.7c10.5,0.5,21,1.3,31.5,2.4
	c43.5,4.4,86.1,13.3,127,28.8c31.9,12.1,61.9,27.5,87.5,50.3c21.5,19.2,38.5,41.2,42.7,70.9c0.1,0.9,0.4,1.5,1.5,1.3
	c0,8.3,0,16.5,0,24.8c-1.1,0.4-1.1,1.5-1.2,2.3c-3.9,21.7-14.7,39.9-29.3,56c-21.2,23.3-47.2,39.8-75.5,52.9
	c-55.7,25.8-114.8,37.6-175.6,41.5c-36.9,2.4-73.8,1.4-110.6-3.1c-41.2-5-81.4-14-120.1-29.2c-32-12.5-62-28.6-87.3-52.2
	C20.8,302.6,6,281.4,1.1,254.5c-0.1-0.8-0.2-1.6-1.1-1.9c0-8.3,0-16.5,0-24.8c1.8-7,3.6-14,6.3-20.8c9.4-23.6,25.6-41.9,45.1-57.6
	c26.6-21.4,56.9-36,88.9-47.3c44.5-15.7,90.6-24,137.6-27.3C282.3,74.5,286.9,75.1,291.2,73.4z"/>
<g>
	<path class="st1" d="M463.2,165.2c11.5,0.3,25.8-0.7,40.1,0.5c11,0.9,21.6,3.6,30.8,10c10.5,7.3,16,17.8,17.5,30.2
		c3.9,32.1-9.5,64.8-39.6,81.6c-11,6.2-22.8,9.4-35.5,9.3c-12.5-0.1-25.1,0.2-37.6-0.1c-4.2-0.1-5.4,1.4-6,5.1
		c-2.1,12.3-4.7,24.6-6.9,36.9c-0.5,3-1.6,4.2-4.8,4.1c-11.2-0.2-22.4-0.1-33.6,0c-2.9,0-4.1-0.5-3.4-3.8
		c11.3-56.6,22.4-113.1,33.5-169.7c0.6-3.3,1.9-4.3,5.2-4.2C435.5,165.3,448,165.2,463.2,165.2z M471.6,198.4v-0.1
		c-4.9,0-9.9,0.1-14.8-0.1c-2.3-0.1-3.2,0.7-3.6,3c-3.2,19.8-6.5,39.7-9.9,59.5c-0.5,2.8,0.6,3.4,3.1,3.3c6.9-0.1,13.9,0.3,20.8-0.1
		c12.4-0.8,24.1-3.5,32-14.3c5.9-8,7.5-17.4,8.9-27c2.5-16.4-9-23.3-21.4-24.2C481.7,198.1,476.6,198.4,471.6,198.4z"/>
	<path class="st1" d="M169.6,165.2c11.6,0.3,26-0.8,40.4,0.5c14.2,1.3,27.5,5.2,37.5,16.4c6.2,6.9,9.4,15.1,10.4,24.2
		c4.9,41.7-19.4,78.6-57.6,88.5c-5.3,1.4-10.7,2.1-16.2,2.1c-13.5-0.1-26.9,0.1-40.4-0.1c-2.6,0-3.6,0.7-4.1,3.4
		c-2.4,13.2-5.1,26.4-7.5,39.6c-0.4,2.3-1.3,3.1-3.6,3.1c-11.7-0.1-23.5-0.1-35.2,0c-3.4,0-3.2-1.7-2.8-4
		c5.7-28.5,11.3-56.9,16.9-85.4c5.5-28.1,11.1-56.1,16.5-84.2c0.6-3,1.6-4.2,4.8-4.1C141.5,165.3,154.2,165.2,169.6,165.2z
		 M163.2,264c5.8-0.1,11.7,0.2,17.5-0.8c12-2.1,22-7,27.8-18.4c3.7-7.4,5.4-15.3,5.9-23.4c0.9-12.7-4.4-19.9-17-22.2
		c-11.7-2.1-23.6-0.5-35.5-0.9c-2.2-0.1-2.2,1.6-2.4,2.9c-0.8,4.6-1.5,9.2-2.3,13.8c-2.5,15.1-5,30.2-7.6,45.2
		c-0.5,2.9,0,4.1,3.2,3.8C156.3,263.8,159.7,264,163.2,264z"/>
	<path class="st1" d="M364.3,296.8c-5.9,0-11.7-0.2-17.6,0.1c-3.5,0.2-4.2-0.8-3.5-4.2c4.8-24.4,9.4-48.9,14-73.4
		c0.7-3.9,1.7-7.8,1.6-11.9c-0.1-5-1.8-7.2-6.7-8.5c-2.1-0.6-4.2-0.6-6.3-0.7c-10,0-20,0.1-30-0.1c-2.9,0-4.1,0.8-4.7,3.8
		c-5.9,30.3-12.1,60.6-18.1,90.9c-0.6,2.8-1.4,4-4.5,3.9c-11.3-0.2-22.7-0.2-34,0c-3.3,0.1-3.9-0.8-3.2-4
		c9-45.2,17.9-90.4,26.9-135.6c2.3-11.5,4.6-23,6.7-34.5c0.5-2.7,1.4-3.7,4.3-3.7c11.6,0.2,23.2,0.1,34.8,0c2.7,0,3.3,0.6,2.7,3.3
		c-2.6,12.7-4.8,25.4-7.4,38c-0.7,3.6-0.1,4.8,3.8,4.7c12.8,0,25.6-0.7,38.4,0.4c11,0.9,21.6,3.5,30.5,10.7c9,7.3,12,17.2,10.1,28.3
		c-4.8,29.4-10,58.8-14.9,88.2c-0.5,3.1-1.6,4.2-4.8,4C376.3,296.6,370.3,296.8,364.3,296.8z"/>
</g>
</svg>
