<?xml version="1.0" encoding="utf-8"?>
<!-- Generator: Adobe Illustrator 22.0.1, SVG Export Plug-In . SVG Version: 6.00 Build 0)  -->
<svg version="1.1" id="Layer_1" xmlns="http://www.w3.org/2000/svg" xmlns:xlink="http://www.w3.org/1999/xlink" x="0px" y="0px"
	 viewBox="0 0 500 500" style="enable-background:new 0 0 500 500;" xml:space="preserve">
<style type="text/css">
	.st0{fill:#FFFFFF;}
	.st1{fill:#5E87A1;}
	.st2{fill:#F49722;}
</style>
<rect x="0.3" y="0.3" class="st0" width="499.7" height="499.7"/>
<path class="st1" d="M109.8,294.8c-1.5,0.9-1.6,2.1-2,3.3c-8,25.1-16.1,50.1-24,75.2c-0.8,2.5-1.6,3.7-4.4,3.4
	c-3.2-0.5-7.1,1.2-9.4-0.5c-2.5-1.8-2.5-6-3.4-9.2c-7.4-23.1-14.7-46.2-22.1-69.4c-0.2-0.7-0.5-1.5-1.7-2.1
	c-0.3,2.9-0.6,5.5-0.8,8.3c-1.5,23.5-2.6,46.9-2.7,70.4c0,2.1-0.6,2.5-2.5,2.5c-3.7-0.2-7.6-0.2-11.3,0c-1.8,0.1-2.1-0.6-2.1-2.3
	c1.2-32.6,3.3-65.3,7.3-97.7c0.6-5.4-0.5-4.4,5.1-4.5c4.6-0.1,9.3,0.2,13.9-0.1c2.4-0.1,3.4,0.7,4.1,3c7.4,23.1,15.1,46.1,22.6,69.2
	c0.5,1.4,0.9,2.6,1.5,4c1.5-0.5,1.4-1.7,1.6-2.6c7.7-23.1,15.4-46.5,23-69.7c0.9-2.9,2.1-3.9,5.2-3.7c4.6,0.3,9.3,0.2,13.9,0
	c2.3-0.1,3,0.8,3.1,2.8c1.2,11.2,2.5,22.2,3.4,33.5c2,21.2,3.4,42.3,4.1,63.5c0.2,5.6,0.5,4.6-4.5,4.7c-3.4,0.1-6.9-0.1-10.3,0.1
	c-1.8,0.1-2.4-0.5-2.5-2.5c-0.2-13.8-0.8-27.6-1.6-41.3C112.3,320.3,111.4,307.6,109.8,294.8z"/>
<path class="st2" d="M376.2,320.6c0,13.5-1.4,25.1-6.6,35.9c-2.1,4.2-4.6,8.1-8.2,11.2c-2.1,1.8-1.4,2.5,0.7,3.4
	c4.7,2.2,9.4,4.7,14.2,7c1.5,0.7,2.1,1.5,1,3.1c-1.6,2.5-3.1,5-4.4,7.5c-1,1.9-1.9,2.1-3.7,0.9c-6.5-4-13.2-7.6-19.7-11.6
	c-2-1.2-3.7-1.5-6.1-1c-8.8,1.8-17.6,1.6-26.1-1.1c-11.1-3.4-18-11.3-21.2-22.2c-5.7-19.2-6-38.4,1-57.4
	c7.6-20.9,25.1-27.7,44.5-25.7c21.6,2.3,30.2,16.8,33.3,34.2C375.8,310.7,376.4,316.4,376.2,320.6z M309.8,323.4
	c0.1,9.7,0.5,19.3,4.4,28.5c3.7,8.6,10.2,12.9,19.6,13.2c9.8,0.2,16.3-4.4,20.3-13c2.7-6,3.7-12.5,4.2-19.1
	c0.8-11.8,0.5-23.7-3.6-35c-2.2-6.1-5.9-11.2-12.3-13.2c-12.2-3.9-23.6-0.3-28.8,12.8C310.3,305.8,309.7,314.6,309.8,323.4z"/>
<path class="st1" d="M343.5,193.5c4.4,12.5,10.5,24.1,17.9,34.9c1,1.5,2.1,3,3.2,4.4c0.4,0.5,1.1,1,0.5,1.6
	c-0.5,0.5-1.2,0.2-1.7-0.3c-5.7-4.9-11.5-9.9-15.1-16.7c-1.5-2.8-2.9-5.7-4.7-9.3c-1.2,3.2-1.5,5.8-1.8,8.4c-0.3,1.9-0.5,3.9-1,5.7
	c-1.5,5.4-6.6,7.2-11.3,4.1c-5-3.4-7.6-8.4-9.4-14c-3.6-11.3-3.8-22.7-0.5-34c0.9-3.2,1.2-6.6,2.7-9.6c0.5-1,0.3-1.9-0.5-2.7
	c-6.5-6.9-9.9-15.4-12.3-24.2c-2.5-9-7.2-16.4-13-23.5c-2-2.5-3.7-5-4.7-8.1c-2.6-7.7,2.5-14.8,10.6-14.3c8.3,0.5,15.4,4.1,21.8,9
	c2.9,2.2,5.6,3.4,9.4,3.5c8.6,0.2,16.7,2.8,24.1,7.3c19,11.4,34.5,26.1,45.5,45.4c4.7,8.3,7.4,17.4,11.7,26
	c2.7,5.4,5.4,10.9,7.9,16.3c1.4,2.8,3.3,4.7,6.4,5.9c13.4,4.9,24.7,13.2,35.2,22.5c2,1.8,3.4,4.1,5.3,6.2c1.2,1.4,0.7,2-0.8,2.5
	c-4.4,1.5-8.9,1.8-13.3,2.6c-3.6,0.5-7.1,1.7-10.7,2.5c-1.9,0.5-1.2,1.5-0.6,2.4c1.5,2.1,3.4,3.6,5.7,4.7
	c9.8,4.9,17.2,12.5,24.1,20.6c0.5,0.5,1,1.2,1.3,1.8c0.4,0.8,0,1.3-0.9,1c-0.2-0.1-0.4-0.2-0.5-0.4c-9.1-8.4-21.5-11.4-31-19.1
	c-4-3.1-7.2-6.7-9.4-11.3c-1.3-2.6-0.2-3.4,2-4.2c7.6-3,15.6-4.2,23.7-4.4c0.8,0,2.1,0.8,2.5-0.6c0.2-0.9-0.7-1.5-1.5-2
	c-10-6.5-19-15-31-17.6c-7.5-1.6-12.1-6-15-12.8c-4.7-11-10.1-21.7-14.8-32.7c-6-14-15.4-25.7-26.7-35.8c-4.7-4.3-9.9-8-15.3-11.4
	c-9-5.7-18.6-9.5-29.4-9.3c-2.7,0.1-4.7-1.1-6.6-2.7c-5.1-4.5-11.4-6.9-17.7-9.2c-2.1-0.7-4.4-1-6,0.9c-1.6,1.8-0.9,4.1,0,6.1
	c1.5,3.3,3.9,5.9,6.2,8.6c5.4,6.7,9.1,14.3,11.4,22.6c1.7,6.3,3.9,12.3,7.7,17.7c0.5,0.6,0.8,1.5,1.4,1.8c5.1,3.5,4.4,8.2,2.5,13
	c-3.6,8.3-4.4,16.8-3.7,25.7c0.5,6.1,2.1,11.8,4.9,17.3c0.2,0.5,0.5,0.9,0.8,1.4c1.1,1.5,2.5,3.4,4.3,2.9c1.5-0.5,1-2.6,1.2-4.1
	C334.9,208.2,336,199.8,343.5,193.5z"/>
<path class="st2" d="M249.2,378c-10.3,0-19.4-3.2-28.1-8.4c-1.6-1-1.9-1.9-1-3.6c1.2-2.1,1.7-5,3.4-6c1.8-1.2,4.2,1.3,6.4,2.1
	c8,3,16.1,4.7,24.5,2.4c6.3-1.8,10.7-5.6,11.9-12.2c1.2-6.2-1.8-11-6.4-14.5c-8-6.1-17.2-10.1-25.8-15.3
	c-6.9-4.1-12.2-9.6-13.3-17.7c-2.8-19.4,8.6-30.7,24.4-33.4c10.9-1.8,21.3,0.3,31.1,5.7c1.9,1.1,2.5,2.1,1.4,4.1
	c-1.1,2-1.5,4.9-3.1,5.9c-1.6,1-4.1-1.2-6.2-1.6c-5.9-1.5-11.7-2.7-17.8-1.8c-6.2,1-10.6,3.9-12.5,10.1c-1.8,6.1,0.9,10.6,5.1,14.7
	c2.2,2.1,4.8,3.7,7.4,5.1c6.4,3.4,12.5,7.1,18.9,10.5c10.6,5.8,16.4,14.4,15.2,26.8c-1.3,12.3-8.3,20.4-19.7,24.8
	C260,377.3,254.6,378,249.2,378z"/>
<path class="st1" d="M176,362.9c1.5-0.8,1.5-2.3,1.9-3.4c6.3-18.1,10.6-36.6,13-55.6c0.5-3.4,1.4-5,5.1-4.4c3.2,0.5,6.4,0.2,9.7,0.1
	c1.5,0,2.3,0.3,1.9,2c-5.6,28-11.8,55.7-26.8,80.6c-4,6.6-8.9,12.5-15.3,16.8c-7.1,4.7-14.6,6.4-23.1,3.7c-2.5-0.8-3.4-1.9-3.3-4.5
	c0.2-5.8,0.1-5.8,5.9-5.4c12.4,1,22-9,18.6-21.2c-4.4-15.9-9.9-31.4-14.8-47.2c-2.3-7.3-4.7-14.6-7-21.9c-0.6-2-0.5-3,2-2.8
	c4,0.2,8,0.1,12,0c1.5,0,2.4,0.4,2.7,1.9c5.4,18.2,11.7,36,16.2,54.6C175.4,358.2,175.7,360.6,176,362.9z"/>
<path class="st2" d="M391.5,324.2c0-16.3,0.1-32.9-0.1-49.2c0-2.5,0.6-3.2,3.1-3.1c3.4,0.2,6.6,0.2,10,0c2.7-0.2,3.4,0.8,3.4,3.4
	c-0.1,28.1-0.1,56.1-0.1,84.2c0,4.2,0,4.2,4.4,4.2c8.5,0,17.1,0.2,25.6-0.1c2.7-0.1,3.4,0.8,3.1,3.3c-0.2,3.1,1,7.3-0.5,9.1
	c-1.8,2.1-6.1,0.6-9.3,0.6c-12.1,0.1-24.1-0.1-36.2,0.1c-2.6,0-3.4-0.5-3.4-3.4C391.6,357,391.5,340.6,391.5,324.2z"/>
<path class="st2" d="M464.9,368.6c0,2.1,0,4.2,0,6.4c0,0.9,0,1.7-1.3,1.7s-1.3-0.8-1.3-1.7c0-3.1,0-6,0-9.1c0-0.8-0.5-2.1,1.2-2.1
	c1.2,0,2.6-0.5,3.3,1.2c0.8,2.2,1.7,4.4,2.9,7.3c1-2.7,1.9-4.6,2.5-6.6c0.5-1.9,1.8-2.1,3.4-2c2.1,0.2,1.2,1.7,1.3,2.7
	c0.1,2.7,0.1,5.6,0,8.4c0,0.8,0.3,1.8-1.2,1.8c-1.5,0.1-1.5-0.9-1.5-1.9c0-1.8,0-3.6,0-6c-2,2-2,4.4-3.1,6.2
	c-0.4,0.7-0.4,1.8-1.6,1.7c-1.2-0.1-1.2-1-1.5-1.8c-0.8-2.1-1.6-4.2-2.5-6.3C465.3,368.6,465.1,368.6,464.9,368.6z"/>
<path class="st1" d="M328.4,128.1c3.5-1.5,6.1-0.6,8.1,1.9c1.8,2.2,2.1,4.7,0.7,7.2c-0.4,0.6-0.9,1.4-1.5,1.5
	c-0.8,0.2-1.1-0.9-1.3-1.5C333.1,133.6,330.5,131.1,328.4,128.1z"/>
<path class="st2" d="M454.5,363.7c1.2,0,2.4,0,3.5,0c0.6,0,1.4,0,1.5,0.9c0.1,0.8-0.5,1.2-1.2,1.2c-2.5-0.3-2.5,1.4-2.5,3.1
	c0.1,1.9,0.1,3.8,0,5.8c0,0.8,0.4,2.1-1.2,2.1c-1.8,0.1-1.4-1.3-1.5-2.2c-0.1-1.6,0-3.2,0-4.8c0-2,0.6-4.4-2.8-3.9
	c-0.5,0.1-1-0.3-1-0.9c-0.1-0.9,0.5-1.1,1.2-1.1C451.9,363.7,453.2,363.7,454.5,363.7z"/>
<path d="M372.2,242c-2.1-1.1-3.4-2.8-4.7-4.6C369.4,238.6,371.1,240,372.2,242L372.2,242z"/>
<path d="M372.2,242c0.5-0.2,1,0.1,1.4,0.5l0.1-0.1C373.1,242.4,372.7,242.2,372.2,242L372.2,242z"/>
<path d="M373.5,242.6c0.1,0.1,0.2,0.2,0.2,0.2C373.7,242.6,373.6,242.6,373.5,242.6C373.6,242.5,373.5,242.6,373.5,242.6z"/>
</svg>
