<svg version="1.1" id="Layer_1" xmlns="http://www.w3.org/2000/svg" xmlns:xlink="http://www.w3.org/1999/xlink" x="0px" y="0px"
	 viewBox="0 0 1280 1024" style="enable-background:new 0 0 1280 1024;" xml:space="preserve">
<g>
	<path d="M42.9,929.4c0-278.2,0-556.8,0-835.1c4.7-5,4.7-12,6.7-18c4-11,9-21.3,16.3-30.7C90.5,14,123.2,0,163.2,0
		c112.9,0.3,226.2,0,339.2,0c205.6,0,411.1,0,617,0c18.7,0,36.3,3,53,11.7C1215.7,34,1237,70.3,1237,119c0,241.6,0,482.8,0,724.4
		c0,23.3,0.3,46.7-0.3,70c-0.7,23.7-8.3,45.7-22.7,64.6c-24.7,32.3-58,46-98.3,46c-244.9-0.3-489.8,0-734.7,0
		c-73.6,0-146.9,0-220.6,0c-48.6,0-84.3-22-107-65.3C49.2,949,48.9,938,42.9,929.4z M496.5,341.9c0,114.4,0,227.1,0,340.9
		c113.7-56.7,226.1-113.1,340.9-170.4C722.3,455,609.6,398.6,496.5,341.9z M155.7,170.4c0,16.3,0.3,32.7,0,49c0,5.3,0.3,8.3,7.3,8.3
		c33-0.3,66-0.3,99.1,0c5.3,0,7.7-1,7.7-7c-0.3-33-0.3-66,0-99.1c0-6-2-8-8-8c-32.7,0.3-65.4,0.3-98.1,0c-6,0-8,2-8,8
		C156,137.8,155.7,154.1,155.7,170.4z M1066.3,226.8c16.3,0,32.7-0.3,49,0c5.7,0,8-1,8-7.7c-0.3-33-0.3-66,0-99.1
		c0-5.3-1.7-7.3-7.3-7.3c-33,0.3-66,0.3-99.1,0c-5.3,0-7.7,1.3-7.3,7.3c0.3,33,0.3,66,0,99.1c0,6.3,2,8,8,7.7
		C1033.6,226.8,1050,226.8,1066.3,226.8z M155.7,853.9L155.7,853.9c0,16,0.3,32-0.3,47.7c-0.3,6.7,1.3,9.7,8.7,9.3
		c32.4-0.3,64.7-0.3,96.7-0.3c5.7,0,8.3-1,8.3-7.7c-0.3-33-0.3-66,0-99.1c0-5.3-1.3-7.3-7.3-7.3c-33,0.3-66,0.3-99.1,0
		c-6.3,0-7.7,2-7.7,8C156,821.5,155.7,837.5,155.7,853.9z M1066.3,797.2c-16,0-32,0.3-47.7-0.3c-7.3-0.3-9.3,2-9,9
		c0.3,32,0.3,63.7,0,95.7c0,8,2.7,9.7,10,9.3c31.4-0.3,63-0.3,94.4,0c8,0,9.7-2.7,9.3-10c-0.3-31.4-0.7-63,0-94.4
		c0-8.7-3-10-10.7-9.7C1097.3,797.5,1081.6,797.2,1066.3,797.2z M838.5,171.4L838.5,171.4c0-16-0.3-32,0-47.7c0.3-7-1-10.3-9.3-10
		c-31.7,0.3-63.7,0.3-95.7,0c-6.3,0-9,1.3-8.7,8.3c0.3,32.7,0.3,65.4,0,98.1c0,5.7,1.3,8,7.7,8c33-0.3,66-0.3,99.1,0c6,0,7-2,7-7.3
		C838.2,204.1,838.5,187.8,838.5,171.4z M440.2,853.9L440.2,853.9c0,15.7,0.3,31,0,46.7c-0.3,7.7,1.3,10.7,10,10.7
		c31.4-0.7,63-0.3,94.4,0c6.7,0,9.7-1.3,9.3-8.7c-0.3-32.4-0.3-64.4,0-96.7c0-6.3-1.3-8.7-8.3-8.7c-32.7,0.3-65.4,0.3-98.1,0
		c-6.3,0-7.7,2-7.7,8C440.6,821.2,440.2,837.5,440.2,853.9z M838.5,854.6c0-16.7-0.3-33.4,0-50c0-5.3-1.3-7.3-7-7.3
		c-33,0.3-66,0.3-99.1,0c-6.3,0-7.7,2-7.7,8c0.3,32.7,0.3,65.4,0,98.1c0,5.7,1,8.3,7.7,8.3c32.7-0.3,65.4-0.3,98.1,0
		c7,0,8.3-2.7,8-9C838.2,886.2,838.5,870.6,838.5,854.6z M553.6,170.8c0-16-0.3-32,0-47.7c0.3-6.7-1.3-9.3-9-9.3
		c-32,0.3-63.7,0.3-95.7,0c-7,0-9.3,1.7-9.3,9c0.3,32.4,0.3,64.7,0,96.7c0,6.7,1.7,8.3,8.3,8.3c32.4-0.3,64.7-0.3,96.7,0
		c7.7,0,9-2.7,8.7-9.3C553.2,202.5,553.6,186.8,553.6,170.8z"/>
</g>
</svg>
