<svg version="1.1" id="Layer_1" xmlns="http://www.w3.org/2000/svg" xmlns:xlink="http://www.w3.org/1999/xlink" x="0px" y="0px"
	 viewBox="0 0 500 500" style="enable-background:new 0 0 500 500;" xml:space="preserve">
<g>
	<path id="XMLID_6_" class="vrayst0" d="M57.9,328.9l-1-3.1c-0.4-1-1.1-3.9,2.8-3.9h5.2h8.5c2.2,0,2.6,2,3.1,3l22.7,65.4
		c0,0,1.8,5.8,3.2,5.8c1.5,0,3.3-5.8,3.3-5.8l22.3-65.4c0.4-1,0.9-3,3.9-3h12.8c3.6,0,3.4,2,3,3l-1.2,3.3l-38.9,112.5
		c-0.8,3.7-10.2,3.5-10.8,0L57.9,328.9z"/>
	<path id="XMLID_7_" class="vrayst0" d="M377,444.2l-40.1-119.3c-0.4-1-0.6-3,3-3h14.9c1,0,2.4,0.5,3.1,3c0,0,25.7,77.8,26.7,80.4
		c1,2.8,1.9,5.7,3.1,5.9c1,0.1,2.1-2.2,3-4.5c1.2-3.2,31.4-81.3,31.4-81.3c0.4-1,0.7-1.8,1-2.3c0.3-0.5,1-0.7,2-0.7h9.5h5.7
		c3.8,0,3.4,2,3,3l-54,139.1L375.7,497c-0.4,1-0.8,1.7-1.2,2.1c-0.2,0.6-0.8,0.9-1.8,0.9H359c-1,0-1.9-0.3-2.7-0.9
		c-0.6-0.4-0.7-1.1-0.3-2.1L377,444.2z"/>
	<path id="XMLID_8_" class="vrayst0" d="M141,392.3c0-2.8,1-5.3,2.9-7.4c2.1-2.1,4.7-3.2,7.7-3.2c2.8,0,5.3,1.1,7.4,3.2
		c2.1,2.1,3.2,4.6,3.2,7.4c0,3-1.1,5.6-3.2,7.7c-2.1,1.9-4.6,2.9-7.4,2.9c-3,0-5.5-1-7.5-3C142.1,397.9,141,395.3,141,392.3"/>
	<path id="XMLID_9_" class="vrayst0" d="M212.8,342.2c-2.5,1-4.7,2.7-6.7,4.3c-0.6,0.4-1.2,0.9-1.8,1.5l-1.5,1.5
		c-1.8,2.2-3.2,4.6-4.2,7.3c-1.4,3.2-2.1,6.7-2.1,10.6V440c0,2-1,3-3,3h-12.1c-2,0-3-1-3-3v-72.7c0-2.8,0.2-5.7,0.6-8.5
		c0.6-3.3,1.6-6.3,3-9.1c2.4-5.7,5.6-10.5,9.7-14.6c4-4,8.8-7.3,14.2-9.7c3-1.2,6.1-2.1,9.1-2.7c1.8-0.4,3.6-0.7,5.4-0.9h3.3
		c24.5-0.6,36,14.8,39.2,17.6c1.4,1.4,1.6,3.9-0.7,5l-10.8,2.9c-3,1.2-5,0.7-7.1-1.4C243.4,345.2,229.5,335.3,212.8,342.2"/>
	<path id="XMLID_12_" class="vrayst0" d="M315.3,424.9h-32.1c-5.1-0.2-18.2-3.1-18.2-18.2c0-5.3,2.2-10.5,5.3-13.2
		c6.1-5.3,12.9-5,12.9-5h29.1c1.6,0,2.6,0.8,3,2.4V424.9z M329.8,349.6c-2.4-5.6-5.7-10.4-9.7-14.4c-4-4-18.7-16-49-11.2
		c-3,1.2-2.5,3,0.4,5.9c1.2,1.2,6.2,6.7,7.9,8.1c3.4,2.7,5.3,2.4,6.6,2.3c26.9-1.5,29.3,23.1,29.3,27v0.9c-0.4,1.4-1.4,2.1-3,2.1
		h-29.1c-4.9,0-9.5,0.9-14,2.9c-4.4,1.9-8.3,4.5-11.6,7.7c-3.4,3.2-6,7.1-7.9,11.5c-1.9,4.4-2.9,9.2-2.9,14.2
		c0,4.8,0.9,9.5,2.9,13.9c1.9,4.5,4.5,8.4,7.9,11.7c3.3,3.3,7.2,6,11.6,7.9c4.5,1.9,9.1,2.9,14,2.9h34.2h0.9h12.1c2,0,3-1,3-3v-72.7
		C333.4,361.1,332.2,355.2,329.8,349.6"/>
</g>
<path id="XMLID_17_" class="vrayst0" d="M252.6,40.3c17.3,0,31.4-4.3,31.5-9.7c0.1-5.3-13.8-9.7-31.1-9.7c-17.3,0-31.4,4.3-31.6,9.6
	C221.3,35.9,235.3,40.3,252.6,40.3 M250,229.1c-60.5,0-109.4-49-109.4-109.4c0-35.3,16.8-66.7,42.8-86.7
	c-43.8,49.4,5.2,155.9,33.4,158.8c35.2,2.2,48.5-108.9,89.8-123.2c31-11.6,54.4,34.8,40.3,87.1C332.4,200.2,295.7,228.4,250,229.1
	 M199.4,29.2c8.3-9.3,22.4-16.7,41.3-18.5c3.1-0.3,6.1-0.5,9.3-0.5c30.9,0,58.8,12.9,78.7,33.5c-2.8-0.9-6.7-2.2-14.1-2.2
	c-60.6,0-81.2,119.7-99.3,119.3C203.2,161.3,162.1,71.3,199.4,29.2 M250,2.4c-67.9,0-122.9,55-122.9,122.9
	c0,67.9,55,122.9,122.9,122.9c67.9,0,122.9-55,122.9-122.9C372.9,57.4,317.9,2.4,250,2.4"/>
</svg>
