<svg version="1.1" id="Layer_1" xmlns="http://www.w3.org/2000/svg" xmlns:xlink="http://www.w3.org/1999/xlink" x="0px" y="0px"
	 viewBox="0 0 306.7 203" style="enable-background:new 0 0 306.7 203;" xml:space="preserve">
<style type="text/css">
	.st0{fill:#FFFFFF;}
</style>
<g>
	<path class="st0" d="M291.9,39H14.8C6.6,39,0,32.4,0,24.2v-9.4C0,6.6,6.6,0,14.8,0h277.1c8.2,0,14.8,6.6,14.8,14.8v9.4
		C306.7,32.4,300.1,39,291.9,39z"/>
</g>
<g>
	<path class="st0" d="M294.5,39H12.1"/>
</g>
<g>
	<path class="st0" d="M291.9,203H14.8C6.6,203,0,196.4,0,188.2v-9.4c0-8.2,6.6-14.8,14.8-14.8h277.1c8.2,0,14.8,6.6,14.8,14.8v9.4
		C306.7,196.4,300.1,203,291.9,203z"/>
</g>
<g>
	<path class="st0" d="M291.9,121H14.8C6.6,121,0,114.4,0,106.2v-9.4C0,88.6,6.6,82,14.8,82h277.1c8.2,0,14.8,6.6,14.8,14.8v9.4
		C306.7,114.4,300.1,121,291.9,121z"/>
</g>
<g>
	<path class="st0" d="M294.5,121H12.1"/>
</g>
</svg>
