<?xml version="1.0" encoding="utf-8"?>
<!-- Generator: Adobe Illustrator 22.0.1, SVG Export Plug-In . SVG Version: 6.00 Build 0)  -->
<svg version="1.1" id="Capa_1" xmlns="http://www.w3.org/2000/svg" xmlns:xlink="http://www.w3.org/1999/xlink" x="0px" y="0px"
	 viewBox="0 0 156.9 120.6" style="enable-background:new 0 0 156.9 120.6;" xml:space="preserve">
<style type="text/css">
	.st0{fill:#49A0DD;}
	.st1{fill:#2C67AA;}
	.st2{fill:#731B2B;}
	.st3{fill:#868484;}
	.st4{fill:#CF1F65;}
</style>
<path id="path48_1_" class="st0" d="M156.4,35l-0.1-11.5l-28.6,0.2l0.1,11.5l6.5-0.1l-11.5,14.4l-11.7-14.2l6.5-0.1l-0.1-11.5
	L96.2,24l0.1,12.9l18.7,22.6L96.6,82.4l0,2.3l8.8-0.1l0.1,11.8l12.6-0.1L118,84.6l-7.3,0.1L123,69.3h0l12.5,15.1l-7.3,0.1l0.1,11.8
	l28.6-0.2l-0.1-11.8l-5.4,0l-20.6-24.9l19.4-24.3L156.4,35"/>
<path id="path52_1_" class="st1" d="M88.8,24.1l0.1,11.5l6.3-0.1l1.1,1.4L96.2,24L88.8,24.1"/>
<path id="path56_1_" class="st1" d="M96.7,84.7l0-2.3l-1.8,2.3l-5.5,0l0.1,11.8l16.2-0.1l-0.1-11.8L96.7,84.7"/>
<path id="path60_1_" class="st2" d="M43.3,79.8l10.2-0.1c-1.2,3-2.8,5.7-4.9,8.1C46.4,85.5,44.6,82.7,43.3,79.8"/>
<path id="path64_1_" class="st2" d="M43.2,64l-1.8,0c-0.3,1.6-0.4,3.2-0.4,4.8c0,1.5,0.2,3.1,0.4,4.5l1.9,0c0.4-1.4,0.6-3,0.6-4.6
	C43.9,67.2,43.7,65.6,43.2,64z M43.2,64c0.5,1.5,0.7,3.1,0.7,4.8c0,1.6-0.2,3.1-0.6,4.6l9.9-0.1c-0.4-1.4-0.7-3-0.7-4.5
	c0-1.7,0.2-3.3,0.7-4.8L43.2,64z M48.3,49.9c-2.9,3.2-5,7.1-6.2,11.3c0.5,0.9,0.9,1.9,1.2,2.9l10-0.1c0.3-1,0.7-2,1.2-2.9
	C53.2,56.8,51.1,53,48.3,49.9"/>
<path id="path68_1_" class="st3" d="M42,61.2c-0.3,0.9-0.5,1.9-0.6,2.9l1.8,0C42.9,63,42.5,62.1,42,61.2z M85.2,91.5l0,5.1l4.2,0
	l-0.1-8.8C88.1,89.2,86.7,90.4,85.2,91.5z M95.1,35.5l-6.3,0.1l-0.1-11.5L77,24.2l0.1,11.5l7.6-0.1l0.1,9.9c-4.5-3.2-9.9-5-15.9-4.9
	c-8.2,0.1-15.5,3.6-20.6,9.3c2.8,3.2,5,7,6.2,11.3c2.7-5.2,8.1-8.8,14.4-8.8c9-0.1,16.1,7.2,16.1,16.3l0,0.1c0,9-6.9,16.4-15.9,16.4
	c-6.3,0.1-11.8-3.4-14.6-8.6l0,0c-0.5-1-1-2-1.3-3.1l-11.8,0.1c0.2,1.1,0.4,2.1,0.7,3.2c0.3,1.1,0.7,2.2,1.2,3.2l10.2-0.1
	c-1.2,3-2.8,5.7-4.9,8.1c5.2,5.6,12.6,9,20.8,8.9c6,0,11.4-2,15.8-5.2c1.5-1.1,2.9-2.4,4.2-3.8l0-3l5.5,0l1.8-2.3l-0.4-45.5
	L95.1,35.5"/>
<path id="path72_1_" class="st4" d="M27.8,40.9C14,41,2.5,51.2,0.4,64.4l11.9-0.1c2-6.7,8.2-11.6,15.6-11.7
	c6.3-0.1,11.6,3.4,14.2,8.6c1.2-4.3,3.3-8.1,6.2-11.3C43.2,44.3,36,40.8,27.8,40.9z M40,79.8c-2.9,3.4-7.1,5.5-12,5.6
	c-7.5,0.1-13.8-4.9-15.8-11.7l29.2-0.2c-0.3-1.5-0.4-3-0.4-4.5c0-1.6,0.1-3.2,0.4-4.8l-41,0.3C0.1,66,0,67.6,0,69.2
	c0,1.5,0.2,3.1,0.4,4.5l0,0c2.3,13.3,13.9,23.4,27.9,23.3c8.2-0.1,15.4-3.6,20.3-9.3c-2.2-2.3-4-5-5.2-8C43.3,79.8,40,79.8,40,79.8z
	 M55.1,64c-0.2-1-0.4-1.9-0.6-2.8C53.9,62,53.6,63,53.3,64c-0.5,1.5-0.7,3.1-0.7,4.8c0,1.6,0.2,3.1,0.7,4.5l1.9,0
	c0.2-1.5,0.3-3,0.3-4.5C55.5,67.1,55.3,65.5,55.1,64"/>
</svg>
