<?xml version="1.0" encoding="utf-8"?>
<!-- Generator: Adobe Illustrator 22.0.1, SVG Export Plug-In . SVG Version: 6.00 Build 0)  -->
<svg version="1.1" id="Capa_1" xmlns="http://www.w3.org/2000/svg" xmlns:xlink="http://www.w3.org/1999/xlink" x="0px" y="0px"
	 viewBox="0 0 156.9 120.6" style="enable-background:new 0 0 156.9 120.6;" xml:space="preserve">
<style type="text/css">
	.st0{fill:#DE3340;}
	.st1{fill:#DD303F;}
	.st2{font-family:'CenturyGothic';}
	.st3{font-size:18.6873px;}
</style>
<path class="st0" d="M5.1,82.9c0-10.8,0-21.6,0-32.5c0-2,0.4-4.2-2.9-3.8c-2.3,0.3-2.4-1.3-2.2-2.9c0.2-1.5-1-4.2,2.1-4
	c3,0.2,2.4-1.9,2.7-3.5C6.2,29,9.6,25.8,16.4,25.3c1.3-0.1,3.4-1.1,3.2,1.5c-0.2,2,1.7,4.9-1.9,5.7c-2.1,0.4-3.8,1.1-4.6,3.3
	c-0.9,2.4-1.2,4.3,2.4,3.9c2.1-0.2,4.2-0.7,4.2,2.9c0,3.3-0.9,4.4-4.2,4.1c-3.9-0.4-2.6,2.7-2.6,4.5c-0.1,21.5,0,43,0,64.4
	c0,5.4-0.9,5.9-6,4.2c-2.7-0.9-2-2.8-2-4.4C5,104.5,5,93.7,5.1,82.9C5.1,82.9,5.1,82.9,5.1,82.9z"/>
<path class="st1" d="M52.5,79c-13.4,9.8-26.7,4.1-28.4-11.9c-0.8-8.2-0.3-16.6-0.5-24.9c-0.1-3.5,2.4-2.4,4.2-2.5
	c1.9-0.1,4-0.7,3.9,2.7c-0.2,5.8-0.1,11.7,0,17.5c0,2.5,0.2,5,0.7,7.4c1.1,6,3.9,8.5,9.2,8.5c5.3,0,8.9-2.9,10-8.5
	c1.5-7.8,0.6-15.6,0.6-23.4c0-3,0.5-4.4,4-4.3c3.3,0.1,4.2,0.9,4.2,4.2c-0.2,11.7-0.1,23.3-0.1,35c0,1.8,0.9,4.5-2.5,4.1
	C55.5,82.5,51.5,84.7,52.5,79z"/>
<path class="st0" d="M109,77.8c0.1-24.2,0.1-48.3,0.1-72.5c0-2.9,0.4-5.4-4.1-5.3c-4.4,0.1-3.8,2.5-3.8,5.2c0,12.6,0,25.2,0,38.6
	c-12.5-7.6-23.8-6.7-31.4,2c-7.1,8.1-7.5,21.4-0.9,29.5c8.9,10.9,22.2,10.4,32.1,3.4c-0.5,5.3,3.1,4.1,5.9,4
	C110.6,82.6,108.9,79.5,109,77.8z M86.9,76.1c-8.1-0.1-14.6-7-14.4-15.4c0.1-8,6.8-14.7,14.7-14.5c7.7,0.1,14.2,7.1,14.2,15.1
	C101.4,69.2,94.5,76.3,86.9,76.1z"/>
<path class="st1" d="M125.6,64.1c9.2-0.1,18.3-0.1,27.5,0c2.9,0,4.1-0.5,3.8-3.9c-0.9-13.5-10-22.1-23.5-21.8
	c-10.6,0.3-19.8,9-20.8,19.9c-1.1,11.9,6.1,22.6,16.8,25.1c11.5,2.6,21.8-3,25.9-14.4c-7-0.3-7-0.3-11.7,3.8
	c-6.3,5.4-16.4,3.7-20.8-3.5c-0.8-1.3-1.9-2.8-1.3-4.2C122.2,63.3,124.2,64.1,125.6,64.1z M122.9,52.9c5.3-9,18.4-9,23.6-0.1
	c1.5,2.5,2.1,4.3-2.1,4.1c-3.3-0.2-6.7,0-10,0c-3.2,0-6.3-0.2-9.5,0C120.8,57.1,121.4,55.4,122.9,52.9z"/>
<text transform="matrix(0.9155 0 -0.1337 0.991 25.7913 106.5451)" class="st0 st2 st3">by Educativo</text>
</svg>
