<?xml version="1.0" encoding="utf-8"?>
<!-- Generator: Adobe Illustrator 22.0.1, SVG Export Plug-In . SVG Version: 6.00 Build 0)  -->
<svg version="1.1" id="Layer_1" xmlns="http://www.w3.org/2000/svg" xmlns:xlink="http://www.w3.org/1999/xlink" x="0px" y="0px"
	 viewBox="0 0 111.2 107.8" style="enable-background:new 0 0 111.2 107.8;" xml:space="preserve">
<style type="text/css">
	.st0{fill:#005E60;}
</style>
<path class="st0" d="M67.9,12.3c0,6.8-5.5,12.3-12.3,12.3c-6.8,0-12.3-5.5-12.3-12.3C43.3,5.5,48.8,0,55.6,0
	C62.4,0,67.9,5.5,67.9,12.3z"/>
<path class="st0" d="M16.7,32.3c-0.1-0.6-0.6-0.9-1.2-1.1c-0.6-0.2-1.4-0.3-2.2-0.3c-1.8,0-2.7,0.3-2.7,0.9c0,2.4,14.7,0.9,14.7,6.8
	c0,3.7-4.9,5.6-12,5.6c-6.7,0-11.2-2.5-11.3-5.4h8c0.2,0.6,0.7,1,1.4,1.3c0.7,0.3,1.6,0.4,2.4,0.4c2.1,0,3.5-0.4,3.5-1.2
	c0-2.4-14.7-0.8-14.7-6.9c0-3.4,4.7-5.2,11.1-5.2c7.1,0,10.3,2.3,10.9,5.1H16.7z"/>
<path class="st0" d="M29.3,43.7V27.6h20.9v3.8H37.7v2.3h10.5v3.8H37.7v2.5h13v3.8H29.3z"/>
<path class="st0" d="M71.7,36.4l-0.3-3.7v-5.1h8v16.1h-7.9l-9.1-8.8l0.3,3.7v5.1h-8V27.6h7.9L71.7,36.4z"/>
<path class="st0" d="M82.2,43.7l9.2-16.1h8.5l9.2,16.1h-8.3l-1-2.1h-8.3l-1,2.1H82.2z M95.6,32.4L93,38.2h5.3L95.6,32.4z"/>
<polygon class="st0" points="110.9,47.2 59.7,47.2 89.5,100.2 96.1,94.5 72.2,54.6 111.2,54.5 "/>
<polygon class="st0" points="0.2,47.2 51.5,47.2 21.7,100.2 15.1,94.5 38.9,54.6 0,54.5 "/>
<polygon class="st0" points="27.4,104.4 55.3,56.2 84.1,104 76.5,107.4 56,70.7 34.1,107.8 "/>
</svg>
